M48
; DRILL file {KiCad 8.0.5} date 2025-03-25T03:55:53-0600
; FORMAT={-:-/ absolute / inch / decimal}
; #@! TF.CreationDate,2025-03-25T03:55:53-06:00
; #@! TF.GenerationSoftware,Kicad,Pcbnew,8.0.5
; #@! TF.FileFunction,Plated,1,2,PTH
FMAT,2
INCH
; #@! TA.AperFunction,Plated,PTH,ComponentDrill
T1C0.0276
; #@! TA.AperFunction,Plated,PTH,ComponentDrill
T2C0.0315
; #@! TA.AperFunction,Plated,PTH,ComponentDrill
T3C0.0354
; #@! TA.AperFunction,Plated,PTH,ComponentDrill
T4C0.0394
; #@! TA.AperFunction,Plated,PTH,ComponentDrill
T5C0.0409
; #@! TA.AperFunction,Plated,PTH,ComponentDrill
T6C0.0433
; #@! TA.AperFunction,Plated,PTH,ComponentDrill
T7C0.0512
; #@! TA.AperFunction,Plated,PTH,ComponentDrill
T8C0.0520
%
G90
G05
T1
X0.4551Y-1.3189
X0.4551Y-1.6063
X0.4551Y-1.9094
X0.6551Y-1.3189
X0.6551Y-1.6063
X0.6551Y-1.9094
T2
X0.748Y-0.1339
X0.748Y-0.2323
X0.748Y-0.3701
X0.748Y-0.4685
X0.748Y-0.6063
X0.748Y-0.7047
X0.8307Y-1.8071
X0.8307Y-1.9055
X0.8346Y-2.0591
X0.8346Y-2.1575
X2.7087Y-1.8346
X2.8071Y-1.8346
X2.9449Y-1.8346
X3.0433Y-1.8346
X3.5827Y-0.9449
X3.5827Y-1.1417
X3.5945Y-1.5472
X3.5945Y-1.7441
T3
X0.2402Y-1.315
X0.2402Y-1.6102
X0.2402Y-1.9055
X0.3402Y-1.315
X0.3402Y-1.6102
X0.3402Y-1.9055
T5
X1.1125Y-0.3378
X1.1125Y-0.4378
X1.1125Y-0.5378
X1.1125Y-0.6378
X1.1125Y-0.7378
X1.1125Y-0.8378
X1.1125Y-0.9378
X1.1125Y-1.0378
X1.1125Y-1.1378
X1.1125Y-1.2378
X1.1125Y-1.3378
X1.1125Y-1.4378
X1.1125Y-1.5378
X1.1125Y-1.6378
X1.1125Y-1.7378
X1.1125Y-1.8378
X1.1125Y-1.9378
X1.1125Y-2.0378
X1.1125Y-2.1378
X2.1125Y-0.3378
X2.1125Y-0.4378
X2.1125Y-0.5378
X2.1125Y-0.6378
X2.1125Y-0.7378
X2.1125Y-0.8378
X2.1125Y-0.9378
X2.1125Y-1.0378
X2.1125Y-1.1378
X2.1125Y-1.2378
X2.1125Y-1.3378
X2.1125Y-1.4378
X2.1125Y-1.5378
X2.1125Y-1.6378
X2.1125Y-1.7378
X2.1125Y-1.8378
X2.1125Y-1.9378
X2.1125Y-2.0378
X2.1125Y-2.1378
T6
X2.7441Y-1.5945
X2.8441Y-1.5945
X2.9441Y-1.5945
T7
X0.311Y-2.1858
X0.311Y-2.3858
X0.3661Y-0.2033
X0.3661Y-0.4033
X0.3661Y-0.6033
X0.3661Y-0.8679
X0.3661Y-1.0679
X0.6748Y-2.5433
X0.8748Y-2.5433
X1.0748Y-2.5433
X1.3565Y-2.5474
X1.5565Y-2.5474
X2.0472Y-2.4232
X2.0472Y-2.6791
X2.4094Y-2.4193
X2.4094Y-2.6752
X3.5787Y-0.3906
X3.5787Y-0.5906
X3.5866Y-2.1307
X3.5866Y-2.3307
T8
X2.4591Y-0.5362
X2.4591Y-0.6362
X2.4591Y-0.7362
X2.4591Y-0.8362
X2.4591Y-0.9362
X2.4591Y-1.0362
X2.4591Y-1.1362
X2.4591Y-1.2362
X3.0591Y-0.5362
X3.0591Y-0.6362
X3.0591Y-0.7362
X3.0591Y-0.8362
X3.0591Y-0.9362
X3.0591Y-1.0362
X3.0591Y-1.1362
X3.0591Y-1.2362
T4
G00X2.8819Y-2.126
M15
G01X2.9606Y-2.126
M16
G05
G00X2.8819Y-2.3622
M15
G01X2.9606Y-2.3622
M16
G05
G00X3.1063Y-2.2835
M15
G01X3.1063Y-2.2047
M16
G05
M30
