%TF.GenerationSoftware,KiCad,Pcbnew,8.0.5*%
%TF.CreationDate,2025-03-25T03:55:57-06:00*%
%TF.ProjectId,CircuitoBanda,43697263-7569-4746-9f42-616e64612e6b,rev?*%
%TF.SameCoordinates,Original*%
%TF.FileFunction,Drillmap*%
%TF.FilePolarity,Positive*%
%FSLAX45Y45*%
G04 Gerber Fmt 4.5, Leading zero omitted, Abs format (unit mm)*
G04 Created by KiCad (PCBNEW 8.0.5) date 2025-03-25 03:55:57*
%MOMM*%
%LPD*%
G01*
G04 APERTURE LIST*
%ADD10C,0.050000*%
%ADD11C,0.200000*%
%ADD12C,0.100000*%
%ADD13C,0.104000*%
%ADD14C,0.110000*%
%ADD15C,0.130000*%
%ADD16C,0.132000*%
G04 APERTURE END LIST*
D10*
X0Y0D02*
X10360000Y0D01*
X10360000Y-7320000D01*
X0Y-7320000D01*
X0Y0D01*
D11*
D12*
X1121000Y-3315000D02*
X1191000Y-3385000D01*
X1191000Y-3315000D02*
X1121000Y-3385000D01*
X1121000Y-4045000D02*
X1191000Y-4115000D01*
X1191000Y-4045000D02*
X1121000Y-4115000D01*
X1121000Y-4815000D02*
X1191000Y-4885000D01*
X1191000Y-4815000D02*
X1121000Y-4885000D01*
X1629000Y-3315000D02*
X1699000Y-3385000D01*
X1699000Y-3315000D02*
X1629000Y-3385000D01*
X1629000Y-4045000D02*
X1699000Y-4115000D01*
X1699000Y-4045000D02*
X1629000Y-4115000D01*
X1629000Y-4815000D02*
X1699000Y-4885000D01*
X1699000Y-4815000D02*
X1629000Y-4885000D01*
X1940000Y-340000D02*
G75*
G02*
X1860000Y-340000I-40000J0D01*
G01*
X1860000Y-340000D02*
G75*
G02*
X1940000Y-340000I40000J0D01*
G01*
X1940000Y-590000D02*
G75*
G02*
X1860000Y-590000I-40000J0D01*
G01*
X1860000Y-590000D02*
G75*
G02*
X1940000Y-590000I40000J0D01*
G01*
X1940000Y-940000D02*
G75*
G02*
X1860000Y-940000I-40000J0D01*
G01*
X1860000Y-940000D02*
G75*
G02*
X1940000Y-940000I40000J0D01*
G01*
X1940000Y-1190000D02*
G75*
G02*
X1860000Y-1190000I-40000J0D01*
G01*
X1860000Y-1190000D02*
G75*
G02*
X1940000Y-1190000I40000J0D01*
G01*
X1940000Y-1540000D02*
G75*
G02*
X1860000Y-1540000I-40000J0D01*
G01*
X1860000Y-1540000D02*
G75*
G02*
X1940000Y-1540000I40000J0D01*
G01*
X1940000Y-1790000D02*
G75*
G02*
X1860000Y-1790000I-40000J0D01*
G01*
X1860000Y-1790000D02*
G75*
G02*
X1940000Y-1790000I40000J0D01*
G01*
X2150000Y-4590000D02*
G75*
G02*
X2070000Y-4590000I-40000J0D01*
G01*
X2070000Y-4590000D02*
G75*
G02*
X2150000Y-4590000I40000J0D01*
G01*
X2150000Y-4840000D02*
G75*
G02*
X2070000Y-4840000I-40000J0D01*
G01*
X2070000Y-4840000D02*
G75*
G02*
X2150000Y-4840000I40000J0D01*
G01*
X2160000Y-5230000D02*
G75*
G02*
X2080000Y-5230000I-40000J0D01*
G01*
X2080000Y-5230000D02*
G75*
G02*
X2160000Y-5230000I40000J0D01*
G01*
X2160000Y-5480000D02*
G75*
G02*
X2080000Y-5480000I-40000J0D01*
G01*
X2080000Y-5480000D02*
G75*
G02*
X2160000Y-5480000I40000J0D01*
G01*
X6920000Y-4660000D02*
G75*
G02*
X6840000Y-4660000I-40000J0D01*
G01*
X6840000Y-4660000D02*
G75*
G02*
X6920000Y-4660000I40000J0D01*
G01*
X7170000Y-4660000D02*
G75*
G02*
X7090000Y-4660000I-40000J0D01*
G01*
X7090000Y-4660000D02*
G75*
G02*
X7170000Y-4660000I40000J0D01*
G01*
X7520000Y-4660000D02*
G75*
G02*
X7440000Y-4660000I-40000J0D01*
G01*
X7440000Y-4660000D02*
G75*
G02*
X7520000Y-4660000I40000J0D01*
G01*
X7770000Y-4660000D02*
G75*
G02*
X7690000Y-4660000I-40000J0D01*
G01*
X7690000Y-4660000D02*
G75*
G02*
X7770000Y-4660000I40000J0D01*
G01*
X9140000Y-2400000D02*
G75*
G02*
X9060000Y-2400000I-40000J0D01*
G01*
X9060000Y-2400000D02*
G75*
G02*
X9140000Y-2400000I40000J0D01*
G01*
X9140000Y-2900000D02*
G75*
G02*
X9060000Y-2900000I-40000J0D01*
G01*
X9060000Y-2900000D02*
G75*
G02*
X9140000Y-2900000I40000J0D01*
G01*
X9170000Y-3930000D02*
G75*
G02*
X9090000Y-3930000I-40000J0D01*
G01*
X9090000Y-3930000D02*
G75*
G02*
X9170000Y-3930000I40000J0D01*
G01*
X9170000Y-4430000D02*
G75*
G02*
X9090000Y-4430000I-40000J0D01*
G01*
X9090000Y-4430000D02*
G75*
G02*
X9170000Y-4430000I40000J0D01*
G01*
X610000Y-3295000D02*
X610000Y-3385000D01*
X565000Y-3340000D02*
X655000Y-3340000D01*
X610000Y-4045000D02*
X610000Y-4135000D01*
X565000Y-4090000D02*
X655000Y-4090000D01*
X610000Y-4795000D02*
X610000Y-4885000D01*
X565000Y-4840000D02*
X655000Y-4840000D01*
X864000Y-3295000D02*
X864000Y-3385000D01*
X819000Y-3340000D02*
X909000Y-3340000D01*
X864000Y-4045000D02*
X864000Y-4135000D01*
X819000Y-4090000D02*
X909000Y-4090000D01*
X864000Y-4795000D02*
X864000Y-4885000D01*
X819000Y-4840000D02*
X909000Y-4840000D01*
X7455356Y-5435356D02*
X7455356Y-5364644D01*
X7384644Y-5364644D01*
X7384644Y-5435356D01*
X7455356Y-5435356D01*
X7320000Y-5450000D02*
X7520000Y-5450000D01*
X7520000Y-5350000D02*
G75*
G02*
X7520000Y-5450000I0J-50000D01*
G01*
X7520000Y-5350000D02*
X7320000Y-5350000D01*
X7320000Y-5350000D02*
G75*
G03*
X7320000Y-5450000I0J-50000D01*
G01*
X7455356Y-6035356D02*
X7455356Y-5964644D01*
X7384644Y-5964644D01*
X7384644Y-6035356D01*
X7455356Y-6035356D01*
X7320000Y-6050000D02*
X7520000Y-6050000D01*
X7520000Y-5950000D02*
G75*
G02*
X7520000Y-6050000I0J-50000D01*
G01*
X7520000Y-5950000D02*
X7320000Y-5950000D01*
X7320000Y-5950000D02*
G75*
G03*
X7320000Y-6050000I0J-50000D01*
G01*
X7925356Y-5735356D02*
X7925356Y-5664644D01*
X7854644Y-5664644D01*
X7854644Y-5735356D01*
X7925356Y-5735356D01*
X7940000Y-5800000D02*
X7940000Y-5600000D01*
X7840000Y-5600000D02*
G75*
G02*
X7940000Y-5600000I50000J0D01*
G01*
X7840000Y-5600000D02*
X7840000Y-5800000D01*
X7840000Y-5800000D02*
G75*
G03*
X7940000Y-5800000I50000J0D01*
G01*
D13*
X2825750Y-910000D02*
X2877750Y-858000D01*
X2825750Y-806000D01*
X2773750Y-858000D01*
X2825750Y-910000D01*
X2825750Y-1164000D02*
X2877750Y-1112000D01*
X2825750Y-1060000D01*
X2773750Y-1112000D01*
X2825750Y-1164000D01*
X2825750Y-1418000D02*
X2877750Y-1366000D01*
X2825750Y-1314000D01*
X2773750Y-1366000D01*
X2825750Y-1418000D01*
X2825750Y-1672000D02*
X2877750Y-1620000D01*
X2825750Y-1568000D01*
X2773750Y-1620000D01*
X2825750Y-1672000D01*
X2825750Y-1926000D02*
X2877750Y-1874000D01*
X2825750Y-1822000D01*
X2773750Y-1874000D01*
X2825750Y-1926000D01*
X2825750Y-2180000D02*
X2877750Y-2128000D01*
X2825750Y-2076000D01*
X2773750Y-2128000D01*
X2825750Y-2180000D01*
X2825750Y-2434000D02*
X2877750Y-2382000D01*
X2825750Y-2330000D01*
X2773750Y-2382000D01*
X2825750Y-2434000D01*
X2825750Y-2688000D02*
X2877750Y-2636000D01*
X2825750Y-2584000D01*
X2773750Y-2636000D01*
X2825750Y-2688000D01*
X2825750Y-2942000D02*
X2877750Y-2890000D01*
X2825750Y-2838000D01*
X2773750Y-2890000D01*
X2825750Y-2942000D01*
X2825750Y-3196000D02*
X2877750Y-3144000D01*
X2825750Y-3092000D01*
X2773750Y-3144000D01*
X2825750Y-3196000D01*
X2825750Y-3450000D02*
X2877750Y-3398000D01*
X2825750Y-3346000D01*
X2773750Y-3398000D01*
X2825750Y-3450000D01*
X2825750Y-3704000D02*
X2877750Y-3652000D01*
X2825750Y-3600000D01*
X2773750Y-3652000D01*
X2825750Y-3704000D01*
X2825750Y-3958000D02*
X2877750Y-3906000D01*
X2825750Y-3854000D01*
X2773750Y-3906000D01*
X2825750Y-3958000D01*
X2825750Y-4212000D02*
X2877750Y-4160000D01*
X2825750Y-4108000D01*
X2773750Y-4160000D01*
X2825750Y-4212000D01*
X2825750Y-4466000D02*
X2877750Y-4414000D01*
X2825750Y-4362000D01*
X2773750Y-4414000D01*
X2825750Y-4466000D01*
X2825750Y-4720000D02*
X2877750Y-4668000D01*
X2825750Y-4616000D01*
X2773750Y-4668000D01*
X2825750Y-4720000D01*
X2825750Y-4974000D02*
X2877750Y-4922000D01*
X2825750Y-4870000D01*
X2773750Y-4922000D01*
X2825750Y-4974000D01*
X2825750Y-5228000D02*
X2877750Y-5176000D01*
X2825750Y-5124000D01*
X2773750Y-5176000D01*
X2825750Y-5228000D01*
X2825750Y-5482000D02*
X2877750Y-5430000D01*
X2825750Y-5378000D01*
X2773750Y-5430000D01*
X2825750Y-5482000D01*
X5365750Y-910000D02*
X5417750Y-858000D01*
X5365750Y-806000D01*
X5313750Y-858000D01*
X5365750Y-910000D01*
X5365750Y-1164000D02*
X5417750Y-1112000D01*
X5365750Y-1060000D01*
X5313750Y-1112000D01*
X5365750Y-1164000D01*
X5365750Y-1418000D02*
X5417750Y-1366000D01*
X5365750Y-1314000D01*
X5313750Y-1366000D01*
X5365750Y-1418000D01*
X5365750Y-1672000D02*
X5417750Y-1620000D01*
X5365750Y-1568000D01*
X5313750Y-1620000D01*
X5365750Y-1672000D01*
X5365750Y-1926000D02*
X5417750Y-1874000D01*
X5365750Y-1822000D01*
X5313750Y-1874000D01*
X5365750Y-1926000D01*
X5365750Y-2180000D02*
X5417750Y-2128000D01*
X5365750Y-2076000D01*
X5313750Y-2128000D01*
X5365750Y-2180000D01*
X5365750Y-2434000D02*
X5417750Y-2382000D01*
X5365750Y-2330000D01*
X5313750Y-2382000D01*
X5365750Y-2434000D01*
X5365750Y-2688000D02*
X5417750Y-2636000D01*
X5365750Y-2584000D01*
X5313750Y-2636000D01*
X5365750Y-2688000D01*
X5365750Y-2942000D02*
X5417750Y-2890000D01*
X5365750Y-2838000D01*
X5313750Y-2890000D01*
X5365750Y-2942000D01*
X5365750Y-3196000D02*
X5417750Y-3144000D01*
X5365750Y-3092000D01*
X5313750Y-3144000D01*
X5365750Y-3196000D01*
X5365750Y-3450000D02*
X5417750Y-3398000D01*
X5365750Y-3346000D01*
X5313750Y-3398000D01*
X5365750Y-3450000D01*
X5365750Y-3704000D02*
X5417750Y-3652000D01*
X5365750Y-3600000D01*
X5313750Y-3652000D01*
X5365750Y-3704000D01*
X5365750Y-3958000D02*
X5417750Y-3906000D01*
X5365750Y-3854000D01*
X5313750Y-3906000D01*
X5365750Y-3958000D01*
X5365750Y-4212000D02*
X5417750Y-4160000D01*
X5365750Y-4108000D01*
X5313750Y-4160000D01*
X5365750Y-4212000D01*
X5365750Y-4466000D02*
X5417750Y-4414000D01*
X5365750Y-4362000D01*
X5313750Y-4414000D01*
X5365750Y-4466000D01*
X5365750Y-4720000D02*
X5417750Y-4668000D01*
X5365750Y-4616000D01*
X5313750Y-4668000D01*
X5365750Y-4720000D01*
X5365750Y-4974000D02*
X5417750Y-4922000D01*
X5365750Y-4870000D01*
X5313750Y-4922000D01*
X5365750Y-4974000D01*
X5365750Y-5228000D02*
X5417750Y-5176000D01*
X5365750Y-5124000D01*
X5313750Y-5176000D01*
X5365750Y-5228000D01*
X5365750Y-5482000D02*
X5417750Y-5430000D01*
X5365750Y-5378000D01*
X5313750Y-5430000D01*
X5365750Y-5482000D01*
D14*
X6915000Y-3995000D02*
X7025000Y-4105000D01*
X7025000Y-3995000D02*
X6915000Y-4105000D01*
X7025000Y-4050000D02*
G75*
G02*
X6915000Y-4050000I-55000J0D01*
G01*
X6915000Y-4050000D02*
G75*
G02*
X7025000Y-4050000I55000J0D01*
G01*
X7169000Y-3995000D02*
X7279000Y-4105000D01*
X7279000Y-3995000D02*
X7169000Y-4105000D01*
X7279000Y-4050000D02*
G75*
G02*
X7169000Y-4050000I-55000J0D01*
G01*
X7169000Y-4050000D02*
G75*
G02*
X7279000Y-4050000I55000J0D01*
G01*
X7423000Y-3995000D02*
X7533000Y-4105000D01*
X7533000Y-3995000D02*
X7423000Y-4105000D01*
X7533000Y-4050000D02*
G75*
G02*
X7423000Y-4050000I-55000J0D01*
G01*
X7423000Y-4050000D02*
G75*
G02*
X7533000Y-4050000I55000J0D01*
G01*
D15*
X725000Y-5487000D02*
X855000Y-5617000D01*
X855000Y-5487000D02*
X725000Y-5617000D01*
X790000Y-5487000D02*
X790000Y-5617000D01*
X725000Y-5552000D02*
X855000Y-5552000D01*
X725000Y-5995000D02*
X855000Y-6125000D01*
X855000Y-5995000D02*
X725000Y-6125000D01*
X790000Y-5995000D02*
X790000Y-6125000D01*
X725000Y-6060000D02*
X855000Y-6060000D01*
X865000Y-451500D02*
X995000Y-581500D01*
X995000Y-451500D02*
X865000Y-581500D01*
X930000Y-451500D02*
X930000Y-581500D01*
X865000Y-516500D02*
X995000Y-516500D01*
X865000Y-959500D02*
X995000Y-1089500D01*
X995000Y-959500D02*
X865000Y-1089500D01*
X930000Y-959500D02*
X930000Y-1089500D01*
X865000Y-1024500D02*
X995000Y-1024500D01*
X865000Y-1467500D02*
X995000Y-1597500D01*
X995000Y-1467500D02*
X865000Y-1597500D01*
X930000Y-1467500D02*
X930000Y-1597500D01*
X865000Y-1532500D02*
X995000Y-1532500D01*
X865000Y-2139500D02*
X995000Y-2269500D01*
X995000Y-2139500D02*
X865000Y-2269500D01*
X930000Y-2139500D02*
X930000Y-2269500D01*
X865000Y-2204500D02*
X995000Y-2204500D01*
X865000Y-2647500D02*
X995000Y-2777500D01*
X995000Y-2647500D02*
X865000Y-2777500D01*
X930000Y-2647500D02*
X930000Y-2777500D01*
X865000Y-2712500D02*
X995000Y-2712500D01*
X1649000Y-6395000D02*
X1779000Y-6525000D01*
X1779000Y-6395000D02*
X1649000Y-6525000D01*
X1714000Y-6395000D02*
X1714000Y-6525000D01*
X1649000Y-6460000D02*
X1779000Y-6460000D01*
X2157000Y-6395000D02*
X2287000Y-6525000D01*
X2287000Y-6395000D02*
X2157000Y-6525000D01*
X2222000Y-6395000D02*
X2222000Y-6525000D01*
X2157000Y-6460000D02*
X2287000Y-6460000D01*
X2665000Y-6395000D02*
X2795000Y-6525000D01*
X2795000Y-6395000D02*
X2665000Y-6525000D01*
X2730000Y-6395000D02*
X2730000Y-6525000D01*
X2665000Y-6460000D02*
X2795000Y-6460000D01*
X3380500Y-6405500D02*
X3510500Y-6535500D01*
X3510500Y-6405500D02*
X3380500Y-6535500D01*
X3445500Y-6405500D02*
X3445500Y-6535500D01*
X3380500Y-6470500D02*
X3510500Y-6470500D01*
X3888500Y-6405500D02*
X4018500Y-6535500D01*
X4018500Y-6405500D02*
X3888500Y-6535500D01*
X3953500Y-6405500D02*
X3953500Y-6535500D01*
X3888500Y-6470500D02*
X4018500Y-6470500D01*
X5135000Y-6090000D02*
X5265000Y-6220000D01*
X5265000Y-6090000D02*
X5135000Y-6220000D01*
X5200000Y-6090000D02*
X5200000Y-6220000D01*
X5135000Y-6155000D02*
X5265000Y-6155000D01*
X5135000Y-6740000D02*
X5265000Y-6870000D01*
X5265000Y-6740000D02*
X5135000Y-6870000D01*
X5200000Y-6740000D02*
X5200000Y-6870000D01*
X5135000Y-6805000D02*
X5265000Y-6805000D01*
X6055000Y-6080000D02*
X6185000Y-6210000D01*
X6185000Y-6080000D02*
X6055000Y-6210000D01*
X6120000Y-6080000D02*
X6120000Y-6210000D01*
X6055000Y-6145000D02*
X6185000Y-6145000D01*
X6055000Y-6730000D02*
X6185000Y-6860000D01*
X6185000Y-6730000D02*
X6055000Y-6860000D01*
X6120000Y-6730000D02*
X6120000Y-6860000D01*
X6055000Y-6795000D02*
X6185000Y-6795000D01*
X9025000Y-927000D02*
X9155000Y-1057000D01*
X9155000Y-927000D02*
X9025000Y-1057000D01*
X9090000Y-927000D02*
X9090000Y-1057000D01*
X9025000Y-992000D02*
X9155000Y-992000D01*
X9025000Y-1435000D02*
X9155000Y-1565000D01*
X9155000Y-1435000D02*
X9025000Y-1565000D01*
X9090000Y-1435000D02*
X9090000Y-1565000D01*
X9025000Y-1500000D02*
X9155000Y-1500000D01*
X9045000Y-5347000D02*
X9175000Y-5477000D01*
X9175000Y-5347000D02*
X9045000Y-5477000D01*
X9110000Y-5347000D02*
X9110000Y-5477000D01*
X9045000Y-5412000D02*
X9175000Y-5412000D01*
X9045000Y-5855000D02*
X9175000Y-5985000D01*
X9175000Y-5855000D02*
X9045000Y-5985000D01*
X9110000Y-5855000D02*
X9110000Y-5985000D01*
X9045000Y-5920000D02*
X9175000Y-5920000D01*
D16*
X6180000Y-1296000D02*
X6312000Y-1428000D01*
X6312000Y-1296000D02*
X6180000Y-1428000D01*
X6292669Y-1408669D02*
X6292669Y-1315331D01*
X6199330Y-1315331D01*
X6199330Y-1408669D01*
X6292669Y-1408669D01*
X6180000Y-1550000D02*
X6312000Y-1682000D01*
X6312000Y-1550000D02*
X6180000Y-1682000D01*
X6292669Y-1662669D02*
X6292669Y-1569330D01*
X6199330Y-1569330D01*
X6199330Y-1662669D01*
X6292669Y-1662669D01*
X6180000Y-1804000D02*
X6312000Y-1936000D01*
X6312000Y-1804000D02*
X6180000Y-1936000D01*
X6292669Y-1916669D02*
X6292669Y-1823330D01*
X6199330Y-1823330D01*
X6199330Y-1916669D01*
X6292669Y-1916669D01*
X6180000Y-2058000D02*
X6312000Y-2190000D01*
X6312000Y-2058000D02*
X6180000Y-2190000D01*
X6292669Y-2170670D02*
X6292669Y-2077330D01*
X6199330Y-2077330D01*
X6199330Y-2170670D01*
X6292669Y-2170670D01*
X6180000Y-2312000D02*
X6312000Y-2444000D01*
X6312000Y-2312000D02*
X6180000Y-2444000D01*
X6292669Y-2424670D02*
X6292669Y-2331331D01*
X6199330Y-2331331D01*
X6199330Y-2424670D01*
X6292669Y-2424670D01*
X6180000Y-2566000D02*
X6312000Y-2698000D01*
X6312000Y-2566000D02*
X6180000Y-2698000D01*
X6292669Y-2678670D02*
X6292669Y-2585331D01*
X6199330Y-2585331D01*
X6199330Y-2678670D01*
X6292669Y-2678670D01*
X6180000Y-2820000D02*
X6312000Y-2952000D01*
X6312000Y-2820000D02*
X6180000Y-2952000D01*
X6292669Y-2932669D02*
X6292669Y-2839330D01*
X6199330Y-2839330D01*
X6199330Y-2932669D01*
X6292669Y-2932669D01*
X6180000Y-3074000D02*
X6312000Y-3206000D01*
X6312000Y-3074000D02*
X6180000Y-3206000D01*
X6292669Y-3186669D02*
X6292669Y-3093330D01*
X6199330Y-3093330D01*
X6199330Y-3186669D01*
X6292669Y-3186669D01*
X7704000Y-1296000D02*
X7836000Y-1428000D01*
X7836000Y-1296000D02*
X7704000Y-1428000D01*
X7816669Y-1408669D02*
X7816669Y-1315331D01*
X7723330Y-1315331D01*
X7723330Y-1408669D01*
X7816669Y-1408669D01*
X7704000Y-1550000D02*
X7836000Y-1682000D01*
X7836000Y-1550000D02*
X7704000Y-1682000D01*
X7816669Y-1662669D02*
X7816669Y-1569330D01*
X7723330Y-1569330D01*
X7723330Y-1662669D01*
X7816669Y-1662669D01*
X7704000Y-1804000D02*
X7836000Y-1936000D01*
X7836000Y-1804000D02*
X7704000Y-1936000D01*
X7816669Y-1916669D02*
X7816669Y-1823330D01*
X7723330Y-1823330D01*
X7723330Y-1916669D01*
X7816669Y-1916669D01*
X7704000Y-2058000D02*
X7836000Y-2190000D01*
X7836000Y-2058000D02*
X7704000Y-2190000D01*
X7816669Y-2170670D02*
X7816669Y-2077330D01*
X7723330Y-2077330D01*
X7723330Y-2170670D01*
X7816669Y-2170670D01*
X7704000Y-2312000D02*
X7836000Y-2444000D01*
X7836000Y-2312000D02*
X7704000Y-2444000D01*
X7816669Y-2424670D02*
X7816669Y-2331331D01*
X7723330Y-2331331D01*
X7723330Y-2424670D01*
X7816669Y-2424670D01*
X7704000Y-2566000D02*
X7836000Y-2698000D01*
X7836000Y-2566000D02*
X7704000Y-2698000D01*
X7816669Y-2678670D02*
X7816669Y-2585331D01*
X7723330Y-2585331D01*
X7723330Y-2678670D01*
X7816669Y-2678670D01*
X7704000Y-2820000D02*
X7836000Y-2952000D01*
X7836000Y-2820000D02*
X7704000Y-2952000D01*
X7816669Y-2932669D02*
X7816669Y-2839330D01*
X7723330Y-2839330D01*
X7723330Y-2932669D01*
X7816669Y-2932669D01*
X7704000Y-3074000D02*
X7836000Y-3206000D01*
X7836000Y-3074000D02*
X7704000Y-3206000D01*
X7816669Y-3186669D02*
X7816669Y-3093330D01*
X7723330Y-3093330D01*
X7723330Y-3186669D01*
X7816669Y-3186669D01*
D11*
X258277Y-7633984D02*
X258277Y-7433984D01*
X258277Y-7433984D02*
X305896Y-7433984D01*
X305896Y-7433984D02*
X334467Y-7443508D01*
X334467Y-7443508D02*
X353515Y-7462555D01*
X353515Y-7462555D02*
X363039Y-7481603D01*
X363039Y-7481603D02*
X372562Y-7519698D01*
X372562Y-7519698D02*
X372562Y-7548269D01*
X372562Y-7548269D02*
X363039Y-7586365D01*
X363039Y-7586365D02*
X353515Y-7605412D01*
X353515Y-7605412D02*
X334467Y-7624460D01*
X334467Y-7624460D02*
X305896Y-7633984D01*
X305896Y-7633984D02*
X258277Y-7633984D01*
X458277Y-7633984D02*
X458277Y-7500650D01*
X458277Y-7538746D02*
X467801Y-7519698D01*
X467801Y-7519698D02*
X477324Y-7510174D01*
X477324Y-7510174D02*
X496372Y-7500650D01*
X496372Y-7500650D02*
X515420Y-7500650D01*
X582086Y-7633984D02*
X582086Y-7500650D01*
X582086Y-7433984D02*
X572563Y-7443508D01*
X572563Y-7443508D02*
X582086Y-7453031D01*
X582086Y-7453031D02*
X591610Y-7443508D01*
X591610Y-7443508D02*
X582086Y-7433984D01*
X582086Y-7433984D02*
X582086Y-7453031D01*
X705896Y-7633984D02*
X686848Y-7624460D01*
X686848Y-7624460D02*
X677324Y-7605412D01*
X677324Y-7605412D02*
X677324Y-7433984D01*
X810658Y-7633984D02*
X791610Y-7624460D01*
X791610Y-7624460D02*
X782086Y-7605412D01*
X782086Y-7605412D02*
X782086Y-7433984D01*
X1039229Y-7633984D02*
X1039229Y-7433984D01*
X1039229Y-7433984D02*
X1105896Y-7576841D01*
X1105896Y-7576841D02*
X1172563Y-7433984D01*
X1172563Y-7433984D02*
X1172563Y-7633984D01*
X1353515Y-7633984D02*
X1353515Y-7529222D01*
X1353515Y-7529222D02*
X1343991Y-7510174D01*
X1343991Y-7510174D02*
X1324944Y-7500650D01*
X1324944Y-7500650D02*
X1286848Y-7500650D01*
X1286848Y-7500650D02*
X1267801Y-7510174D01*
X1353515Y-7624460D02*
X1334467Y-7633984D01*
X1334467Y-7633984D02*
X1286848Y-7633984D01*
X1286848Y-7633984D02*
X1267801Y-7624460D01*
X1267801Y-7624460D02*
X1258277Y-7605412D01*
X1258277Y-7605412D02*
X1258277Y-7586365D01*
X1258277Y-7586365D02*
X1267801Y-7567317D01*
X1267801Y-7567317D02*
X1286848Y-7557793D01*
X1286848Y-7557793D02*
X1334467Y-7557793D01*
X1334467Y-7557793D02*
X1353515Y-7548269D01*
X1448753Y-7500650D02*
X1448753Y-7700650D01*
X1448753Y-7510174D02*
X1467801Y-7500650D01*
X1467801Y-7500650D02*
X1505896Y-7500650D01*
X1505896Y-7500650D02*
X1524943Y-7510174D01*
X1524943Y-7510174D02*
X1534467Y-7519698D01*
X1534467Y-7519698D02*
X1543991Y-7538746D01*
X1543991Y-7538746D02*
X1543991Y-7595888D01*
X1543991Y-7595888D02*
X1534467Y-7614936D01*
X1534467Y-7614936D02*
X1524943Y-7624460D01*
X1524943Y-7624460D02*
X1505896Y-7633984D01*
X1505896Y-7633984D02*
X1467801Y-7633984D01*
X1467801Y-7633984D02*
X1448753Y-7624460D01*
X1629705Y-7614936D02*
X1639229Y-7624460D01*
X1639229Y-7624460D02*
X1629705Y-7633984D01*
X1629705Y-7633984D02*
X1620182Y-7624460D01*
X1620182Y-7624460D02*
X1629705Y-7614936D01*
X1629705Y-7614936D02*
X1629705Y-7633984D01*
X1629705Y-7510174D02*
X1639229Y-7519698D01*
X1639229Y-7519698D02*
X1629705Y-7529222D01*
X1629705Y-7529222D02*
X1620182Y-7519698D01*
X1620182Y-7519698D02*
X1629705Y-7510174D01*
X1629705Y-7510174D02*
X1629705Y-7529222D01*
D12*
X-72500Y-7927500D02*
X-2500Y-7997500D01*
X-2500Y-7927500D02*
X-72500Y-7997500D01*
D11*
X296372Y-7853984D02*
X315420Y-7853984D01*
X315420Y-7853984D02*
X334467Y-7863508D01*
X334467Y-7863508D02*
X343991Y-7873031D01*
X343991Y-7873031D02*
X353515Y-7892079D01*
X353515Y-7892079D02*
X363039Y-7930174D01*
X363039Y-7930174D02*
X363039Y-7977793D01*
X363039Y-7977793D02*
X353515Y-8015888D01*
X353515Y-8015888D02*
X343991Y-8034936D01*
X343991Y-8034936D02*
X334467Y-8044460D01*
X334467Y-8044460D02*
X315420Y-8053984D01*
X315420Y-8053984D02*
X296372Y-8053984D01*
X296372Y-8053984D02*
X277324Y-8044460D01*
X277324Y-8044460D02*
X267801Y-8034936D01*
X267801Y-8034936D02*
X258277Y-8015888D01*
X258277Y-8015888D02*
X248753Y-7977793D01*
X248753Y-7977793D02*
X248753Y-7930174D01*
X248753Y-7930174D02*
X258277Y-7892079D01*
X258277Y-7892079D02*
X267801Y-7873031D01*
X267801Y-7873031D02*
X277324Y-7863508D01*
X277324Y-7863508D02*
X296372Y-7853984D01*
X448753Y-8034936D02*
X458277Y-8044460D01*
X458277Y-8044460D02*
X448753Y-8053984D01*
X448753Y-8053984D02*
X439229Y-8044460D01*
X439229Y-8044460D02*
X448753Y-8034936D01*
X448753Y-8034936D02*
X448753Y-8053984D01*
X524944Y-7853984D02*
X658277Y-7853984D01*
X658277Y-7853984D02*
X572563Y-8053984D01*
X772562Y-7853984D02*
X791610Y-7853984D01*
X791610Y-7853984D02*
X810658Y-7863508D01*
X810658Y-7863508D02*
X820182Y-7873031D01*
X820182Y-7873031D02*
X829705Y-7892079D01*
X829705Y-7892079D02*
X839229Y-7930174D01*
X839229Y-7930174D02*
X839229Y-7977793D01*
X839229Y-7977793D02*
X829705Y-8015888D01*
X829705Y-8015888D02*
X820182Y-8034936D01*
X820182Y-8034936D02*
X810658Y-8044460D01*
X810658Y-8044460D02*
X791610Y-8053984D01*
X791610Y-8053984D02*
X772562Y-8053984D01*
X772562Y-8053984D02*
X753515Y-8044460D01*
X753515Y-8044460D02*
X743991Y-8034936D01*
X743991Y-8034936D02*
X734467Y-8015888D01*
X734467Y-8015888D02*
X724943Y-7977793D01*
X724943Y-7977793D02*
X724943Y-7930174D01*
X724943Y-7930174D02*
X734467Y-7892079D01*
X734467Y-7892079D02*
X743991Y-7873031D01*
X743991Y-7873031D02*
X753515Y-7863508D01*
X753515Y-7863508D02*
X772562Y-7853984D01*
X963039Y-7853984D02*
X982086Y-7853984D01*
X982086Y-7853984D02*
X1001134Y-7863508D01*
X1001134Y-7863508D02*
X1010658Y-7873031D01*
X1010658Y-7873031D02*
X1020182Y-7892079D01*
X1020182Y-7892079D02*
X1029705Y-7930174D01*
X1029705Y-7930174D02*
X1029705Y-7977793D01*
X1029705Y-7977793D02*
X1020182Y-8015888D01*
X1020182Y-8015888D02*
X1010658Y-8034936D01*
X1010658Y-8034936D02*
X1001134Y-8044460D01*
X1001134Y-8044460D02*
X982086Y-8053984D01*
X982086Y-8053984D02*
X963039Y-8053984D01*
X963039Y-8053984D02*
X943991Y-8044460D01*
X943991Y-8044460D02*
X934467Y-8034936D01*
X934467Y-8034936D02*
X924943Y-8015888D01*
X924943Y-8015888D02*
X915420Y-7977793D01*
X915420Y-7977793D02*
X915420Y-7930174D01*
X915420Y-7930174D02*
X924943Y-7892079D01*
X924943Y-7892079D02*
X934467Y-7873031D01*
X934467Y-7873031D02*
X943991Y-7863508D01*
X943991Y-7863508D02*
X963039Y-7853984D01*
X1115420Y-8053984D02*
X1115420Y-7920650D01*
X1115420Y-7939698D02*
X1124944Y-7930174D01*
X1124944Y-7930174D02*
X1143991Y-7920650D01*
X1143991Y-7920650D02*
X1172563Y-7920650D01*
X1172563Y-7920650D02*
X1191610Y-7930174D01*
X1191610Y-7930174D02*
X1201134Y-7949222D01*
X1201134Y-7949222D02*
X1201134Y-8053984D01*
X1201134Y-7949222D02*
X1210658Y-7930174D01*
X1210658Y-7930174D02*
X1229705Y-7920650D01*
X1229705Y-7920650D02*
X1258277Y-7920650D01*
X1258277Y-7920650D02*
X1277325Y-7930174D01*
X1277325Y-7930174D02*
X1286848Y-7949222D01*
X1286848Y-7949222D02*
X1286848Y-8053984D01*
X1382086Y-8053984D02*
X1382086Y-7920650D01*
X1382086Y-7939698D02*
X1391610Y-7930174D01*
X1391610Y-7930174D02*
X1410658Y-7920650D01*
X1410658Y-7920650D02*
X1439229Y-7920650D01*
X1439229Y-7920650D02*
X1458277Y-7930174D01*
X1458277Y-7930174D02*
X1467801Y-7949222D01*
X1467801Y-7949222D02*
X1467801Y-8053984D01*
X1467801Y-7949222D02*
X1477324Y-7930174D01*
X1477324Y-7930174D02*
X1496372Y-7920650D01*
X1496372Y-7920650D02*
X1524943Y-7920650D01*
X1524943Y-7920650D02*
X1543991Y-7930174D01*
X1543991Y-7930174D02*
X1553515Y-7949222D01*
X1553515Y-7949222D02*
X1553515Y-8053984D01*
X1943991Y-7844460D02*
X1772563Y-8101603D01*
X2201134Y-7853984D02*
X2220182Y-7853984D01*
X2220182Y-7853984D02*
X2239229Y-7863508D01*
X2239229Y-7863508D02*
X2248753Y-7873031D01*
X2248753Y-7873031D02*
X2258277Y-7892079D01*
X2258277Y-7892079D02*
X2267801Y-7930174D01*
X2267801Y-7930174D02*
X2267801Y-7977793D01*
X2267801Y-7977793D02*
X2258277Y-8015888D01*
X2258277Y-8015888D02*
X2248753Y-8034936D01*
X2248753Y-8034936D02*
X2239229Y-8044460D01*
X2239229Y-8044460D02*
X2220182Y-8053984D01*
X2220182Y-8053984D02*
X2201134Y-8053984D01*
X2201134Y-8053984D02*
X2182087Y-8044460D01*
X2182087Y-8044460D02*
X2172563Y-8034936D01*
X2172563Y-8034936D02*
X2163039Y-8015888D01*
X2163039Y-8015888D02*
X2153515Y-7977793D01*
X2153515Y-7977793D02*
X2153515Y-7930174D01*
X2153515Y-7930174D02*
X2163039Y-7892079D01*
X2163039Y-7892079D02*
X2172563Y-7873031D01*
X2172563Y-7873031D02*
X2182087Y-7863508D01*
X2182087Y-7863508D02*
X2201134Y-7853984D01*
X2353515Y-8034936D02*
X2363039Y-8044460D01*
X2363039Y-8044460D02*
X2353515Y-8053984D01*
X2353515Y-8053984D02*
X2343991Y-8044460D01*
X2343991Y-8044460D02*
X2353515Y-8034936D01*
X2353515Y-8034936D02*
X2353515Y-8053984D01*
X2486848Y-7853984D02*
X2505896Y-7853984D01*
X2505896Y-7853984D02*
X2524944Y-7863508D01*
X2524944Y-7863508D02*
X2534468Y-7873031D01*
X2534468Y-7873031D02*
X2543991Y-7892079D01*
X2543991Y-7892079D02*
X2553515Y-7930174D01*
X2553515Y-7930174D02*
X2553515Y-7977793D01*
X2553515Y-7977793D02*
X2543991Y-8015888D01*
X2543991Y-8015888D02*
X2534468Y-8034936D01*
X2534468Y-8034936D02*
X2524944Y-8044460D01*
X2524944Y-8044460D02*
X2505896Y-8053984D01*
X2505896Y-8053984D02*
X2486848Y-8053984D01*
X2486848Y-8053984D02*
X2467801Y-8044460D01*
X2467801Y-8044460D02*
X2458277Y-8034936D01*
X2458277Y-8034936D02*
X2448753Y-8015888D01*
X2448753Y-8015888D02*
X2439229Y-7977793D01*
X2439229Y-7977793D02*
X2439229Y-7930174D01*
X2439229Y-7930174D02*
X2448753Y-7892079D01*
X2448753Y-7892079D02*
X2458277Y-7873031D01*
X2458277Y-7873031D02*
X2467801Y-7863508D01*
X2467801Y-7863508D02*
X2486848Y-7853984D01*
X2629706Y-7873031D02*
X2639229Y-7863508D01*
X2639229Y-7863508D02*
X2658277Y-7853984D01*
X2658277Y-7853984D02*
X2705896Y-7853984D01*
X2705896Y-7853984D02*
X2724944Y-7863508D01*
X2724944Y-7863508D02*
X2734468Y-7873031D01*
X2734468Y-7873031D02*
X2743991Y-7892079D01*
X2743991Y-7892079D02*
X2743991Y-7911127D01*
X2743991Y-7911127D02*
X2734468Y-7939698D01*
X2734468Y-7939698D02*
X2620182Y-8053984D01*
X2620182Y-8053984D02*
X2743991Y-8053984D01*
X2810658Y-7853984D02*
X2943991Y-7853984D01*
X2943991Y-7853984D02*
X2858277Y-8053984D01*
X3105896Y-7853984D02*
X3067801Y-7853984D01*
X3067801Y-7853984D02*
X3048753Y-7863508D01*
X3048753Y-7863508D02*
X3039229Y-7873031D01*
X3039229Y-7873031D02*
X3020182Y-7901603D01*
X3020182Y-7901603D02*
X3010658Y-7939698D01*
X3010658Y-7939698D02*
X3010658Y-8015888D01*
X3010658Y-8015888D02*
X3020182Y-8034936D01*
X3020182Y-8034936D02*
X3029706Y-8044460D01*
X3029706Y-8044460D02*
X3048753Y-8053984D01*
X3048753Y-8053984D02*
X3086848Y-8053984D01*
X3086848Y-8053984D02*
X3105896Y-8044460D01*
X3105896Y-8044460D02*
X3115420Y-8034936D01*
X3115420Y-8034936D02*
X3124944Y-8015888D01*
X3124944Y-8015888D02*
X3124944Y-7968269D01*
X3124944Y-7968269D02*
X3115420Y-7949222D01*
X3115420Y-7949222D02*
X3105896Y-7939698D01*
X3105896Y-7939698D02*
X3086848Y-7930174D01*
X3086848Y-7930174D02*
X3048753Y-7930174D01*
X3048753Y-7930174D02*
X3029706Y-7939698D01*
X3029706Y-7939698D02*
X3020182Y-7949222D01*
X3020182Y-7949222D02*
X3010658Y-7968269D01*
X3201134Y-7853984D02*
X3201134Y-7892079D01*
X3277325Y-7853984D02*
X3277325Y-7892079D01*
X3572563Y-8130174D02*
X3563039Y-8120650D01*
X3563039Y-8120650D02*
X3543991Y-8092079D01*
X3543991Y-8092079D02*
X3534468Y-8073031D01*
X3534468Y-8073031D02*
X3524944Y-8044460D01*
X3524944Y-8044460D02*
X3515420Y-7996841D01*
X3515420Y-7996841D02*
X3515420Y-7958746D01*
X3515420Y-7958746D02*
X3524944Y-7911127D01*
X3524944Y-7911127D02*
X3534468Y-7882555D01*
X3534468Y-7882555D02*
X3543991Y-7863508D01*
X3543991Y-7863508D02*
X3563039Y-7834936D01*
X3563039Y-7834936D02*
X3572563Y-7825412D01*
X3734468Y-7853984D02*
X3696372Y-7853984D01*
X3696372Y-7853984D02*
X3677325Y-7863508D01*
X3677325Y-7863508D02*
X3667801Y-7873031D01*
X3667801Y-7873031D02*
X3648753Y-7901603D01*
X3648753Y-7901603D02*
X3639229Y-7939698D01*
X3639229Y-7939698D02*
X3639229Y-8015888D01*
X3639229Y-8015888D02*
X3648753Y-8034936D01*
X3648753Y-8034936D02*
X3658277Y-8044460D01*
X3658277Y-8044460D02*
X3677325Y-8053984D01*
X3677325Y-8053984D02*
X3715420Y-8053984D01*
X3715420Y-8053984D02*
X3734468Y-8044460D01*
X3734468Y-8044460D02*
X3743991Y-8034936D01*
X3743991Y-8034936D02*
X3753515Y-8015888D01*
X3753515Y-8015888D02*
X3753515Y-7968269D01*
X3753515Y-7968269D02*
X3743991Y-7949222D01*
X3743991Y-7949222D02*
X3734468Y-7939698D01*
X3734468Y-7939698D02*
X3715420Y-7930174D01*
X3715420Y-7930174D02*
X3677325Y-7930174D01*
X3677325Y-7930174D02*
X3658277Y-7939698D01*
X3658277Y-7939698D02*
X3648753Y-7949222D01*
X3648753Y-7949222D02*
X3639229Y-7968269D01*
X3991610Y-8053984D02*
X3991610Y-7853984D01*
X4077325Y-8053984D02*
X4077325Y-7949222D01*
X4077325Y-7949222D02*
X4067801Y-7930174D01*
X4067801Y-7930174D02*
X4048753Y-7920650D01*
X4048753Y-7920650D02*
X4020182Y-7920650D01*
X4020182Y-7920650D02*
X4001134Y-7930174D01*
X4001134Y-7930174D02*
X3991610Y-7939698D01*
X4201134Y-8053984D02*
X4182087Y-8044460D01*
X4182087Y-8044460D02*
X4172563Y-8034936D01*
X4172563Y-8034936D02*
X4163039Y-8015888D01*
X4163039Y-8015888D02*
X4163039Y-7958746D01*
X4163039Y-7958746D02*
X4172563Y-7939698D01*
X4172563Y-7939698D02*
X4182087Y-7930174D01*
X4182087Y-7930174D02*
X4201134Y-7920650D01*
X4201134Y-7920650D02*
X4229706Y-7920650D01*
X4229706Y-7920650D02*
X4248753Y-7930174D01*
X4248753Y-7930174D02*
X4258277Y-7939698D01*
X4258277Y-7939698D02*
X4267801Y-7958746D01*
X4267801Y-7958746D02*
X4267801Y-8015888D01*
X4267801Y-8015888D02*
X4258277Y-8034936D01*
X4258277Y-8034936D02*
X4248753Y-8044460D01*
X4248753Y-8044460D02*
X4229706Y-8053984D01*
X4229706Y-8053984D02*
X4201134Y-8053984D01*
X4382087Y-8053984D02*
X4363039Y-8044460D01*
X4363039Y-8044460D02*
X4353515Y-8025412D01*
X4353515Y-8025412D02*
X4353515Y-7853984D01*
X4534468Y-8044460D02*
X4515420Y-8053984D01*
X4515420Y-8053984D02*
X4477325Y-8053984D01*
X4477325Y-8053984D02*
X4458277Y-8044460D01*
X4458277Y-8044460D02*
X4448753Y-8025412D01*
X4448753Y-8025412D02*
X4448753Y-7949222D01*
X4448753Y-7949222D02*
X4458277Y-7930174D01*
X4458277Y-7930174D02*
X4477325Y-7920650D01*
X4477325Y-7920650D02*
X4515420Y-7920650D01*
X4515420Y-7920650D02*
X4534468Y-7930174D01*
X4534468Y-7930174D02*
X4543992Y-7949222D01*
X4543992Y-7949222D02*
X4543992Y-7968269D01*
X4543992Y-7968269D02*
X4448753Y-7987317D01*
X4620182Y-8044460D02*
X4639230Y-8053984D01*
X4639230Y-8053984D02*
X4677325Y-8053984D01*
X4677325Y-8053984D02*
X4696373Y-8044460D01*
X4696373Y-8044460D02*
X4705896Y-8025412D01*
X4705896Y-8025412D02*
X4705896Y-8015888D01*
X4705896Y-8015888D02*
X4696373Y-7996841D01*
X4696373Y-7996841D02*
X4677325Y-7987317D01*
X4677325Y-7987317D02*
X4648753Y-7987317D01*
X4648753Y-7987317D02*
X4629706Y-7977793D01*
X4629706Y-7977793D02*
X4620182Y-7958746D01*
X4620182Y-7958746D02*
X4620182Y-7949222D01*
X4620182Y-7949222D02*
X4629706Y-7930174D01*
X4629706Y-7930174D02*
X4648753Y-7920650D01*
X4648753Y-7920650D02*
X4677325Y-7920650D01*
X4677325Y-7920650D02*
X4696373Y-7930174D01*
X4772563Y-8130174D02*
X4782087Y-8120650D01*
X4782087Y-8120650D02*
X4801134Y-8092079D01*
X4801134Y-8092079D02*
X4810658Y-8073031D01*
X4810658Y-8073031D02*
X4820182Y-8044460D01*
X4820182Y-8044460D02*
X4829706Y-7996841D01*
X4829706Y-7996841D02*
X4829706Y-7958746D01*
X4829706Y-7958746D02*
X4820182Y-7911127D01*
X4820182Y-7911127D02*
X4810658Y-7882555D01*
X4810658Y-7882555D02*
X4801134Y-7863508D01*
X4801134Y-7863508D02*
X4782087Y-7834936D01*
X4782087Y-7834936D02*
X4772563Y-7825412D01*
D12*
X-2500Y-8226500D02*
G75*
G02*
X-82500Y-8226500I-40000J0D01*
G01*
X-82500Y-8226500D02*
G75*
G02*
X-2500Y-8226500I40000J0D01*
G01*
D11*
X296372Y-8117984D02*
X315420Y-8117984D01*
X315420Y-8117984D02*
X334467Y-8127508D01*
X334467Y-8127508D02*
X343991Y-8137031D01*
X343991Y-8137031D02*
X353515Y-8156079D01*
X353515Y-8156079D02*
X363039Y-8194174D01*
X363039Y-8194174D02*
X363039Y-8241793D01*
X363039Y-8241793D02*
X353515Y-8279888D01*
X353515Y-8279888D02*
X343991Y-8298936D01*
X343991Y-8298936D02*
X334467Y-8308460D01*
X334467Y-8308460D02*
X315420Y-8317984D01*
X315420Y-8317984D02*
X296372Y-8317984D01*
X296372Y-8317984D02*
X277324Y-8308460D01*
X277324Y-8308460D02*
X267801Y-8298936D01*
X267801Y-8298936D02*
X258277Y-8279888D01*
X258277Y-8279888D02*
X248753Y-8241793D01*
X248753Y-8241793D02*
X248753Y-8194174D01*
X248753Y-8194174D02*
X258277Y-8156079D01*
X258277Y-8156079D02*
X267801Y-8137031D01*
X267801Y-8137031D02*
X277324Y-8127508D01*
X277324Y-8127508D02*
X296372Y-8117984D01*
X448753Y-8298936D02*
X458277Y-8308460D01*
X458277Y-8308460D02*
X448753Y-8317984D01*
X448753Y-8317984D02*
X439229Y-8308460D01*
X439229Y-8308460D02*
X448753Y-8298936D01*
X448753Y-8298936D02*
X448753Y-8317984D01*
X572563Y-8203698D02*
X553515Y-8194174D01*
X553515Y-8194174D02*
X543991Y-8184650D01*
X543991Y-8184650D02*
X534467Y-8165603D01*
X534467Y-8165603D02*
X534467Y-8156079D01*
X534467Y-8156079D02*
X543991Y-8137031D01*
X543991Y-8137031D02*
X553515Y-8127508D01*
X553515Y-8127508D02*
X572563Y-8117984D01*
X572563Y-8117984D02*
X610658Y-8117984D01*
X610658Y-8117984D02*
X629705Y-8127508D01*
X629705Y-8127508D02*
X639229Y-8137031D01*
X639229Y-8137031D02*
X648753Y-8156079D01*
X648753Y-8156079D02*
X648753Y-8165603D01*
X648753Y-8165603D02*
X639229Y-8184650D01*
X639229Y-8184650D02*
X629705Y-8194174D01*
X629705Y-8194174D02*
X610658Y-8203698D01*
X610658Y-8203698D02*
X572563Y-8203698D01*
X572563Y-8203698D02*
X553515Y-8213222D01*
X553515Y-8213222D02*
X543991Y-8222746D01*
X543991Y-8222746D02*
X534467Y-8241793D01*
X534467Y-8241793D02*
X534467Y-8279888D01*
X534467Y-8279888D02*
X543991Y-8298936D01*
X543991Y-8298936D02*
X553515Y-8308460D01*
X553515Y-8308460D02*
X572563Y-8317984D01*
X572563Y-8317984D02*
X610658Y-8317984D01*
X610658Y-8317984D02*
X629705Y-8308460D01*
X629705Y-8308460D02*
X639229Y-8298936D01*
X639229Y-8298936D02*
X648753Y-8279888D01*
X648753Y-8279888D02*
X648753Y-8241793D01*
X648753Y-8241793D02*
X639229Y-8222746D01*
X639229Y-8222746D02*
X629705Y-8213222D01*
X629705Y-8213222D02*
X610658Y-8203698D01*
X772562Y-8117984D02*
X791610Y-8117984D01*
X791610Y-8117984D02*
X810658Y-8127508D01*
X810658Y-8127508D02*
X820182Y-8137031D01*
X820182Y-8137031D02*
X829705Y-8156079D01*
X829705Y-8156079D02*
X839229Y-8194174D01*
X839229Y-8194174D02*
X839229Y-8241793D01*
X839229Y-8241793D02*
X829705Y-8279888D01*
X829705Y-8279888D02*
X820182Y-8298936D01*
X820182Y-8298936D02*
X810658Y-8308460D01*
X810658Y-8308460D02*
X791610Y-8317984D01*
X791610Y-8317984D02*
X772562Y-8317984D01*
X772562Y-8317984D02*
X753515Y-8308460D01*
X753515Y-8308460D02*
X743991Y-8298936D01*
X743991Y-8298936D02*
X734467Y-8279888D01*
X734467Y-8279888D02*
X724943Y-8241793D01*
X724943Y-8241793D02*
X724943Y-8194174D01*
X724943Y-8194174D02*
X734467Y-8156079D01*
X734467Y-8156079D02*
X743991Y-8137031D01*
X743991Y-8137031D02*
X753515Y-8127508D01*
X753515Y-8127508D02*
X772562Y-8117984D01*
X963039Y-8117984D02*
X982086Y-8117984D01*
X982086Y-8117984D02*
X1001134Y-8127508D01*
X1001134Y-8127508D02*
X1010658Y-8137031D01*
X1010658Y-8137031D02*
X1020182Y-8156079D01*
X1020182Y-8156079D02*
X1029705Y-8194174D01*
X1029705Y-8194174D02*
X1029705Y-8241793D01*
X1029705Y-8241793D02*
X1020182Y-8279888D01*
X1020182Y-8279888D02*
X1010658Y-8298936D01*
X1010658Y-8298936D02*
X1001134Y-8308460D01*
X1001134Y-8308460D02*
X982086Y-8317984D01*
X982086Y-8317984D02*
X963039Y-8317984D01*
X963039Y-8317984D02*
X943991Y-8308460D01*
X943991Y-8308460D02*
X934467Y-8298936D01*
X934467Y-8298936D02*
X924943Y-8279888D01*
X924943Y-8279888D02*
X915420Y-8241793D01*
X915420Y-8241793D02*
X915420Y-8194174D01*
X915420Y-8194174D02*
X924943Y-8156079D01*
X924943Y-8156079D02*
X934467Y-8137031D01*
X934467Y-8137031D02*
X943991Y-8127508D01*
X943991Y-8127508D02*
X963039Y-8117984D01*
X1115420Y-8317984D02*
X1115420Y-8184650D01*
X1115420Y-8203698D02*
X1124944Y-8194174D01*
X1124944Y-8194174D02*
X1143991Y-8184650D01*
X1143991Y-8184650D02*
X1172563Y-8184650D01*
X1172563Y-8184650D02*
X1191610Y-8194174D01*
X1191610Y-8194174D02*
X1201134Y-8213222D01*
X1201134Y-8213222D02*
X1201134Y-8317984D01*
X1201134Y-8213222D02*
X1210658Y-8194174D01*
X1210658Y-8194174D02*
X1229705Y-8184650D01*
X1229705Y-8184650D02*
X1258277Y-8184650D01*
X1258277Y-8184650D02*
X1277325Y-8194174D01*
X1277325Y-8194174D02*
X1286848Y-8213222D01*
X1286848Y-8213222D02*
X1286848Y-8317984D01*
X1382086Y-8317984D02*
X1382086Y-8184650D01*
X1382086Y-8203698D02*
X1391610Y-8194174D01*
X1391610Y-8194174D02*
X1410658Y-8184650D01*
X1410658Y-8184650D02*
X1439229Y-8184650D01*
X1439229Y-8184650D02*
X1458277Y-8194174D01*
X1458277Y-8194174D02*
X1467801Y-8213222D01*
X1467801Y-8213222D02*
X1467801Y-8317984D01*
X1467801Y-8213222D02*
X1477324Y-8194174D01*
X1477324Y-8194174D02*
X1496372Y-8184650D01*
X1496372Y-8184650D02*
X1524943Y-8184650D01*
X1524943Y-8184650D02*
X1543991Y-8194174D01*
X1543991Y-8194174D02*
X1553515Y-8213222D01*
X1553515Y-8213222D02*
X1553515Y-8317984D01*
X1943991Y-8108460D02*
X1772563Y-8365603D01*
X2201134Y-8117984D02*
X2220182Y-8117984D01*
X2220182Y-8117984D02*
X2239229Y-8127508D01*
X2239229Y-8127508D02*
X2248753Y-8137031D01*
X2248753Y-8137031D02*
X2258277Y-8156079D01*
X2258277Y-8156079D02*
X2267801Y-8194174D01*
X2267801Y-8194174D02*
X2267801Y-8241793D01*
X2267801Y-8241793D02*
X2258277Y-8279888D01*
X2258277Y-8279888D02*
X2248753Y-8298936D01*
X2248753Y-8298936D02*
X2239229Y-8308460D01*
X2239229Y-8308460D02*
X2220182Y-8317984D01*
X2220182Y-8317984D02*
X2201134Y-8317984D01*
X2201134Y-8317984D02*
X2182087Y-8308460D01*
X2182087Y-8308460D02*
X2172563Y-8298936D01*
X2172563Y-8298936D02*
X2163039Y-8279888D01*
X2163039Y-8279888D02*
X2153515Y-8241793D01*
X2153515Y-8241793D02*
X2153515Y-8194174D01*
X2153515Y-8194174D02*
X2163039Y-8156079D01*
X2163039Y-8156079D02*
X2172563Y-8137031D01*
X2172563Y-8137031D02*
X2182087Y-8127508D01*
X2182087Y-8127508D02*
X2201134Y-8117984D01*
X2353515Y-8298936D02*
X2363039Y-8308460D01*
X2363039Y-8308460D02*
X2353515Y-8317984D01*
X2353515Y-8317984D02*
X2343991Y-8308460D01*
X2343991Y-8308460D02*
X2353515Y-8298936D01*
X2353515Y-8298936D02*
X2353515Y-8317984D01*
X2486848Y-8117984D02*
X2505896Y-8117984D01*
X2505896Y-8117984D02*
X2524944Y-8127508D01*
X2524944Y-8127508D02*
X2534468Y-8137031D01*
X2534468Y-8137031D02*
X2543991Y-8156079D01*
X2543991Y-8156079D02*
X2553515Y-8194174D01*
X2553515Y-8194174D02*
X2553515Y-8241793D01*
X2553515Y-8241793D02*
X2543991Y-8279888D01*
X2543991Y-8279888D02*
X2534468Y-8298936D01*
X2534468Y-8298936D02*
X2524944Y-8308460D01*
X2524944Y-8308460D02*
X2505896Y-8317984D01*
X2505896Y-8317984D02*
X2486848Y-8317984D01*
X2486848Y-8317984D02*
X2467801Y-8308460D01*
X2467801Y-8308460D02*
X2458277Y-8298936D01*
X2458277Y-8298936D02*
X2448753Y-8279888D01*
X2448753Y-8279888D02*
X2439229Y-8241793D01*
X2439229Y-8241793D02*
X2439229Y-8194174D01*
X2439229Y-8194174D02*
X2448753Y-8156079D01*
X2448753Y-8156079D02*
X2458277Y-8137031D01*
X2458277Y-8137031D02*
X2467801Y-8127508D01*
X2467801Y-8127508D02*
X2486848Y-8117984D01*
X2620182Y-8117984D02*
X2743991Y-8117984D01*
X2743991Y-8117984D02*
X2677325Y-8194174D01*
X2677325Y-8194174D02*
X2705896Y-8194174D01*
X2705896Y-8194174D02*
X2724944Y-8203698D01*
X2724944Y-8203698D02*
X2734468Y-8213222D01*
X2734468Y-8213222D02*
X2743991Y-8232269D01*
X2743991Y-8232269D02*
X2743991Y-8279888D01*
X2743991Y-8279888D02*
X2734468Y-8298936D01*
X2734468Y-8298936D02*
X2724944Y-8308460D01*
X2724944Y-8308460D02*
X2705896Y-8317984D01*
X2705896Y-8317984D02*
X2648753Y-8317984D01*
X2648753Y-8317984D02*
X2629706Y-8308460D01*
X2629706Y-8308460D02*
X2620182Y-8298936D01*
X2934467Y-8317984D02*
X2820182Y-8317984D01*
X2877325Y-8317984D02*
X2877325Y-8117984D01*
X2877325Y-8117984D02*
X2858277Y-8146555D01*
X2858277Y-8146555D02*
X2839229Y-8165603D01*
X2839229Y-8165603D02*
X2820182Y-8175127D01*
X3115420Y-8117984D02*
X3020182Y-8117984D01*
X3020182Y-8117984D02*
X3010658Y-8213222D01*
X3010658Y-8213222D02*
X3020182Y-8203698D01*
X3020182Y-8203698D02*
X3039229Y-8194174D01*
X3039229Y-8194174D02*
X3086848Y-8194174D01*
X3086848Y-8194174D02*
X3105896Y-8203698D01*
X3105896Y-8203698D02*
X3115420Y-8213222D01*
X3115420Y-8213222D02*
X3124944Y-8232269D01*
X3124944Y-8232269D02*
X3124944Y-8279888D01*
X3124944Y-8279888D02*
X3115420Y-8298936D01*
X3115420Y-8298936D02*
X3105896Y-8308460D01*
X3105896Y-8308460D02*
X3086848Y-8317984D01*
X3086848Y-8317984D02*
X3039229Y-8317984D01*
X3039229Y-8317984D02*
X3020182Y-8308460D01*
X3020182Y-8308460D02*
X3010658Y-8298936D01*
X3201134Y-8117984D02*
X3201134Y-8156079D01*
X3277325Y-8117984D02*
X3277325Y-8156079D01*
X3572563Y-8394174D02*
X3563039Y-8384650D01*
X3563039Y-8384650D02*
X3543991Y-8356079D01*
X3543991Y-8356079D02*
X3534468Y-8337031D01*
X3534468Y-8337031D02*
X3524944Y-8308460D01*
X3524944Y-8308460D02*
X3515420Y-8260841D01*
X3515420Y-8260841D02*
X3515420Y-8222746D01*
X3515420Y-8222746D02*
X3524944Y-8175127D01*
X3524944Y-8175127D02*
X3534468Y-8146555D01*
X3534468Y-8146555D02*
X3543991Y-8127508D01*
X3543991Y-8127508D02*
X3563039Y-8098936D01*
X3563039Y-8098936D02*
X3572563Y-8089412D01*
X3753515Y-8317984D02*
X3639229Y-8317984D01*
X3696372Y-8317984D02*
X3696372Y-8117984D01*
X3696372Y-8117984D02*
X3677325Y-8146555D01*
X3677325Y-8146555D02*
X3658277Y-8165603D01*
X3658277Y-8165603D02*
X3639229Y-8175127D01*
X3867801Y-8203698D02*
X3848753Y-8194174D01*
X3848753Y-8194174D02*
X3839229Y-8184650D01*
X3839229Y-8184650D02*
X3829706Y-8165603D01*
X3829706Y-8165603D02*
X3829706Y-8156079D01*
X3829706Y-8156079D02*
X3839229Y-8137031D01*
X3839229Y-8137031D02*
X3848753Y-8127508D01*
X3848753Y-8127508D02*
X3867801Y-8117984D01*
X3867801Y-8117984D02*
X3905896Y-8117984D01*
X3905896Y-8117984D02*
X3924944Y-8127508D01*
X3924944Y-8127508D02*
X3934468Y-8137031D01*
X3934468Y-8137031D02*
X3943991Y-8156079D01*
X3943991Y-8156079D02*
X3943991Y-8165603D01*
X3943991Y-8165603D02*
X3934468Y-8184650D01*
X3934468Y-8184650D02*
X3924944Y-8194174D01*
X3924944Y-8194174D02*
X3905896Y-8203698D01*
X3905896Y-8203698D02*
X3867801Y-8203698D01*
X3867801Y-8203698D02*
X3848753Y-8213222D01*
X3848753Y-8213222D02*
X3839229Y-8222746D01*
X3839229Y-8222746D02*
X3829706Y-8241793D01*
X3829706Y-8241793D02*
X3829706Y-8279888D01*
X3829706Y-8279888D02*
X3839229Y-8298936D01*
X3839229Y-8298936D02*
X3848753Y-8308460D01*
X3848753Y-8308460D02*
X3867801Y-8317984D01*
X3867801Y-8317984D02*
X3905896Y-8317984D01*
X3905896Y-8317984D02*
X3924944Y-8308460D01*
X3924944Y-8308460D02*
X3934468Y-8298936D01*
X3934468Y-8298936D02*
X3943991Y-8279888D01*
X3943991Y-8279888D02*
X3943991Y-8241793D01*
X3943991Y-8241793D02*
X3934468Y-8222746D01*
X3934468Y-8222746D02*
X3924944Y-8213222D01*
X3924944Y-8213222D02*
X3905896Y-8203698D01*
X4182087Y-8317984D02*
X4182087Y-8117984D01*
X4267801Y-8317984D02*
X4267801Y-8213222D01*
X4267801Y-8213222D02*
X4258277Y-8194174D01*
X4258277Y-8194174D02*
X4239230Y-8184650D01*
X4239230Y-8184650D02*
X4210658Y-8184650D01*
X4210658Y-8184650D02*
X4191610Y-8194174D01*
X4191610Y-8194174D02*
X4182087Y-8203698D01*
X4391611Y-8317984D02*
X4372563Y-8308460D01*
X4372563Y-8308460D02*
X4363039Y-8298936D01*
X4363039Y-8298936D02*
X4353515Y-8279888D01*
X4353515Y-8279888D02*
X4353515Y-8222746D01*
X4353515Y-8222746D02*
X4363039Y-8203698D01*
X4363039Y-8203698D02*
X4372563Y-8194174D01*
X4372563Y-8194174D02*
X4391611Y-8184650D01*
X4391611Y-8184650D02*
X4420182Y-8184650D01*
X4420182Y-8184650D02*
X4439230Y-8194174D01*
X4439230Y-8194174D02*
X4448753Y-8203698D01*
X4448753Y-8203698D02*
X4458277Y-8222746D01*
X4458277Y-8222746D02*
X4458277Y-8279888D01*
X4458277Y-8279888D02*
X4448753Y-8298936D01*
X4448753Y-8298936D02*
X4439230Y-8308460D01*
X4439230Y-8308460D02*
X4420182Y-8317984D01*
X4420182Y-8317984D02*
X4391611Y-8317984D01*
X4572563Y-8317984D02*
X4553515Y-8308460D01*
X4553515Y-8308460D02*
X4543992Y-8289412D01*
X4543992Y-8289412D02*
X4543992Y-8117984D01*
X4724944Y-8308460D02*
X4705896Y-8317984D01*
X4705896Y-8317984D02*
X4667801Y-8317984D01*
X4667801Y-8317984D02*
X4648753Y-8308460D01*
X4648753Y-8308460D02*
X4639230Y-8289412D01*
X4639230Y-8289412D02*
X4639230Y-8213222D01*
X4639230Y-8213222D02*
X4648753Y-8194174D01*
X4648753Y-8194174D02*
X4667801Y-8184650D01*
X4667801Y-8184650D02*
X4705896Y-8184650D01*
X4705896Y-8184650D02*
X4724944Y-8194174D01*
X4724944Y-8194174D02*
X4734468Y-8213222D01*
X4734468Y-8213222D02*
X4734468Y-8232269D01*
X4734468Y-8232269D02*
X4639230Y-8251317D01*
X4810658Y-8308460D02*
X4829706Y-8317984D01*
X4829706Y-8317984D02*
X4867801Y-8317984D01*
X4867801Y-8317984D02*
X4886849Y-8308460D01*
X4886849Y-8308460D02*
X4896373Y-8289412D01*
X4896373Y-8289412D02*
X4896373Y-8279888D01*
X4896373Y-8279888D02*
X4886849Y-8260841D01*
X4886849Y-8260841D02*
X4867801Y-8251317D01*
X4867801Y-8251317D02*
X4839230Y-8251317D01*
X4839230Y-8251317D02*
X4820182Y-8241793D01*
X4820182Y-8241793D02*
X4810658Y-8222746D01*
X4810658Y-8222746D02*
X4810658Y-8213222D01*
X4810658Y-8213222D02*
X4820182Y-8194174D01*
X4820182Y-8194174D02*
X4839230Y-8184650D01*
X4839230Y-8184650D02*
X4867801Y-8184650D01*
X4867801Y-8184650D02*
X4886849Y-8194174D01*
X4963039Y-8394174D02*
X4972563Y-8384650D01*
X4972563Y-8384650D02*
X4991611Y-8356079D01*
X4991611Y-8356079D02*
X5001134Y-8337031D01*
X5001134Y-8337031D02*
X5010658Y-8308460D01*
X5010658Y-8308460D02*
X5020182Y-8260841D01*
X5020182Y-8260841D02*
X5020182Y-8222746D01*
X5020182Y-8222746D02*
X5010658Y-8175127D01*
X5010658Y-8175127D02*
X5001134Y-8146555D01*
X5001134Y-8146555D02*
X4991611Y-8127508D01*
X4991611Y-8127508D02*
X4972563Y-8098936D01*
X4972563Y-8098936D02*
X4963039Y-8089412D01*
D12*
X-47500Y-8445500D02*
X-47500Y-8535500D01*
X-92500Y-8490500D02*
X-2500Y-8490500D01*
D11*
X296372Y-8381984D02*
X315420Y-8381984D01*
X315420Y-8381984D02*
X334467Y-8391508D01*
X334467Y-8391508D02*
X343991Y-8401031D01*
X343991Y-8401031D02*
X353515Y-8420079D01*
X353515Y-8420079D02*
X363039Y-8458174D01*
X363039Y-8458174D02*
X363039Y-8505793D01*
X363039Y-8505793D02*
X353515Y-8543889D01*
X353515Y-8543889D02*
X343991Y-8562936D01*
X343991Y-8562936D02*
X334467Y-8572460D01*
X334467Y-8572460D02*
X315420Y-8581984D01*
X315420Y-8581984D02*
X296372Y-8581984D01*
X296372Y-8581984D02*
X277324Y-8572460D01*
X277324Y-8572460D02*
X267801Y-8562936D01*
X267801Y-8562936D02*
X258277Y-8543889D01*
X258277Y-8543889D02*
X248753Y-8505793D01*
X248753Y-8505793D02*
X248753Y-8458174D01*
X248753Y-8458174D02*
X258277Y-8420079D01*
X258277Y-8420079D02*
X267801Y-8401031D01*
X267801Y-8401031D02*
X277324Y-8391508D01*
X277324Y-8391508D02*
X296372Y-8381984D01*
X448753Y-8562936D02*
X458277Y-8572460D01*
X458277Y-8572460D02*
X448753Y-8581984D01*
X448753Y-8581984D02*
X439229Y-8572460D01*
X439229Y-8572460D02*
X448753Y-8562936D01*
X448753Y-8562936D02*
X448753Y-8581984D01*
X553515Y-8581984D02*
X591610Y-8581984D01*
X591610Y-8581984D02*
X610658Y-8572460D01*
X610658Y-8572460D02*
X620182Y-8562936D01*
X620182Y-8562936D02*
X639229Y-8534365D01*
X639229Y-8534365D02*
X648753Y-8496270D01*
X648753Y-8496270D02*
X648753Y-8420079D01*
X648753Y-8420079D02*
X639229Y-8401031D01*
X639229Y-8401031D02*
X629705Y-8391508D01*
X629705Y-8391508D02*
X610658Y-8381984D01*
X610658Y-8381984D02*
X572563Y-8381984D01*
X572563Y-8381984D02*
X553515Y-8391508D01*
X553515Y-8391508D02*
X543991Y-8401031D01*
X543991Y-8401031D02*
X534467Y-8420079D01*
X534467Y-8420079D02*
X534467Y-8467698D01*
X534467Y-8467698D02*
X543991Y-8486746D01*
X543991Y-8486746D02*
X553515Y-8496270D01*
X553515Y-8496270D02*
X572563Y-8505793D01*
X572563Y-8505793D02*
X610658Y-8505793D01*
X610658Y-8505793D02*
X629705Y-8496270D01*
X629705Y-8496270D02*
X639229Y-8486746D01*
X639229Y-8486746D02*
X648753Y-8467698D01*
X772562Y-8381984D02*
X791610Y-8381984D01*
X791610Y-8381984D02*
X810658Y-8391508D01*
X810658Y-8391508D02*
X820182Y-8401031D01*
X820182Y-8401031D02*
X829705Y-8420079D01*
X829705Y-8420079D02*
X839229Y-8458174D01*
X839229Y-8458174D02*
X839229Y-8505793D01*
X839229Y-8505793D02*
X829705Y-8543889D01*
X829705Y-8543889D02*
X820182Y-8562936D01*
X820182Y-8562936D02*
X810658Y-8572460D01*
X810658Y-8572460D02*
X791610Y-8581984D01*
X791610Y-8581984D02*
X772562Y-8581984D01*
X772562Y-8581984D02*
X753515Y-8572460D01*
X753515Y-8572460D02*
X743991Y-8562936D01*
X743991Y-8562936D02*
X734467Y-8543889D01*
X734467Y-8543889D02*
X724943Y-8505793D01*
X724943Y-8505793D02*
X724943Y-8458174D01*
X724943Y-8458174D02*
X734467Y-8420079D01*
X734467Y-8420079D02*
X743991Y-8401031D01*
X743991Y-8401031D02*
X753515Y-8391508D01*
X753515Y-8391508D02*
X772562Y-8381984D01*
X963039Y-8381984D02*
X982086Y-8381984D01*
X982086Y-8381984D02*
X1001134Y-8391508D01*
X1001134Y-8391508D02*
X1010658Y-8401031D01*
X1010658Y-8401031D02*
X1020182Y-8420079D01*
X1020182Y-8420079D02*
X1029705Y-8458174D01*
X1029705Y-8458174D02*
X1029705Y-8505793D01*
X1029705Y-8505793D02*
X1020182Y-8543889D01*
X1020182Y-8543889D02*
X1010658Y-8562936D01*
X1010658Y-8562936D02*
X1001134Y-8572460D01*
X1001134Y-8572460D02*
X982086Y-8581984D01*
X982086Y-8581984D02*
X963039Y-8581984D01*
X963039Y-8581984D02*
X943991Y-8572460D01*
X943991Y-8572460D02*
X934467Y-8562936D01*
X934467Y-8562936D02*
X924943Y-8543889D01*
X924943Y-8543889D02*
X915420Y-8505793D01*
X915420Y-8505793D02*
X915420Y-8458174D01*
X915420Y-8458174D02*
X924943Y-8420079D01*
X924943Y-8420079D02*
X934467Y-8401031D01*
X934467Y-8401031D02*
X943991Y-8391508D01*
X943991Y-8391508D02*
X963039Y-8381984D01*
X1115420Y-8581984D02*
X1115420Y-8448650D01*
X1115420Y-8467698D02*
X1124944Y-8458174D01*
X1124944Y-8458174D02*
X1143991Y-8448650D01*
X1143991Y-8448650D02*
X1172563Y-8448650D01*
X1172563Y-8448650D02*
X1191610Y-8458174D01*
X1191610Y-8458174D02*
X1201134Y-8477222D01*
X1201134Y-8477222D02*
X1201134Y-8581984D01*
X1201134Y-8477222D02*
X1210658Y-8458174D01*
X1210658Y-8458174D02*
X1229705Y-8448650D01*
X1229705Y-8448650D02*
X1258277Y-8448650D01*
X1258277Y-8448650D02*
X1277325Y-8458174D01*
X1277325Y-8458174D02*
X1286848Y-8477222D01*
X1286848Y-8477222D02*
X1286848Y-8581984D01*
X1382086Y-8581984D02*
X1382086Y-8448650D01*
X1382086Y-8467698D02*
X1391610Y-8458174D01*
X1391610Y-8458174D02*
X1410658Y-8448650D01*
X1410658Y-8448650D02*
X1439229Y-8448650D01*
X1439229Y-8448650D02*
X1458277Y-8458174D01*
X1458277Y-8458174D02*
X1467801Y-8477222D01*
X1467801Y-8477222D02*
X1467801Y-8581984D01*
X1467801Y-8477222D02*
X1477324Y-8458174D01*
X1477324Y-8458174D02*
X1496372Y-8448650D01*
X1496372Y-8448650D02*
X1524943Y-8448650D01*
X1524943Y-8448650D02*
X1543991Y-8458174D01*
X1543991Y-8458174D02*
X1553515Y-8477222D01*
X1553515Y-8477222D02*
X1553515Y-8581984D01*
X1943991Y-8372460D02*
X1772563Y-8629603D01*
X2201134Y-8381984D02*
X2220182Y-8381984D01*
X2220182Y-8381984D02*
X2239229Y-8391508D01*
X2239229Y-8391508D02*
X2248753Y-8401031D01*
X2248753Y-8401031D02*
X2258277Y-8420079D01*
X2258277Y-8420079D02*
X2267801Y-8458174D01*
X2267801Y-8458174D02*
X2267801Y-8505793D01*
X2267801Y-8505793D02*
X2258277Y-8543889D01*
X2258277Y-8543889D02*
X2248753Y-8562936D01*
X2248753Y-8562936D02*
X2239229Y-8572460D01*
X2239229Y-8572460D02*
X2220182Y-8581984D01*
X2220182Y-8581984D02*
X2201134Y-8581984D01*
X2201134Y-8581984D02*
X2182087Y-8572460D01*
X2182087Y-8572460D02*
X2172563Y-8562936D01*
X2172563Y-8562936D02*
X2163039Y-8543889D01*
X2163039Y-8543889D02*
X2153515Y-8505793D01*
X2153515Y-8505793D02*
X2153515Y-8458174D01*
X2153515Y-8458174D02*
X2163039Y-8420079D01*
X2163039Y-8420079D02*
X2172563Y-8401031D01*
X2172563Y-8401031D02*
X2182087Y-8391508D01*
X2182087Y-8391508D02*
X2201134Y-8381984D01*
X2353515Y-8562936D02*
X2363039Y-8572460D01*
X2363039Y-8572460D02*
X2353515Y-8581984D01*
X2353515Y-8581984D02*
X2343991Y-8572460D01*
X2343991Y-8572460D02*
X2353515Y-8562936D01*
X2353515Y-8562936D02*
X2353515Y-8581984D01*
X2486848Y-8381984D02*
X2505896Y-8381984D01*
X2505896Y-8381984D02*
X2524944Y-8391508D01*
X2524944Y-8391508D02*
X2534468Y-8401031D01*
X2534468Y-8401031D02*
X2543991Y-8420079D01*
X2543991Y-8420079D02*
X2553515Y-8458174D01*
X2553515Y-8458174D02*
X2553515Y-8505793D01*
X2553515Y-8505793D02*
X2543991Y-8543889D01*
X2543991Y-8543889D02*
X2534468Y-8562936D01*
X2534468Y-8562936D02*
X2524944Y-8572460D01*
X2524944Y-8572460D02*
X2505896Y-8581984D01*
X2505896Y-8581984D02*
X2486848Y-8581984D01*
X2486848Y-8581984D02*
X2467801Y-8572460D01*
X2467801Y-8572460D02*
X2458277Y-8562936D01*
X2458277Y-8562936D02*
X2448753Y-8543889D01*
X2448753Y-8543889D02*
X2439229Y-8505793D01*
X2439229Y-8505793D02*
X2439229Y-8458174D01*
X2439229Y-8458174D02*
X2448753Y-8420079D01*
X2448753Y-8420079D02*
X2458277Y-8401031D01*
X2458277Y-8401031D02*
X2467801Y-8391508D01*
X2467801Y-8391508D02*
X2486848Y-8381984D01*
X2620182Y-8381984D02*
X2743991Y-8381984D01*
X2743991Y-8381984D02*
X2677325Y-8458174D01*
X2677325Y-8458174D02*
X2705896Y-8458174D01*
X2705896Y-8458174D02*
X2724944Y-8467698D01*
X2724944Y-8467698D02*
X2734468Y-8477222D01*
X2734468Y-8477222D02*
X2743991Y-8496270D01*
X2743991Y-8496270D02*
X2743991Y-8543889D01*
X2743991Y-8543889D02*
X2734468Y-8562936D01*
X2734468Y-8562936D02*
X2724944Y-8572460D01*
X2724944Y-8572460D02*
X2705896Y-8581984D01*
X2705896Y-8581984D02*
X2648753Y-8581984D01*
X2648753Y-8581984D02*
X2629706Y-8572460D01*
X2629706Y-8572460D02*
X2620182Y-8562936D01*
X2924944Y-8381984D02*
X2829706Y-8381984D01*
X2829706Y-8381984D02*
X2820182Y-8477222D01*
X2820182Y-8477222D02*
X2829706Y-8467698D01*
X2829706Y-8467698D02*
X2848753Y-8458174D01*
X2848753Y-8458174D02*
X2896372Y-8458174D01*
X2896372Y-8458174D02*
X2915420Y-8467698D01*
X2915420Y-8467698D02*
X2924944Y-8477222D01*
X2924944Y-8477222D02*
X2934467Y-8496270D01*
X2934467Y-8496270D02*
X2934467Y-8543889D01*
X2934467Y-8543889D02*
X2924944Y-8562936D01*
X2924944Y-8562936D02*
X2915420Y-8572460D01*
X2915420Y-8572460D02*
X2896372Y-8581984D01*
X2896372Y-8581984D02*
X2848753Y-8581984D01*
X2848753Y-8581984D02*
X2829706Y-8572460D01*
X2829706Y-8572460D02*
X2820182Y-8562936D01*
X3105896Y-8448650D02*
X3105896Y-8581984D01*
X3058277Y-8372460D02*
X3010658Y-8515317D01*
X3010658Y-8515317D02*
X3134467Y-8515317D01*
X3201134Y-8381984D02*
X3201134Y-8420079D01*
X3277325Y-8381984D02*
X3277325Y-8420079D01*
X3572563Y-8658174D02*
X3563039Y-8648650D01*
X3563039Y-8648650D02*
X3543991Y-8620079D01*
X3543991Y-8620079D02*
X3534468Y-8601031D01*
X3534468Y-8601031D02*
X3524944Y-8572460D01*
X3524944Y-8572460D02*
X3515420Y-8524841D01*
X3515420Y-8524841D02*
X3515420Y-8486746D01*
X3515420Y-8486746D02*
X3524944Y-8439127D01*
X3524944Y-8439127D02*
X3534468Y-8410555D01*
X3534468Y-8410555D02*
X3543991Y-8391508D01*
X3543991Y-8391508D02*
X3563039Y-8362936D01*
X3563039Y-8362936D02*
X3572563Y-8353412D01*
X3734468Y-8381984D02*
X3696372Y-8381984D01*
X3696372Y-8381984D02*
X3677325Y-8391508D01*
X3677325Y-8391508D02*
X3667801Y-8401031D01*
X3667801Y-8401031D02*
X3648753Y-8429603D01*
X3648753Y-8429603D02*
X3639229Y-8467698D01*
X3639229Y-8467698D02*
X3639229Y-8543889D01*
X3639229Y-8543889D02*
X3648753Y-8562936D01*
X3648753Y-8562936D02*
X3658277Y-8572460D01*
X3658277Y-8572460D02*
X3677325Y-8581984D01*
X3677325Y-8581984D02*
X3715420Y-8581984D01*
X3715420Y-8581984D02*
X3734468Y-8572460D01*
X3734468Y-8572460D02*
X3743991Y-8562936D01*
X3743991Y-8562936D02*
X3753515Y-8543889D01*
X3753515Y-8543889D02*
X3753515Y-8496270D01*
X3753515Y-8496270D02*
X3743991Y-8477222D01*
X3743991Y-8477222D02*
X3734468Y-8467698D01*
X3734468Y-8467698D02*
X3715420Y-8458174D01*
X3715420Y-8458174D02*
X3677325Y-8458174D01*
X3677325Y-8458174D02*
X3658277Y-8467698D01*
X3658277Y-8467698D02*
X3648753Y-8477222D01*
X3648753Y-8477222D02*
X3639229Y-8496270D01*
X3991610Y-8581984D02*
X3991610Y-8381984D01*
X4077325Y-8581984D02*
X4077325Y-8477222D01*
X4077325Y-8477222D02*
X4067801Y-8458174D01*
X4067801Y-8458174D02*
X4048753Y-8448650D01*
X4048753Y-8448650D02*
X4020182Y-8448650D01*
X4020182Y-8448650D02*
X4001134Y-8458174D01*
X4001134Y-8458174D02*
X3991610Y-8467698D01*
X4201134Y-8581984D02*
X4182087Y-8572460D01*
X4182087Y-8572460D02*
X4172563Y-8562936D01*
X4172563Y-8562936D02*
X4163039Y-8543889D01*
X4163039Y-8543889D02*
X4163039Y-8486746D01*
X4163039Y-8486746D02*
X4172563Y-8467698D01*
X4172563Y-8467698D02*
X4182087Y-8458174D01*
X4182087Y-8458174D02*
X4201134Y-8448650D01*
X4201134Y-8448650D02*
X4229706Y-8448650D01*
X4229706Y-8448650D02*
X4248753Y-8458174D01*
X4248753Y-8458174D02*
X4258277Y-8467698D01*
X4258277Y-8467698D02*
X4267801Y-8486746D01*
X4267801Y-8486746D02*
X4267801Y-8543889D01*
X4267801Y-8543889D02*
X4258277Y-8562936D01*
X4258277Y-8562936D02*
X4248753Y-8572460D01*
X4248753Y-8572460D02*
X4229706Y-8581984D01*
X4229706Y-8581984D02*
X4201134Y-8581984D01*
X4382087Y-8581984D02*
X4363039Y-8572460D01*
X4363039Y-8572460D02*
X4353515Y-8553412D01*
X4353515Y-8553412D02*
X4353515Y-8381984D01*
X4534468Y-8572460D02*
X4515420Y-8581984D01*
X4515420Y-8581984D02*
X4477325Y-8581984D01*
X4477325Y-8581984D02*
X4458277Y-8572460D01*
X4458277Y-8572460D02*
X4448753Y-8553412D01*
X4448753Y-8553412D02*
X4448753Y-8477222D01*
X4448753Y-8477222D02*
X4458277Y-8458174D01*
X4458277Y-8458174D02*
X4477325Y-8448650D01*
X4477325Y-8448650D02*
X4515420Y-8448650D01*
X4515420Y-8448650D02*
X4534468Y-8458174D01*
X4534468Y-8458174D02*
X4543992Y-8477222D01*
X4543992Y-8477222D02*
X4543992Y-8496270D01*
X4543992Y-8496270D02*
X4448753Y-8515317D01*
X4620182Y-8572460D02*
X4639230Y-8581984D01*
X4639230Y-8581984D02*
X4677325Y-8581984D01*
X4677325Y-8581984D02*
X4696373Y-8572460D01*
X4696373Y-8572460D02*
X4705896Y-8553412D01*
X4705896Y-8553412D02*
X4705896Y-8543889D01*
X4705896Y-8543889D02*
X4696373Y-8524841D01*
X4696373Y-8524841D02*
X4677325Y-8515317D01*
X4677325Y-8515317D02*
X4648753Y-8515317D01*
X4648753Y-8515317D02*
X4629706Y-8505793D01*
X4629706Y-8505793D02*
X4620182Y-8486746D01*
X4620182Y-8486746D02*
X4620182Y-8477222D01*
X4620182Y-8477222D02*
X4629706Y-8458174D01*
X4629706Y-8458174D02*
X4648753Y-8448650D01*
X4648753Y-8448650D02*
X4677325Y-8448650D01*
X4677325Y-8448650D02*
X4696373Y-8458174D01*
X4772563Y-8658174D02*
X4782087Y-8648650D01*
X4782087Y-8648650D02*
X4801134Y-8620079D01*
X4801134Y-8620079D02*
X4810658Y-8601031D01*
X4810658Y-8601031D02*
X4820182Y-8572460D01*
X4820182Y-8572460D02*
X4829706Y-8524841D01*
X4829706Y-8524841D02*
X4829706Y-8486746D01*
X4829706Y-8486746D02*
X4820182Y-8439127D01*
X4820182Y-8439127D02*
X4810658Y-8410555D01*
X4810658Y-8410555D02*
X4801134Y-8391508D01*
X4801134Y-8391508D02*
X4782087Y-8362936D01*
X4782087Y-8362936D02*
X4772563Y-8353412D01*
D12*
X-17144Y-8789856D02*
X-17144Y-8719144D01*
X-87856Y-8719144D01*
X-87856Y-8789856D01*
X-17144Y-8789856D01*
D11*
X363039Y-8845984D02*
X248753Y-8845984D01*
X305896Y-8845984D02*
X305896Y-8645984D01*
X305896Y-8645984D02*
X286848Y-8674555D01*
X286848Y-8674555D02*
X267801Y-8693603D01*
X267801Y-8693603D02*
X248753Y-8703127D01*
X448753Y-8826936D02*
X458277Y-8836460D01*
X458277Y-8836460D02*
X448753Y-8845984D01*
X448753Y-8845984D02*
X439229Y-8836460D01*
X439229Y-8836460D02*
X448753Y-8826936D01*
X448753Y-8826936D02*
X448753Y-8845984D01*
X582086Y-8645984D02*
X601134Y-8645984D01*
X601134Y-8645984D02*
X620182Y-8655508D01*
X620182Y-8655508D02*
X629705Y-8665031D01*
X629705Y-8665031D02*
X639229Y-8684079D01*
X639229Y-8684079D02*
X648753Y-8722174D01*
X648753Y-8722174D02*
X648753Y-8769793D01*
X648753Y-8769793D02*
X639229Y-8807889D01*
X639229Y-8807889D02*
X629705Y-8826936D01*
X629705Y-8826936D02*
X620182Y-8836460D01*
X620182Y-8836460D02*
X601134Y-8845984D01*
X601134Y-8845984D02*
X582086Y-8845984D01*
X582086Y-8845984D02*
X563039Y-8836460D01*
X563039Y-8836460D02*
X553515Y-8826936D01*
X553515Y-8826936D02*
X543991Y-8807889D01*
X543991Y-8807889D02*
X534467Y-8769793D01*
X534467Y-8769793D02*
X534467Y-8722174D01*
X534467Y-8722174D02*
X543991Y-8684079D01*
X543991Y-8684079D02*
X553515Y-8665031D01*
X553515Y-8665031D02*
X563039Y-8655508D01*
X563039Y-8655508D02*
X582086Y-8645984D01*
X772562Y-8645984D02*
X791610Y-8645984D01*
X791610Y-8645984D02*
X810658Y-8655508D01*
X810658Y-8655508D02*
X820182Y-8665031D01*
X820182Y-8665031D02*
X829705Y-8684079D01*
X829705Y-8684079D02*
X839229Y-8722174D01*
X839229Y-8722174D02*
X839229Y-8769793D01*
X839229Y-8769793D02*
X829705Y-8807889D01*
X829705Y-8807889D02*
X820182Y-8826936D01*
X820182Y-8826936D02*
X810658Y-8836460D01*
X810658Y-8836460D02*
X791610Y-8845984D01*
X791610Y-8845984D02*
X772562Y-8845984D01*
X772562Y-8845984D02*
X753515Y-8836460D01*
X753515Y-8836460D02*
X743991Y-8826936D01*
X743991Y-8826936D02*
X734467Y-8807889D01*
X734467Y-8807889D02*
X724943Y-8769793D01*
X724943Y-8769793D02*
X724943Y-8722174D01*
X724943Y-8722174D02*
X734467Y-8684079D01*
X734467Y-8684079D02*
X743991Y-8665031D01*
X743991Y-8665031D02*
X753515Y-8655508D01*
X753515Y-8655508D02*
X772562Y-8645984D01*
X963039Y-8645984D02*
X982086Y-8645984D01*
X982086Y-8645984D02*
X1001134Y-8655508D01*
X1001134Y-8655508D02*
X1010658Y-8665031D01*
X1010658Y-8665031D02*
X1020182Y-8684079D01*
X1020182Y-8684079D02*
X1029705Y-8722174D01*
X1029705Y-8722174D02*
X1029705Y-8769793D01*
X1029705Y-8769793D02*
X1020182Y-8807889D01*
X1020182Y-8807889D02*
X1010658Y-8826936D01*
X1010658Y-8826936D02*
X1001134Y-8836460D01*
X1001134Y-8836460D02*
X982086Y-8845984D01*
X982086Y-8845984D02*
X963039Y-8845984D01*
X963039Y-8845984D02*
X943991Y-8836460D01*
X943991Y-8836460D02*
X934467Y-8826936D01*
X934467Y-8826936D02*
X924943Y-8807889D01*
X924943Y-8807889D02*
X915420Y-8769793D01*
X915420Y-8769793D02*
X915420Y-8722174D01*
X915420Y-8722174D02*
X924943Y-8684079D01*
X924943Y-8684079D02*
X934467Y-8665031D01*
X934467Y-8665031D02*
X943991Y-8655508D01*
X943991Y-8655508D02*
X963039Y-8645984D01*
X1115420Y-8845984D02*
X1115420Y-8712650D01*
X1115420Y-8731698D02*
X1124944Y-8722174D01*
X1124944Y-8722174D02*
X1143991Y-8712650D01*
X1143991Y-8712650D02*
X1172563Y-8712650D01*
X1172563Y-8712650D02*
X1191610Y-8722174D01*
X1191610Y-8722174D02*
X1201134Y-8741222D01*
X1201134Y-8741222D02*
X1201134Y-8845984D01*
X1201134Y-8741222D02*
X1210658Y-8722174D01*
X1210658Y-8722174D02*
X1229705Y-8712650D01*
X1229705Y-8712650D02*
X1258277Y-8712650D01*
X1258277Y-8712650D02*
X1277325Y-8722174D01*
X1277325Y-8722174D02*
X1286848Y-8741222D01*
X1286848Y-8741222D02*
X1286848Y-8845984D01*
X1382086Y-8845984D02*
X1382086Y-8712650D01*
X1382086Y-8731698D02*
X1391610Y-8722174D01*
X1391610Y-8722174D02*
X1410658Y-8712650D01*
X1410658Y-8712650D02*
X1439229Y-8712650D01*
X1439229Y-8712650D02*
X1458277Y-8722174D01*
X1458277Y-8722174D02*
X1467801Y-8741222D01*
X1467801Y-8741222D02*
X1467801Y-8845984D01*
X1467801Y-8741222D02*
X1477324Y-8722174D01*
X1477324Y-8722174D02*
X1496372Y-8712650D01*
X1496372Y-8712650D02*
X1524943Y-8712650D01*
X1524943Y-8712650D02*
X1543991Y-8722174D01*
X1543991Y-8722174D02*
X1553515Y-8741222D01*
X1553515Y-8741222D02*
X1553515Y-8845984D01*
X1943991Y-8636460D02*
X1772563Y-8893603D01*
X2201134Y-8645984D02*
X2220182Y-8645984D01*
X2220182Y-8645984D02*
X2239229Y-8655508D01*
X2239229Y-8655508D02*
X2248753Y-8665031D01*
X2248753Y-8665031D02*
X2258277Y-8684079D01*
X2258277Y-8684079D02*
X2267801Y-8722174D01*
X2267801Y-8722174D02*
X2267801Y-8769793D01*
X2267801Y-8769793D02*
X2258277Y-8807889D01*
X2258277Y-8807889D02*
X2248753Y-8826936D01*
X2248753Y-8826936D02*
X2239229Y-8836460D01*
X2239229Y-8836460D02*
X2220182Y-8845984D01*
X2220182Y-8845984D02*
X2201134Y-8845984D01*
X2201134Y-8845984D02*
X2182087Y-8836460D01*
X2182087Y-8836460D02*
X2172563Y-8826936D01*
X2172563Y-8826936D02*
X2163039Y-8807889D01*
X2163039Y-8807889D02*
X2153515Y-8769793D01*
X2153515Y-8769793D02*
X2153515Y-8722174D01*
X2153515Y-8722174D02*
X2163039Y-8684079D01*
X2163039Y-8684079D02*
X2172563Y-8665031D01*
X2172563Y-8665031D02*
X2182087Y-8655508D01*
X2182087Y-8655508D02*
X2201134Y-8645984D01*
X2353515Y-8826936D02*
X2363039Y-8836460D01*
X2363039Y-8836460D02*
X2353515Y-8845984D01*
X2353515Y-8845984D02*
X2343991Y-8836460D01*
X2343991Y-8836460D02*
X2353515Y-8826936D01*
X2353515Y-8826936D02*
X2353515Y-8845984D01*
X2486848Y-8645984D02*
X2505896Y-8645984D01*
X2505896Y-8645984D02*
X2524944Y-8655508D01*
X2524944Y-8655508D02*
X2534468Y-8665031D01*
X2534468Y-8665031D02*
X2543991Y-8684079D01*
X2543991Y-8684079D02*
X2553515Y-8722174D01*
X2553515Y-8722174D02*
X2553515Y-8769793D01*
X2553515Y-8769793D02*
X2543991Y-8807889D01*
X2543991Y-8807889D02*
X2534468Y-8826936D01*
X2534468Y-8826936D02*
X2524944Y-8836460D01*
X2524944Y-8836460D02*
X2505896Y-8845984D01*
X2505896Y-8845984D02*
X2486848Y-8845984D01*
X2486848Y-8845984D02*
X2467801Y-8836460D01*
X2467801Y-8836460D02*
X2458277Y-8826936D01*
X2458277Y-8826936D02*
X2448753Y-8807889D01*
X2448753Y-8807889D02*
X2439229Y-8769793D01*
X2439229Y-8769793D02*
X2439229Y-8722174D01*
X2439229Y-8722174D02*
X2448753Y-8684079D01*
X2448753Y-8684079D02*
X2458277Y-8665031D01*
X2458277Y-8665031D02*
X2467801Y-8655508D01*
X2467801Y-8655508D02*
X2486848Y-8645984D01*
X2620182Y-8645984D02*
X2743991Y-8645984D01*
X2743991Y-8645984D02*
X2677325Y-8722174D01*
X2677325Y-8722174D02*
X2705896Y-8722174D01*
X2705896Y-8722174D02*
X2724944Y-8731698D01*
X2724944Y-8731698D02*
X2734468Y-8741222D01*
X2734468Y-8741222D02*
X2743991Y-8760270D01*
X2743991Y-8760270D02*
X2743991Y-8807889D01*
X2743991Y-8807889D02*
X2734468Y-8826936D01*
X2734468Y-8826936D02*
X2724944Y-8836460D01*
X2724944Y-8836460D02*
X2705896Y-8845984D01*
X2705896Y-8845984D02*
X2648753Y-8845984D01*
X2648753Y-8845984D02*
X2629706Y-8836460D01*
X2629706Y-8836460D02*
X2620182Y-8826936D01*
X2839229Y-8845984D02*
X2877325Y-8845984D01*
X2877325Y-8845984D02*
X2896372Y-8836460D01*
X2896372Y-8836460D02*
X2905896Y-8826936D01*
X2905896Y-8826936D02*
X2924944Y-8798365D01*
X2924944Y-8798365D02*
X2934467Y-8760270D01*
X2934467Y-8760270D02*
X2934467Y-8684079D01*
X2934467Y-8684079D02*
X2924944Y-8665031D01*
X2924944Y-8665031D02*
X2915420Y-8655508D01*
X2915420Y-8655508D02*
X2896372Y-8645984D01*
X2896372Y-8645984D02*
X2858277Y-8645984D01*
X2858277Y-8645984D02*
X2839229Y-8655508D01*
X2839229Y-8655508D02*
X2829706Y-8665031D01*
X2829706Y-8665031D02*
X2820182Y-8684079D01*
X2820182Y-8684079D02*
X2820182Y-8731698D01*
X2820182Y-8731698D02*
X2829706Y-8750746D01*
X2829706Y-8750746D02*
X2839229Y-8760270D01*
X2839229Y-8760270D02*
X2858277Y-8769793D01*
X2858277Y-8769793D02*
X2896372Y-8769793D01*
X2896372Y-8769793D02*
X2915420Y-8760270D01*
X2915420Y-8760270D02*
X2924944Y-8750746D01*
X2924944Y-8750746D02*
X2934467Y-8731698D01*
X3105896Y-8712650D02*
X3105896Y-8845984D01*
X3058277Y-8636460D02*
X3010658Y-8779317D01*
X3010658Y-8779317D02*
X3134467Y-8779317D01*
X3201134Y-8645984D02*
X3201134Y-8684079D01*
X3277325Y-8645984D02*
X3277325Y-8684079D01*
X3572563Y-8922174D02*
X3563039Y-8912650D01*
X3563039Y-8912650D02*
X3543991Y-8884079D01*
X3543991Y-8884079D02*
X3534468Y-8865031D01*
X3534468Y-8865031D02*
X3524944Y-8836460D01*
X3524944Y-8836460D02*
X3515420Y-8788841D01*
X3515420Y-8788841D02*
X3515420Y-8750746D01*
X3515420Y-8750746D02*
X3524944Y-8703127D01*
X3524944Y-8703127D02*
X3534468Y-8674555D01*
X3534468Y-8674555D02*
X3543991Y-8655508D01*
X3543991Y-8655508D02*
X3563039Y-8626936D01*
X3563039Y-8626936D02*
X3572563Y-8617412D01*
X3686848Y-8645984D02*
X3705896Y-8645984D01*
X3705896Y-8645984D02*
X3724944Y-8655508D01*
X3724944Y-8655508D02*
X3734468Y-8665031D01*
X3734468Y-8665031D02*
X3743991Y-8684079D01*
X3743991Y-8684079D02*
X3753515Y-8722174D01*
X3753515Y-8722174D02*
X3753515Y-8769793D01*
X3753515Y-8769793D02*
X3743991Y-8807889D01*
X3743991Y-8807889D02*
X3734468Y-8826936D01*
X3734468Y-8826936D02*
X3724944Y-8836460D01*
X3724944Y-8836460D02*
X3705896Y-8845984D01*
X3705896Y-8845984D02*
X3686848Y-8845984D01*
X3686848Y-8845984D02*
X3667801Y-8836460D01*
X3667801Y-8836460D02*
X3658277Y-8826936D01*
X3658277Y-8826936D02*
X3648753Y-8807889D01*
X3648753Y-8807889D02*
X3639229Y-8769793D01*
X3639229Y-8769793D02*
X3639229Y-8722174D01*
X3639229Y-8722174D02*
X3648753Y-8684079D01*
X3648753Y-8684079D02*
X3658277Y-8665031D01*
X3658277Y-8665031D02*
X3667801Y-8655508D01*
X3667801Y-8655508D02*
X3686848Y-8645984D01*
X3991610Y-8845984D02*
X3991610Y-8645984D01*
X4077325Y-8845984D02*
X4077325Y-8741222D01*
X4077325Y-8741222D02*
X4067801Y-8722174D01*
X4067801Y-8722174D02*
X4048753Y-8712650D01*
X4048753Y-8712650D02*
X4020182Y-8712650D01*
X4020182Y-8712650D02*
X4001134Y-8722174D01*
X4001134Y-8722174D02*
X3991610Y-8731698D01*
X4201134Y-8845984D02*
X4182087Y-8836460D01*
X4182087Y-8836460D02*
X4172563Y-8826936D01*
X4172563Y-8826936D02*
X4163039Y-8807889D01*
X4163039Y-8807889D02*
X4163039Y-8750746D01*
X4163039Y-8750746D02*
X4172563Y-8731698D01*
X4172563Y-8731698D02*
X4182087Y-8722174D01*
X4182087Y-8722174D02*
X4201134Y-8712650D01*
X4201134Y-8712650D02*
X4229706Y-8712650D01*
X4229706Y-8712650D02*
X4248753Y-8722174D01*
X4248753Y-8722174D02*
X4258277Y-8731698D01*
X4258277Y-8731698D02*
X4267801Y-8750746D01*
X4267801Y-8750746D02*
X4267801Y-8807889D01*
X4267801Y-8807889D02*
X4258277Y-8826936D01*
X4258277Y-8826936D02*
X4248753Y-8836460D01*
X4248753Y-8836460D02*
X4229706Y-8845984D01*
X4229706Y-8845984D02*
X4201134Y-8845984D01*
X4382087Y-8845984D02*
X4363039Y-8836460D01*
X4363039Y-8836460D02*
X4353515Y-8817412D01*
X4353515Y-8817412D02*
X4353515Y-8645984D01*
X4534468Y-8836460D02*
X4515420Y-8845984D01*
X4515420Y-8845984D02*
X4477325Y-8845984D01*
X4477325Y-8845984D02*
X4458277Y-8836460D01*
X4458277Y-8836460D02*
X4448753Y-8817412D01*
X4448753Y-8817412D02*
X4448753Y-8741222D01*
X4448753Y-8741222D02*
X4458277Y-8722174D01*
X4458277Y-8722174D02*
X4477325Y-8712650D01*
X4477325Y-8712650D02*
X4515420Y-8712650D01*
X4515420Y-8712650D02*
X4534468Y-8722174D01*
X4534468Y-8722174D02*
X4543992Y-8741222D01*
X4543992Y-8741222D02*
X4543992Y-8760270D01*
X4543992Y-8760270D02*
X4448753Y-8779317D01*
X4620182Y-8836460D02*
X4639230Y-8845984D01*
X4639230Y-8845984D02*
X4677325Y-8845984D01*
X4677325Y-8845984D02*
X4696373Y-8836460D01*
X4696373Y-8836460D02*
X4705896Y-8817412D01*
X4705896Y-8817412D02*
X4705896Y-8807889D01*
X4705896Y-8807889D02*
X4696373Y-8788841D01*
X4696373Y-8788841D02*
X4677325Y-8779317D01*
X4677325Y-8779317D02*
X4648753Y-8779317D01*
X4648753Y-8779317D02*
X4629706Y-8769793D01*
X4629706Y-8769793D02*
X4620182Y-8750746D01*
X4620182Y-8750746D02*
X4620182Y-8741222D01*
X4620182Y-8741222D02*
X4629706Y-8722174D01*
X4629706Y-8722174D02*
X4648753Y-8712650D01*
X4648753Y-8712650D02*
X4677325Y-8712650D01*
X4677325Y-8712650D02*
X4696373Y-8722174D01*
X4943992Y-8769793D02*
X5096373Y-8769793D01*
X5020182Y-8845984D02*
X5020182Y-8693603D01*
X5324944Y-8645984D02*
X5448754Y-8645984D01*
X5448754Y-8645984D02*
X5382087Y-8722174D01*
X5382087Y-8722174D02*
X5410658Y-8722174D01*
X5410658Y-8722174D02*
X5429706Y-8731698D01*
X5429706Y-8731698D02*
X5439230Y-8741222D01*
X5439230Y-8741222D02*
X5448754Y-8760270D01*
X5448754Y-8760270D02*
X5448754Y-8807889D01*
X5448754Y-8807889D02*
X5439230Y-8826936D01*
X5439230Y-8826936D02*
X5429706Y-8836460D01*
X5429706Y-8836460D02*
X5410658Y-8845984D01*
X5410658Y-8845984D02*
X5353515Y-8845984D01*
X5353515Y-8845984D02*
X5334468Y-8836460D01*
X5334468Y-8836460D02*
X5324944Y-8826936D01*
X5677325Y-8836460D02*
X5696373Y-8845984D01*
X5696373Y-8845984D02*
X5734468Y-8845984D01*
X5734468Y-8845984D02*
X5753515Y-8836460D01*
X5753515Y-8836460D02*
X5763039Y-8817412D01*
X5763039Y-8817412D02*
X5763039Y-8807889D01*
X5763039Y-8807889D02*
X5753515Y-8788841D01*
X5753515Y-8788841D02*
X5734468Y-8779317D01*
X5734468Y-8779317D02*
X5705896Y-8779317D01*
X5705896Y-8779317D02*
X5686849Y-8769793D01*
X5686849Y-8769793D02*
X5677325Y-8750746D01*
X5677325Y-8750746D02*
X5677325Y-8741222D01*
X5677325Y-8741222D02*
X5686849Y-8722174D01*
X5686849Y-8722174D02*
X5705896Y-8712650D01*
X5705896Y-8712650D02*
X5734468Y-8712650D01*
X5734468Y-8712650D02*
X5753515Y-8722174D01*
X5877325Y-8845984D02*
X5858277Y-8836460D01*
X5858277Y-8836460D02*
X5848754Y-8817412D01*
X5848754Y-8817412D02*
X5848754Y-8645984D01*
X5982087Y-8845984D02*
X5963039Y-8836460D01*
X5963039Y-8836460D02*
X5953515Y-8826936D01*
X5953515Y-8826936D02*
X5943992Y-8807889D01*
X5943992Y-8807889D02*
X5943992Y-8750746D01*
X5943992Y-8750746D02*
X5953515Y-8731698D01*
X5953515Y-8731698D02*
X5963039Y-8722174D01*
X5963039Y-8722174D02*
X5982087Y-8712650D01*
X5982087Y-8712650D02*
X6010658Y-8712650D01*
X6010658Y-8712650D02*
X6029706Y-8722174D01*
X6029706Y-8722174D02*
X6039230Y-8731698D01*
X6039230Y-8731698D02*
X6048754Y-8750746D01*
X6048754Y-8750746D02*
X6048754Y-8807889D01*
X6048754Y-8807889D02*
X6039230Y-8826936D01*
X6039230Y-8826936D02*
X6029706Y-8836460D01*
X6029706Y-8836460D02*
X6010658Y-8845984D01*
X6010658Y-8845984D02*
X5982087Y-8845984D01*
X6105896Y-8712650D02*
X6182087Y-8712650D01*
X6134468Y-8645984D02*
X6134468Y-8817412D01*
X6134468Y-8817412D02*
X6143992Y-8836460D01*
X6143992Y-8836460D02*
X6163039Y-8845984D01*
X6163039Y-8845984D02*
X6182087Y-8845984D01*
X6239230Y-8836460D02*
X6258277Y-8845984D01*
X6258277Y-8845984D02*
X6296373Y-8845984D01*
X6296373Y-8845984D02*
X6315420Y-8836460D01*
X6315420Y-8836460D02*
X6324944Y-8817412D01*
X6324944Y-8817412D02*
X6324944Y-8807889D01*
X6324944Y-8807889D02*
X6315420Y-8788841D01*
X6315420Y-8788841D02*
X6296373Y-8779317D01*
X6296373Y-8779317D02*
X6267801Y-8779317D01*
X6267801Y-8779317D02*
X6248754Y-8769793D01*
X6248754Y-8769793D02*
X6239230Y-8750746D01*
X6239230Y-8750746D02*
X6239230Y-8741222D01*
X6239230Y-8741222D02*
X6248754Y-8722174D01*
X6248754Y-8722174D02*
X6267801Y-8712650D01*
X6267801Y-8712650D02*
X6296373Y-8712650D01*
X6296373Y-8712650D02*
X6315420Y-8722174D01*
X6391611Y-8922174D02*
X6401135Y-8912650D01*
X6401135Y-8912650D02*
X6420182Y-8884079D01*
X6420182Y-8884079D02*
X6429706Y-8865031D01*
X6429706Y-8865031D02*
X6439230Y-8836460D01*
X6439230Y-8836460D02*
X6448754Y-8788841D01*
X6448754Y-8788841D02*
X6448754Y-8750746D01*
X6448754Y-8750746D02*
X6439230Y-8703127D01*
X6439230Y-8703127D02*
X6429706Y-8674555D01*
X6429706Y-8674555D02*
X6420182Y-8655508D01*
X6420182Y-8655508D02*
X6401135Y-8626936D01*
X6401135Y-8626936D02*
X6391611Y-8617412D01*
D13*
X-54500Y-9070500D02*
X-2500Y-9018500D01*
X-54500Y-8966500D01*
X-106500Y-9018500D01*
X-54500Y-9070500D01*
D11*
X363039Y-9109984D02*
X248753Y-9109984D01*
X305896Y-9109984D02*
X305896Y-8909984D01*
X305896Y-8909984D02*
X286848Y-8938555D01*
X286848Y-8938555D02*
X267801Y-8957603D01*
X267801Y-8957603D02*
X248753Y-8967127D01*
X448753Y-9090936D02*
X458277Y-9100460D01*
X458277Y-9100460D02*
X448753Y-9109984D01*
X448753Y-9109984D02*
X439229Y-9100460D01*
X439229Y-9100460D02*
X448753Y-9090936D01*
X448753Y-9090936D02*
X448753Y-9109984D01*
X582086Y-8909984D02*
X601134Y-8909984D01*
X601134Y-8909984D02*
X620182Y-8919508D01*
X620182Y-8919508D02*
X629705Y-8929031D01*
X629705Y-8929031D02*
X639229Y-8948079D01*
X639229Y-8948079D02*
X648753Y-8986174D01*
X648753Y-8986174D02*
X648753Y-9033793D01*
X648753Y-9033793D02*
X639229Y-9071889D01*
X639229Y-9071889D02*
X629705Y-9090936D01*
X629705Y-9090936D02*
X620182Y-9100460D01*
X620182Y-9100460D02*
X601134Y-9109984D01*
X601134Y-9109984D02*
X582086Y-9109984D01*
X582086Y-9109984D02*
X563039Y-9100460D01*
X563039Y-9100460D02*
X553515Y-9090936D01*
X553515Y-9090936D02*
X543991Y-9071889D01*
X543991Y-9071889D02*
X534467Y-9033793D01*
X534467Y-9033793D02*
X534467Y-8986174D01*
X534467Y-8986174D02*
X543991Y-8948079D01*
X543991Y-8948079D02*
X553515Y-8929031D01*
X553515Y-8929031D02*
X563039Y-8919508D01*
X563039Y-8919508D02*
X582086Y-8909984D01*
X820182Y-8976650D02*
X820182Y-9109984D01*
X772562Y-8900460D02*
X724943Y-9043317D01*
X724943Y-9043317D02*
X848753Y-9043317D01*
X963039Y-8909984D02*
X982086Y-8909984D01*
X982086Y-8909984D02*
X1001134Y-8919508D01*
X1001134Y-8919508D02*
X1010658Y-8929031D01*
X1010658Y-8929031D02*
X1020182Y-8948079D01*
X1020182Y-8948079D02*
X1029705Y-8986174D01*
X1029705Y-8986174D02*
X1029705Y-9033793D01*
X1029705Y-9033793D02*
X1020182Y-9071889D01*
X1020182Y-9071889D02*
X1010658Y-9090936D01*
X1010658Y-9090936D02*
X1001134Y-9100460D01*
X1001134Y-9100460D02*
X982086Y-9109984D01*
X982086Y-9109984D02*
X963039Y-9109984D01*
X963039Y-9109984D02*
X943991Y-9100460D01*
X943991Y-9100460D02*
X934467Y-9090936D01*
X934467Y-9090936D02*
X924943Y-9071889D01*
X924943Y-9071889D02*
X915420Y-9033793D01*
X915420Y-9033793D02*
X915420Y-8986174D01*
X915420Y-8986174D02*
X924943Y-8948079D01*
X924943Y-8948079D02*
X934467Y-8929031D01*
X934467Y-8929031D02*
X943991Y-8919508D01*
X943991Y-8919508D02*
X963039Y-8909984D01*
X1115420Y-9109984D02*
X1115420Y-8976650D01*
X1115420Y-8995698D02*
X1124944Y-8986174D01*
X1124944Y-8986174D02*
X1143991Y-8976650D01*
X1143991Y-8976650D02*
X1172563Y-8976650D01*
X1172563Y-8976650D02*
X1191610Y-8986174D01*
X1191610Y-8986174D02*
X1201134Y-9005222D01*
X1201134Y-9005222D02*
X1201134Y-9109984D01*
X1201134Y-9005222D02*
X1210658Y-8986174D01*
X1210658Y-8986174D02*
X1229705Y-8976650D01*
X1229705Y-8976650D02*
X1258277Y-8976650D01*
X1258277Y-8976650D02*
X1277325Y-8986174D01*
X1277325Y-8986174D02*
X1286848Y-9005222D01*
X1286848Y-9005222D02*
X1286848Y-9109984D01*
X1382086Y-9109984D02*
X1382086Y-8976650D01*
X1382086Y-8995698D02*
X1391610Y-8986174D01*
X1391610Y-8986174D02*
X1410658Y-8976650D01*
X1410658Y-8976650D02*
X1439229Y-8976650D01*
X1439229Y-8976650D02*
X1458277Y-8986174D01*
X1458277Y-8986174D02*
X1467801Y-9005222D01*
X1467801Y-9005222D02*
X1467801Y-9109984D01*
X1467801Y-9005222D02*
X1477324Y-8986174D01*
X1477324Y-8986174D02*
X1496372Y-8976650D01*
X1496372Y-8976650D02*
X1524943Y-8976650D01*
X1524943Y-8976650D02*
X1543991Y-8986174D01*
X1543991Y-8986174D02*
X1553515Y-9005222D01*
X1553515Y-9005222D02*
X1553515Y-9109984D01*
X1943991Y-8900460D02*
X1772563Y-9157603D01*
X2201134Y-8909984D02*
X2220182Y-8909984D01*
X2220182Y-8909984D02*
X2239229Y-8919508D01*
X2239229Y-8919508D02*
X2248753Y-8929031D01*
X2248753Y-8929031D02*
X2258277Y-8948079D01*
X2258277Y-8948079D02*
X2267801Y-8986174D01*
X2267801Y-8986174D02*
X2267801Y-9033793D01*
X2267801Y-9033793D02*
X2258277Y-9071889D01*
X2258277Y-9071889D02*
X2248753Y-9090936D01*
X2248753Y-9090936D02*
X2239229Y-9100460D01*
X2239229Y-9100460D02*
X2220182Y-9109984D01*
X2220182Y-9109984D02*
X2201134Y-9109984D01*
X2201134Y-9109984D02*
X2182087Y-9100460D01*
X2182087Y-9100460D02*
X2172563Y-9090936D01*
X2172563Y-9090936D02*
X2163039Y-9071889D01*
X2163039Y-9071889D02*
X2153515Y-9033793D01*
X2153515Y-9033793D02*
X2153515Y-8986174D01*
X2153515Y-8986174D02*
X2163039Y-8948079D01*
X2163039Y-8948079D02*
X2172563Y-8929031D01*
X2172563Y-8929031D02*
X2182087Y-8919508D01*
X2182087Y-8919508D02*
X2201134Y-8909984D01*
X2353515Y-9090936D02*
X2363039Y-9100460D01*
X2363039Y-9100460D02*
X2353515Y-9109984D01*
X2353515Y-9109984D02*
X2343991Y-9100460D01*
X2343991Y-9100460D02*
X2353515Y-9090936D01*
X2353515Y-9090936D02*
X2353515Y-9109984D01*
X2486848Y-8909984D02*
X2505896Y-8909984D01*
X2505896Y-8909984D02*
X2524944Y-8919508D01*
X2524944Y-8919508D02*
X2534468Y-8929031D01*
X2534468Y-8929031D02*
X2543991Y-8948079D01*
X2543991Y-8948079D02*
X2553515Y-8986174D01*
X2553515Y-8986174D02*
X2553515Y-9033793D01*
X2553515Y-9033793D02*
X2543991Y-9071889D01*
X2543991Y-9071889D02*
X2534468Y-9090936D01*
X2534468Y-9090936D02*
X2524944Y-9100460D01*
X2524944Y-9100460D02*
X2505896Y-9109984D01*
X2505896Y-9109984D02*
X2486848Y-9109984D01*
X2486848Y-9109984D02*
X2467801Y-9100460D01*
X2467801Y-9100460D02*
X2458277Y-9090936D01*
X2458277Y-9090936D02*
X2448753Y-9071889D01*
X2448753Y-9071889D02*
X2439229Y-9033793D01*
X2439229Y-9033793D02*
X2439229Y-8986174D01*
X2439229Y-8986174D02*
X2448753Y-8948079D01*
X2448753Y-8948079D02*
X2458277Y-8929031D01*
X2458277Y-8929031D02*
X2467801Y-8919508D01*
X2467801Y-8919508D02*
X2486848Y-8909984D01*
X2724944Y-8976650D02*
X2724944Y-9109984D01*
X2677325Y-8900460D02*
X2629706Y-9043317D01*
X2629706Y-9043317D02*
X2753515Y-9043317D01*
X2867801Y-8909984D02*
X2886848Y-8909984D01*
X2886848Y-8909984D02*
X2905896Y-8919508D01*
X2905896Y-8919508D02*
X2915420Y-8929031D01*
X2915420Y-8929031D02*
X2924944Y-8948079D01*
X2924944Y-8948079D02*
X2934467Y-8986174D01*
X2934467Y-8986174D02*
X2934467Y-9033793D01*
X2934467Y-9033793D02*
X2924944Y-9071889D01*
X2924944Y-9071889D02*
X2915420Y-9090936D01*
X2915420Y-9090936D02*
X2905896Y-9100460D01*
X2905896Y-9100460D02*
X2886848Y-9109984D01*
X2886848Y-9109984D02*
X2867801Y-9109984D01*
X2867801Y-9109984D02*
X2848753Y-9100460D01*
X2848753Y-9100460D02*
X2839229Y-9090936D01*
X2839229Y-9090936D02*
X2829706Y-9071889D01*
X2829706Y-9071889D02*
X2820182Y-9033793D01*
X2820182Y-9033793D02*
X2820182Y-8986174D01*
X2820182Y-8986174D02*
X2829706Y-8948079D01*
X2829706Y-8948079D02*
X2839229Y-8929031D01*
X2839229Y-8929031D02*
X2848753Y-8919508D01*
X2848753Y-8919508D02*
X2867801Y-8909984D01*
X3029706Y-9109984D02*
X3067801Y-9109984D01*
X3067801Y-9109984D02*
X3086848Y-9100460D01*
X3086848Y-9100460D02*
X3096372Y-9090936D01*
X3096372Y-9090936D02*
X3115420Y-9062365D01*
X3115420Y-9062365D02*
X3124944Y-9024270D01*
X3124944Y-9024270D02*
X3124944Y-8948079D01*
X3124944Y-8948079D02*
X3115420Y-8929031D01*
X3115420Y-8929031D02*
X3105896Y-8919508D01*
X3105896Y-8919508D02*
X3086848Y-8909984D01*
X3086848Y-8909984D02*
X3048753Y-8909984D01*
X3048753Y-8909984D02*
X3029706Y-8919508D01*
X3029706Y-8919508D02*
X3020182Y-8929031D01*
X3020182Y-8929031D02*
X3010658Y-8948079D01*
X3010658Y-8948079D02*
X3010658Y-8995698D01*
X3010658Y-8995698D02*
X3020182Y-9014746D01*
X3020182Y-9014746D02*
X3029706Y-9024270D01*
X3029706Y-9024270D02*
X3048753Y-9033793D01*
X3048753Y-9033793D02*
X3086848Y-9033793D01*
X3086848Y-9033793D02*
X3105896Y-9024270D01*
X3105896Y-9024270D02*
X3115420Y-9014746D01*
X3115420Y-9014746D02*
X3124944Y-8995698D01*
X3201134Y-8909984D02*
X3201134Y-8948079D01*
X3277325Y-8909984D02*
X3277325Y-8948079D01*
X3572563Y-9186174D02*
X3563039Y-9176650D01*
X3563039Y-9176650D02*
X3543991Y-9148079D01*
X3543991Y-9148079D02*
X3534468Y-9129031D01*
X3534468Y-9129031D02*
X3524944Y-9100460D01*
X3524944Y-9100460D02*
X3515420Y-9052841D01*
X3515420Y-9052841D02*
X3515420Y-9014746D01*
X3515420Y-9014746D02*
X3524944Y-8967127D01*
X3524944Y-8967127D02*
X3534468Y-8938555D01*
X3534468Y-8938555D02*
X3543991Y-8919508D01*
X3543991Y-8919508D02*
X3563039Y-8890936D01*
X3563039Y-8890936D02*
X3572563Y-8881412D01*
X3629706Y-8909984D02*
X3753515Y-8909984D01*
X3753515Y-8909984D02*
X3686848Y-8986174D01*
X3686848Y-8986174D02*
X3715420Y-8986174D01*
X3715420Y-8986174D02*
X3734468Y-8995698D01*
X3734468Y-8995698D02*
X3743991Y-9005222D01*
X3743991Y-9005222D02*
X3753515Y-9024270D01*
X3753515Y-9024270D02*
X3753515Y-9071889D01*
X3753515Y-9071889D02*
X3743991Y-9090936D01*
X3743991Y-9090936D02*
X3734468Y-9100460D01*
X3734468Y-9100460D02*
X3715420Y-9109984D01*
X3715420Y-9109984D02*
X3658277Y-9109984D01*
X3658277Y-9109984D02*
X3639229Y-9100460D01*
X3639229Y-9100460D02*
X3629706Y-9090936D01*
X3867801Y-8995698D02*
X3848753Y-8986174D01*
X3848753Y-8986174D02*
X3839229Y-8976650D01*
X3839229Y-8976650D02*
X3829706Y-8957603D01*
X3829706Y-8957603D02*
X3829706Y-8948079D01*
X3829706Y-8948079D02*
X3839229Y-8929031D01*
X3839229Y-8929031D02*
X3848753Y-8919508D01*
X3848753Y-8919508D02*
X3867801Y-8909984D01*
X3867801Y-8909984D02*
X3905896Y-8909984D01*
X3905896Y-8909984D02*
X3924944Y-8919508D01*
X3924944Y-8919508D02*
X3934468Y-8929031D01*
X3934468Y-8929031D02*
X3943991Y-8948079D01*
X3943991Y-8948079D02*
X3943991Y-8957603D01*
X3943991Y-8957603D02*
X3934468Y-8976650D01*
X3934468Y-8976650D02*
X3924944Y-8986174D01*
X3924944Y-8986174D02*
X3905896Y-8995698D01*
X3905896Y-8995698D02*
X3867801Y-8995698D01*
X3867801Y-8995698D02*
X3848753Y-9005222D01*
X3848753Y-9005222D02*
X3839229Y-9014746D01*
X3839229Y-9014746D02*
X3829706Y-9033793D01*
X3829706Y-9033793D02*
X3829706Y-9071889D01*
X3829706Y-9071889D02*
X3839229Y-9090936D01*
X3839229Y-9090936D02*
X3848753Y-9100460D01*
X3848753Y-9100460D02*
X3867801Y-9109984D01*
X3867801Y-9109984D02*
X3905896Y-9109984D01*
X3905896Y-9109984D02*
X3924944Y-9100460D01*
X3924944Y-9100460D02*
X3934468Y-9090936D01*
X3934468Y-9090936D02*
X3943991Y-9071889D01*
X3943991Y-9071889D02*
X3943991Y-9033793D01*
X3943991Y-9033793D02*
X3934468Y-9014746D01*
X3934468Y-9014746D02*
X3924944Y-9005222D01*
X3924944Y-9005222D02*
X3905896Y-8995698D01*
X4182087Y-9109984D02*
X4182087Y-8909984D01*
X4267801Y-9109984D02*
X4267801Y-9005222D01*
X4267801Y-9005222D02*
X4258277Y-8986174D01*
X4258277Y-8986174D02*
X4239230Y-8976650D01*
X4239230Y-8976650D02*
X4210658Y-8976650D01*
X4210658Y-8976650D02*
X4191610Y-8986174D01*
X4191610Y-8986174D02*
X4182087Y-8995698D01*
X4391611Y-9109984D02*
X4372563Y-9100460D01*
X4372563Y-9100460D02*
X4363039Y-9090936D01*
X4363039Y-9090936D02*
X4353515Y-9071889D01*
X4353515Y-9071889D02*
X4353515Y-9014746D01*
X4353515Y-9014746D02*
X4363039Y-8995698D01*
X4363039Y-8995698D02*
X4372563Y-8986174D01*
X4372563Y-8986174D02*
X4391611Y-8976650D01*
X4391611Y-8976650D02*
X4420182Y-8976650D01*
X4420182Y-8976650D02*
X4439230Y-8986174D01*
X4439230Y-8986174D02*
X4448753Y-8995698D01*
X4448753Y-8995698D02*
X4458277Y-9014746D01*
X4458277Y-9014746D02*
X4458277Y-9071889D01*
X4458277Y-9071889D02*
X4448753Y-9090936D01*
X4448753Y-9090936D02*
X4439230Y-9100460D01*
X4439230Y-9100460D02*
X4420182Y-9109984D01*
X4420182Y-9109984D02*
X4391611Y-9109984D01*
X4572563Y-9109984D02*
X4553515Y-9100460D01*
X4553515Y-9100460D02*
X4543992Y-9081412D01*
X4543992Y-9081412D02*
X4543992Y-8909984D01*
X4724944Y-9100460D02*
X4705896Y-9109984D01*
X4705896Y-9109984D02*
X4667801Y-9109984D01*
X4667801Y-9109984D02*
X4648753Y-9100460D01*
X4648753Y-9100460D02*
X4639230Y-9081412D01*
X4639230Y-9081412D02*
X4639230Y-9005222D01*
X4639230Y-9005222D02*
X4648753Y-8986174D01*
X4648753Y-8986174D02*
X4667801Y-8976650D01*
X4667801Y-8976650D02*
X4705896Y-8976650D01*
X4705896Y-8976650D02*
X4724944Y-8986174D01*
X4724944Y-8986174D02*
X4734468Y-9005222D01*
X4734468Y-9005222D02*
X4734468Y-9024270D01*
X4734468Y-9024270D02*
X4639230Y-9043317D01*
X4810658Y-9100460D02*
X4829706Y-9109984D01*
X4829706Y-9109984D02*
X4867801Y-9109984D01*
X4867801Y-9109984D02*
X4886849Y-9100460D01*
X4886849Y-9100460D02*
X4896373Y-9081412D01*
X4896373Y-9081412D02*
X4896373Y-9071889D01*
X4896373Y-9071889D02*
X4886849Y-9052841D01*
X4886849Y-9052841D02*
X4867801Y-9043317D01*
X4867801Y-9043317D02*
X4839230Y-9043317D01*
X4839230Y-9043317D02*
X4820182Y-9033793D01*
X4820182Y-9033793D02*
X4810658Y-9014746D01*
X4810658Y-9014746D02*
X4810658Y-9005222D01*
X4810658Y-9005222D02*
X4820182Y-8986174D01*
X4820182Y-8986174D02*
X4839230Y-8976650D01*
X4839230Y-8976650D02*
X4867801Y-8976650D01*
X4867801Y-8976650D02*
X4886849Y-8986174D01*
X4963039Y-9186174D02*
X4972563Y-9176650D01*
X4972563Y-9176650D02*
X4991611Y-9148079D01*
X4991611Y-9148079D02*
X5001134Y-9129031D01*
X5001134Y-9129031D02*
X5010658Y-9100460D01*
X5010658Y-9100460D02*
X5020182Y-9052841D01*
X5020182Y-9052841D02*
X5020182Y-9014746D01*
X5020182Y-9014746D02*
X5010658Y-8967127D01*
X5010658Y-8967127D02*
X5001134Y-8938555D01*
X5001134Y-8938555D02*
X4991611Y-8919508D01*
X4991611Y-8919508D02*
X4972563Y-8890936D01*
X4972563Y-8890936D02*
X4963039Y-8881412D01*
D14*
X-112500Y-9227500D02*
X-2500Y-9337500D01*
X-2500Y-9227500D02*
X-112500Y-9337500D01*
X-2500Y-9282500D02*
G75*
G02*
X-112500Y-9282500I-55000J0D01*
G01*
X-112500Y-9282500D02*
G75*
G02*
X-2500Y-9282500I55000J0D01*
G01*
D11*
X363039Y-9373984D02*
X248753Y-9373984D01*
X305896Y-9373984D02*
X305896Y-9173984D01*
X305896Y-9173984D02*
X286848Y-9202555D01*
X286848Y-9202555D02*
X267801Y-9221603D01*
X267801Y-9221603D02*
X248753Y-9231127D01*
X448753Y-9354936D02*
X458277Y-9364460D01*
X458277Y-9364460D02*
X448753Y-9373984D01*
X448753Y-9373984D02*
X439229Y-9364460D01*
X439229Y-9364460D02*
X448753Y-9354936D01*
X448753Y-9354936D02*
X448753Y-9373984D01*
X648753Y-9373984D02*
X534467Y-9373984D01*
X591610Y-9373984D02*
X591610Y-9173984D01*
X591610Y-9173984D02*
X572563Y-9202555D01*
X572563Y-9202555D02*
X553515Y-9221603D01*
X553515Y-9221603D02*
X534467Y-9231127D01*
X772562Y-9173984D02*
X791610Y-9173984D01*
X791610Y-9173984D02*
X810658Y-9183508D01*
X810658Y-9183508D02*
X820182Y-9193031D01*
X820182Y-9193031D02*
X829705Y-9212079D01*
X829705Y-9212079D02*
X839229Y-9250174D01*
X839229Y-9250174D02*
X839229Y-9297793D01*
X839229Y-9297793D02*
X829705Y-9335889D01*
X829705Y-9335889D02*
X820182Y-9354936D01*
X820182Y-9354936D02*
X810658Y-9364460D01*
X810658Y-9364460D02*
X791610Y-9373984D01*
X791610Y-9373984D02*
X772562Y-9373984D01*
X772562Y-9373984D02*
X753515Y-9364460D01*
X753515Y-9364460D02*
X743991Y-9354936D01*
X743991Y-9354936D02*
X734467Y-9335889D01*
X734467Y-9335889D02*
X724943Y-9297793D01*
X724943Y-9297793D02*
X724943Y-9250174D01*
X724943Y-9250174D02*
X734467Y-9212079D01*
X734467Y-9212079D02*
X743991Y-9193031D01*
X743991Y-9193031D02*
X753515Y-9183508D01*
X753515Y-9183508D02*
X772562Y-9173984D01*
X963039Y-9173984D02*
X982086Y-9173984D01*
X982086Y-9173984D02*
X1001134Y-9183508D01*
X1001134Y-9183508D02*
X1010658Y-9193031D01*
X1010658Y-9193031D02*
X1020182Y-9212079D01*
X1020182Y-9212079D02*
X1029705Y-9250174D01*
X1029705Y-9250174D02*
X1029705Y-9297793D01*
X1029705Y-9297793D02*
X1020182Y-9335889D01*
X1020182Y-9335889D02*
X1010658Y-9354936D01*
X1010658Y-9354936D02*
X1001134Y-9364460D01*
X1001134Y-9364460D02*
X982086Y-9373984D01*
X982086Y-9373984D02*
X963039Y-9373984D01*
X963039Y-9373984D02*
X943991Y-9364460D01*
X943991Y-9364460D02*
X934467Y-9354936D01*
X934467Y-9354936D02*
X924943Y-9335889D01*
X924943Y-9335889D02*
X915420Y-9297793D01*
X915420Y-9297793D02*
X915420Y-9250174D01*
X915420Y-9250174D02*
X924943Y-9212079D01*
X924943Y-9212079D02*
X934467Y-9193031D01*
X934467Y-9193031D02*
X943991Y-9183508D01*
X943991Y-9183508D02*
X963039Y-9173984D01*
X1115420Y-9373984D02*
X1115420Y-9240650D01*
X1115420Y-9259698D02*
X1124944Y-9250174D01*
X1124944Y-9250174D02*
X1143991Y-9240650D01*
X1143991Y-9240650D02*
X1172563Y-9240650D01*
X1172563Y-9240650D02*
X1191610Y-9250174D01*
X1191610Y-9250174D02*
X1201134Y-9269222D01*
X1201134Y-9269222D02*
X1201134Y-9373984D01*
X1201134Y-9269222D02*
X1210658Y-9250174D01*
X1210658Y-9250174D02*
X1229705Y-9240650D01*
X1229705Y-9240650D02*
X1258277Y-9240650D01*
X1258277Y-9240650D02*
X1277325Y-9250174D01*
X1277325Y-9250174D02*
X1286848Y-9269222D01*
X1286848Y-9269222D02*
X1286848Y-9373984D01*
X1382086Y-9373984D02*
X1382086Y-9240650D01*
X1382086Y-9259698D02*
X1391610Y-9250174D01*
X1391610Y-9250174D02*
X1410658Y-9240650D01*
X1410658Y-9240650D02*
X1439229Y-9240650D01*
X1439229Y-9240650D02*
X1458277Y-9250174D01*
X1458277Y-9250174D02*
X1467801Y-9269222D01*
X1467801Y-9269222D02*
X1467801Y-9373984D01*
X1467801Y-9269222D02*
X1477324Y-9250174D01*
X1477324Y-9250174D02*
X1496372Y-9240650D01*
X1496372Y-9240650D02*
X1524943Y-9240650D01*
X1524943Y-9240650D02*
X1543991Y-9250174D01*
X1543991Y-9250174D02*
X1553515Y-9269222D01*
X1553515Y-9269222D02*
X1553515Y-9373984D01*
X1943991Y-9164460D02*
X1772563Y-9421603D01*
X2201134Y-9173984D02*
X2220182Y-9173984D01*
X2220182Y-9173984D02*
X2239229Y-9183508D01*
X2239229Y-9183508D02*
X2248753Y-9193031D01*
X2248753Y-9193031D02*
X2258277Y-9212079D01*
X2258277Y-9212079D02*
X2267801Y-9250174D01*
X2267801Y-9250174D02*
X2267801Y-9297793D01*
X2267801Y-9297793D02*
X2258277Y-9335889D01*
X2258277Y-9335889D02*
X2248753Y-9354936D01*
X2248753Y-9354936D02*
X2239229Y-9364460D01*
X2239229Y-9364460D02*
X2220182Y-9373984D01*
X2220182Y-9373984D02*
X2201134Y-9373984D01*
X2201134Y-9373984D02*
X2182087Y-9364460D01*
X2182087Y-9364460D02*
X2172563Y-9354936D01*
X2172563Y-9354936D02*
X2163039Y-9335889D01*
X2163039Y-9335889D02*
X2153515Y-9297793D01*
X2153515Y-9297793D02*
X2153515Y-9250174D01*
X2153515Y-9250174D02*
X2163039Y-9212079D01*
X2163039Y-9212079D02*
X2172563Y-9193031D01*
X2172563Y-9193031D02*
X2182087Y-9183508D01*
X2182087Y-9183508D02*
X2201134Y-9173984D01*
X2353515Y-9354936D02*
X2363039Y-9364460D01*
X2363039Y-9364460D02*
X2353515Y-9373984D01*
X2353515Y-9373984D02*
X2343991Y-9364460D01*
X2343991Y-9364460D02*
X2353515Y-9354936D01*
X2353515Y-9354936D02*
X2353515Y-9373984D01*
X2486848Y-9173984D02*
X2505896Y-9173984D01*
X2505896Y-9173984D02*
X2524944Y-9183508D01*
X2524944Y-9183508D02*
X2534468Y-9193031D01*
X2534468Y-9193031D02*
X2543991Y-9212079D01*
X2543991Y-9212079D02*
X2553515Y-9250174D01*
X2553515Y-9250174D02*
X2553515Y-9297793D01*
X2553515Y-9297793D02*
X2543991Y-9335889D01*
X2543991Y-9335889D02*
X2534468Y-9354936D01*
X2534468Y-9354936D02*
X2524944Y-9364460D01*
X2524944Y-9364460D02*
X2505896Y-9373984D01*
X2505896Y-9373984D02*
X2486848Y-9373984D01*
X2486848Y-9373984D02*
X2467801Y-9364460D01*
X2467801Y-9364460D02*
X2458277Y-9354936D01*
X2458277Y-9354936D02*
X2448753Y-9335889D01*
X2448753Y-9335889D02*
X2439229Y-9297793D01*
X2439229Y-9297793D02*
X2439229Y-9250174D01*
X2439229Y-9250174D02*
X2448753Y-9212079D01*
X2448753Y-9212079D02*
X2458277Y-9193031D01*
X2458277Y-9193031D02*
X2467801Y-9183508D01*
X2467801Y-9183508D02*
X2486848Y-9173984D01*
X2724944Y-9240650D02*
X2724944Y-9373984D01*
X2677325Y-9164460D02*
X2629706Y-9307317D01*
X2629706Y-9307317D02*
X2753515Y-9307317D01*
X2810658Y-9173984D02*
X2934467Y-9173984D01*
X2934467Y-9173984D02*
X2867801Y-9250174D01*
X2867801Y-9250174D02*
X2896372Y-9250174D01*
X2896372Y-9250174D02*
X2915420Y-9259698D01*
X2915420Y-9259698D02*
X2924944Y-9269222D01*
X2924944Y-9269222D02*
X2934467Y-9288270D01*
X2934467Y-9288270D02*
X2934467Y-9335889D01*
X2934467Y-9335889D02*
X2924944Y-9354936D01*
X2924944Y-9354936D02*
X2915420Y-9364460D01*
X2915420Y-9364460D02*
X2896372Y-9373984D01*
X2896372Y-9373984D02*
X2839229Y-9373984D01*
X2839229Y-9373984D02*
X2820182Y-9364460D01*
X2820182Y-9364460D02*
X2810658Y-9354936D01*
X3001134Y-9173984D02*
X3124944Y-9173984D01*
X3124944Y-9173984D02*
X3058277Y-9250174D01*
X3058277Y-9250174D02*
X3086848Y-9250174D01*
X3086848Y-9250174D02*
X3105896Y-9259698D01*
X3105896Y-9259698D02*
X3115420Y-9269222D01*
X3115420Y-9269222D02*
X3124944Y-9288270D01*
X3124944Y-9288270D02*
X3124944Y-9335889D01*
X3124944Y-9335889D02*
X3115420Y-9354936D01*
X3115420Y-9354936D02*
X3105896Y-9364460D01*
X3105896Y-9364460D02*
X3086848Y-9373984D01*
X3086848Y-9373984D02*
X3029706Y-9373984D01*
X3029706Y-9373984D02*
X3010658Y-9364460D01*
X3010658Y-9364460D02*
X3001134Y-9354936D01*
X3201134Y-9173984D02*
X3201134Y-9212079D01*
X3277325Y-9173984D02*
X3277325Y-9212079D01*
X3572563Y-9450174D02*
X3563039Y-9440650D01*
X3563039Y-9440650D02*
X3543991Y-9412079D01*
X3543991Y-9412079D02*
X3534468Y-9393031D01*
X3534468Y-9393031D02*
X3524944Y-9364460D01*
X3524944Y-9364460D02*
X3515420Y-9316841D01*
X3515420Y-9316841D02*
X3515420Y-9278746D01*
X3515420Y-9278746D02*
X3524944Y-9231127D01*
X3524944Y-9231127D02*
X3534468Y-9202555D01*
X3534468Y-9202555D02*
X3543991Y-9183508D01*
X3543991Y-9183508D02*
X3563039Y-9154936D01*
X3563039Y-9154936D02*
X3572563Y-9145412D01*
X3629706Y-9173984D02*
X3753515Y-9173984D01*
X3753515Y-9173984D02*
X3686848Y-9250174D01*
X3686848Y-9250174D02*
X3715420Y-9250174D01*
X3715420Y-9250174D02*
X3734468Y-9259698D01*
X3734468Y-9259698D02*
X3743991Y-9269222D01*
X3743991Y-9269222D02*
X3753515Y-9288270D01*
X3753515Y-9288270D02*
X3753515Y-9335889D01*
X3753515Y-9335889D02*
X3743991Y-9354936D01*
X3743991Y-9354936D02*
X3734468Y-9364460D01*
X3734468Y-9364460D02*
X3715420Y-9373984D01*
X3715420Y-9373984D02*
X3658277Y-9373984D01*
X3658277Y-9373984D02*
X3639229Y-9364460D01*
X3639229Y-9364460D02*
X3629706Y-9354936D01*
X3991610Y-9373984D02*
X3991610Y-9173984D01*
X4077325Y-9373984D02*
X4077325Y-9269222D01*
X4077325Y-9269222D02*
X4067801Y-9250174D01*
X4067801Y-9250174D02*
X4048753Y-9240650D01*
X4048753Y-9240650D02*
X4020182Y-9240650D01*
X4020182Y-9240650D02*
X4001134Y-9250174D01*
X4001134Y-9250174D02*
X3991610Y-9259698D01*
X4201134Y-9373984D02*
X4182087Y-9364460D01*
X4182087Y-9364460D02*
X4172563Y-9354936D01*
X4172563Y-9354936D02*
X4163039Y-9335889D01*
X4163039Y-9335889D02*
X4163039Y-9278746D01*
X4163039Y-9278746D02*
X4172563Y-9259698D01*
X4172563Y-9259698D02*
X4182087Y-9250174D01*
X4182087Y-9250174D02*
X4201134Y-9240650D01*
X4201134Y-9240650D02*
X4229706Y-9240650D01*
X4229706Y-9240650D02*
X4248753Y-9250174D01*
X4248753Y-9250174D02*
X4258277Y-9259698D01*
X4258277Y-9259698D02*
X4267801Y-9278746D01*
X4267801Y-9278746D02*
X4267801Y-9335889D01*
X4267801Y-9335889D02*
X4258277Y-9354936D01*
X4258277Y-9354936D02*
X4248753Y-9364460D01*
X4248753Y-9364460D02*
X4229706Y-9373984D01*
X4229706Y-9373984D02*
X4201134Y-9373984D01*
X4382087Y-9373984D02*
X4363039Y-9364460D01*
X4363039Y-9364460D02*
X4353515Y-9345412D01*
X4353515Y-9345412D02*
X4353515Y-9173984D01*
X4534468Y-9364460D02*
X4515420Y-9373984D01*
X4515420Y-9373984D02*
X4477325Y-9373984D01*
X4477325Y-9373984D02*
X4458277Y-9364460D01*
X4458277Y-9364460D02*
X4448753Y-9345412D01*
X4448753Y-9345412D02*
X4448753Y-9269222D01*
X4448753Y-9269222D02*
X4458277Y-9250174D01*
X4458277Y-9250174D02*
X4477325Y-9240650D01*
X4477325Y-9240650D02*
X4515420Y-9240650D01*
X4515420Y-9240650D02*
X4534468Y-9250174D01*
X4534468Y-9250174D02*
X4543992Y-9269222D01*
X4543992Y-9269222D02*
X4543992Y-9288270D01*
X4543992Y-9288270D02*
X4448753Y-9307317D01*
X4620182Y-9364460D02*
X4639230Y-9373984D01*
X4639230Y-9373984D02*
X4677325Y-9373984D01*
X4677325Y-9373984D02*
X4696373Y-9364460D01*
X4696373Y-9364460D02*
X4705896Y-9345412D01*
X4705896Y-9345412D02*
X4705896Y-9335889D01*
X4705896Y-9335889D02*
X4696373Y-9316841D01*
X4696373Y-9316841D02*
X4677325Y-9307317D01*
X4677325Y-9307317D02*
X4648753Y-9307317D01*
X4648753Y-9307317D02*
X4629706Y-9297793D01*
X4629706Y-9297793D02*
X4620182Y-9278746D01*
X4620182Y-9278746D02*
X4620182Y-9269222D01*
X4620182Y-9269222D02*
X4629706Y-9250174D01*
X4629706Y-9250174D02*
X4648753Y-9240650D01*
X4648753Y-9240650D02*
X4677325Y-9240650D01*
X4677325Y-9240650D02*
X4696373Y-9250174D01*
X4772563Y-9450174D02*
X4782087Y-9440650D01*
X4782087Y-9440650D02*
X4801134Y-9412079D01*
X4801134Y-9412079D02*
X4810658Y-9393031D01*
X4810658Y-9393031D02*
X4820182Y-9364460D01*
X4820182Y-9364460D02*
X4829706Y-9316841D01*
X4829706Y-9316841D02*
X4829706Y-9278746D01*
X4829706Y-9278746D02*
X4820182Y-9231127D01*
X4820182Y-9231127D02*
X4810658Y-9202555D01*
X4810658Y-9202555D02*
X4801134Y-9183508D01*
X4801134Y-9183508D02*
X4782087Y-9154936D01*
X4782087Y-9154936D02*
X4772563Y-9145412D01*
D15*
X-132500Y-9481500D02*
X-2500Y-9611500D01*
X-2500Y-9481500D02*
X-132500Y-9611500D01*
X-67500Y-9481500D02*
X-67500Y-9611500D01*
X-132500Y-9546500D02*
X-2500Y-9546500D01*
D11*
X363039Y-9637984D02*
X248753Y-9637984D01*
X305896Y-9637984D02*
X305896Y-9437984D01*
X305896Y-9437984D02*
X286848Y-9466555D01*
X286848Y-9466555D02*
X267801Y-9485603D01*
X267801Y-9485603D02*
X248753Y-9495127D01*
X448753Y-9618936D02*
X458277Y-9628460D01*
X458277Y-9628460D02*
X448753Y-9637984D01*
X448753Y-9637984D02*
X439229Y-9628460D01*
X439229Y-9628460D02*
X448753Y-9618936D01*
X448753Y-9618936D02*
X448753Y-9637984D01*
X524944Y-9437984D02*
X648753Y-9437984D01*
X648753Y-9437984D02*
X582086Y-9514174D01*
X582086Y-9514174D02*
X610658Y-9514174D01*
X610658Y-9514174D02*
X629705Y-9523698D01*
X629705Y-9523698D02*
X639229Y-9533222D01*
X639229Y-9533222D02*
X648753Y-9552270D01*
X648753Y-9552270D02*
X648753Y-9599889D01*
X648753Y-9599889D02*
X639229Y-9618936D01*
X639229Y-9618936D02*
X629705Y-9628460D01*
X629705Y-9628460D02*
X610658Y-9637984D01*
X610658Y-9637984D02*
X553515Y-9637984D01*
X553515Y-9637984D02*
X534467Y-9628460D01*
X534467Y-9628460D02*
X524944Y-9618936D01*
X772562Y-9437984D02*
X791610Y-9437984D01*
X791610Y-9437984D02*
X810658Y-9447508D01*
X810658Y-9447508D02*
X820182Y-9457031D01*
X820182Y-9457031D02*
X829705Y-9476079D01*
X829705Y-9476079D02*
X839229Y-9514174D01*
X839229Y-9514174D02*
X839229Y-9561793D01*
X839229Y-9561793D02*
X829705Y-9599889D01*
X829705Y-9599889D02*
X820182Y-9618936D01*
X820182Y-9618936D02*
X810658Y-9628460D01*
X810658Y-9628460D02*
X791610Y-9637984D01*
X791610Y-9637984D02*
X772562Y-9637984D01*
X772562Y-9637984D02*
X753515Y-9628460D01*
X753515Y-9628460D02*
X743991Y-9618936D01*
X743991Y-9618936D02*
X734467Y-9599889D01*
X734467Y-9599889D02*
X724943Y-9561793D01*
X724943Y-9561793D02*
X724943Y-9514174D01*
X724943Y-9514174D02*
X734467Y-9476079D01*
X734467Y-9476079D02*
X743991Y-9457031D01*
X743991Y-9457031D02*
X753515Y-9447508D01*
X753515Y-9447508D02*
X772562Y-9437984D01*
X963039Y-9437984D02*
X982086Y-9437984D01*
X982086Y-9437984D02*
X1001134Y-9447508D01*
X1001134Y-9447508D02*
X1010658Y-9457031D01*
X1010658Y-9457031D02*
X1020182Y-9476079D01*
X1020182Y-9476079D02*
X1029705Y-9514174D01*
X1029705Y-9514174D02*
X1029705Y-9561793D01*
X1029705Y-9561793D02*
X1020182Y-9599889D01*
X1020182Y-9599889D02*
X1010658Y-9618936D01*
X1010658Y-9618936D02*
X1001134Y-9628460D01*
X1001134Y-9628460D02*
X982086Y-9637984D01*
X982086Y-9637984D02*
X963039Y-9637984D01*
X963039Y-9637984D02*
X943991Y-9628460D01*
X943991Y-9628460D02*
X934467Y-9618936D01*
X934467Y-9618936D02*
X924943Y-9599889D01*
X924943Y-9599889D02*
X915420Y-9561793D01*
X915420Y-9561793D02*
X915420Y-9514174D01*
X915420Y-9514174D02*
X924943Y-9476079D01*
X924943Y-9476079D02*
X934467Y-9457031D01*
X934467Y-9457031D02*
X943991Y-9447508D01*
X943991Y-9447508D02*
X963039Y-9437984D01*
X1115420Y-9637984D02*
X1115420Y-9504650D01*
X1115420Y-9523698D02*
X1124944Y-9514174D01*
X1124944Y-9514174D02*
X1143991Y-9504650D01*
X1143991Y-9504650D02*
X1172563Y-9504650D01*
X1172563Y-9504650D02*
X1191610Y-9514174D01*
X1191610Y-9514174D02*
X1201134Y-9533222D01*
X1201134Y-9533222D02*
X1201134Y-9637984D01*
X1201134Y-9533222D02*
X1210658Y-9514174D01*
X1210658Y-9514174D02*
X1229705Y-9504650D01*
X1229705Y-9504650D02*
X1258277Y-9504650D01*
X1258277Y-9504650D02*
X1277325Y-9514174D01*
X1277325Y-9514174D02*
X1286848Y-9533222D01*
X1286848Y-9533222D02*
X1286848Y-9637984D01*
X1382086Y-9637984D02*
X1382086Y-9504650D01*
X1382086Y-9523698D02*
X1391610Y-9514174D01*
X1391610Y-9514174D02*
X1410658Y-9504650D01*
X1410658Y-9504650D02*
X1439229Y-9504650D01*
X1439229Y-9504650D02*
X1458277Y-9514174D01*
X1458277Y-9514174D02*
X1467801Y-9533222D01*
X1467801Y-9533222D02*
X1467801Y-9637984D01*
X1467801Y-9533222D02*
X1477324Y-9514174D01*
X1477324Y-9514174D02*
X1496372Y-9504650D01*
X1496372Y-9504650D02*
X1524943Y-9504650D01*
X1524943Y-9504650D02*
X1543991Y-9514174D01*
X1543991Y-9514174D02*
X1553515Y-9533222D01*
X1553515Y-9533222D02*
X1553515Y-9637984D01*
X1943991Y-9428460D02*
X1772563Y-9685603D01*
X2201134Y-9437984D02*
X2220182Y-9437984D01*
X2220182Y-9437984D02*
X2239229Y-9447508D01*
X2239229Y-9447508D02*
X2248753Y-9457031D01*
X2248753Y-9457031D02*
X2258277Y-9476079D01*
X2258277Y-9476079D02*
X2267801Y-9514174D01*
X2267801Y-9514174D02*
X2267801Y-9561793D01*
X2267801Y-9561793D02*
X2258277Y-9599889D01*
X2258277Y-9599889D02*
X2248753Y-9618936D01*
X2248753Y-9618936D02*
X2239229Y-9628460D01*
X2239229Y-9628460D02*
X2220182Y-9637984D01*
X2220182Y-9637984D02*
X2201134Y-9637984D01*
X2201134Y-9637984D02*
X2182087Y-9628460D01*
X2182087Y-9628460D02*
X2172563Y-9618936D01*
X2172563Y-9618936D02*
X2163039Y-9599889D01*
X2163039Y-9599889D02*
X2153515Y-9561793D01*
X2153515Y-9561793D02*
X2153515Y-9514174D01*
X2153515Y-9514174D02*
X2163039Y-9476079D01*
X2163039Y-9476079D02*
X2172563Y-9457031D01*
X2172563Y-9457031D02*
X2182087Y-9447508D01*
X2182087Y-9447508D02*
X2201134Y-9437984D01*
X2353515Y-9618936D02*
X2363039Y-9628460D01*
X2363039Y-9628460D02*
X2353515Y-9637984D01*
X2353515Y-9637984D02*
X2343991Y-9628460D01*
X2343991Y-9628460D02*
X2353515Y-9618936D01*
X2353515Y-9618936D02*
X2353515Y-9637984D01*
X2486848Y-9437984D02*
X2505896Y-9437984D01*
X2505896Y-9437984D02*
X2524944Y-9447508D01*
X2524944Y-9447508D02*
X2534468Y-9457031D01*
X2534468Y-9457031D02*
X2543991Y-9476079D01*
X2543991Y-9476079D02*
X2553515Y-9514174D01*
X2553515Y-9514174D02*
X2553515Y-9561793D01*
X2553515Y-9561793D02*
X2543991Y-9599889D01*
X2543991Y-9599889D02*
X2534468Y-9618936D01*
X2534468Y-9618936D02*
X2524944Y-9628460D01*
X2524944Y-9628460D02*
X2505896Y-9637984D01*
X2505896Y-9637984D02*
X2486848Y-9637984D01*
X2486848Y-9637984D02*
X2467801Y-9628460D01*
X2467801Y-9628460D02*
X2458277Y-9618936D01*
X2458277Y-9618936D02*
X2448753Y-9599889D01*
X2448753Y-9599889D02*
X2439229Y-9561793D01*
X2439229Y-9561793D02*
X2439229Y-9514174D01*
X2439229Y-9514174D02*
X2448753Y-9476079D01*
X2448753Y-9476079D02*
X2458277Y-9457031D01*
X2458277Y-9457031D02*
X2467801Y-9447508D01*
X2467801Y-9447508D02*
X2486848Y-9437984D01*
X2734468Y-9437984D02*
X2639229Y-9437984D01*
X2639229Y-9437984D02*
X2629706Y-9533222D01*
X2629706Y-9533222D02*
X2639229Y-9523698D01*
X2639229Y-9523698D02*
X2658277Y-9514174D01*
X2658277Y-9514174D02*
X2705896Y-9514174D01*
X2705896Y-9514174D02*
X2724944Y-9523698D01*
X2724944Y-9523698D02*
X2734468Y-9533222D01*
X2734468Y-9533222D02*
X2743991Y-9552270D01*
X2743991Y-9552270D02*
X2743991Y-9599889D01*
X2743991Y-9599889D02*
X2734468Y-9618936D01*
X2734468Y-9618936D02*
X2724944Y-9628460D01*
X2724944Y-9628460D02*
X2705896Y-9637984D01*
X2705896Y-9637984D02*
X2658277Y-9637984D01*
X2658277Y-9637984D02*
X2639229Y-9628460D01*
X2639229Y-9628460D02*
X2629706Y-9618936D01*
X2934467Y-9637984D02*
X2820182Y-9637984D01*
X2877325Y-9637984D02*
X2877325Y-9437984D01*
X2877325Y-9437984D02*
X2858277Y-9466555D01*
X2858277Y-9466555D02*
X2839229Y-9485603D01*
X2839229Y-9485603D02*
X2820182Y-9495127D01*
X3010658Y-9457031D02*
X3020182Y-9447508D01*
X3020182Y-9447508D02*
X3039229Y-9437984D01*
X3039229Y-9437984D02*
X3086848Y-9437984D01*
X3086848Y-9437984D02*
X3105896Y-9447508D01*
X3105896Y-9447508D02*
X3115420Y-9457031D01*
X3115420Y-9457031D02*
X3124944Y-9476079D01*
X3124944Y-9476079D02*
X3124944Y-9495127D01*
X3124944Y-9495127D02*
X3115420Y-9523698D01*
X3115420Y-9523698D02*
X3001134Y-9637984D01*
X3001134Y-9637984D02*
X3124944Y-9637984D01*
X3201134Y-9437984D02*
X3201134Y-9476079D01*
X3277325Y-9437984D02*
X3277325Y-9476079D01*
X3572563Y-9714174D02*
X3563039Y-9704650D01*
X3563039Y-9704650D02*
X3543991Y-9676079D01*
X3543991Y-9676079D02*
X3534468Y-9657031D01*
X3534468Y-9657031D02*
X3524944Y-9628460D01*
X3524944Y-9628460D02*
X3515420Y-9580841D01*
X3515420Y-9580841D02*
X3515420Y-9542746D01*
X3515420Y-9542746D02*
X3524944Y-9495127D01*
X3524944Y-9495127D02*
X3534468Y-9466555D01*
X3534468Y-9466555D02*
X3543991Y-9447508D01*
X3543991Y-9447508D02*
X3563039Y-9418936D01*
X3563039Y-9418936D02*
X3572563Y-9409412D01*
X3639229Y-9457031D02*
X3648753Y-9447508D01*
X3648753Y-9447508D02*
X3667801Y-9437984D01*
X3667801Y-9437984D02*
X3715420Y-9437984D01*
X3715420Y-9437984D02*
X3734468Y-9447508D01*
X3734468Y-9447508D02*
X3743991Y-9457031D01*
X3743991Y-9457031D02*
X3753515Y-9476079D01*
X3753515Y-9476079D02*
X3753515Y-9495127D01*
X3753515Y-9495127D02*
X3743991Y-9523698D01*
X3743991Y-9523698D02*
X3629706Y-9637984D01*
X3629706Y-9637984D02*
X3753515Y-9637984D01*
X3877325Y-9437984D02*
X3896372Y-9437984D01*
X3896372Y-9437984D02*
X3915420Y-9447508D01*
X3915420Y-9447508D02*
X3924944Y-9457031D01*
X3924944Y-9457031D02*
X3934468Y-9476079D01*
X3934468Y-9476079D02*
X3943991Y-9514174D01*
X3943991Y-9514174D02*
X3943991Y-9561793D01*
X3943991Y-9561793D02*
X3934468Y-9599889D01*
X3934468Y-9599889D02*
X3924944Y-9618936D01*
X3924944Y-9618936D02*
X3915420Y-9628460D01*
X3915420Y-9628460D02*
X3896372Y-9637984D01*
X3896372Y-9637984D02*
X3877325Y-9637984D01*
X3877325Y-9637984D02*
X3858277Y-9628460D01*
X3858277Y-9628460D02*
X3848753Y-9618936D01*
X3848753Y-9618936D02*
X3839229Y-9599889D01*
X3839229Y-9599889D02*
X3829706Y-9561793D01*
X3829706Y-9561793D02*
X3829706Y-9514174D01*
X3829706Y-9514174D02*
X3839229Y-9476079D01*
X3839229Y-9476079D02*
X3848753Y-9457031D01*
X3848753Y-9457031D02*
X3858277Y-9447508D01*
X3858277Y-9447508D02*
X3877325Y-9437984D01*
X4182087Y-9637984D02*
X4182087Y-9437984D01*
X4267801Y-9637984D02*
X4267801Y-9533222D01*
X4267801Y-9533222D02*
X4258277Y-9514174D01*
X4258277Y-9514174D02*
X4239230Y-9504650D01*
X4239230Y-9504650D02*
X4210658Y-9504650D01*
X4210658Y-9504650D02*
X4191610Y-9514174D01*
X4191610Y-9514174D02*
X4182087Y-9523698D01*
X4391611Y-9637984D02*
X4372563Y-9628460D01*
X4372563Y-9628460D02*
X4363039Y-9618936D01*
X4363039Y-9618936D02*
X4353515Y-9599889D01*
X4353515Y-9599889D02*
X4353515Y-9542746D01*
X4353515Y-9542746D02*
X4363039Y-9523698D01*
X4363039Y-9523698D02*
X4372563Y-9514174D01*
X4372563Y-9514174D02*
X4391611Y-9504650D01*
X4391611Y-9504650D02*
X4420182Y-9504650D01*
X4420182Y-9504650D02*
X4439230Y-9514174D01*
X4439230Y-9514174D02*
X4448753Y-9523698D01*
X4448753Y-9523698D02*
X4458277Y-9542746D01*
X4458277Y-9542746D02*
X4458277Y-9599889D01*
X4458277Y-9599889D02*
X4448753Y-9618936D01*
X4448753Y-9618936D02*
X4439230Y-9628460D01*
X4439230Y-9628460D02*
X4420182Y-9637984D01*
X4420182Y-9637984D02*
X4391611Y-9637984D01*
X4572563Y-9637984D02*
X4553515Y-9628460D01*
X4553515Y-9628460D02*
X4543992Y-9609412D01*
X4543992Y-9609412D02*
X4543992Y-9437984D01*
X4724944Y-9628460D02*
X4705896Y-9637984D01*
X4705896Y-9637984D02*
X4667801Y-9637984D01*
X4667801Y-9637984D02*
X4648753Y-9628460D01*
X4648753Y-9628460D02*
X4639230Y-9609412D01*
X4639230Y-9609412D02*
X4639230Y-9533222D01*
X4639230Y-9533222D02*
X4648753Y-9514174D01*
X4648753Y-9514174D02*
X4667801Y-9504650D01*
X4667801Y-9504650D02*
X4705896Y-9504650D01*
X4705896Y-9504650D02*
X4724944Y-9514174D01*
X4724944Y-9514174D02*
X4734468Y-9533222D01*
X4734468Y-9533222D02*
X4734468Y-9552270D01*
X4734468Y-9552270D02*
X4639230Y-9571317D01*
X4810658Y-9628460D02*
X4829706Y-9637984D01*
X4829706Y-9637984D02*
X4867801Y-9637984D01*
X4867801Y-9637984D02*
X4886849Y-9628460D01*
X4886849Y-9628460D02*
X4896373Y-9609412D01*
X4896373Y-9609412D02*
X4896373Y-9599889D01*
X4896373Y-9599889D02*
X4886849Y-9580841D01*
X4886849Y-9580841D02*
X4867801Y-9571317D01*
X4867801Y-9571317D02*
X4839230Y-9571317D01*
X4839230Y-9571317D02*
X4820182Y-9561793D01*
X4820182Y-9561793D02*
X4810658Y-9542746D01*
X4810658Y-9542746D02*
X4810658Y-9533222D01*
X4810658Y-9533222D02*
X4820182Y-9514174D01*
X4820182Y-9514174D02*
X4839230Y-9504650D01*
X4839230Y-9504650D02*
X4867801Y-9504650D01*
X4867801Y-9504650D02*
X4886849Y-9514174D01*
X4963039Y-9714174D02*
X4972563Y-9704650D01*
X4972563Y-9704650D02*
X4991611Y-9676079D01*
X4991611Y-9676079D02*
X5001134Y-9657031D01*
X5001134Y-9657031D02*
X5010658Y-9628460D01*
X5010658Y-9628460D02*
X5020182Y-9580841D01*
X5020182Y-9580841D02*
X5020182Y-9542746D01*
X5020182Y-9542746D02*
X5010658Y-9495127D01*
X5010658Y-9495127D02*
X5001134Y-9466555D01*
X5001134Y-9466555D02*
X4991611Y-9447508D01*
X4991611Y-9447508D02*
X4972563Y-9418936D01*
X4972563Y-9418936D02*
X4963039Y-9409412D01*
D16*
X-134500Y-9744500D02*
X-2500Y-9876500D01*
X-2500Y-9744500D02*
X-134500Y-9876500D01*
X-21831Y-9857170D02*
X-21831Y-9763831D01*
X-115169Y-9763831D01*
X-115169Y-9857170D01*
X-21831Y-9857170D01*
D11*
X363039Y-9901984D02*
X248753Y-9901984D01*
X305896Y-9901984D02*
X305896Y-9701984D01*
X305896Y-9701984D02*
X286848Y-9730555D01*
X286848Y-9730555D02*
X267801Y-9749603D01*
X267801Y-9749603D02*
X248753Y-9759127D01*
X448753Y-9882936D02*
X458277Y-9892460D01*
X458277Y-9892460D02*
X448753Y-9901984D01*
X448753Y-9901984D02*
X439229Y-9892460D01*
X439229Y-9892460D02*
X448753Y-9882936D01*
X448753Y-9882936D02*
X448753Y-9901984D01*
X524944Y-9701984D02*
X648753Y-9701984D01*
X648753Y-9701984D02*
X582086Y-9778174D01*
X582086Y-9778174D02*
X610658Y-9778174D01*
X610658Y-9778174D02*
X629705Y-9787698D01*
X629705Y-9787698D02*
X639229Y-9797222D01*
X639229Y-9797222D02*
X648753Y-9816270D01*
X648753Y-9816270D02*
X648753Y-9863889D01*
X648753Y-9863889D02*
X639229Y-9882936D01*
X639229Y-9882936D02*
X629705Y-9892460D01*
X629705Y-9892460D02*
X610658Y-9901984D01*
X610658Y-9901984D02*
X553515Y-9901984D01*
X553515Y-9901984D02*
X534467Y-9892460D01*
X534467Y-9892460D02*
X524944Y-9882936D01*
X724943Y-9721031D02*
X734467Y-9711508D01*
X734467Y-9711508D02*
X753515Y-9701984D01*
X753515Y-9701984D02*
X801134Y-9701984D01*
X801134Y-9701984D02*
X820182Y-9711508D01*
X820182Y-9711508D02*
X829705Y-9721031D01*
X829705Y-9721031D02*
X839229Y-9740079D01*
X839229Y-9740079D02*
X839229Y-9759127D01*
X839229Y-9759127D02*
X829705Y-9787698D01*
X829705Y-9787698D02*
X715420Y-9901984D01*
X715420Y-9901984D02*
X839229Y-9901984D01*
X963039Y-9701984D02*
X982086Y-9701984D01*
X982086Y-9701984D02*
X1001134Y-9711508D01*
X1001134Y-9711508D02*
X1010658Y-9721031D01*
X1010658Y-9721031D02*
X1020182Y-9740079D01*
X1020182Y-9740079D02*
X1029705Y-9778174D01*
X1029705Y-9778174D02*
X1029705Y-9825793D01*
X1029705Y-9825793D02*
X1020182Y-9863889D01*
X1020182Y-9863889D02*
X1010658Y-9882936D01*
X1010658Y-9882936D02*
X1001134Y-9892460D01*
X1001134Y-9892460D02*
X982086Y-9901984D01*
X982086Y-9901984D02*
X963039Y-9901984D01*
X963039Y-9901984D02*
X943991Y-9892460D01*
X943991Y-9892460D02*
X934467Y-9882936D01*
X934467Y-9882936D02*
X924943Y-9863889D01*
X924943Y-9863889D02*
X915420Y-9825793D01*
X915420Y-9825793D02*
X915420Y-9778174D01*
X915420Y-9778174D02*
X924943Y-9740079D01*
X924943Y-9740079D02*
X934467Y-9721031D01*
X934467Y-9721031D02*
X943991Y-9711508D01*
X943991Y-9711508D02*
X963039Y-9701984D01*
X1115420Y-9901984D02*
X1115420Y-9768650D01*
X1115420Y-9787698D02*
X1124944Y-9778174D01*
X1124944Y-9778174D02*
X1143991Y-9768650D01*
X1143991Y-9768650D02*
X1172563Y-9768650D01*
X1172563Y-9768650D02*
X1191610Y-9778174D01*
X1191610Y-9778174D02*
X1201134Y-9797222D01*
X1201134Y-9797222D02*
X1201134Y-9901984D01*
X1201134Y-9797222D02*
X1210658Y-9778174D01*
X1210658Y-9778174D02*
X1229705Y-9768650D01*
X1229705Y-9768650D02*
X1258277Y-9768650D01*
X1258277Y-9768650D02*
X1277325Y-9778174D01*
X1277325Y-9778174D02*
X1286848Y-9797222D01*
X1286848Y-9797222D02*
X1286848Y-9901984D01*
X1382086Y-9901984D02*
X1382086Y-9768650D01*
X1382086Y-9787698D02*
X1391610Y-9778174D01*
X1391610Y-9778174D02*
X1410658Y-9768650D01*
X1410658Y-9768650D02*
X1439229Y-9768650D01*
X1439229Y-9768650D02*
X1458277Y-9778174D01*
X1458277Y-9778174D02*
X1467801Y-9797222D01*
X1467801Y-9797222D02*
X1467801Y-9901984D01*
X1467801Y-9797222D02*
X1477324Y-9778174D01*
X1477324Y-9778174D02*
X1496372Y-9768650D01*
X1496372Y-9768650D02*
X1524943Y-9768650D01*
X1524943Y-9768650D02*
X1543991Y-9778174D01*
X1543991Y-9778174D02*
X1553515Y-9797222D01*
X1553515Y-9797222D02*
X1553515Y-9901984D01*
X1943991Y-9692460D02*
X1772563Y-9949603D01*
X2201134Y-9701984D02*
X2220182Y-9701984D01*
X2220182Y-9701984D02*
X2239229Y-9711508D01*
X2239229Y-9711508D02*
X2248753Y-9721031D01*
X2248753Y-9721031D02*
X2258277Y-9740079D01*
X2258277Y-9740079D02*
X2267801Y-9778174D01*
X2267801Y-9778174D02*
X2267801Y-9825793D01*
X2267801Y-9825793D02*
X2258277Y-9863889D01*
X2258277Y-9863889D02*
X2248753Y-9882936D01*
X2248753Y-9882936D02*
X2239229Y-9892460D01*
X2239229Y-9892460D02*
X2220182Y-9901984D01*
X2220182Y-9901984D02*
X2201134Y-9901984D01*
X2201134Y-9901984D02*
X2182087Y-9892460D01*
X2182087Y-9892460D02*
X2172563Y-9882936D01*
X2172563Y-9882936D02*
X2163039Y-9863889D01*
X2163039Y-9863889D02*
X2153515Y-9825793D01*
X2153515Y-9825793D02*
X2153515Y-9778174D01*
X2153515Y-9778174D02*
X2163039Y-9740079D01*
X2163039Y-9740079D02*
X2172563Y-9721031D01*
X2172563Y-9721031D02*
X2182087Y-9711508D01*
X2182087Y-9711508D02*
X2201134Y-9701984D01*
X2353515Y-9882936D02*
X2363039Y-9892460D01*
X2363039Y-9892460D02*
X2353515Y-9901984D01*
X2353515Y-9901984D02*
X2343991Y-9892460D01*
X2343991Y-9892460D02*
X2353515Y-9882936D01*
X2353515Y-9882936D02*
X2353515Y-9901984D01*
X2486848Y-9701984D02*
X2505896Y-9701984D01*
X2505896Y-9701984D02*
X2524944Y-9711508D01*
X2524944Y-9711508D02*
X2534468Y-9721031D01*
X2534468Y-9721031D02*
X2543991Y-9740079D01*
X2543991Y-9740079D02*
X2553515Y-9778174D01*
X2553515Y-9778174D02*
X2553515Y-9825793D01*
X2553515Y-9825793D02*
X2543991Y-9863889D01*
X2543991Y-9863889D02*
X2534468Y-9882936D01*
X2534468Y-9882936D02*
X2524944Y-9892460D01*
X2524944Y-9892460D02*
X2505896Y-9901984D01*
X2505896Y-9901984D02*
X2486848Y-9901984D01*
X2486848Y-9901984D02*
X2467801Y-9892460D01*
X2467801Y-9892460D02*
X2458277Y-9882936D01*
X2458277Y-9882936D02*
X2448753Y-9863889D01*
X2448753Y-9863889D02*
X2439229Y-9825793D01*
X2439229Y-9825793D02*
X2439229Y-9778174D01*
X2439229Y-9778174D02*
X2448753Y-9740079D01*
X2448753Y-9740079D02*
X2458277Y-9721031D01*
X2458277Y-9721031D02*
X2467801Y-9711508D01*
X2467801Y-9711508D02*
X2486848Y-9701984D01*
X2734468Y-9701984D02*
X2639229Y-9701984D01*
X2639229Y-9701984D02*
X2629706Y-9797222D01*
X2629706Y-9797222D02*
X2639229Y-9787698D01*
X2639229Y-9787698D02*
X2658277Y-9778174D01*
X2658277Y-9778174D02*
X2705896Y-9778174D01*
X2705896Y-9778174D02*
X2724944Y-9787698D01*
X2724944Y-9787698D02*
X2734468Y-9797222D01*
X2734468Y-9797222D02*
X2743991Y-9816270D01*
X2743991Y-9816270D02*
X2743991Y-9863889D01*
X2743991Y-9863889D02*
X2734468Y-9882936D01*
X2734468Y-9882936D02*
X2724944Y-9892460D01*
X2724944Y-9892460D02*
X2705896Y-9901984D01*
X2705896Y-9901984D02*
X2658277Y-9901984D01*
X2658277Y-9901984D02*
X2639229Y-9892460D01*
X2639229Y-9892460D02*
X2629706Y-9882936D01*
X2820182Y-9721031D02*
X2829706Y-9711508D01*
X2829706Y-9711508D02*
X2848753Y-9701984D01*
X2848753Y-9701984D02*
X2896372Y-9701984D01*
X2896372Y-9701984D02*
X2915420Y-9711508D01*
X2915420Y-9711508D02*
X2924944Y-9721031D01*
X2924944Y-9721031D02*
X2934467Y-9740079D01*
X2934467Y-9740079D02*
X2934467Y-9759127D01*
X2934467Y-9759127D02*
X2924944Y-9787698D01*
X2924944Y-9787698D02*
X2810658Y-9901984D01*
X2810658Y-9901984D02*
X2934467Y-9901984D01*
X3058277Y-9701984D02*
X3077325Y-9701984D01*
X3077325Y-9701984D02*
X3096372Y-9711508D01*
X3096372Y-9711508D02*
X3105896Y-9721031D01*
X3105896Y-9721031D02*
X3115420Y-9740079D01*
X3115420Y-9740079D02*
X3124944Y-9778174D01*
X3124944Y-9778174D02*
X3124944Y-9825793D01*
X3124944Y-9825793D02*
X3115420Y-9863889D01*
X3115420Y-9863889D02*
X3105896Y-9882936D01*
X3105896Y-9882936D02*
X3096372Y-9892460D01*
X3096372Y-9892460D02*
X3077325Y-9901984D01*
X3077325Y-9901984D02*
X3058277Y-9901984D01*
X3058277Y-9901984D02*
X3039229Y-9892460D01*
X3039229Y-9892460D02*
X3029706Y-9882936D01*
X3029706Y-9882936D02*
X3020182Y-9863889D01*
X3020182Y-9863889D02*
X3010658Y-9825793D01*
X3010658Y-9825793D02*
X3010658Y-9778174D01*
X3010658Y-9778174D02*
X3020182Y-9740079D01*
X3020182Y-9740079D02*
X3029706Y-9721031D01*
X3029706Y-9721031D02*
X3039229Y-9711508D01*
X3039229Y-9711508D02*
X3058277Y-9701984D01*
X3201134Y-9701984D02*
X3201134Y-9740079D01*
X3277325Y-9701984D02*
X3277325Y-9740079D01*
X3572563Y-9978174D02*
X3563039Y-9968650D01*
X3563039Y-9968650D02*
X3543991Y-9940079D01*
X3543991Y-9940079D02*
X3534468Y-9921031D01*
X3534468Y-9921031D02*
X3524944Y-9892460D01*
X3524944Y-9892460D02*
X3515420Y-9844841D01*
X3515420Y-9844841D02*
X3515420Y-9806746D01*
X3515420Y-9806746D02*
X3524944Y-9759127D01*
X3524944Y-9759127D02*
X3534468Y-9730555D01*
X3534468Y-9730555D02*
X3543991Y-9711508D01*
X3543991Y-9711508D02*
X3563039Y-9682936D01*
X3563039Y-9682936D02*
X3572563Y-9673412D01*
X3753515Y-9901984D02*
X3639229Y-9901984D01*
X3696372Y-9901984D02*
X3696372Y-9701984D01*
X3696372Y-9701984D02*
X3677325Y-9730555D01*
X3677325Y-9730555D02*
X3658277Y-9749603D01*
X3658277Y-9749603D02*
X3639229Y-9759127D01*
X3924944Y-9701984D02*
X3886848Y-9701984D01*
X3886848Y-9701984D02*
X3867801Y-9711508D01*
X3867801Y-9711508D02*
X3858277Y-9721031D01*
X3858277Y-9721031D02*
X3839229Y-9749603D01*
X3839229Y-9749603D02*
X3829706Y-9787698D01*
X3829706Y-9787698D02*
X3829706Y-9863889D01*
X3829706Y-9863889D02*
X3839229Y-9882936D01*
X3839229Y-9882936D02*
X3848753Y-9892460D01*
X3848753Y-9892460D02*
X3867801Y-9901984D01*
X3867801Y-9901984D02*
X3905896Y-9901984D01*
X3905896Y-9901984D02*
X3924944Y-9892460D01*
X3924944Y-9892460D02*
X3934468Y-9882936D01*
X3934468Y-9882936D02*
X3943991Y-9863889D01*
X3943991Y-9863889D02*
X3943991Y-9816270D01*
X3943991Y-9816270D02*
X3934468Y-9797222D01*
X3934468Y-9797222D02*
X3924944Y-9787698D01*
X3924944Y-9787698D02*
X3905896Y-9778174D01*
X3905896Y-9778174D02*
X3867801Y-9778174D01*
X3867801Y-9778174D02*
X3848753Y-9787698D01*
X3848753Y-9787698D02*
X3839229Y-9797222D01*
X3839229Y-9797222D02*
X3829706Y-9816270D01*
X4182087Y-9901984D02*
X4182087Y-9701984D01*
X4267801Y-9901984D02*
X4267801Y-9797222D01*
X4267801Y-9797222D02*
X4258277Y-9778174D01*
X4258277Y-9778174D02*
X4239230Y-9768650D01*
X4239230Y-9768650D02*
X4210658Y-9768650D01*
X4210658Y-9768650D02*
X4191610Y-9778174D01*
X4191610Y-9778174D02*
X4182087Y-9787698D01*
X4391611Y-9901984D02*
X4372563Y-9892460D01*
X4372563Y-9892460D02*
X4363039Y-9882936D01*
X4363039Y-9882936D02*
X4353515Y-9863889D01*
X4353515Y-9863889D02*
X4353515Y-9806746D01*
X4353515Y-9806746D02*
X4363039Y-9787698D01*
X4363039Y-9787698D02*
X4372563Y-9778174D01*
X4372563Y-9778174D02*
X4391611Y-9768650D01*
X4391611Y-9768650D02*
X4420182Y-9768650D01*
X4420182Y-9768650D02*
X4439230Y-9778174D01*
X4439230Y-9778174D02*
X4448753Y-9787698D01*
X4448753Y-9787698D02*
X4458277Y-9806746D01*
X4458277Y-9806746D02*
X4458277Y-9863889D01*
X4458277Y-9863889D02*
X4448753Y-9882936D01*
X4448753Y-9882936D02*
X4439230Y-9892460D01*
X4439230Y-9892460D02*
X4420182Y-9901984D01*
X4420182Y-9901984D02*
X4391611Y-9901984D01*
X4572563Y-9901984D02*
X4553515Y-9892460D01*
X4553515Y-9892460D02*
X4543992Y-9873412D01*
X4543992Y-9873412D02*
X4543992Y-9701984D01*
X4724944Y-9892460D02*
X4705896Y-9901984D01*
X4705896Y-9901984D02*
X4667801Y-9901984D01*
X4667801Y-9901984D02*
X4648753Y-9892460D01*
X4648753Y-9892460D02*
X4639230Y-9873412D01*
X4639230Y-9873412D02*
X4639230Y-9797222D01*
X4639230Y-9797222D02*
X4648753Y-9778174D01*
X4648753Y-9778174D02*
X4667801Y-9768650D01*
X4667801Y-9768650D02*
X4705896Y-9768650D01*
X4705896Y-9768650D02*
X4724944Y-9778174D01*
X4724944Y-9778174D02*
X4734468Y-9797222D01*
X4734468Y-9797222D02*
X4734468Y-9816270D01*
X4734468Y-9816270D02*
X4639230Y-9835317D01*
X4810658Y-9892460D02*
X4829706Y-9901984D01*
X4829706Y-9901984D02*
X4867801Y-9901984D01*
X4867801Y-9901984D02*
X4886849Y-9892460D01*
X4886849Y-9892460D02*
X4896373Y-9873412D01*
X4896373Y-9873412D02*
X4896373Y-9863889D01*
X4896373Y-9863889D02*
X4886849Y-9844841D01*
X4886849Y-9844841D02*
X4867801Y-9835317D01*
X4867801Y-9835317D02*
X4839230Y-9835317D01*
X4839230Y-9835317D02*
X4820182Y-9825793D01*
X4820182Y-9825793D02*
X4810658Y-9806746D01*
X4810658Y-9806746D02*
X4810658Y-9797222D01*
X4810658Y-9797222D02*
X4820182Y-9778174D01*
X4820182Y-9778174D02*
X4839230Y-9768650D01*
X4839230Y-9768650D02*
X4867801Y-9768650D01*
X4867801Y-9768650D02*
X4886849Y-9778174D01*
X4963039Y-9978174D02*
X4972563Y-9968650D01*
X4972563Y-9968650D02*
X4991611Y-9940079D01*
X4991611Y-9940079D02*
X5001134Y-9921031D01*
X5001134Y-9921031D02*
X5010658Y-9892460D01*
X5010658Y-9892460D02*
X5020182Y-9844841D01*
X5020182Y-9844841D02*
X5020182Y-9806746D01*
X5020182Y-9806746D02*
X5010658Y-9759127D01*
X5010658Y-9759127D02*
X5001134Y-9730555D01*
X5001134Y-9730555D02*
X4991611Y-9711508D01*
X4991611Y-9711508D02*
X4972563Y-9682936D01*
X4972563Y-9682936D02*
X4963039Y-9673412D01*
M02*
