  0
SECTION
  2
HEADER
  9
$ACADVER
  1
AC1015
  9
$ACADMAINTVER
 70
     6
  9
$DWGCODEPAGE
  3
ANSI_1252
  9
$INSBASE
 10
0.0
 20
0.0
 30
0.0
  9
$EXTMIN
 10
0.0
 20
0.0
 30
0.0
  9
$EXTMAX
 10
385.0
 20
385.0
 30
0.0
  9
$LIMMIN
 10
0.0
 20
0.0
  9
$LIMMAX
 10
420.0
 20
297.0
  9
$ORTHOMODE
 70
     0
  9
$REGENMODE
 70
     1
  9
$FILLMODE
 70
     1
  9
$QTEXTMODE
 70
     0
  9
$MIRRTEXT
 70
     1
  9
$LTSCALE
 40
1.0
  9
$ATTMODE
 70
     1
  9
$TEXTSIZE
 40
3.5
  9
$TRACEWID
 40
1.0
  9
$TEXTSTYLE
  7
Standard
  9
$CLAYER
  8
0
  9
$CELTYPE
  6
ByLayer
  9
$CECOLOR
 62
   256
  9
$CELTSCALE
 40
1.0
  9
$DISPSILH
 70
     0
  9
$DIMSCALE
 40
1.0
  9
$DIMASZ
 40
3.302
  9
$DIMEXO
 40
1.0
  9
$DIMDLI
 40
3.75
  9
$DIMRND
 40
0.0
  9
$DIMDLE
 40
0.0
  9
$DIMEXE
 40
1.0
  9
$DIMTP
 40
0.0
  9
$DIMTM
 40
0.0
  9
$DIMTXT
 40
3.5
  9
$DIMCEN
 40
2.5
  9
$DIMTSZ
 40
0.0
  9
$DIMTOL
 70
     0
  9
$DIMLIM
 70
     0
  9
$DIMTIH
 70
     1
  9
$DIMTOH
 70
     1
  9
$DIMSE1
 70
     0
  9
$DIMSE2
 70
     0
  9
$DIMTAD
 70
     1
  9
$DIMZIN
 70
     1
  9
$DIMBLK
  1

  9
$DIMASO
 70
     1
  9
$DIMSHO
 70
     1
  9
$DIMPOST
  1

  9
$DIMAPOST
  1

  9
$DIMALT
 70
     0
  9
$DIMALTD
 70
     3
  9
$DIMALTF
 40
0.0393700787
  9
$DIMLFAC
 40
5.0
  9
$DIMTOFL
 70
     1
  9
$DIMTVP
 40
0.0
  9
$DIMTIX
 70
     0
  9
$DIMSOXD
 70
     0
  9
$DIMSAH
 70
     0
  9
$DIMBLK1
  1

  9
$DIMBLK2
  1

  9
$DIMSTYLE
  2
ISO-25
  9
$DIMCLRD
 70
     0
  9
$DIMCLRE
 70
     0
  9
$DIMCLRT
 70
     0
  9
$DIMTFAC
 40
1.0
  9
$DIMGAP
 40
1.524
  9
$DIMJUST
 70
     0
  9
$DIMSD1
 70
     0
  9
$DIMSD2
 70
     0
  9
$DIMTOLJ
 70
     0
  9
$DIMTZIN
 70
     1
  9
$DIMALTZ
 70
     0
  9
$DIMALTTZ
 70
     0
  9
$DIMUPT
 70
     0
  9
$DIMDEC
 70
     2
  9
$DIMTDEC
 70
     2
  9
$DIMALTU
 70
     2
  9
$DIMALTTD
 70
     3
  9
$DIMTXSTY
  7
Standard
  9
$DIMAUNIT
 70
     0
  9
$DIMADEC
 70
     2
  9
$DIMALTRND
 40
0.0
  9
$DIMAZIN
 70
     0
  9
$DIMDSEP
 70
    44
  9
$DIMATFIT
 70
     3
  9
$DIMFRAC
 70
     0
  9
$DIMLDRBLK
  1

  9
$DIMLUNIT
 70
     2
  9
$DIMLWD
 70
    -2
  9
$DIMLWE
 70
    -2
  9
$DIMTMOVE
 70
     0
  9
$LUNITS
 70
     2
  9
$LUPREC
 70
     2
  9
$SKETCHINC
 40
1.0
  9
$FILLETRAD
 40
0.0
  9
$AUNITS
 70
     0
  9
$AUPREC
 70
     2
  9
$MENU
  1
.
  9
$ELEVATION
 40
0.0
  9
$PELEVATION
 40
0.0
  9
$THICKNESS
 40
0.0
  9
$LIMCHECK
 70
     0
  9
$CHAMFERA
 40
0.0
  9
$CHAMFERB
 40
0.0
  9
$CHAMFERC
 40
0.0
  9
$CHAMFERD
 40
0.0
  9
$SKPOLY
 70
     0
  9
$TDCREATE
 40
2460758.829567628
  9
$TDUCREATE
 40
2460759.079567628
  9
$TDUPDATE
 40
2460758.829600081
  9
$TDUUPDATE
 40
2460759.079600081
  9
$TDINDWG
 40
0.0000000116
  9
$TDUSRTIMER
 40
0.0000000116
  9
$USRTIMER
 70
     1
  9
$ANGBASE
 50
0.0
  9
$ANGDIR
 70
     0
  9
$PDMODE
 70
     0
  9
$PDSIZE
 40
-1.0
  9
$PLINEWID
 40
0.0
  9
$SPLFRAME
 70
     0
  9
$SPLINETYPE
 70
     6
  9
$SPLINESEGS
 70
     8
  9
$HANDSEED
  5
3F4
  9
$SURFTAB1
 70
     6
  9
$SURFTAB2
 70
     6
  9
$SURFTYPE
 70
     6
  9
$SURFU
 70
     6
  9
$SURFV
 70
     6
  9
$UCSBASE
  2

  9
$UCSNAME
  2

  9
$UCSORG
 10
0.0
 20
0.0
 30
0.0
  9
$UCSXDIR
 10
1.0
 20
0.0
 30
0.0
  9
$UCSYDIR
 10
0.0
 20
1.0
 30
0.0
  9
$UCSORTHOREF
  2

  9
$UCSORTHOVIEW
 70
     0
  9
$UCSORGTOP
 10
0.0
 20
0.0
 30
0.0
  9
$UCSORGBOTTOM
 10
0.0
 20
0.0
 30
0.0
  9
$UCSORGLEFT
 10
0.0
 20
0.0
 30
0.0
  9
$UCSORGRIGHT
 10
0.0
 20
0.0
 30
0.0
  9
$UCSORGFRONT
 10
0.0
 20
0.0
 30
0.0
  9
$UCSORGBACK
 10
0.0
 20
0.0
 30
0.0
  9
$PUCSBASE
  2

  9
$PUCSNAME
  2

  9
$PUCSORG
 10
0.0
 20
0.0
 30
0.0
  9
$PUCSXDIR
 10
1.0
 20
0.0
 30
0.0
  9
$PUCSYDIR
 10
0.0
 20
1.0
 30
0.0
  9
$PUCSORTHOREF
  2

  9
$PUCSORTHOVIEW
 70
     0
  9
$PUCSORGTOP
 10
0.0
 20
0.0
 30
0.0
  9
$PUCSORGBOTTOM
 10
0.0
 20
0.0
 30
0.0
  9
$PUCSORGLEFT
 10
0.0
 20
0.0
 30
0.0
  9
$PUCSORGRIGHT
 10
0.0
 20
0.0
 30
0.0
  9
$PUCSORGFRONT
 10
0.0
 20
0.0
 30
0.0
  9
$PUCSORGBACK
 10
0.0
 20
0.0
 30
0.0
  9
$USERI1
 70
     0
  9
$USERI2
 70
     0
  9
$USERI3
 70
     0
  9
$USERI4
 70
     0
  9
$USERI5
 70
     0
  9
$USERR1
 40
0.0
  9
$USERR2
 40
0.0
  9
$USERR3
 40
0.0
  9
$USERR4
 40
0.0
  9
$USERR5
 40
0.0
  9
$WORLDVIEW
 70
     1
  9
$SHADEDGE
 70
     3
  9
$SHADEDIF
 70
    70
  9
$TILEMODE
 70
     0
  9
$MAXACTVP
 70
    64
  9
$PINSBASE
 10
0.0
 20
0.0
 30
0.0
  9
$PLIMCHECK
 70
     0
  9
$PEXTMIN
 10
0.0
 20
0.0
 30
0.0
  9
$PEXTMAX
 10
385.0
 20
385.0
 30
0.0
  9
$PLIMMIN
 10
0.0
 20
0.0
  9
$PLIMMAX
 10
385.0
 20
385.0
  9
$UNITMODE
 70
     0
  9
$VISRETAIN
 70
     1
  9
$PLINEGEN
 70
     0
  9
$PSLTSCALE
 70
     1
  9
$TREEDEPTH
 70
  3020
  9
$CMLSTYLE
  2
Standard
  9
$CMLJUST
 70
     0
  9
$CMLSCALE
 40
20.0
  9
$PROXYGRAPHICS
 70
     1
  9
$MEASUREMENT
 70
     1
  9
$CELWEIGHT
370
    -1
  9
$ENDCAPS
280
     0
  9
$JOINSTYLE
280
     0
  9
$LWDISPLAY
290
     1
  9
$INSUNITS
 70
     4
  9
$HYPERLINKBASE
  1

  9
$STYLESHEET
  1

  9
$XEDIT
290
     1
  9
$CEPSNTYPE
380
     0
  9
$PSTYLEMODE
290
     1
  9
$FINGERPRINTGUID
  2
{57647801-7612-4bef-aaa6-1e482ebbcc4f}
  9
$VERSIONGUID
  2
{FAEB1C32-E019-11D5-929B-00C0DF256EC4}
  9
$EXTNAMES
290
     1
  9
$PSVPSCALE
 40
0.0
  9
$OLESTARTUP
290
     0
  0
ENDSEC
  0
SECTION
  2
CLASSES
  0
CLASS
  1
ACDBDICTIONARYWDFLT
  2
AcDbDictionaryWithDefault
  3
ObjectDBX Classes
 90
        0
280
     0
281
     0
  0
CLASS
  1
VISUALSTYLE
  2
AcDbVisualStyle
  3
ObjectDBX Classes
 90
     4095
280
     0
281
     0
  0
CLASS
  1
MATERIAL
  2
AcDbMaterial
  3
ObjectDBX Classes
 90
     1153
280
     0
281
     0
  0
CLASS
  1
SCALE
  2
AcDbScale
  3
ObjectDBX Classes
 90
     1153
280
     0
281
     0
  0
CLASS
  1
TABLESTYLE
  2
AcDbTableStyle
  3
ObjectDBX Classes
 90
     4095
280
     0
281
     0
  0
CLASS
  1
MLEADERSTYLE
  2
AcDbMLeaderStyle
  3
ACDB_MLEADERSTYLE_CLASS
 90
     4095
280
     0
281
     0
  0
CLASS
  1
SUN
  2
AcDbSun
  3
SCENEOE
 90
     1153
280
     0
281
     0
  0
CLASS
  1
ACDBPLACEHOLDER
  2
AcDbPlaceHolder
  3
ObjectDBX Classes
 90
        0
280
     0
281
     0
  0
CLASS
  1
LAYOUT
  2
AcDbLayout
  3
ObjectDBX Classes
 90
        0
280
     0
281
     0
  0
ENDSEC
  0
SECTION
  2
TABLES
  0
TABLE
  2
VPORT
  5
8
330
0
100
AcDbSymbolTable
 70
     1
  0
VPORT
  5
29
330
8
100
AcDbSymbolTableRecord
100
AcDbViewportTableRecord
  2
*Active
 70
     0
 10
0.0
 20
0.0
 11
1.0
 21
1.0
 12
192.5
 22
192.5
 13
0.0
 23
0.0
 14
10.0
 24
10.0
 15
10.0
 25
10.0
 16
0.0
 26
0.0
 36
1.0
 17
0.0
 27
0.0
 37
0.0
 40
385.0
 41
1.0
 42
50.0
 43
0.0
 44
0.0
 50
0.0
 51
0.0
 71
     0
 72
  2000
 73
     1
 74
     3
 75
     0
 76
     0
 77
     0
 78
     0
281
     0
 65
     1
110
0.0
120
0.0
130
0.0
111
1.0
121
0.0
131
0.0
112
0.0
122
1.0
132
0.0
 79
     0
146
0.0
  0
ENDTAB
  0
TABLE
  2
LTYPE
  5
5
330
0
100
AcDbSymbolTable
 70
     6
  0
LTYPE
  5
14
330
5
100
AcDbSymbolTableRecord
100
AcDbLinetypeTableRecord
  2
ByBlock
 70
     0
  3

 72
    65
 73
     0
 40
0.0
  0
LTYPE
  5
15
330
5
100
AcDbSymbolTableRecord
100
AcDbLinetypeTableRecord
  2
ByLayer
 70
     0
  3

 72
    65
 73
     0
 40
0.0
  0
LTYPE
  5
16
330
5
100
AcDbSymbolTableRecord
100
AcDbLinetypeTableRecord
  2
Continuous
 70
     0
  3
Solid line
 72
    65
 73
     0
 40
0.0
  0
LTYPE
  5
5E
330
5
100
AcDbSymbolTableRecord
100
AcDbLinetypeTableRecord
  2
HIDDEN
 70
     0
  3
Hidden __ __ __ __ __ __ __ __ __ __ __ __ __ __
 72
    65
 73
     2
 40
1.905
 49
1.27
 74
     0
 49
-0.635
 74
     0
  0
LTYPE
  5
5F
330
5
100
AcDbSymbolTableRecord
100
AcDbLinetypeTableRecord
  2
PHANTOM
 70
     0
  3
Phantom ______  __  __  ______  __  __  ______
 72
    65
 73
     6
 40
12.7
 49
6.35
 74
     0
 49
-1.27
 74
     0
 49
1.27
 74
     0
 49
-1.27
 74
     0
 49
1.27
 74
     0
 49
-1.27
 74
     0
  0
LTYPE
  5
60
330
5
100
AcDbSymbolTableRecord
100
AcDbLinetypeTableRecord
  2
CENTER
 70
     0
  3
Center ____ _ ____ _ ____ _ ____ _ ____ _ ____
 72
    65
 73
     4
 40
10.16
 49
6.35
 74
     0
 49
-1.27
 74
     0
 49
1.27
 74
     0
 49
-1.27
 74
     0
  0
LTYPE
  5
61
330
5
100
AcDbSymbolTableRecord
100
AcDbLinetypeTableRecord
  2
CENTERX2
 70
     0
  3
Center (2x) ________  __  ________  __  _____
 72
    65
 73
     4
 40
20.32
 49
12.7
 74
     0
 49
-2.54
 74
     0
 49
2.54
 74
     0
 49
-2.54
 74
     0
  0
LTYPE
  5
62
330
5
100
AcDbSymbolTableRecord
100
AcDbLinetypeTableRecord
  2
DOT2
 70
     0
  3
Dot (.5x) ........................................
 72
    65
 73
     2
 40
0.635
 49
0.0
 74
     0
 49
-0.635
 74
     0
  0
ENDTAB
  0
TABLE
  2
LAYER
  5
2
330
0
100
AcDbSymbolTable
 70
     1
  0
LAYER
  5
10
330
2
100
AcDbSymbolTableRecord
100
AcDbLayerTableRecord
  2
0
 70
     0
 62
     7
  6
Continuous
370
    -3
390
F
  0
ENDTAB
  0
TABLE
  2
STYLE
  5
3
330
0
100
AcDbSymbolTable
 70
     1
  0
STYLE
  5
11
330
3
100
AcDbSymbolTableRecord
100
AcDbTextStyleTableRecord
  2
Standard
 70
     0
 40
0.0
 41
1.0
 50
0.0
 71
     0
 42
3.5
  3
txt
  4

  0
ENDTAB
  0
TABLE
  2
VIEW
  5
6
330
0
100
AcDbSymbolTable
 70
     0
  0
ENDTAB
  0
TABLE
  2
UCS
  5
7
330
0
100
AcDbSymbolTable
 70
     0
  0
ENDTAB
  0
TABLE
  2
APPID
  5
9
330
0
100
AcDbSymbolTable
 70
     1
  0
APPID
  5
12
330
9
100
AcDbSymbolTableRecord
100
AcDbRegAppTableRecord
  2
ACAD
 70
     0
  0
ENDTAB
  0
TABLE
  2
DIMSTYLE
  5
A
330
0
100
AcDbSymbolTable
 70
     1
100
AcDbDimStyleTable
  0
DIMSTYLE
105
27
330
A
100
AcDbSymbolTableRecord
100
AcDbDimStyleTableRecord
  2
ISO-25
 70
     0
 41
2.5
 42
0.625
 43
3.75
 44
1.25
 73
     0
 74
     0
 77
     1
 78
     8
140
2.5
141
2.5
143
0.0393700787
147
0.625
171
     3
172
     1
178
     0
271
     2
272
     2
274
     3
278
    44
283
     0
284
     8
340
11
  0
ENDTAB
  0
TABLE
  2
BLOCK_RECORD
  5
1
330
0
100
AcDbSymbolTable
 70
    51
  0
BLOCK_RECORD
  5
1F
330
1
100
AcDbSymbolTableRecord
100
AcDbBlockTableRecord
  2
*Model_Space
340
22
  0
BLOCK_RECORD
  5
23
330
1
100
AcDbSymbolTableRecord
100
AcDbBlockTableRecord
  2
*Paper_Space
340
26
  0
BLOCK_RECORD
  5
1B
330
1
100
AcDbSymbolTableRecord
100
AcDbBlockTableRecord
  2
*Paper_Space0
340
1E
  0
BLOCK_RECORD
  5
BE
330
1
100
AcDbSymbolTableRecord
100
AcDbBlockTableRecord
  2
SW_CENTERMARKSYMBOL_0
340
0
102
{BLKREFS
331
C9
102
}
  0
BLOCK_RECORD
  5
CA
330
1
100
AcDbSymbolTableRecord
100
AcDbBlockTableRecord
  2
SW_CENTERMARKSYMBOL_1
340
0
102
{BLKREFS
331
D5
102
}
  0
BLOCK_RECORD
  5
D6
330
1
100
AcDbSymbolTableRecord
100
AcDbBlockTableRecord
  2
SW_CENTERMARKSYMBOL_2
340
0
102
{BLKREFS
331
E1
102
}
  0
BLOCK_RECORD
  5
E2
330
1
100
AcDbSymbolTableRecord
100
AcDbBlockTableRecord
  2
SW_CENTERMARKSYMBOL_3
340
0
102
{BLKREFS
331
ED
102
}
  0
BLOCK_RECORD
  5
EE
330
1
100
AcDbSymbolTableRecord
100
AcDbBlockTableRecord
  2
SW_CENTERMARKSYMBOL_4
340
0
102
{BLKREFS
331
F9
102
}
  0
BLOCK_RECORD
  5
FA
330
1
100
AcDbSymbolTableRecord
100
AcDbBlockTableRecord
  2
SW_CENTERMARKSYMBOL_5
340
0
102
{BLKREFS
331
105
102
}
  0
BLOCK_RECORD
  5
106
330
1
100
AcDbSymbolTableRecord
100
AcDbBlockTableRecord
  2
SW_CENTERMARKSYMBOL_6
340
0
102
{BLKREFS
331
111
102
}
  0
BLOCK_RECORD
  5
130
330
1
100
AcDbSymbolTableRecord
100
AcDbBlockTableRecord
  2
SW_CENTERMARKSYMBOL_7
340
0
102
{BLKREFS
331
13B
102
}
  0
BLOCK_RECORD
  5
13C
330
1
100
AcDbSymbolTableRecord
100
AcDbBlockTableRecord
  2
SW_CENTERMARKSYMBOL_8
340
0
102
{BLKREFS
331
147
102
}
  0
BLOCK_RECORD
  5
153
330
1
100
AcDbSymbolTableRecord
100
AcDbBlockTableRecord
  2
SW_CENTERMARKSYMBOL_9
340
0
102
{BLKREFS
331
15E
102
}
  0
BLOCK_RECORD
  5
169
330
1
100
AcDbSymbolTableRecord
100
AcDbBlockTableRecord
  2
SW_CENTERMARKSYMBOL_10
340
0
102
{BLKREFS
331
174
102
}
  0
BLOCK_RECORD
  5
175
330
1
100
AcDbSymbolTableRecord
100
AcDbBlockTableRecord
  2
SW_CENTERMARKSYMBOL_11
340
0
102
{BLKREFS
331
180
102
}
  0
BLOCK_RECORD
  5
18B
330
1
100
AcDbSymbolTableRecord
100
AcDbBlockTableRecord
  2
SW_CENTERMARKSYMBOL_12
340
0
102
{BLKREFS
331
196
102
}
  0
BLOCK_RECORD
  5
197
330
1
100
AcDbSymbolTableRecord
100
AcDbBlockTableRecord
  2
SW_CENTERMARKSYMBOL_13
340
0
102
{BLKREFS
331
1A2
102
}
  0
BLOCK_RECORD
  5
1BE
330
1
100
AcDbSymbolTableRecord
100
AcDbBlockTableRecord
  2
SW_CENTERMARKSYMBOL_14
340
0
102
{BLKREFS
331
1C9
102
}
  0
BLOCK_RECORD
  5
1CA
330
1
100
AcDbSymbolTableRecord
100
AcDbBlockTableRecord
  2
SW_CENTERMARKSYMBOL_15
340
0
102
{BLKREFS
331
1D5
102
}
  0
BLOCK_RECORD
  5
1DC
330
1
100
AcDbSymbolTableRecord
100
AcDbBlockTableRecord
  2
SW_CENTERMARKSYMBOL_16
340
0
102
{BLKREFS
331
1E7
102
}
  0
BLOCK_RECORD
  5
1E8
330
1
100
AcDbSymbolTableRecord
100
AcDbBlockTableRecord
  2
SW_CENTERMARKSYMBOL_17
340
0
102
{BLKREFS
331
1F3
102
}
  0
BLOCK_RECORD
  5
1FA
330
1
100
AcDbSymbolTableRecord
100
AcDbBlockTableRecord
  2
SW_CENTERMARKSYMBOL_18
340
0
102
{BLKREFS
331
205
102
}
  0
BLOCK_RECORD
  5
206
330
1
100
AcDbSymbolTableRecord
100
AcDbBlockTableRecord
  2
SW_CENTERMARKSYMBOL_19
340
0
102
{BLKREFS
331
211
102
}
  0
BLOCK_RECORD
  5
218
330
1
100
AcDbSymbolTableRecord
100
AcDbBlockTableRecord
  2
SW_CENTERMARKSYMBOL_20
340
0
102
{BLKREFS
331
223
102
}
  0
BLOCK_RECORD
  5
224
330
1
100
AcDbSymbolTableRecord
100
AcDbBlockTableRecord
  2
SW_CENTERMARKSYMBOL_21
340
0
102
{BLKREFS
331
22F
102
}
  0
BLOCK_RECORD
  5
236
330
1
100
AcDbSymbolTableRecord
100
AcDbBlockTableRecord
  2
SW_CENTERMARKSYMBOL_22
340
0
102
{BLKREFS
331
241
102
}
  0
BLOCK_RECORD
  5
242
330
1
100
AcDbSymbolTableRecord
100
AcDbBlockTableRecord
  2
SW_CENTERMARKSYMBOL_23
340
0
102
{BLKREFS
331
24D
102
}
  0
BLOCK_RECORD
  5
254
330
1
100
AcDbSymbolTableRecord
100
AcDbBlockTableRecord
  2
SW_CENTERMARKSYMBOL_24
340
0
102
{BLKREFS
331
25F
102
}
  0
BLOCK_RECORD
  5
260
330
1
100
AcDbSymbolTableRecord
100
AcDbBlockTableRecord
  2
SW_CENTERMARKSYMBOL_25
340
0
102
{BLKREFS
331
26B
102
}
  0
BLOCK_RECORD
  5
292
330
1
100
AcDbSymbolTableRecord
100
AcDbBlockTableRecord
  2
SW_CENTERMARKSYMBOL_26
340
0
102
{BLKREFS
331
29D
102
}
  0
BLOCK_RECORD
  5
29E
330
1
100
AcDbSymbolTableRecord
100
AcDbBlockTableRecord
  2
SW_CENTERMARKSYMBOL_27
340
0
102
{BLKREFS
331
2A9
102
}
  0
BLOCK_RECORD
  5
2AC
330
1
100
AcDbSymbolTableRecord
100
AcDbBlockTableRecord
  2
SW_CENTERMARKSYMBOL_28
340
0
102
{BLKREFS
331
2B7
102
}
  0
BLOCK_RECORD
  5
2BA
330
1
100
AcDbSymbolTableRecord
100
AcDbBlockTableRecord
  2
SW_CENTERMARKSYMBOL_29
340
0
102
{BLKREFS
331
2C5
102
}
  0
BLOCK_RECORD
  5
2C8
330
1
100
AcDbSymbolTableRecord
100
AcDbBlockTableRecord
  2
SW_CENTERMARKSYMBOL_30
340
0
102
{BLKREFS
331
2D3
102
}
  0
BLOCK_RECORD
  5
2D6
330
1
100
AcDbSymbolTableRecord
100
AcDbBlockTableRecord
  2
SW_CENTERMARKSYMBOL_31
340
0
102
{BLKREFS
331
2E1
102
}
  0
BLOCK_RECORD
  5
2E4
330
1
100
AcDbSymbolTableRecord
100
AcDbBlockTableRecord
  2
SW_CENTERMARKSYMBOL_32
340
0
102
{BLKREFS
331
2EF
102
}
  0
BLOCK_RECORD
  5
2F2
330
1
100
AcDbSymbolTableRecord
100
AcDbBlockTableRecord
  2
SW_CENTERMARKSYMBOL_33
340
0
102
{BLKREFS
331
2FD
102
}
  0
BLOCK_RECORD
  5
300
330
1
100
AcDbSymbolTableRecord
100
AcDbBlockTableRecord
  2
SW_CENTERMARKSYMBOL_34
340
0
102
{BLKREFS
331
30B
102
}
  0
BLOCK_RECORD
  5
30E
330
1
100
AcDbSymbolTableRecord
100
AcDbBlockTableRecord
  2
SW_CENTERMARKSYMBOL_35
340
0
102
{BLKREFS
331
319
102
}
  0
BLOCK_RECORD
  5
31C
330
1
100
AcDbSymbolTableRecord
100
AcDbBlockTableRecord
  2
SW_CENTERMARKSYMBOL_36
340
0
102
{BLKREFS
331
327
102
}
  0
BLOCK_RECORD
  5
32A
330
1
100
AcDbSymbolTableRecord
100
AcDbBlockTableRecord
  2
SW_CENTERMARKSYMBOL_37
340
0
102
{BLKREFS
331
335
102
}
  0
BLOCK_RECORD
  5
338
330
1
100
AcDbSymbolTableRecord
100
AcDbBlockTableRecord
  2
SW_CENTERMARKSYMBOL_38
340
0
102
{BLKREFS
331
343
102
}
  0
BLOCK_RECORD
  5
346
330
1
100
AcDbSymbolTableRecord
100
AcDbBlockTableRecord
  2
SW_CENTERMARKSYMBOL_39
340
0
102
{BLKREFS
331
351
102
}
  0
BLOCK_RECORD
  5
354
330
1
100
AcDbSymbolTableRecord
100
AcDbBlockTableRecord
  2
SW_CENTERMARKSYMBOL_40
340
0
102
{BLKREFS
331
35F
102
}
  0
BLOCK_RECORD
  5
362
330
1
100
AcDbSymbolTableRecord
100
AcDbBlockTableRecord
  2
SW_CENTERMARKSYMBOL_41
340
0
102
{BLKREFS
331
36D
102
}
  0
BLOCK_RECORD
  5
370
330
1
100
AcDbSymbolTableRecord
100
AcDbBlockTableRecord
  2
SW_CENTERMARKSYMBOL_42
340
0
102
{BLKREFS
331
37B
102
}
  0
BLOCK_RECORD
  5
37E
330
1
100
AcDbSymbolTableRecord
100
AcDbBlockTableRecord
  2
SW_CENTERMARKSYMBOL_43
340
0
102
{BLKREFS
331
389
102
}
  0
BLOCK_RECORD
  5
38C
330
1
100
AcDbSymbolTableRecord
100
AcDbBlockTableRecord
  2
SW_CENTERMARKSYMBOL_44
340
0
102
{BLKREFS
331
397
102
}
  0
BLOCK_RECORD
  5
39A
330
1
100
AcDbSymbolTableRecord
100
AcDbBlockTableRecord
  2
SW_CENTERMARKSYMBOL_45
340
0
102
{BLKREFS
331
3A5
102
}
  0
BLOCK_RECORD
  5
3A8
330
1
100
AcDbSymbolTableRecord
100
AcDbBlockTableRecord
  2
SW_CENTERMARKSYMBOL_46
340
0
102
{BLKREFS
331
3B3
102
}
  0
BLOCK_RECORD
  5
3BD
330
1
100
AcDbSymbolTableRecord
100
AcDbBlockTableRecord
  2
SW_CENTERMARKSYMBOL_47
340
0
102
{BLKREFS
331
3C8
102
}
  0
BLOCK_RECORD
  5
3D2
330
1
100
AcDbSymbolTableRecord
100
AcDbBlockTableRecord
  2
SW_CENTERMARKSYMBOL_48
340
0
102
{BLKREFS
331
3DD
102
}
  0
BLOCK_RECORD
  5
3E7
330
1
100
AcDbSymbolTableRecord
100
AcDbBlockTableRecord
  2
SW_CENTERMARKSYMBOL_49
340
0
102
{BLKREFS
331
3F2
102
}
  0
ENDTAB
  0
ENDSEC
  0
SECTION
  2
BLOCKS
  0
BLOCK
  5
20
330
1F
100
AcDbEntity
  8
0
100
AcDbBlockBegin
  2
*Model_Space
 70
     0
 10
0.0
 20
0.0
 30
0.0
  3
*Model_Space
  1

  0
ENDBLK
  5
21
330
1F
100
AcDbEntity
  8
0
100
AcDbBlockEnd
  0
BLOCK
  5
24
330
23
100
AcDbEntity
 67
     1
  8
0
100
AcDbBlockBegin
  2
*Paper_Space
 70
     0
 10
0.0
 20
0.0
 30
0.0
  3
*Paper_Space
  1

  0
ENDBLK
  5
25
330
23
100
AcDbEntity
 67
     1
  8
0
100
AcDbBlockEnd
  0
BLOCK
  5
1C
330
1B
100
AcDbEntity
  8
0
100
AcDbBlockBegin
  2
*Paper_Space0
 70
     0
 10
0.0
 20
0.0
 30
0.0
  3
*Paper_Space0
  1

  0
LINE
  5
63
330
1B
100
AcDbEntity
  8
0
  6
Continuous
 62
     1
370
    18
100
AcDbLine
 10
235.3913313957
 20
125.6593201155
 30
0.0
 11
232.3913313957
 21
125.6593201155
 31
0.0
  0
LINE
  5
64
330
1B
100
AcDbEntity
  8
0
  6
Continuous
 62
     1
370
    18
100
AcDbLine
 10
232.3913313957
 20
125.6593201155
 30
0.0
 11
232.3913313957
 21
95.6593201155
 31
0.0
  0
LINE
  5
65
330
1B
100
AcDbEntity
  8
0
  6
Continuous
 62
     1
370
    18
100
AcDbLine
 10
232.3913313957
 20
95.6593201155
 30
0.0
 11
235.3913313957
 21
95.6593201155
 31
0.0
  0
LINE
  5
66
330
1B
100
AcDbEntity
  8
0
  6
Continuous
 62
     1
370
    18
100
AcDbLine
 10
235.3913313957
 20
95.6593201155
 30
0.0
 11
235.3913313957
 21
125.6593201155
 31
0.0
  0
LINE
  5
67
330
1B
100
AcDbEntity
  8
0
  6
Continuous
 62
     1
370
    18
100
AcDbLine
 10
235.3913313957
 20
290.6593201155
 30
0.0
 11
232.3913313957
 21
290.6593201155
 31
0.0
  0
LINE
  5
68
330
1B
100
AcDbEntity
  8
0
  6
Continuous
 62
     1
370
    18
100
AcDbLine
 10
232.3913313957
 20
290.6593201155
 30
0.0
 11
232.3913313957
 21
260.6593201155
 31
0.0
  0
LINE
  5
69
330
1B
100
AcDbEntity
  8
0
  6
Continuous
 62
     1
370
    18
100
AcDbLine
 10
232.3913313957
 20
260.6593201155
 30
0.0
 11
235.3913313957
 21
260.6593201155
 31
0.0
  0
LINE
  5
6A
330
1B
100
AcDbEntity
  8
0
  6
Continuous
 62
     1
370
    18
100
AcDbLine
 10
235.3913313957
 20
260.6593201155
 30
0.0
 11
235.3913313957
 21
290.6593201155
 31
0.0
  0
LINE
  5
6B
330
1B
100
AcDbEntity
  8
0
  6
Continuous
 62
     1
370
    18
100
AcDbLine
 10
147.3913313957
 20
208.1593201155
 30
0.0
 11
144.3913313957
 21
208.1593201155
 31
0.0
  0
LINE
  5
6C
330
1B
100
AcDbEntity
  8
0
  6
Continuous
 62
     1
370
    18
100
AcDbLine
 10
144.3913313957
 20
208.1593201155
 30
0.0
 11
144.3913313957
 21
178.1593201155
 31
0.0
  0
LINE
  5
6D
330
1B
100
AcDbEntity
  8
0
  6
Continuous
 62
     1
370
    18
100
AcDbLine
 10
144.3913313957
 20
178.1593201155
 30
0.0
 11
147.3913313957
 21
178.1593201155
 31
0.0
  0
LINE
  5
6E
330
1B
100
AcDbEntity
  8
0
  6
Continuous
 62
     1
370
    18
100
AcDbLine
 10
147.3913313957
 20
178.1593201155
 30
0.0
 11
147.3913313957
 21
208.1593201155
 31
0.0
  0
LINE
  5
6F
330
1B
100
AcDbEntity
  8
0
  6
Continuous
 62
     1
370
    18
100
AcDbLine
 10
139.8913313957
 20
3.1593201155
 30
0.0
 11
239.8913313957
 21
3.1593201155
 31
0.0
  0
LINE
  5
70
330
1B
100
AcDbEntity
  8
0
  6
Continuous
 62
     1
370
    18
100
AcDbLine
 10
139.8913313957
 20
383.1593201155
 30
0.0
 11
139.8913313957
 21
3.1593201155
 31
0.0
  0
LINE
  5
71
330
1B
100
AcDbEntity
  8
0
  6
Continuous
 62
     1
370
    18
100
AcDbLine
 10
239.8913313957
 20
383.1593201155
 30
0.0
 11
139.8913313957
 21
383.1593201155
 31
0.0
  0
LINE
  5
72
330
1B
100
AcDbEntity
  8
0
  6
Continuous
 62
     1
370
    18
100
AcDbLine
 10
239.8913313957
 20
3.1593201155
 30
0.0
 11
239.8913313957
 21
383.1593201155
 31
0.0
  0
LINE
  5
73
330
1B
100
AcDbEntity
  8
0
  6
Continuous
 62
     1
370
    18
100
AcDbLine
 10
147.3913313957
 20
290.6593201155
 30
0.0
 11
144.3913313957
 21
290.6593201155
 31
0.0
  0
LINE
  5
74
330
1B
100
AcDbEntity
  8
0
  6
Continuous
 62
     1
370
    18
100
AcDbLine
 10
144.3913313957
 20
290.6593201155
 30
0.0
 11
144.3913313957
 21
260.6593201155
 31
0.0
  0
LINE
  5
75
330
1B
100
AcDbEntity
  8
0
  6
Continuous
 62
     1
370
    18
100
AcDbLine
 10
144.3913313957
 20
260.6593201155
 30
0.0
 11
147.3913313957
 21
260.6593201155
 31
0.0
  0
LINE
  5
76
330
1B
100
AcDbEntity
  8
0
  6
Continuous
 62
     1
370
    18
100
AcDbLine
 10
147.3913313957
 20
260.6593201155
 30
0.0
 11
147.3913313957
 21
290.6593201155
 31
0.0
  0
LINE
  5
77
330
1B
100
AcDbEntity
  8
0
  6
Continuous
 62
     1
370
    18
100
AcDbLine
 10
147.3913313957
 20
125.6593201155
 30
0.0
 11
144.3913313957
 21
125.6593201155
 31
0.0
  0
LINE
  5
78
330
1B
100
AcDbEntity
  8
0
  6
Continuous
 62
     1
370
    18
100
AcDbLine
 10
144.3913313957
 20
125.6593201155
 30
0.0
 11
144.3913313957
 21
95.6593201155
 31
0.0
  0
LINE
  5
79
330
1B
100
AcDbEntity
  8
0
  6
Continuous
 62
     1
370
    18
100
AcDbLine
 10
144.3913313957
 20
95.6593201155
 30
0.0
 11
147.3913313957
 21
95.6593201155
 31
0.0
  0
LINE
  5
7A
330
1B
100
AcDbEntity
  8
0
  6
Continuous
 62
     1
370
    18
100
AcDbLine
 10
147.3913313957
 20
95.6593201155
 30
0.0
 11
147.3913313957
 21
125.6593201155
 31
0.0
  0
LINE
  5
7B
330
1B
100
AcDbEntity
  8
0
  6
Continuous
 62
     1
370
    18
100
AcDbLine
 10
235.3913313957
 20
208.1593201155
 30
0.0
 11
232.3913313957
 21
208.1593201155
 31
0.0
  0
LINE
  5
7C
330
1B
100
AcDbEntity
  8
0
  6
Continuous
 62
     1
370
    18
100
AcDbLine
 10
232.3913313957
 20
208.1593201155
 30
0.0
 11
232.3913313957
 21
178.1593201155
 31
0.0
  0
LINE
  5
7D
330
1B
100
AcDbEntity
  8
0
  6
Continuous
 62
     1
370
    18
100
AcDbLine
 10
232.3913313957
 20
178.1593201155
 30
0.0
 11
235.3913313957
 21
178.1593201155
 31
0.0
  0
LINE
  5
7E
330
1B
100
AcDbEntity
  8
0
  6
Continuous
 62
     1
370
    18
100
AcDbLine
 10
235.3913313957
 20
178.1593201155
 30
0.0
 11
235.3913313957
 21
208.1593201155
 31
0.0
  0
LINE
  5
7F
330
1B
100
AcDbEntity
  8
0
  6
Continuous
 62
     1
370
    18
100
AcDbLine
 10
124.8158421672
 20
200.7826180509
 30
0.0
 11
69.8158421672
 21
200.7826180509
 31
0.0
  0
CIRCLE
  5
80
330
1B
100
AcDbEntity
  8
0
  6
Continuous
 62
     1
370
    18
100
AcDbCircle
 10
34.8158421672
 20
23.2826180509
 30
0.0
 40
3.500000000000004
  0
CIRCLE
  5
81
330
1B
100
AcDbEntity
  8
0
  6
Continuous
 62
     1
370
    18
100
AcDbCircle
 10
16.0658421672
 20
312.5826180509
 30
0.0
 40
2.0
  0
CIRCLE
  5
82
330
1B
100
AcDbEntity
  8
0
  6
Continuous
 62
     1
370
    18
100
AcDbCircle
 10
33.5658421672
 20
312.5826180509
 30
0.0
 40
2.0
  0
CIRCLE
  5
83
330
1B
100
AcDbEntity
  8
0
  6
Continuous
 62
     1
370
    18
100
AcDbCircle
 10
24.8158421672
 20
332.7826180509
 30
0.0
 40
4.0
  0
CIRCLE
  5
84
330
1B
100
AcDbEntity
  8
0
  6
Continuous
 62
     1
370
    18
100
AcDbCircle
 10
34.8158421672
 20
363.2826180509
 30
0.0
 40
3.500000000000057
  0
CIRCLE
  5
85
330
1B
100
AcDbEntity
  8
0
  6
Continuous
 62
     1
370
    18
100
AcDbCircle
 10
81.8158421672
 20
215.2826180509
 30
0.0
 40
1.500000000000028
  0
CIRCLE
  5
86
330
1B
100
AcDbEntity
  8
0
  6
Continuous
 62
     1
370
    18
100
AcDbCircle
 10
117.8158421672
 20
215.2826180509
 30
0.0
 40
1.5
  0
LINE
  5
87
330
1B
100
AcDbEntity
  8
0
  6
Continuous
 62
     1
370
    18
100
AcDbLine
 10
44.8158421672
 20
208.2826180509
 30
0.0
 11
44.8158421672
 21
178.2826180509
 31
0.0
  0
LINE
  5
88
330
1B
100
AcDbEntity
  8
0
  6
Continuous
 62
     1
370
    18
100
AcDbLine
 10
44.8158421672
 20
125.7826180509
 30
0.0
 11
44.8158421672
 21
95.7826180509
 31
0.0
  0
LINE
  5
89
330
1B
100
AcDbEntity
  8
0
  6
Continuous
 62
     1
370
    18
100
AcDbLine
 10
44.8158421672
 20
290.7826180509
 30
0.0
 11
44.8158421672
 21
260.7826180509
 31
0.0
  0
LINE
  5
8A
330
1B
100
AcDbEntity
  8
0
  6
Continuous
 62
     1
370
    18
100
AcDbLine
 10
136.8158421672
 20
212.8826180509
 30
0.0
 11
129.8158421672
 21
212.8826180509
 31
0.0
  0
LINE
  5
8B
330
1B
100
AcDbEntity
  8
0
  6
Continuous
 62
     1
370
    18
100
AcDbLine
 10
136.8158421672
 20
310.3826180509
 30
0.0
 11
129.8158421672
 21
310.3826180509
 31
0.0
  0
LINE
  5
8C
330
1B
100
AcDbEntity
  8
0
  6
Continuous
 62
     1
370
    18
100
AcDbLine
 10
136.8158421672
 20
115.3826180509
 30
0.0
 11
129.8158421672
 21
115.3826180509
 31
0.0
  0
LINE
  5
8D
330
1B
100
AcDbEntity
  8
0
  6
Continuous
 62
     1
370
    18
100
AcDbLine
 10
1.8158421672
 20
125.7826180509
 30
0.0
 11
1.8158421672
 21
95.7826180509
 31
0.0
  0
LINE
  5
8E
330
1B
100
AcDbEntity
  8
0
  6
Continuous
 62
     1
370
    18
100
AcDbLine
 10
41.8158421672
 20
208.2826180509
 30
0.0
 11
44.8158421672
 21
208.2826180509
 31
0.0
  0
LINE
  5
8F
330
1B
100
AcDbEntity
  8
0
  6
Continuous
 62
     1
370
    18
100
AcDbLine
 10
41.8158421672
 20
208.2826180509
 30
0.0
 11
41.8158421672
 21
178.2826180509
 31
0.0
  0
LINE
  5
90
330
1B
100
AcDbEntity
  8
0
  6
Continuous
 62
     1
370
    18
100
AcDbLine
 10
41.8158421672
 20
178.2826180509
 30
0.0
 11
44.8158421672
 21
178.2826180509
 31
0.0
  0
LINE
  5
91
330
1B
100
AcDbEntity
  8
0
  6
Continuous
 62
     1
370
    18
100
AcDbLine
 10
41.8158421672
 20
125.7826180509
 30
0.0
 11
44.8158421672
 21
125.7826180509
 31
0.0
  0
LINE
  5
92
330
1B
100
AcDbEntity
  8
0
  6
Continuous
 62
     1
370
    18
100
AcDbLine
 10
41.8158421672
 20
125.7826180509
 30
0.0
 11
41.8158421672
 21
95.7826180509
 31
0.0
  0
LINE
  5
93
330
1B
100
AcDbEntity
  8
0
  6
Continuous
 62
     1
370
    18
100
AcDbLine
 10
41.8158421672
 20
95.7826180509
 30
0.0
 11
44.8158421672
 21
95.7826180509
 31
0.0
  0
LINE
  5
94
330
1B
100
AcDbEntity
  8
0
  6
Continuous
 62
     1
370
    18
100
AcDbLine
 10
41.8158421672
 20
290.7826180509
 30
0.0
 11
44.8158421672
 21
290.7826180509
 31
0.0
  0
LINE
  5
95
330
1B
100
AcDbEntity
  8
0
  6
Continuous
 62
     1
370
    18
100
AcDbLine
 10
41.8158421672
 20
290.7826180509
 30
0.0
 11
41.8158421672
 21
260.7826180509
 31
0.0
  0
LINE
  5
96
330
1B
100
AcDbEntity
  8
0
  6
Continuous
 62
     1
370
    18
100
AcDbLine
 10
41.8158421672
 20
260.7826180509
 30
0.0
 11
44.8158421672
 21
260.7826180509
 31
0.0
  0
LINE
  5
97
330
1B
100
AcDbEntity
  8
0
  6
Continuous
 62
     1
370
    18
100
AcDbLine
 10
129.8158421672
 20
212.8826180509
 30
0.0
 11
129.8158421672
 21
206.2826180509
 31
0.0
  0
LINE
  5
98
330
1B
100
AcDbEntity
  8
0
  6
Continuous
 62
     1
370
    18
100
AcDbLine
 10
129.8158421672
 20
206.2826180509
 30
0.0
 11
126.8158421672
 21
206.2826180509
 31
0.0
  0
LINE
  5
99
330
1B
100
AcDbEntity
  8
0
  6
Continuous
 62
     1
370
    18
100
AcDbLine
 10
126.8158421672
 20
206.2826180509
 30
0.0
 11
126.8158421672
 21
196.2826180509
 31
0.0
  0
LINE
  5
9A
330
1B
100
AcDbEntity
  8
0
  6
Continuous
 62
     1
370
    18
100
AcDbLine
 10
126.8158421672
 20
196.2826180509
 30
0.0
 11
129.8158421672
 21
196.2826180509
 31
0.0
  0
LINE
  5
9B
330
1B
100
AcDbEntity
  8
0
  6
Continuous
 62
     1
370
    18
100
AcDbLine
 10
129.8158421672
 20
196.2826180509
 30
0.0
 11
129.8158421672
 21
187.8826180509
 31
0.0
  0
LINE
  5
9C
330
1B
100
AcDbEntity
  8
0
  6
Continuous
 62
     1
370
    18
100
AcDbLine
 10
129.8158421672
 20
187.8826180509
 30
0.0
 11
136.8158421672
 21
187.8826180509
 31
0.0
  0
LINE
  5
9D
330
1B
100
AcDbEntity
  8
0
  6
Continuous
 62
     1
370
    18
100
AcDbLine
 10
136.8158421672
 20
187.8826180509
 30
0.0
 11
136.8158421672
 21
212.8826180509
 31
0.0
  0
LINE
  5
9E
330
1B
100
AcDbEntity
  8
0
  6
Continuous
 62
     1
370
    18
100
AcDbLine
 10
129.8158421672
 20
310.3826180509
 30
0.0
 11
129.8158421672
 21
303.7826180509
 31
0.0
  0
LINE
  5
9F
330
1B
100
AcDbEntity
  8
0
  6
Continuous
 62
     1
370
    18
100
AcDbLine
 10
129.8158421672
 20
303.7826180509
 30
0.0
 11
126.8158421672
 21
303.7826180509
 31
0.0
  0
LINE
  5
A0
330
1B
100
AcDbEntity
  8
0
  6
Continuous
 62
     1
370
    18
100
AcDbLine
 10
126.8158421672
 20
303.7826180509
 30
0.0
 11
126.8158421672
 21
293.7826180509
 31
0.0
  0
LINE
  5
A1
330
1B
100
AcDbEntity
  8
0
  6
Continuous
 62
     1
370
    18
100
AcDbLine
 10
126.8158421672
 20
293.7826180509
 30
0.0
 11
129.8158421672
 21
293.7826180509
 31
0.0
  0
LINE
  5
A2
330
1B
100
AcDbEntity
  8
0
  6
Continuous
 62
     1
370
    18
100
AcDbLine
 10
129.8158421672
 20
293.7826180509
 30
0.0
 11
129.8158421672
 21
285.3826180509
 31
0.0
  0
LINE
  5
A3
330
1B
100
AcDbEntity
  8
0
  6
Continuous
 62
     1
370
    18
100
AcDbLine
 10
129.8158421672
 20
285.3826180509
 30
0.0
 11
136.8158421672
 21
285.3826180509
 31
0.0
  0
LINE
  5
A4
330
1B
100
AcDbEntity
  8
0
  6
Continuous
 62
     1
370
    18
100
AcDbLine
 10
136.8158421672
 20
285.3826180509
 30
0.0
 11
136.8158421672
 21
310.3826180509
 31
0.0
  0
LINE
  5
A5
330
1B
100
AcDbEntity
  8
0
  6
Continuous
 62
     1
370
    18
100
AcDbLine
 10
129.8158421672
 20
115.3826180509
 30
0.0
 11
129.8158421672
 21
108.7826180509
 31
0.0
  0
LINE
  5
A6
330
1B
100
AcDbEntity
  8
0
  6
Continuous
 62
     1
370
    18
100
AcDbLine
 10
129.8158421672
 20
108.7826180509
 30
0.0
 11
126.8158421672
 21
108.7826180509
 31
0.0
  0
LINE
  5
A7
330
1B
100
AcDbEntity
  8
0
  6
Continuous
 62
     1
370
    18
100
AcDbLine
 10
126.8158421672
 20
108.7826180509
 30
0.0
 11
126.8158421672
 21
98.7826180509
 31
0.0
  0
LINE
  5
A8
330
1B
100
AcDbEntity
  8
0
  6
Continuous
 62
     1
370
    18
100
AcDbLine
 10
126.8158421672
 20
98.7826180509
 30
0.0
 11
129.8158421672
 21
98.7826180509
 31
0.0
  0
LINE
  5
A9
330
1B
100
AcDbEntity
  8
0
  6
Continuous
 62
     1
370
    18
100
AcDbLine
 10
129.8158421672
 20
98.7826180509
 30
0.0
 11
129.8158421672
 21
90.3826180509
 31
0.0
  0
LINE
  5
AA
330
1B
100
AcDbEntity
  8
0
  6
Continuous
 62
     1
370
    18
100
AcDbLine
 10
129.8158421672
 20
90.3826180509
 30
0.0
 11
136.8158421672
 21
90.3826180509
 31
0.0
  0
LINE
  5
AB
330
1B
100
AcDbEntity
  8
0
  6
Continuous
 62
     1
370
    18
100
AcDbLine
 10
136.8158421672
 20
90.3826180509
 30
0.0
 11
136.8158421672
 21
115.3826180509
 31
0.0
  0
LINE
  5
AC
330
1B
100
AcDbEntity
  8
0
  6
Continuous
 62
     1
370
    18
100
AcDbLine
 10
1.8158421672
 20
125.7826180509
 30
0.0
 11
4.8158421672
 21
125.7826180509
 31
0.0
  0
LINE
  5
AD
330
1B
100
AcDbEntity
  8
0
  6
Continuous
 62
     1
370
    18
100
AcDbLine
 10
4.8158421672
 20
178.2826180509
 30
0.0
 11
4.8158421672
 21
125.7826180509
 31
0.0
  0
LINE
  5
AE
330
1B
100
AcDbEntity
  8
0
  6
Continuous
 62
     1
370
    18
100
AcDbLine
 10
1.8158421672
 20
178.2826180509
 30
0.0
 11
4.8158421672
 21
178.2826180509
 31
0.0
  0
LINE
  5
AF
330
1B
100
AcDbEntity
  8
0
  6
Continuous
 62
     1
370
    18
100
AcDbLine
 10
1.8158421672
 20
208.2826180509
 30
0.0
 11
1.8158421672
 21
178.2826180509
 31
0.0
  0
LINE
  5
B0
330
1B
100
AcDbEntity
  8
0
  6
Continuous
 62
     1
370
    18
100
AcDbLine
 10
1.8158421672
 20
208.2826180509
 30
0.0
 11
4.8158421672
 21
208.2826180509
 31
0.0
  0
LINE
  5
B1
330
1B
100
AcDbEntity
  8
0
  6
Continuous
 62
     1
370
    18
100
AcDbLine
 10
4.8158421672
 20
260.7826180509
 30
0.0
 11
4.8158421672
 21
208.2826180509
 31
0.0
  0
LINE
  5
B2
330
1B
100
AcDbEntity
  8
0
  6
Continuous
 62
     1
370
    18
100
AcDbLine
 10
1.8158421672
 20
260.7826180509
 30
0.0
 11
4.8158421672
 21
260.7826180509
 31
0.0
  0
LINE
  5
B3
330
1B
100
AcDbEntity
  8
0
  6
Continuous
 62
     1
370
    18
100
AcDbLine
 10
1.8158421672
 20
290.7826180509
 30
0.0
 11
1.8158421672
 21
260.7826180509
 31
0.0
  0
LINE
  5
B4
330
1B
100
AcDbEntity
  8
0
  6
Continuous
 62
     1
370
    18
100
AcDbLine
 10
1.8158421672
 20
290.7826180509
 30
0.0
 11
4.8158421672
 21
290.7826180509
 31
0.0
  0
LINE
  5
B5
330
1B
100
AcDbEntity
  8
0
  6
Continuous
 62
     1
370
    18
100
AcDbLine
 10
4.8158421672
 20
383.2826180509
 30
0.0
 11
4.8158421672
 21
290.7826180509
 31
0.0
  0
LINE
  5
B6
330
1B
100
AcDbEntity
  8
0
  6
Continuous
 62
     1
370
    18
100
AcDbLine
 10
4.8158421672
 20
383.2826180509
 30
0.0
 11
139.8158421672
 21
383.2826180509
 31
0.0
  0
LINE
  5
B7
330
1B
100
AcDbEntity
  8
0
  6
Continuous
 62
     1
370
    18
100
AcDbLine
 10
139.8158421672
 20
383.2826180509
 30
0.0
 11
139.8158421672
 21
3.2826180509
 31
0.0
  0
LINE
  5
B8
330
1B
100
AcDbEntity
  8
0
  6
Continuous
 62
     1
370
    18
100
AcDbLine
 10
4.8158421672
 20
3.2826180509
 30
0.0
 11
139.8158421672
 21
3.2826180509
 31
0.0
  0
LINE
  5
B9
330
1B
100
AcDbEntity
  8
0
  6
Continuous
 62
     1
370
    18
100
AcDbLine
 10
4.8158421672
 20
95.7826180509
 30
0.0
 11
4.8158421672
 21
3.2826180509
 31
0.0
  0
LINE
  5
BA
330
1B
100
AcDbEntity
  8
0
  6
Continuous
 62
     1
370
    18
100
AcDbLine
 10
1.8158421672
 20
95.7826180509
 30
0.0
 11
4.8158421672
 21
95.7826180509
 31
0.0
  0
LINE
  5
BB
330
1B
100
AcDbEntity
  8
0
  6
Continuous
 62
     1
370
    18
100
AcDbLine
 10
69.8158421672
 20
200.7826180509
 30
0.0
 11
69.8158421672
 21
185.7826180509
 31
0.0
  0
LINE
  5
BC
330
1B
100
AcDbEntity
  8
0
  6
Continuous
 62
     1
370
    18
100
AcDbLine
 10
124.8158421672
 20
185.7826180509
 30
0.0
 11
69.8158421672
 21
185.7826180509
 31
0.0
  0
LINE
  5
BD
330
1B
100
AcDbEntity
  8
0
  6
Continuous
 62
     1
370
    18
100
AcDbLine
 10
124.8158421672
 20
200.7826180509
 30
0.0
 11
124.8158421672
 21
185.7826180509
 31
0.0
  0
INSERT
  5
C9
330
1B
100
AcDbEntity
  8
0
  6
Continuous
 62
     1
370
    18
100
AcDbBlockReference
  2
SW_CENTERMARKSYMBOL_0
 10
117.8158421672
 20
215.2826180509
 30
0.0
  0
INSERT
  5
D5
330
1B
100
AcDbEntity
  8
0
  6
Continuous
 62
     1
370
    18
100
AcDbBlockReference
  2
SW_CENTERMARKSYMBOL_1
 10
81.8158421672
 20
215.2826180509
 30
0.0
  0
INSERT
  5
E1
330
1B
100
AcDbEntity
  8
0
  6
Continuous
 62
     1
370
    18
100
AcDbBlockReference
  2
SW_CENTERMARKSYMBOL_2
 10
34.8158421672
 20
363.2826180509
 30
0.0
  0
INSERT
  5
ED
330
1B
100
AcDbEntity
  8
0
  6
Continuous
 62
     1
370
    18
100
AcDbBlockReference
  2
SW_CENTERMARKSYMBOL_3
 10
24.8158421672
 20
332.7826180509
 30
0.0
  0
INSERT
  5
F9
330
1B
100
AcDbEntity
  8
0
  6
Continuous
 62
     1
370
    18
100
AcDbBlockReference
  2
SW_CENTERMARKSYMBOL_4
 10
33.5658421672
 20
312.5826180509
 30
0.0
  0
INSERT
  5
105
330
1B
100
AcDbEntity
  8
0
  6
Continuous
 62
     1
370
    18
100
AcDbBlockReference
  2
SW_CENTERMARKSYMBOL_5
 10
16.0658421672
 20
312.5826180509
 30
0.0
  0
INSERT
  5
111
330
1B
100
AcDbEntity
  8
0
  6
Continuous
 62
     1
370
    18
100
AcDbBlockReference
  2
SW_CENTERMARKSYMBOL_6
 10
34.8158421672
 20
23.2826180509
 30
0.0
  0
CIRCLE
  5
112
330
1B
100
AcDbEntity
  8
0
  6
Continuous
 62
     1
370
    18
100
AcDbCircle
 10
345.16743475
 20
363.1122737017
 30
0.0
 40
3.500000000000057
  0
CIRCLE
  5
113
330
1B
100
AcDbEntity
  8
0
  6
Continuous
 62
     1
370
    18
100
AcDbCircle
 10
345.16743475
 20
23.1122737017
 30
0.0
 40
3.500000000000004
  0
LINE
  5
114
330
1B
100
AcDbEntity
  8
0
  6
Continuous
 62
     1
370
    18
100
AcDbLine
 10
335.16743475
 20
125.6122737017
 30
0.0
 11
335.16743475
 21
95.6122737017
 31
0.0
  0
LINE
  5
115
330
1B
100
AcDbEntity
  8
0
  6
Continuous
 62
     1
370
    18
100
AcDbLine
 10
335.16743475
 20
95.6122737017
 30
0.0
 11
338.16743475
 21
95.6122737017
 31
0.0
  0
LINE
  5
116
330
1B
100
AcDbEntity
  8
0
  6
Continuous
 62
     1
370
    18
100
AcDbLine
 10
338.16743475
 20
95.6122737017
 30
0.0
 11
338.16743475
 21
125.6122737017
 31
0.0
  0
LINE
  5
117
330
1B
100
AcDbEntity
  8
0
  6
Continuous
 62
     1
370
    18
100
AcDbLine
 10
338.16743475
 20
125.6122737017
 30
0.0
 11
335.16743475
 21
125.6122737017
 31
0.0
  0
LINE
  5
118
330
1B
100
AcDbEntity
  8
0
  6
Continuous
 62
     1
370
    18
100
AcDbLine
 10
335.16743475
 20
208.1122737017
 30
0.0
 11
335.16743475
 21
178.1122737017
 31
0.0
  0
LINE
  5
119
330
1B
100
AcDbEntity
  8
0
  6
Continuous
 62
     1
370
    18
100
AcDbLine
 10
335.16743475
 20
178.1122737017
 30
0.0
 11
338.16743475
 21
178.1122737017
 31
0.0
  0
LINE
  5
11A
330
1B
100
AcDbEntity
  8
0
  6
Continuous
 62
     1
370
    18
100
AcDbLine
 10
338.16743475
 20
178.1122737017
 30
0.0
 11
338.16743475
 21
208.1122737017
 31
0.0
  0
LINE
  5
11B
330
1B
100
AcDbEntity
  8
0
  6
Continuous
 62
     1
370
    18
100
AcDbLine
 10
338.16743475
 20
208.1122737017
 30
0.0
 11
335.16743475
 21
208.1122737017
 31
0.0
  0
LINE
  5
11C
330
1B
100
AcDbEntity
  8
0
  6
Continuous
 62
     1
370
    18
100
AcDbLine
 10
375.16743475
 20
290.6122737017
 30
0.0
 11
375.16743475
 21
383.1122737017
 31
0.0
  0
LINE
  5
11D
330
1B
100
AcDbEntity
  8
0
  6
Continuous
 62
     1
370
    18
100
AcDbLine
 10
378.16743475
 20
290.6122737017
 30
0.0
 11
375.16743475
 21
290.6122737017
 31
0.0
  0
LINE
  5
11E
330
1B
100
AcDbEntity
  8
0
  6
Continuous
 62
     1
370
    18
100
AcDbLine
 10
378.16743475
 20
260.6122737017
 30
0.0
 11
378.16743475
 21
290.6122737017
 31
0.0
  0
LINE
  5
11F
330
1B
100
AcDbEntity
  8
0
  6
Continuous
 62
     1
370
    18
100
AcDbLine
 10
375.16743475
 20
260.6122737017
 30
0.0
 11
378.16743475
 21
260.6122737017
 31
0.0
  0
LINE
  5
120
330
1B
100
AcDbEntity
  8
0
  6
Continuous
 62
     1
370
    18
100
AcDbLine
 10
375.16743475
 20
208.1122737017
 30
0.0
 11
375.16743475
 21
260.6122737017
 31
0.0
  0
LINE
  5
121
330
1B
100
AcDbEntity
  8
0
  6
Continuous
 62
     1
370
    18
100
AcDbLine
 10
378.16743475
 20
208.1122737017
 30
0.0
 11
375.16743475
 21
208.1122737017
 31
0.0
  0
LINE
  5
122
330
1B
100
AcDbEntity
  8
0
  6
Continuous
 62
     1
370
    18
100
AcDbLine
 10
378.16743475
 20
178.1122737017
 30
0.0
 11
378.16743475
 21
208.1122737017
 31
0.0
  0
LINE
  5
123
330
1B
100
AcDbEntity
  8
0
  6
Continuous
 62
     1
370
    18
100
AcDbLine
 10
375.16743475
 20
178.1122737017
 30
0.0
 11
378.16743475
 21
178.1122737017
 31
0.0
  0
LINE
  5
124
330
1B
100
AcDbEntity
  8
0
  6
Continuous
 62
     1
370
    18
100
AcDbLine
 10
375.16743475
 20
125.6122737017
 30
0.0
 11
375.16743475
 21
178.1122737017
 31
0.0
  0
LINE
  5
125
330
1B
100
AcDbEntity
  8
0
  6
Continuous
 62
     1
370
    18
100
AcDbLine
 10
378.16743475
 20
125.6122737017
 30
0.0
 11
375.16743475
 21
125.6122737017
 31
0.0
  0
LINE
  5
126
330
1B
100
AcDbEntity
  8
0
  6
Continuous
 62
     1
370
    18
100
AcDbLine
 10
378.16743475
 20
95.6122737017
 30
0.0
 11
378.16743475
 21
125.6122737017
 31
0.0
  0
LINE
  5
127
330
1B
100
AcDbEntity
  8
0
  6
Continuous
 62
     1
370
    18
100
AcDbLine
 10
375.16743475
 20
95.6122737017
 30
0.0
 11
378.16743475
 21
95.6122737017
 31
0.0
  0
LINE
  5
128
330
1B
100
AcDbEntity
  8
0
  6
Continuous
 62
     1
370
    18
100
AcDbLine
 10
375.16743475
 20
3.1122737017
 30
0.0
 11
375.16743475
 21
95.6122737017
 31
0.0
  0
LINE
  5
129
330
1B
100
AcDbEntity
  8
0
  6
Continuous
 62
     1
370
    18
100
AcDbLine
 10
240.16743475
 20
3.1122737017
 30
0.0
 11
375.16743475
 21
3.1122737017
 31
0.0
  0
LINE
  5
12A
330
1B
100
AcDbEntity
  8
0
  6
Continuous
 62
     1
370
    18
100
AcDbLine
 10
240.16743475
 20
383.1122737017
 30
0.0
 11
240.16743475
 21
3.1122737017
 31
0.0
  0
LINE
  5
12B
330
1B
100
AcDbEntity
  8
0
  6
Continuous
 62
     1
370
    18
100
AcDbLine
 10
375.16743475
 20
383.1122737017
 30
0.0
 11
240.16743475
 21
383.1122737017
 31
0.0
  0
LINE
  5
12C
330
1B
100
AcDbEntity
  8
0
  6
Continuous
 62
     1
370
    18
100
AcDbLine
 10
335.16743475
 20
290.6122737017
 30
0.0
 11
335.16743475
 21
260.6122737017
 31
0.0
  0
LINE
  5
12D
330
1B
100
AcDbEntity
  8
0
  6
Continuous
 62
     1
370
    18
100
AcDbLine
 10
335.16743475
 20
260.6122737017
 30
0.0
 11
338.16743475
 21
260.6122737017
 31
0.0
  0
LINE
  5
12E
330
1B
100
AcDbEntity
  8
0
  6
Continuous
 62
     1
370
    18
100
AcDbLine
 10
338.16743475
 20
260.6122737017
 30
0.0
 11
338.16743475
 21
290.6122737017
 31
0.0
  0
LINE
  5
12F
330
1B
100
AcDbEntity
  8
0
  6
Continuous
 62
     1
370
    18
100
AcDbLine
 10
338.16743475
 20
290.6122737017
 30
0.0
 11
335.16743475
 21
290.6122737017
 31
0.0
  0
INSERT
  5
13B
330
1B
100
AcDbEntity
  8
0
  6
Continuous
 62
     1
370
    18
100
AcDbBlockReference
  2
SW_CENTERMARKSYMBOL_7
 10
345.16743475
 20
23.1122737017
 30
0.0
  0
INSERT
  5
147
330
1B
100
AcDbEntity
  8
0
  6
Continuous
 62
     1
370
    18
100
AcDbBlockReference
  2
SW_CENTERMARKSYMBOL_8
 10
345.16743475
 20
363.1122737017
 30
0.0
  0
ENDBLK
  5
1D
330
1B
100
AcDbEntity
  8
0
100
AcDbBlockEnd
  0
BLOCK
  5
BF
330
BE
100
AcDbEntity
  8
0
100
AcDbBlockBegin
  2
SW_CENTERMARKSYMBOL_0
 70
     0
 10
0.0
 20
0.0
 30
0.0
  3
SW_CENTERMARKSYMBOL_0
  1

  0
LINE
  5
C1
330
BE
100
AcDbEntity
  8
0
  6
Continuous
 62
     0
370
    18
100
AcDbLine
 10
0.0
 20
0.0
 30
0.0
 11
2.5
 21
0.0
 31
0.0
  0
LINE
  5
C2
330
BE
100
AcDbEntity
  8
0
  6
Continuous
 62
     0
370
    18
100
AcDbLine
 10
0.0
 20
0.0
 30
0.0
 11
0.0
 21
2.5
 31
0.0
  0
LINE
  5
C3
330
BE
100
AcDbEntity
  8
0
  6
Continuous
 62
     0
370
    18
100
AcDbLine
 10
0.0
 20
0.0
 30
0.0
 11
-2.5
 21
0.0
 31
0.0
  0
LINE
  5
C4
330
BE
100
AcDbEntity
  8
0
  6
Continuous
 62
     0
370
    18
100
AcDbLine
 10
0.0
 20
0.0
 30
0.0
 11
0.0
 21
-2.5
 31
0.0
  0
LINE
  5
C5
330
BE
100
AcDbEntity
  8
0
  6
Continuous
 62
     0
370
    18
100
AcDbLine
 10
2.5
 20
0.0
 30
0.0
 11
4.0
 21
0.0
 31
0.0
  0
LINE
  5
C6
330
BE
100
AcDbEntity
  8
0
  6
Continuous
 62
     0
370
    18
100
AcDbLine
 10
0.0
 20
2.5
 30
0.0
 11
0.0
 21
4.0
 31
0.0
  0
LINE
  5
C7
330
BE
100
AcDbEntity
  8
0
  6
Continuous
 62
     0
370
    18
100
AcDbLine
 10
-2.5
 20
0.0
 30
0.0
 11
-4.0
 21
0.0
 31
0.0
  0
LINE
  5
C8
330
BE
100
AcDbEntity
  8
0
  6
Continuous
 62
     0
370
    18
100
AcDbLine
 10
0.0
 20
-2.5
 30
0.0
 11
0.0
 21
-4.0
 31
0.0
  0
ENDBLK
  5
C0
330
BE
100
AcDbEntity
  8
0
100
AcDbBlockEnd
  0
BLOCK
  5
CB
330
CA
100
AcDbEntity
  8
0
100
AcDbBlockBegin
  2
SW_CENTERMARKSYMBOL_1
 70
     0
 10
0.0
 20
0.0
 30
0.0
  3
SW_CENTERMARKSYMBOL_1
  1

  0
LINE
  5
CD
330
CA
100
AcDbEntity
  8
0
  6
Continuous
 62
     0
370
    18
100
AcDbLine
 10
0.0
 20
0.0
 30
0.0
 11
2.5
 21
0.0
 31
0.0
  0
LINE
  5
CE
330
CA
100
AcDbEntity
  8
0
  6
Continuous
 62
     0
370
    18
100
AcDbLine
 10
0.0
 20
0.0
 30
0.0
 11
0.0
 21
2.5
 31
0.0
  0
LINE
  5
CF
330
CA
100
AcDbEntity
  8
0
  6
Continuous
 62
     0
370
    18
100
AcDbLine
 10
0.0
 20
0.0
 30
0.0
 11
-2.5
 21
0.0
 31
0.0
  0
LINE
  5
D0
330
CA
100
AcDbEntity
  8
0
  6
Continuous
 62
     0
370
    18
100
AcDbLine
 10
0.0
 20
0.0
 30
0.0
 11
0.0
 21
-2.5
 31
0.0
  0
LINE
  5
D1
330
CA
100
AcDbEntity
  8
0
  6
Continuous
 62
     0
370
    18
100
AcDbLine
 10
2.5
 20
0.0
 30
0.0
 11
4.0
 21
0.0
 31
0.0
  0
LINE
  5
D2
330
CA
100
AcDbEntity
  8
0
  6
Continuous
 62
     0
370
    18
100
AcDbLine
 10
0.0
 20
2.5
 30
0.0
 11
0.0
 21
4.0
 31
0.0
  0
LINE
  5
D3
330
CA
100
AcDbEntity
  8
0
  6
Continuous
 62
     0
370
    18
100
AcDbLine
 10
-2.5
 20
0.0
 30
0.0
 11
-4.0
 21
0.0
 31
0.0
  0
LINE
  5
D4
330
CA
100
AcDbEntity
  8
0
  6
Continuous
 62
     0
370
    18
100
AcDbLine
 10
0.0
 20
-2.5
 30
0.0
 11
0.0
 21
-4.0
 31
0.0
  0
ENDBLK
  5
CC
330
CA
100
AcDbEntity
  8
0
100
AcDbBlockEnd
  0
BLOCK
  5
D7
330
D6
100
AcDbEntity
  8
0
100
AcDbBlockBegin
  2
SW_CENTERMARKSYMBOL_2
 70
     0
 10
0.0
 20
0.0
 30
0.0
  3
SW_CENTERMARKSYMBOL_2
  1

  0
LINE
  5
D9
330
D6
100
AcDbEntity
  8
0
  6
Continuous
 62
     0
370
    18
100
AcDbLine
 10
0.0
 20
0.0
 30
0.0
 11
2.5
 21
0.0
 31
0.0
  0
LINE
  5
DA
330
D6
100
AcDbEntity
  8
0
  6
Continuous
 62
     0
370
    18
100
AcDbLine
 10
0.0
 20
0.0
 30
0.0
 11
0.0
 21
2.5
 31
0.0
  0
LINE
  5
DB
330
D6
100
AcDbEntity
  8
0
  6
Continuous
 62
     0
370
    18
100
AcDbLine
 10
0.0
 20
0.0
 30
0.0
 11
-2.5
 21
0.0
 31
0.0
  0
LINE
  5
DC
330
D6
100
AcDbEntity
  8
0
  6
Continuous
 62
     0
370
    18
100
AcDbLine
 10
0.0
 20
0.0
 30
0.0
 11
0.0
 21
-2.5
 31
0.0
  0
LINE
  5
DD
330
D6
100
AcDbEntity
  8
0
  6
Continuous
 62
     0
370
    18
100
AcDbLine
 10
5.0
 20
0.0
 30
0.0
 11
6.0
 21
0.0
 31
0.0
  0
LINE
  5
DE
330
D6
100
AcDbEntity
  8
0
  6
Continuous
 62
     0
370
    18
100
AcDbLine
 10
0.0
 20
5.0
 30
0.0
 11
0.0
 21
6.0
 31
0.0
  0
LINE
  5
DF
330
D6
100
AcDbEntity
  8
0
  6
Continuous
 62
     0
370
    18
100
AcDbLine
 10
-5.0
 20
0.0
 30
0.0
 11
-6.0
 21
0.0
 31
0.0
  0
LINE
  5
E0
330
D6
100
AcDbEntity
  8
0
  6
Continuous
 62
     0
370
    18
100
AcDbLine
 10
0.0
 20
-5.0
 30
0.0
 11
0.0
 21
-6.0
 31
0.0
  0
ENDBLK
  5
D8
330
D6
100
AcDbEntity
  8
0
100
AcDbBlockEnd
  0
BLOCK
  5
E3
330
E2
100
AcDbEntity
  8
0
100
AcDbBlockBegin
  2
SW_CENTERMARKSYMBOL_3
 70
     0
 10
0.0
 20
0.0
 30
0.0
  3
SW_CENTERMARKSYMBOL_3
  1

  0
LINE
  5
E5
330
E2
100
AcDbEntity
  8
0
  6
Continuous
 62
     0
370
    18
100
AcDbLine
 10
0.0
 20
0.0
 30
0.0
 11
2.5
 21
0.0
 31
0.0
  0
LINE
  5
E6
330
E2
100
AcDbEntity
  8
0
  6
Continuous
 62
     0
370
    18
100
AcDbLine
 10
0.0
 20
0.0
 30
0.0
 11
0.0
 21
2.5
 31
0.0
  0
LINE
  5
E7
330
E2
100
AcDbEntity
  8
0
  6
Continuous
 62
     0
370
    18
100
AcDbLine
 10
0.0
 20
0.0
 30
0.0
 11
-2.5
 21
0.0
 31
0.0
  0
LINE
  5
E8
330
E2
100
AcDbEntity
  8
0
  6
Continuous
 62
     0
370
    18
100
AcDbLine
 10
0.0
 20
0.0
 30
0.0
 11
0.0
 21
-2.5
 31
0.0
  0
LINE
  5
E9
330
E2
100
AcDbEntity
  8
0
  6
Continuous
 62
     0
370
    18
100
AcDbLine
 10
5.0
 20
0.0
 30
0.0
 11
6.5
 21
0.0
 31
0.0
  0
LINE
  5
EA
330
E2
100
AcDbEntity
  8
0
  6
Continuous
 62
     0
370
    18
100
AcDbLine
 10
0.0
 20
5.0
 30
0.0
 11
0.0
 21
6.5
 31
0.0
  0
LINE
  5
EB
330
E2
100
AcDbEntity
  8
0
  6
Continuous
 62
     0
370
    18
100
AcDbLine
 10
-5.0
 20
0.0
 30
0.0
 11
-6.5
 21
0.0
 31
0.0
  0
LINE
  5
EC
330
E2
100
AcDbEntity
  8
0
  6
Continuous
 62
     0
370
    18
100
AcDbLine
 10
0.0
 20
-5.0
 30
0.0
 11
0.0
 21
-6.5
 31
0.0
  0
ENDBLK
  5
E4
330
E2
100
AcDbEntity
  8
0
100
AcDbBlockEnd
  0
BLOCK
  5
EF
330
EE
100
AcDbEntity
  8
0
100
AcDbBlockBegin
  2
SW_CENTERMARKSYMBOL_4
 70
     0
 10
0.0
 20
0.0
 30
0.0
  3
SW_CENTERMARKSYMBOL_4
  1

  0
LINE
  5
F1
330
EE
100
AcDbEntity
  8
0
  6
Continuous
 62
     0
370
    18
100
AcDbLine
 10
0.0
 20
0.0
 30
0.0
 11
2.5
 21
0.0
 31
0.0
  0
LINE
  5
F2
330
EE
100
AcDbEntity
  8
0
  6
Continuous
 62
     0
370
    18
100
AcDbLine
 10
0.0
 20
0.0
 30
0.0
 11
0.0
 21
2.5
 31
0.0
  0
LINE
  5
F3
330
EE
100
AcDbEntity
  8
0
  6
Continuous
 62
     0
370
    18
100
AcDbLine
 10
0.0
 20
0.0
 30
0.0
 11
-2.5
 21
0.0
 31
0.0
  0
LINE
  5
F4
330
EE
100
AcDbEntity
  8
0
  6
Continuous
 62
     0
370
    18
100
AcDbLine
 10
0.0
 20
0.0
 30
0.0
 11
0.0
 21
-2.5
 31
0.0
  0
LINE
  5
F5
330
EE
100
AcDbEntity
  8
0
  6
Continuous
 62
     0
370
    18
100
AcDbLine
 10
2.5
 20
0.0
 30
0.0
 11
4.5
 21
0.0
 31
0.0
  0
LINE
  5
F6
330
EE
100
AcDbEntity
  8
0
  6
Continuous
 62
     0
370
    18
100
AcDbLine
 10
0.0
 20
2.5
 30
0.0
 11
0.0
 21
4.5
 31
0.0
  0
LINE
  5
F7
330
EE
100
AcDbEntity
  8
0
  6
Continuous
 62
     0
370
    18
100
AcDbLine
 10
-2.5
 20
0.0
 30
0.0
 11
-4.5
 21
0.0
 31
0.0
  0
LINE
  5
F8
330
EE
100
AcDbEntity
  8
0
  6
Continuous
 62
     0
370
    18
100
AcDbLine
 10
0.0
 20
-2.5
 30
0.0
 11
0.0
 21
-4.5
 31
0.0
  0
ENDBLK
  5
F0
330
EE
100
AcDbEntity
  8
0
100
AcDbBlockEnd
  0
BLOCK
  5
FB
330
FA
100
AcDbEntity
  8
0
100
AcDbBlockBegin
  2
SW_CENTERMARKSYMBOL_5
 70
     0
 10
0.0
 20
0.0
 30
0.0
  3
SW_CENTERMARKSYMBOL_5
  1

  0
LINE
  5
FD
330
FA
100
AcDbEntity
  8
0
  6
Continuous
 62
     0
370
    18
100
AcDbLine
 10
0.0
 20
0.0
 30
0.0
 11
2.5
 21
0.0
 31
0.0
  0
LINE
  5
FE
330
FA
100
AcDbEntity
  8
0
  6
Continuous
 62
     0
370
    18
100
AcDbLine
 10
0.0
 20
0.0
 30
0.0
 11
0.0
 21
2.5
 31
0.0
  0
LINE
  5
FF
330
FA
100
AcDbEntity
  8
0
  6
Continuous
 62
     0
370
    18
100
AcDbLine
 10
0.0
 20
0.0
 30
0.0
 11
-2.5
 21
0.0
 31
0.0
  0
LINE
  5
100
330
FA
100
AcDbEntity
  8
0
  6
Continuous
 62
     0
370
    18
100
AcDbLine
 10
0.0
 20
0.0
 30
0.0
 11
0.0
 21
-2.5
 31
0.0
  0
LINE
  5
101
330
FA
100
AcDbEntity
  8
0
  6
Continuous
 62
     0
370
    18
100
AcDbLine
 10
2.5
 20
0.0
 30
0.0
 11
4.5
 21
0.0
 31
0.0
  0
LINE
  5
102
330
FA
100
AcDbEntity
  8
0
  6
Continuous
 62
     0
370
    18
100
AcDbLine
 10
0.0
 20
2.5
 30
0.0
 11
0.0
 21
4.5
 31
0.0
  0
LINE
  5
103
330
FA
100
AcDbEntity
  8
0
  6
Continuous
 62
     0
370
    18
100
AcDbLine
 10
-2.5
 20
0.0
 30
0.0
 11
-4.5
 21
0.0
 31
0.0
  0
LINE
  5
104
330
FA
100
AcDbEntity
  8
0
  6
Continuous
 62
     0
370
    18
100
AcDbLine
 10
0.0
 20
-2.5
 30
0.0
 11
0.0
 21
-4.5
 31
0.0
  0
ENDBLK
  5
FC
330
FA
100
AcDbEntity
  8
0
100
AcDbBlockEnd
  0
BLOCK
  5
107
330
106
100
AcDbEntity
  8
0
100
AcDbBlockBegin
  2
SW_CENTERMARKSYMBOL_6
 70
     0
 10
0.0
 20
0.0
 30
0.0
  3
SW_CENTERMARKSYMBOL_6
  1

  0
LINE
  5
109
330
106
100
AcDbEntity
  8
0
  6
Continuous
 62
     0
370
    18
100
AcDbLine
 10
0.0
 20
0.0
 30
0.0
 11
2.5
 21
0.0
 31
0.0
  0
LINE
  5
10A
330
106
100
AcDbEntity
  8
0
  6
Continuous
 62
     0
370
    18
100
AcDbLine
 10
0.0
 20
0.0
 30
0.0
 11
0.0
 21
2.5
 31
0.0
  0
LINE
  5
10B
330
106
100
AcDbEntity
  8
0
  6
Continuous
 62
     0
370
    18
100
AcDbLine
 10
0.0
 20
0.0
 30
0.0
 11
-2.5
 21
0.0
 31
0.0
  0
LINE
  5
10C
330
106
100
AcDbEntity
  8
0
  6
Continuous
 62
     0
370
    18
100
AcDbLine
 10
0.0
 20
0.0
 30
0.0
 11
0.0
 21
-2.5
 31
0.0
  0
LINE
  5
10D
330
106
100
AcDbEntity
  8
0
  6
Continuous
 62
     0
370
    18
100
AcDbLine
 10
5.0
 20
0.0
 30
0.0
 11
6.0
 21
0.0
 31
0.0
  0
LINE
  5
10E
330
106
100
AcDbEntity
  8
0
  6
Continuous
 62
     0
370
    18
100
AcDbLine
 10
0.0
 20
5.0
 30
0.0
 11
0.0
 21
6.0
 31
0.0
  0
LINE
  5
10F
330
106
100
AcDbEntity
  8
0
  6
Continuous
 62
     0
370
    18
100
AcDbLine
 10
-5.0
 20
0.0
 30
0.0
 11
-6.0
 21
0.0
 31
0.0
  0
LINE
  5
110
330
106
100
AcDbEntity
  8
0
  6
Continuous
 62
     0
370
    18
100
AcDbLine
 10
0.0
 20
-5.0
 30
0.0
 11
0.0
 21
-6.0
 31
0.0
  0
ENDBLK
  5
108
330
106
100
AcDbEntity
  8
0
100
AcDbBlockEnd
  0
BLOCK
  5
131
330
130
100
AcDbEntity
  8
0
100
AcDbBlockBegin
  2
SW_CENTERMARKSYMBOL_7
 70
     0
 10
0.0
 20
0.0
 30
0.0
  3
SW_CENTERMARKSYMBOL_7
  1

  0
LINE
  5
133
330
130
100
AcDbEntity
  8
0
  6
Continuous
 62
     0
370
    18
100
AcDbLine
 10
0.0
 20
0.0
 30
0.0
 11
-2.5
 21
0.0
 31
0.0
  0
LINE
  5
134
330
130
100
AcDbEntity
  8
0
  6
Continuous
 62
     0
370
    18
100
AcDbLine
 10
0.0
 20
0.0
 30
0.0
 11
0.0
 21
-2.5
 31
0.0
  0
LINE
  5
135
330
130
100
AcDbEntity
  8
0
  6
Continuous
 62
     0
370
    18
100
AcDbLine
 10
0.0
 20
0.0
 30
0.0
 11
2.5
 21
0.0
 31
0.0
  0
LINE
  5
136
330
130
100
AcDbEntity
  8
0
  6
Continuous
 62
     0
370
    18
100
AcDbLine
 10
0.0
 20
0.0
 30
0.0
 11
0.0
 21
2.5
 31
0.0
  0
LINE
  5
137
330
130
100
AcDbEntity
  8
0
  6
Continuous
 62
     0
370
    18
100
AcDbLine
 10
-5.0
 20
0.0
 30
0.0
 11
-6.0
 21
0.0
 31
0.0
  0
LINE
  5
138
330
130
100
AcDbEntity
  8
0
  6
Continuous
 62
     0
370
    18
100
AcDbLine
 10
0.0
 20
-5.0
 30
0.0
 11
0.0
 21
-6.0
 31
0.0
  0
LINE
  5
139
330
130
100
AcDbEntity
  8
0
  6
Continuous
 62
     0
370
    18
100
AcDbLine
 10
5.0
 20
0.0
 30
0.0
 11
6.0
 21
0.0
 31
0.0
  0
LINE
  5
13A
330
130
100
AcDbEntity
  8
0
  6
Continuous
 62
     0
370
    18
100
AcDbLine
 10
0.0
 20
5.0
 30
0.0
 11
0.0
 21
6.0
 31
0.0
  0
ENDBLK
  5
132
330
130
100
AcDbEntity
  8
0
100
AcDbBlockEnd
  0
BLOCK
  5
13D
330
13C
100
AcDbEntity
  8
0
100
AcDbBlockBegin
  2
SW_CENTERMARKSYMBOL_8
 70
     0
 10
0.0
 20
0.0
 30
0.0
  3
SW_CENTERMARKSYMBOL_8
  1

  0
LINE
  5
13F
330
13C
100
AcDbEntity
  8
0
  6
Continuous
 62
     0
370
    18
100
AcDbLine
 10
0.0
 20
0.0
 30
0.0
 11
-2.5
 21
0.0
 31
0.0
  0
LINE
  5
140
330
13C
100
AcDbEntity
  8
0
  6
Continuous
 62
     0
370
    18
100
AcDbLine
 10
0.0
 20
0.0
 30
0.0
 11
0.0
 21
-2.5
 31
0.0
  0
LINE
  5
141
330
13C
100
AcDbEntity
  8
0
  6
Continuous
 62
     0
370
    18
100
AcDbLine
 10
0.0
 20
0.0
 30
0.0
 11
2.5
 21
0.0
 31
0.0
  0
LINE
  5
142
330
13C
100
AcDbEntity
  8
0
  6
Continuous
 62
     0
370
    18
100
AcDbLine
 10
0.0
 20
0.0
 30
0.0
 11
0.0
 21
2.5
 31
0.0
  0
LINE
  5
143
330
13C
100
AcDbEntity
  8
0
  6
Continuous
 62
     0
370
    18
100
AcDbLine
 10
-5.0
 20
0.0
 30
0.0
 11
-6.0
 21
0.0
 31
0.0
  0
LINE
  5
144
330
13C
100
AcDbEntity
  8
0
  6
Continuous
 62
     0
370
    18
100
AcDbLine
 10
0.0
 20
-5.0
 30
0.0
 11
0.0
 21
-6.0
 31
0.0
  0
LINE
  5
145
330
13C
100
AcDbEntity
  8
0
  6
Continuous
 62
     0
370
    18
100
AcDbLine
 10
5.0
 20
0.0
 30
0.0
 11
6.0
 21
0.0
 31
0.0
  0
LINE
  5
146
330
13C
100
AcDbEntity
  8
0
  6
Continuous
 62
     0
370
    18
100
AcDbLine
 10
0.0
 20
5.0
 30
0.0
 11
0.0
 21
6.0
 31
0.0
  0
ENDBLK
  5
13E
330
13C
100
AcDbEntity
  8
0
100
AcDbBlockEnd
  0
BLOCK
  5
154
330
153
100
AcDbEntity
  8
0
100
AcDbBlockBegin
  2
SW_CENTERMARKSYMBOL_9
 70
     0
 10
0.0
 20
0.0
 30
0.0
  3
SW_CENTERMARKSYMBOL_9
  1

  0
LINE
  5
156
330
153
100
AcDbEntity
  8
0
  6
Continuous
 62
     0
370
    18
100
AcDbLine
 10
0.0
 20
0.0
 30
0.0
 11
0.0
 21
2.5
 31
0.0
  0
LINE
  5
157
330
153
100
AcDbEntity
  8
0
  6
Continuous
 62
     0
370
    18
100
AcDbLine
 10
0.0
 20
0.0
 30
0.0
 11
-2.5
 21
0.0
 31
0.0
  0
LINE
  5
158
330
153
100
AcDbEntity
  8
0
  6
Continuous
 62
     0
370
    18
100
AcDbLine
 10
0.0
 20
0.0
 30
0.0
 11
0.0
 21
-2.5
 31
0.0
  0
LINE
  5
159
330
153
100
AcDbEntity
  8
0
  6
Continuous
 62
     0
370
    18
100
AcDbLine
 10
0.0
 20
0.0
 30
0.0
 11
2.5
 21
0.0
 31
0.0
  0
LINE
  5
15A
330
153
100
AcDbEntity
  8
0
  6
Continuous
 62
     0
370
    18
100
AcDbLine
 10
0.0
 20
5.0
 30
0.0
 11
0.0
 21
6.5
 31
0.0
  0
LINE
  5
15B
330
153
100
AcDbEntity
  8
0
  6
Continuous
 62
     0
370
    18
100
AcDbLine
 10
-5.0
 20
0.0
 30
0.0
 11
-6.5
 21
0.0
 31
0.0
  0
LINE
  5
15C
330
153
100
AcDbEntity
  8
0
  6
Continuous
 62
     0
370
    18
100
AcDbLine
 10
0.0
 20
-5.0
 30
0.0
 11
0.0
 21
-6.5
 31
0.0
  0
LINE
  5
15D
330
153
100
AcDbEntity
  8
0
  6
Continuous
 62
     0
370
    18
100
AcDbLine
 10
5.0
 20
0.0
 30
0.0
 11
6.5
 21
0.0
 31
0.0
  0
ENDBLK
  5
155
330
153
100
AcDbEntity
  8
0
100
AcDbBlockEnd
  0
BLOCK
  5
16A
330
169
100
AcDbEntity
  8
0
100
AcDbBlockBegin
  2
SW_CENTERMARKSYMBOL_10
 70
     0
 10
0.0
 20
0.0
 30
0.0
  3
SW_CENTERMARKSYMBOL_10
  1

  0
LINE
  5
16C
330
169
100
AcDbEntity
  8
0
  6
Continuous
 62
     0
370
    18
100
AcDbLine
 10
0.0
 20
0.0
 30
0.0
 11
0.0
 21
2.5
 31
0.0
  0
LINE
  5
16D
330
169
100
AcDbEntity
  8
0
  6
Continuous
 62
     0
370
    18
100
AcDbLine
 10
0.0
 20
0.0
 30
0.0
 11
-2.5
 21
0.0
 31
0.0
  0
LINE
  5
16E
330
169
100
AcDbEntity
  8
0
  6
Continuous
 62
     0
370
    18
100
AcDbLine
 10
0.0
 20
0.0
 30
0.0
 11
0.0
 21
-2.5
 31
0.0
  0
LINE
  5
16F
330
169
100
AcDbEntity
  8
0
  6
Continuous
 62
     0
370
    18
100
AcDbLine
 10
0.0
 20
0.0
 30
0.0
 11
2.5
 21
0.0
 31
0.0
  0
LINE
  5
170
330
169
100
AcDbEntity
  8
0
  6
Continuous
 62
     0
370
    18
100
AcDbLine
 10
0.0
 20
2.5
 30
0.0
 11
0.0
 21
3.675
 31
0.0
  0
LINE
  5
171
330
169
100
AcDbEntity
  8
0
  6
Continuous
 62
     0
370
    18
100
AcDbLine
 10
-2.5
 20
0.0
 30
0.0
 11
-3.675
 21
0.0
 31
0.0
  0
LINE
  5
172
330
169
100
AcDbEntity
  8
0
  6
Continuous
 62
     0
370
    18
100
AcDbLine
 10
0.0
 20
-2.5
 30
0.0
 11
0.0
 21
-3.675
 31
0.0
  0
LINE
  5
173
330
169
100
AcDbEntity
  8
0
  6
Continuous
 62
     0
370
    18
100
AcDbLine
 10
2.5
 20
0.0
 30
0.0
 11
3.675
 21
0.0
 31
0.0
  0
ENDBLK
  5
16B
330
169
100
AcDbEntity
  8
0
100
AcDbBlockEnd
  0
BLOCK
  5
176
330
175
100
AcDbEntity
  8
0
100
AcDbBlockBegin
  2
SW_CENTERMARKSYMBOL_11
 70
     0
 10
0.0
 20
0.0
 30
0.0
  3
SW_CENTERMARKSYMBOL_11
  1

  0
LINE
  5
178
330
175
100
AcDbEntity
  8
0
  6
Continuous
 62
     0
370
    18
100
AcDbLine
 10
0.0
 20
0.0
 30
0.0
 11
0.0
 21
2.5
 31
0.0
  0
LINE
  5
179
330
175
100
AcDbEntity
  8
0
  6
Continuous
 62
     0
370
    18
100
AcDbLine
 10
0.0
 20
0.0
 30
0.0
 11
-2.5
 21
0.0
 31
0.0
  0
LINE
  5
17A
330
175
100
AcDbEntity
  8
0
  6
Continuous
 62
     0
370
    18
100
AcDbLine
 10
0.0
 20
0.0
 30
0.0
 11
0.0
 21
-2.5
 31
0.0
  0
LINE
  5
17B
330
175
100
AcDbEntity
  8
0
  6
Continuous
 62
     0
370
    18
100
AcDbLine
 10
0.0
 20
0.0
 30
0.0
 11
2.5
 21
0.0
 31
0.0
  0
LINE
  5
17C
330
175
100
AcDbEntity
  8
0
  6
Continuous
 62
     0
370
    18
100
AcDbLine
 10
0.0
 20
2.5
 30
0.0
 11
0.0
 21
3.675
 31
0.0
  0
LINE
  5
17D
330
175
100
AcDbEntity
  8
0
  6
Continuous
 62
     0
370
    18
100
AcDbLine
 10
-2.5
 20
0.0
 30
0.0
 11
-3.675
 21
0.0
 31
0.0
  0
LINE
  5
17E
330
175
100
AcDbEntity
  8
0
  6
Continuous
 62
     0
370
    18
100
AcDbLine
 10
0.0
 20
-2.5
 30
0.0
 11
0.0
 21
-3.675
 31
0.0
  0
LINE
  5
17F
330
175
100
AcDbEntity
  8
0
  6
Continuous
 62
     0
370
    18
100
AcDbLine
 10
2.5
 20
0.0
 30
0.0
 11
3.675
 21
0.0
 31
0.0
  0
ENDBLK
  5
177
330
175
100
AcDbEntity
  8
0
100
AcDbBlockEnd
  0
BLOCK
  5
18C
330
18B
100
AcDbEntity
  8
0
100
AcDbBlockBegin
  2
SW_CENTERMARKSYMBOL_12
 70
     0
 10
0.0
 20
0.0
 30
0.0
  3
SW_CENTERMARKSYMBOL_12
  1

  0
LINE
  5
18E
330
18B
100
AcDbEntity
  8
0
  6
Continuous
 62
     0
370
    18
100
AcDbLine
 10
0.0
 20
0.0
 30
0.0
 11
0.0
 21
2.5
 31
0.0
  0
LINE
  5
18F
330
18B
100
AcDbEntity
  8
0
  6
Continuous
 62
     0
370
    18
100
AcDbLine
 10
0.0
 20
0.0
 30
0.0
 11
-2.5
 21
0.0
 31
0.0
  0
LINE
  5
190
330
18B
100
AcDbEntity
  8
0
  6
Continuous
 62
     0
370
    18
100
AcDbLine
 10
0.0
 20
0.0
 30
0.0
 11
0.0
 21
-2.5
 31
0.0
  0
LINE
  5
191
330
18B
100
AcDbEntity
  8
0
  6
Continuous
 62
     0
370
    18
100
AcDbLine
 10
0.0
 20
0.0
 30
0.0
 11
2.5
 21
0.0
 31
0.0
  0
LINE
  5
192
330
18B
100
AcDbEntity
  8
0
  6
Continuous
 62
     0
370
    18
100
AcDbLine
 10
0.0
 20
2.5
 30
0.0
 11
0.0
 21
3.675
 31
0.0
  0
LINE
  5
193
330
18B
100
AcDbEntity
  8
0
  6
Continuous
 62
     0
370
    18
100
AcDbLine
 10
-2.5
 20
0.0
 30
0.0
 11
-3.675
 21
0.0
 31
0.0
  0
LINE
  5
194
330
18B
100
AcDbEntity
  8
0
  6
Continuous
 62
     0
370
    18
100
AcDbLine
 10
0.0
 20
-2.5
 30
0.0
 11
0.0
 21
-3.675
 31
0.0
  0
LINE
  5
195
330
18B
100
AcDbEntity
  8
0
  6
Continuous
 62
     0
370
    18
100
AcDbLine
 10
2.5
 20
0.0
 30
0.0
 11
3.675
 21
0.0
 31
0.0
  0
ENDBLK
  5
18D
330
18B
100
AcDbEntity
  8
0
100
AcDbBlockEnd
  0
BLOCK
  5
198
330
197
100
AcDbEntity
  8
0
100
AcDbBlockBegin
  2
SW_CENTERMARKSYMBOL_13
 70
     0
 10
0.0
 20
0.0
 30
0.0
  3
SW_CENTERMARKSYMBOL_13
  1

  0
LINE
  5
19A
330
197
100
AcDbEntity
  8
0
  6
Continuous
 62
     0
370
    18
100
AcDbLine
 10
0.0
 20
0.0
 30
0.0
 11
0.0
 21
2.5
 31
0.0
  0
LINE
  5
19B
330
197
100
AcDbEntity
  8
0
  6
Continuous
 62
     0
370
    18
100
AcDbLine
 10
0.0
 20
0.0
 30
0.0
 11
-2.5
 21
0.0
 31
0.0
  0
LINE
  5
19C
330
197
100
AcDbEntity
  8
0
  6
Continuous
 62
     0
370
    18
100
AcDbLine
 10
0.0
 20
0.0
 30
0.0
 11
0.0
 21
-2.5
 31
0.0
  0
LINE
  5
19D
330
197
100
AcDbEntity
  8
0
  6
Continuous
 62
     0
370
    18
100
AcDbLine
 10
0.0
 20
0.0
 30
0.0
 11
2.5
 21
0.0
 31
0.0
  0
LINE
  5
19E
330
197
100
AcDbEntity
  8
0
  6
Continuous
 62
     0
370
    18
100
AcDbLine
 10
0.0
 20
2.5
 30
0.0
 11
0.0
 21
3.675
 31
0.0
  0
LINE
  5
19F
330
197
100
AcDbEntity
  8
0
  6
Continuous
 62
     0
370
    18
100
AcDbLine
 10
-2.5
 20
0.0
 30
0.0
 11
-3.675
 21
0.0
 31
0.0
  0
LINE
  5
1A0
330
197
100
AcDbEntity
  8
0
  6
Continuous
 62
     0
370
    18
100
AcDbLine
 10
0.0
 20
-2.5
 30
0.0
 11
0.0
 21
-3.675
 31
0.0
  0
LINE
  5
1A1
330
197
100
AcDbEntity
  8
0
  6
Continuous
 62
     0
370
    18
100
AcDbLine
 10
2.5
 20
0.0
 30
0.0
 11
3.675
 21
0.0
 31
0.0
  0
ENDBLK
  5
199
330
197
100
AcDbEntity
  8
0
100
AcDbBlockEnd
  0
BLOCK
  5
1BF
330
1BE
100
AcDbEntity
  8
0
100
AcDbBlockBegin
  2
SW_CENTERMARKSYMBOL_14
 70
     0
 10
0.0
 20
0.0
 30
0.0
  3
SW_CENTERMARKSYMBOL_14
  1

  0
LINE
  5
1C1
330
1BE
100
AcDbEntity
  8
0
  6
Continuous
 62
     0
370
    18
100
AcDbLine
 10
0.0
 20
0.0
 30
0.0
 11
0.0
 21
2.5
 31
0.0
  0
LINE
  5
1C2
330
1BE
100
AcDbEntity
  8
0
  6
Continuous
 62
     0
370
    18
100
AcDbLine
 10
0.0
 20
0.0
 30
0.0
 11
-2.5
 21
0.0
 31
0.0
  0
LINE
  5
1C3
330
1BE
100
AcDbEntity
  8
0
  6
Continuous
 62
     0
370
    18
100
AcDbLine
 10
0.0
 20
0.0
 30
0.0
 11
0.0
 21
-2.5
 31
0.0
  0
LINE
  5
1C4
330
1BE
100
AcDbEntity
  8
0
  6
Continuous
 62
     0
370
    18
100
AcDbLine
 10
0.0
 20
0.0
 30
0.0
 11
2.5
 21
0.0
 31
0.0
  0
LINE
  5
1C5
330
1BE
100
AcDbEntity
  8
0
  6
Continuous
 62
     0
370
    18
100
AcDbLine
 10
0.0
 20
2.5
 30
0.0
 11
0.0
 21
4.25
 31
0.0
  0
LINE
  5
1C6
330
1BE
100
AcDbEntity
  8
0
  6
Continuous
 62
     0
370
    18
100
AcDbLine
 10
-2.5
 20
0.0
 30
0.0
 11
-4.25
 21
0.0
 31
0.0
  0
LINE
  5
1C7
330
1BE
100
AcDbEntity
  8
0
  6
Continuous
 62
     0
370
    18
100
AcDbLine
 10
0.0
 20
-2.5
 30
0.0
 11
0.0
 21
-4.25
 31
0.0
  0
LINE
  5
1C8
330
1BE
100
AcDbEntity
  8
0
  6
Continuous
 62
     0
370
    18
100
AcDbLine
 10
2.5
 20
0.0
 30
0.0
 11
4.25
 21
0.0
 31
0.0
  0
ENDBLK
  5
1C0
330
1BE
100
AcDbEntity
  8
0
100
AcDbBlockEnd
  0
BLOCK
  5
1CB
330
1CA
100
AcDbEntity
  8
0
100
AcDbBlockBegin
  2
SW_CENTERMARKSYMBOL_15
 70
     0
 10
0.0
 20
0.0
 30
0.0
  3
SW_CENTERMARKSYMBOL_15
  1

  0
LINE
  5
1CD
330
1CA
100
AcDbEntity
  8
0
  6
Continuous
 62
     0
370
    18
100
AcDbLine
 10
0.0
 20
0.0
 30
0.0
 11
0.0
 21
2.5
 31
0.0
  0
LINE
  5
1CE
330
1CA
100
AcDbEntity
  8
0
  6
Continuous
 62
     0
370
    18
100
AcDbLine
 10
0.0
 20
0.0
 30
0.0
 11
-2.5
 21
0.0
 31
0.0
  0
LINE
  5
1CF
330
1CA
100
AcDbEntity
  8
0
  6
Continuous
 62
     0
370
    18
100
AcDbLine
 10
0.0
 20
0.0
 30
0.0
 11
0.0
 21
-2.5
 31
0.0
  0
LINE
  5
1D0
330
1CA
100
AcDbEntity
  8
0
  6
Continuous
 62
     0
370
    18
100
AcDbLine
 10
0.0
 20
0.0
 30
0.0
 11
2.5
 21
0.0
 31
0.0
  0
LINE
  5
1D1
330
1CA
100
AcDbEntity
  8
0
  6
Continuous
 62
     0
370
    18
100
AcDbLine
 10
0.0
 20
2.5
 30
0.0
 11
0.0
 21
4.25
 31
0.0
  0
LINE
  5
1D2
330
1CA
100
AcDbEntity
  8
0
  6
Continuous
 62
     0
370
    18
100
AcDbLine
 10
-2.5
 20
0.0
 30
0.0
 11
-4.25
 21
0.0
 31
0.0
  0
LINE
  5
1D3
330
1CA
100
AcDbEntity
  8
0
  6
Continuous
 62
     0
370
    18
100
AcDbLine
 10
0.0
 20
-2.5
 30
0.0
 11
0.0
 21
-4.25
 31
0.0
  0
LINE
  5
1D4
330
1CA
100
AcDbEntity
  8
0
  6
Continuous
 62
     0
370
    18
100
AcDbLine
 10
2.5
 20
0.0
 30
0.0
 11
4.25
 21
0.0
 31
0.0
  0
ENDBLK
  5
1CC
330
1CA
100
AcDbEntity
  8
0
100
AcDbBlockEnd
  0
BLOCK
  5
1DD
330
1DC
100
AcDbEntity
  8
0
100
AcDbBlockBegin
  2
SW_CENTERMARKSYMBOL_16
 70
     0
 10
0.0
 20
0.0
 30
0.0
  3
SW_CENTERMARKSYMBOL_16
  1

  0
LINE
  5
1DF
330
1DC
100
AcDbEntity
  8
0
  6
Continuous
 62
     0
370
    18
100
AcDbLine
 10
0.0
 20
0.0
 30
0.0
 11
0.0
 21
2.5
 31
0.0
  0
LINE
  5
1E0
330
1DC
100
AcDbEntity
  8
0
  6
Continuous
 62
     0
370
    18
100
AcDbLine
 10
0.0
 20
0.0
 30
0.0
 11
-2.5
 21
0.0
 31
0.0
  0
LINE
  5
1E1
330
1DC
100
AcDbEntity
  8
0
  6
Continuous
 62
     0
370
    18
100
AcDbLine
 10
0.0
 20
0.0
 30
0.0
 11
0.0
 21
-2.5
 31
0.0
  0
LINE
  5
1E2
330
1DC
100
AcDbEntity
  8
0
  6
Continuous
 62
     0
370
    18
100
AcDbLine
 10
0.0
 20
0.0
 30
0.0
 11
2.5
 21
0.0
 31
0.0
  0
LINE
  5
1E3
330
1DC
100
AcDbEntity
  8
0
  6
Continuous
 62
     0
370
    18
100
AcDbLine
 10
0.0
 20
2.5
 30
0.0
 11
0.0
 21
4.25
 31
0.0
  0
LINE
  5
1E4
330
1DC
100
AcDbEntity
  8
0
  6
Continuous
 62
     0
370
    18
100
AcDbLine
 10
-2.5
 20
0.0
 30
0.0
 11
-4.25
 21
0.0
 31
0.0
  0
LINE
  5
1E5
330
1DC
100
AcDbEntity
  8
0
  6
Continuous
 62
     0
370
    18
100
AcDbLine
 10
0.0
 20
-2.5
 30
0.0
 11
0.0
 21
-4.25
 31
0.0
  0
LINE
  5
1E6
330
1DC
100
AcDbEntity
  8
0
  6
Continuous
 62
     0
370
    18
100
AcDbLine
 10
2.5
 20
0.0
 30
0.0
 11
4.25
 21
0.0
 31
0.0
  0
ENDBLK
  5
1DE
330
1DC
100
AcDbEntity
  8
0
100
AcDbBlockEnd
  0
BLOCK
  5
1E9
330
1E8
100
AcDbEntity
  8
0
100
AcDbBlockBegin
  2
SW_CENTERMARKSYMBOL_17
 70
     0
 10
0.0
 20
0.0
 30
0.0
  3
SW_CENTERMARKSYMBOL_17
  1

  0
LINE
  5
1EB
330
1E8
100
AcDbEntity
  8
0
  6
Continuous
 62
     0
370
    18
100
AcDbLine
 10
0.0
 20
0.0
 30
0.0
 11
0.0
 21
2.5
 31
0.0
  0
LINE
  5
1EC
330
1E8
100
AcDbEntity
  8
0
  6
Continuous
 62
     0
370
    18
100
AcDbLine
 10
0.0
 20
0.0
 30
0.0
 11
-2.5
 21
0.0
 31
0.0
  0
LINE
  5
1ED
330
1E8
100
AcDbEntity
  8
0
  6
Continuous
 62
     0
370
    18
100
AcDbLine
 10
0.0
 20
0.0
 30
0.0
 11
0.0
 21
-2.5
 31
0.0
  0
LINE
  5
1EE
330
1E8
100
AcDbEntity
  8
0
  6
Continuous
 62
     0
370
    18
100
AcDbLine
 10
0.0
 20
0.0
 30
0.0
 11
2.5
 21
0.0
 31
0.0
  0
LINE
  5
1EF
330
1E8
100
AcDbEntity
  8
0
  6
Continuous
 62
     0
370
    18
100
AcDbLine
 10
0.0
 20
2.5
 30
0.0
 11
0.0
 21
4.25
 31
0.0
  0
LINE
  5
1F0
330
1E8
100
AcDbEntity
  8
0
  6
Continuous
 62
     0
370
    18
100
AcDbLine
 10
-2.5
 20
0.0
 30
0.0
 11
-4.25
 21
0.0
 31
0.0
  0
LINE
  5
1F1
330
1E8
100
AcDbEntity
  8
0
  6
Continuous
 62
     0
370
    18
100
AcDbLine
 10
0.0
 20
-2.5
 30
0.0
 11
0.0
 21
-4.25
 31
0.0
  0
LINE
  5
1F2
330
1E8
100
AcDbEntity
  8
0
  6
Continuous
 62
     0
370
    18
100
AcDbLine
 10
2.5
 20
0.0
 30
0.0
 11
4.25
 21
0.0
 31
0.0
  0
ENDBLK
  5
1EA
330
1E8
100
AcDbEntity
  8
0
100
AcDbBlockEnd
  0
BLOCK
  5
1FB
330
1FA
100
AcDbEntity
  8
0
100
AcDbBlockBegin
  2
SW_CENTERMARKSYMBOL_18
 70
     0
 10
0.0
 20
0.0
 30
0.0
  3
SW_CENTERMARKSYMBOL_18
  1

  0
LINE
  5
1FD
330
1FA
100
AcDbEntity
  8
0
  6
Continuous
 62
     0
370
    18
100
AcDbLine
 10
0.0
 20
0.0
 30
0.0
 11
0.0
 21
2.5
 31
0.0
  0
LINE
  5
1FE
330
1FA
100
AcDbEntity
  8
0
  6
Continuous
 62
     0
370
    18
100
AcDbLine
 10
0.0
 20
0.0
 30
0.0
 11
-2.5
 21
0.0
 31
0.0
  0
LINE
  5
1FF
330
1FA
100
AcDbEntity
  8
0
  6
Continuous
 62
     0
370
    18
100
AcDbLine
 10
0.0
 20
0.0
 30
0.0
 11
0.0
 21
-2.5
 31
0.0
  0
LINE
  5
200
330
1FA
100
AcDbEntity
  8
0
  6
Continuous
 62
     0
370
    18
100
AcDbLine
 10
0.0
 20
0.0
 30
0.0
 11
2.5
 21
0.0
 31
0.0
  0
LINE
  5
201
330
1FA
100
AcDbEntity
  8
0
  6
Continuous
 62
     0
370
    18
100
AcDbLine
 10
0.0
 20
2.5
 30
0.0
 11
0.0
 21
4.25
 31
0.0
  0
LINE
  5
202
330
1FA
100
AcDbEntity
  8
0
  6
Continuous
 62
     0
370
    18
100
AcDbLine
 10
-2.5
 20
0.0
 30
0.0
 11
-4.25
 21
0.0
 31
0.0
  0
LINE
  5
203
330
1FA
100
AcDbEntity
  8
0
  6
Continuous
 62
     0
370
    18
100
AcDbLine
 10
0.0
 20
-2.5
 30
0.0
 11
0.0
 21
-4.25
 31
0.0
  0
LINE
  5
204
330
1FA
100
AcDbEntity
  8
0
  6
Continuous
 62
     0
370
    18
100
AcDbLine
 10
2.5
 20
0.0
 30
0.0
 11
4.25
 21
0.0
 31
0.0
  0
ENDBLK
  5
1FC
330
1FA
100
AcDbEntity
  8
0
100
AcDbBlockEnd
  0
BLOCK
  5
207
330
206
100
AcDbEntity
  8
0
100
AcDbBlockBegin
  2
SW_CENTERMARKSYMBOL_19
 70
     0
 10
0.0
 20
0.0
 30
0.0
  3
SW_CENTERMARKSYMBOL_19
  1

  0
LINE
  5
209
330
206
100
AcDbEntity
  8
0
  6
Continuous
 62
     0
370
    18
100
AcDbLine
 10
0.0
 20
0.0
 30
0.0
 11
0.0
 21
2.5
 31
0.0
  0
LINE
  5
20A
330
206
100
AcDbEntity
  8
0
  6
Continuous
 62
     0
370
    18
100
AcDbLine
 10
0.0
 20
0.0
 30
0.0
 11
-2.5
 21
0.0
 31
0.0
  0
LINE
  5
20B
330
206
100
AcDbEntity
  8
0
  6
Continuous
 62
     0
370
    18
100
AcDbLine
 10
0.0
 20
0.0
 30
0.0
 11
0.0
 21
-2.5
 31
0.0
  0
LINE
  5
20C
330
206
100
AcDbEntity
  8
0
  6
Continuous
 62
     0
370
    18
100
AcDbLine
 10
0.0
 20
0.0
 30
0.0
 11
2.5
 21
0.0
 31
0.0
  0
LINE
  5
20D
330
206
100
AcDbEntity
  8
0
  6
Continuous
 62
     0
370
    18
100
AcDbLine
 10
0.0
 20
2.5
 30
0.0
 11
0.0
 21
4.25
 31
0.0
  0
LINE
  5
20E
330
206
100
AcDbEntity
  8
0
  6
Continuous
 62
     0
370
    18
100
AcDbLine
 10
-2.5
 20
0.0
 30
0.0
 11
-4.25
 21
0.0
 31
0.0
  0
LINE
  5
20F
330
206
100
AcDbEntity
  8
0
  6
Continuous
 62
     0
370
    18
100
AcDbLine
 10
0.0
 20
-2.5
 30
0.0
 11
0.0
 21
-4.25
 31
0.0
  0
LINE
  5
210
330
206
100
AcDbEntity
  8
0
  6
Continuous
 62
     0
370
    18
100
AcDbLine
 10
2.5
 20
0.0
 30
0.0
 11
4.25
 21
0.0
 31
0.0
  0
ENDBLK
  5
208
330
206
100
AcDbEntity
  8
0
100
AcDbBlockEnd
  0
BLOCK
  5
219
330
218
100
AcDbEntity
  8
0
100
AcDbBlockBegin
  2
SW_CENTERMARKSYMBOL_20
 70
     0
 10
0.0
 20
0.0
 30
0.0
  3
SW_CENTERMARKSYMBOL_20
  1

  0
LINE
  5
21B
330
218
100
AcDbEntity
  8
0
  6
Continuous
 62
     0
370
    18
100
AcDbLine
 10
0.0
 20
0.0
 30
0.0
 11
0.0
 21
2.5
 31
0.0
  0
LINE
  5
21C
330
218
100
AcDbEntity
  8
0
  6
Continuous
 62
     0
370
    18
100
AcDbLine
 10
0.0
 20
0.0
 30
0.0
 11
-2.5
 21
0.0
 31
0.0
  0
LINE
  5
21D
330
218
100
AcDbEntity
  8
0
  6
Continuous
 62
     0
370
    18
100
AcDbLine
 10
0.0
 20
0.0
 30
0.0
 11
0.0
 21
-2.5
 31
0.0
  0
LINE
  5
21E
330
218
100
AcDbEntity
  8
0
  6
Continuous
 62
     0
370
    18
100
AcDbLine
 10
0.0
 20
0.0
 30
0.0
 11
2.5
 21
0.0
 31
0.0
  0
LINE
  5
21F
330
218
100
AcDbEntity
  8
0
  6
Continuous
 62
     0
370
    18
100
AcDbLine
 10
0.0
 20
2.5
 30
0.0
 11
0.0
 21
4.25
 31
0.0
  0
LINE
  5
220
330
218
100
AcDbEntity
  8
0
  6
Continuous
 62
     0
370
    18
100
AcDbLine
 10
-2.5
 20
0.0
 30
0.0
 11
-4.25
 21
0.0
 31
0.0
  0
LINE
  5
221
330
218
100
AcDbEntity
  8
0
  6
Continuous
 62
     0
370
    18
100
AcDbLine
 10
0.0
 20
-2.5
 30
0.0
 11
0.0
 21
-4.25
 31
0.0
  0
LINE
  5
222
330
218
100
AcDbEntity
  8
0
  6
Continuous
 62
     0
370
    18
100
AcDbLine
 10
2.5
 20
0.0
 30
0.0
 11
4.25
 21
0.0
 31
0.0
  0
ENDBLK
  5
21A
330
218
100
AcDbEntity
  8
0
100
AcDbBlockEnd
  0
BLOCK
  5
225
330
224
100
AcDbEntity
  8
0
100
AcDbBlockBegin
  2
SW_CENTERMARKSYMBOL_21
 70
     0
 10
0.0
 20
0.0
 30
0.0
  3
SW_CENTERMARKSYMBOL_21
  1

  0
LINE
  5
227
330
224
100
AcDbEntity
  8
0
  6
Continuous
 62
     0
370
    18
100
AcDbLine
 10
0.0
 20
0.0
 30
0.0
 11
0.0
 21
2.5
 31
0.0
  0
LINE
  5
228
330
224
100
AcDbEntity
  8
0
  6
Continuous
 62
     0
370
    18
100
AcDbLine
 10
0.0
 20
0.0
 30
0.0
 11
-2.5
 21
0.0
 31
0.0
  0
LINE
  5
229
330
224
100
AcDbEntity
  8
0
  6
Continuous
 62
     0
370
    18
100
AcDbLine
 10
0.0
 20
0.0
 30
0.0
 11
0.0
 21
-2.5
 31
0.0
  0
LINE
  5
22A
330
224
100
AcDbEntity
  8
0
  6
Continuous
 62
     0
370
    18
100
AcDbLine
 10
0.0
 20
0.0
 30
0.0
 11
2.5
 21
0.0
 31
0.0
  0
LINE
  5
22B
330
224
100
AcDbEntity
  8
0
  6
Continuous
 62
     0
370
    18
100
AcDbLine
 10
0.0
 20
2.5
 30
0.0
 11
0.0
 21
4.25
 31
0.0
  0
LINE
  5
22C
330
224
100
AcDbEntity
  8
0
  6
Continuous
 62
     0
370
    18
100
AcDbLine
 10
-2.5
 20
0.0
 30
0.0
 11
-4.25
 21
0.0
 31
0.0
  0
LINE
  5
22D
330
224
100
AcDbEntity
  8
0
  6
Continuous
 62
     0
370
    18
100
AcDbLine
 10
0.0
 20
-2.5
 30
0.0
 11
0.0
 21
-4.25
 31
0.0
  0
LINE
  5
22E
330
224
100
AcDbEntity
  8
0
  6
Continuous
 62
     0
370
    18
100
AcDbLine
 10
2.5
 20
0.0
 30
0.0
 11
4.25
 21
0.0
 31
0.0
  0
ENDBLK
  5
226
330
224
100
AcDbEntity
  8
0
100
AcDbBlockEnd
  0
BLOCK
  5
237
330
236
100
AcDbEntity
  8
0
100
AcDbBlockBegin
  2
SW_CENTERMARKSYMBOL_22
 70
     0
 10
0.0
 20
0.0
 30
0.0
  3
SW_CENTERMARKSYMBOL_22
  1

  0
LINE
  5
239
330
236
100
AcDbEntity
  8
0
  6
Continuous
 62
     0
370
    18
100
AcDbLine
 10
0.0
 20
0.0
 30
0.0
 11
0.0
 21
2.5
 31
0.0
  0
LINE
  5
23A
330
236
100
AcDbEntity
  8
0
  6
Continuous
 62
     0
370
    18
100
AcDbLine
 10
0.0
 20
0.0
 30
0.0
 11
-2.5
 21
0.0
 31
0.0
  0
LINE
  5
23B
330
236
100
AcDbEntity
  8
0
  6
Continuous
 62
     0
370
    18
100
AcDbLine
 10
0.0
 20
0.0
 30
0.0
 11
0.0
 21
-2.5
 31
0.0
  0
LINE
  5
23C
330
236
100
AcDbEntity
  8
0
  6
Continuous
 62
     0
370
    18
100
AcDbLine
 10
0.0
 20
0.0
 30
0.0
 11
2.5
 21
0.0
 31
0.0
  0
LINE
  5
23D
330
236
100
AcDbEntity
  8
0
  6
Continuous
 62
     0
370
    18
100
AcDbLine
 10
0.0
 20
2.5
 30
0.0
 11
0.0
 21
4.25
 31
0.0
  0
LINE
  5
23E
330
236
100
AcDbEntity
  8
0
  6
Continuous
 62
     0
370
    18
100
AcDbLine
 10
-2.5
 20
0.0
 30
0.0
 11
-4.25
 21
0.0
 31
0.0
  0
LINE
  5
23F
330
236
100
AcDbEntity
  8
0
  6
Continuous
 62
     0
370
    18
100
AcDbLine
 10
0.0
 20
-2.5
 30
0.0
 11
0.0
 21
-4.25
 31
0.0
  0
LINE
  5
240
330
236
100
AcDbEntity
  8
0
  6
Continuous
 62
     0
370
    18
100
AcDbLine
 10
2.5
 20
0.0
 30
0.0
 11
4.25
 21
0.0
 31
0.0
  0
ENDBLK
  5
238
330
236
100
AcDbEntity
  8
0
100
AcDbBlockEnd
  0
BLOCK
  5
243
330
242
100
AcDbEntity
  8
0
100
AcDbBlockBegin
  2
SW_CENTERMARKSYMBOL_23
 70
     0
 10
0.0
 20
0.0
 30
0.0
  3
SW_CENTERMARKSYMBOL_23
  1

  0
LINE
  5
245
330
242
100
AcDbEntity
  8
0
  6
Continuous
 62
     0
370
    18
100
AcDbLine
 10
0.0
 20
0.0
 30
0.0
 11
0.0
 21
2.5
 31
0.0
  0
LINE
  5
246
330
242
100
AcDbEntity
  8
0
  6
Continuous
 62
     0
370
    18
100
AcDbLine
 10
0.0
 20
0.0
 30
0.0
 11
-2.5
 21
0.0
 31
0.0
  0
LINE
  5
247
330
242
100
AcDbEntity
  8
0
  6
Continuous
 62
     0
370
    18
100
AcDbLine
 10
0.0
 20
0.0
 30
0.0
 11
0.0
 21
-2.5
 31
0.0
  0
LINE
  5
248
330
242
100
AcDbEntity
  8
0
  6
Continuous
 62
     0
370
    18
100
AcDbLine
 10
0.0
 20
0.0
 30
0.0
 11
2.5
 21
0.0
 31
0.0
  0
LINE
  5
249
330
242
100
AcDbEntity
  8
0
  6
Continuous
 62
     0
370
    18
100
AcDbLine
 10
0.0
 20
2.5
 30
0.0
 11
0.0
 21
4.25
 31
0.0
  0
LINE
  5
24A
330
242
100
AcDbEntity
  8
0
  6
Continuous
 62
     0
370
    18
100
AcDbLine
 10
-2.5
 20
0.0
 30
0.0
 11
-4.25
 21
0.0
 31
0.0
  0
LINE
  5
24B
330
242
100
AcDbEntity
  8
0
  6
Continuous
 62
     0
370
    18
100
AcDbLine
 10
0.0
 20
-2.5
 30
0.0
 11
0.0
 21
-4.25
 31
0.0
  0
LINE
  5
24C
330
242
100
AcDbEntity
  8
0
  6
Continuous
 62
     0
370
    18
100
AcDbLine
 10
2.5
 20
0.0
 30
0.0
 11
4.25
 21
0.0
 31
0.0
  0
ENDBLK
  5
244
330
242
100
AcDbEntity
  8
0
100
AcDbBlockEnd
  0
BLOCK
  5
255
330
254
100
AcDbEntity
  8
0
100
AcDbBlockBegin
  2
SW_CENTERMARKSYMBOL_24
 70
     0
 10
0.0
 20
0.0
 30
0.0
  3
SW_CENTERMARKSYMBOL_24
  1

  0
LINE
  5
257
330
254
100
AcDbEntity
  8
0
  6
Continuous
 62
     0
370
    18
100
AcDbLine
 10
0.0
 20
0.0
 30
0.0
 11
0.0
 21
2.5
 31
0.0
  0
LINE
  5
258
330
254
100
AcDbEntity
  8
0
  6
Continuous
 62
     0
370
    18
100
AcDbLine
 10
0.0
 20
0.0
 30
0.0
 11
-2.5
 21
0.0
 31
0.0
  0
LINE
  5
259
330
254
100
AcDbEntity
  8
0
  6
Continuous
 62
     0
370
    18
100
AcDbLine
 10
0.0
 20
0.0
 30
0.0
 11
0.0
 21
-2.5
 31
0.0
  0
LINE
  5
25A
330
254
100
AcDbEntity
  8
0
  6
Continuous
 62
     0
370
    18
100
AcDbLine
 10
0.0
 20
0.0
 30
0.0
 11
2.5
 21
0.0
 31
0.0
  0
LINE
  5
25B
330
254
100
AcDbEntity
  8
0
  6
Continuous
 62
     0
370
    18
100
AcDbLine
 10
0.0
 20
2.5
 30
0.0
 11
0.0
 21
4.25
 31
0.0
  0
LINE
  5
25C
330
254
100
AcDbEntity
  8
0
  6
Continuous
 62
     0
370
    18
100
AcDbLine
 10
-2.5
 20
0.0
 30
0.0
 11
-4.25
 21
0.0
 31
0.0
  0
LINE
  5
25D
330
254
100
AcDbEntity
  8
0
  6
Continuous
 62
     0
370
    18
100
AcDbLine
 10
0.0
 20
-2.5
 30
0.0
 11
0.0
 21
-4.25
 31
0.0
  0
LINE
  5
25E
330
254
100
AcDbEntity
  8
0
  6
Continuous
 62
     0
370
    18
100
AcDbLine
 10
2.5
 20
0.0
 30
0.0
 11
4.25
 21
0.0
 31
0.0
  0
ENDBLK
  5
256
330
254
100
AcDbEntity
  8
0
100
AcDbBlockEnd
  0
BLOCK
  5
261
330
260
100
AcDbEntity
  8
0
100
AcDbBlockBegin
  2
SW_CENTERMARKSYMBOL_25
 70
     0
 10
0.0
 20
0.0
 30
0.0
  3
SW_CENTERMARKSYMBOL_25
  1

  0
LINE
  5
263
330
260
100
AcDbEntity
  8
0
  6
Continuous
 62
     0
370
    18
100
AcDbLine
 10
0.0
 20
0.0
 30
0.0
 11
0.0
 21
2.5
 31
0.0
  0
LINE
  5
264
330
260
100
AcDbEntity
  8
0
  6
Continuous
 62
     0
370
    18
100
AcDbLine
 10
0.0
 20
0.0
 30
0.0
 11
-2.5
 21
0.0
 31
0.0
  0
LINE
  5
265
330
260
100
AcDbEntity
  8
0
  6
Continuous
 62
     0
370
    18
100
AcDbLine
 10
0.0
 20
0.0
 30
0.0
 11
0.0
 21
-2.5
 31
0.0
  0
LINE
  5
266
330
260
100
AcDbEntity
  8
0
  6
Continuous
 62
     0
370
    18
100
AcDbLine
 10
0.0
 20
0.0
 30
0.0
 11
2.5
 21
0.0
 31
0.0
  0
LINE
  5
267
330
260
100
AcDbEntity
  8
0
  6
Continuous
 62
     0
370
    18
100
AcDbLine
 10
0.0
 20
2.5
 30
0.0
 11
0.0
 21
4.25
 31
0.0
  0
LINE
  5
268
330
260
100
AcDbEntity
  8
0
  6
Continuous
 62
     0
370
    18
100
AcDbLine
 10
-2.5
 20
0.0
 30
0.0
 11
-4.25
 21
0.0
 31
0.0
  0
LINE
  5
269
330
260
100
AcDbEntity
  8
0
  6
Continuous
 62
     0
370
    18
100
AcDbLine
 10
0.0
 20
-2.5
 30
0.0
 11
0.0
 21
-4.25
 31
0.0
  0
LINE
  5
26A
330
260
100
AcDbEntity
  8
0
  6
Continuous
 62
     0
370
    18
100
AcDbLine
 10
2.5
 20
0.0
 30
0.0
 11
4.25
 21
0.0
 31
0.0
  0
ENDBLK
  5
262
330
260
100
AcDbEntity
  8
0
100
AcDbBlockEnd
  0
BLOCK
  5
293
330
292
100
AcDbEntity
  8
0
100
AcDbBlockBegin
  2
SW_CENTERMARKSYMBOL_26
 70
     0
 10
0.0
 20
0.0
 30
0.0
  3
SW_CENTERMARKSYMBOL_26
  1

  0
LINE
  5
295
330
292
100
AcDbEntity
  8
0
  6
Continuous
 62
     0
370
    18
100
AcDbLine
 10
0.0
 20
0.0
 30
0.0
 11
0.0
 21
2.5
 31
0.0
  0
LINE
  5
296
330
292
100
AcDbEntity
  8
0
  6
Continuous
 62
     0
370
    18
100
AcDbLine
 10
0.0
 20
0.0
 30
0.0
 11
-2.5
 21
0.0
 31
0.0
  0
LINE
  5
297
330
292
100
AcDbEntity
  8
0
  6
Continuous
 62
     0
370
    18
100
AcDbLine
 10
0.0
 20
0.0
 30
0.0
 11
0.0
 21
-2.5
 31
0.0
  0
LINE
  5
298
330
292
100
AcDbEntity
  8
0
  6
Continuous
 62
     0
370
    18
100
AcDbLine
 10
0.0
 20
0.0
 30
0.0
 11
2.5
 21
0.0
 31
0.0
  0
LINE
  5
299
330
292
100
AcDbEntity
  8
0
  6
Continuous
 62
     0
370
    18
100
AcDbLine
 10
0.0
 20
2.5
 30
0.0
 11
0.0
 21
3.675
 31
0.0
  0
LINE
  5
29A
330
292
100
AcDbEntity
  8
0
  6
Continuous
 62
     0
370
    18
100
AcDbLine
 10
-2.5
 20
0.0
 30
0.0
 11
-3.675
 21
0.0
 31
0.0
  0
LINE
  5
29B
330
292
100
AcDbEntity
  8
0
  6
Continuous
 62
     0
370
    18
100
AcDbLine
 10
0.0
 20
-2.5
 30
0.0
 11
0.0
 21
-3.675
 31
0.0
  0
LINE
  5
29C
330
292
100
AcDbEntity
  8
0
  6
Continuous
 62
     0
370
    18
100
AcDbLine
 10
2.5
 20
0.0
 30
0.0
 11
3.675
 21
0.0
 31
0.0
  0
ENDBLK
  5
294
330
292
100
AcDbEntity
  8
0
100
AcDbBlockEnd
  0
BLOCK
  5
29F
330
29E
100
AcDbEntity
  8
0
100
AcDbBlockBegin
  2
SW_CENTERMARKSYMBOL_27
 70
     0
 10
0.0
 20
0.0
 30
0.0
  3
SW_CENTERMARKSYMBOL_27
  1

  0
LINE
  5
2A1
330
29E
100
AcDbEntity
  8
0
  6
Continuous
 62
     0
370
    18
100
AcDbLine
 10
0.0
 20
0.0
 30
0.0
 11
0.0
 21
2.5
 31
0.0
  0
LINE
  5
2A2
330
29E
100
AcDbEntity
  8
0
  6
Continuous
 62
     0
370
    18
100
AcDbLine
 10
0.0
 20
0.0
 30
0.0
 11
-2.5
 21
0.0
 31
0.0
  0
LINE
  5
2A3
330
29E
100
AcDbEntity
  8
0
  6
Continuous
 62
     0
370
    18
100
AcDbLine
 10
0.0
 20
0.0
 30
0.0
 11
0.0
 21
-2.5
 31
0.0
  0
LINE
  5
2A4
330
29E
100
AcDbEntity
  8
0
  6
Continuous
 62
     0
370
    18
100
AcDbLine
 10
0.0
 20
0.0
 30
0.0
 11
2.5
 21
0.0
 31
0.0
  0
LINE
  5
2A5
330
29E
100
AcDbEntity
  8
0
  6
Continuous
 62
     0
370
    18
100
AcDbLine
 10
0.0
 20
2.5
 30
0.0
 11
0.0
 21
3.675
 31
0.0
  0
LINE
  5
2A6
330
29E
100
AcDbEntity
  8
0
  6
Continuous
 62
     0
370
    18
100
AcDbLine
 10
-2.5
 20
0.0
 30
0.0
 11
-3.675
 21
0.0
 31
0.0
  0
LINE
  5
2A7
330
29E
100
AcDbEntity
  8
0
  6
Continuous
 62
     0
370
    18
100
AcDbLine
 10
0.0
 20
-2.5
 30
0.0
 11
0.0
 21
-3.675
 31
0.0
  0
LINE
  5
2A8
330
29E
100
AcDbEntity
  8
0
  6
Continuous
 62
     0
370
    18
100
AcDbLine
 10
2.5
 20
0.0
 30
0.0
 11
3.675
 21
0.0
 31
0.0
  0
ENDBLK
  5
2A0
330
29E
100
AcDbEntity
  8
0
100
AcDbBlockEnd
  0
BLOCK
  5
2AD
330
2AC
100
AcDbEntity
  8
0
100
AcDbBlockBegin
  2
SW_CENTERMARKSYMBOL_28
 70
     0
 10
0.0
 20
0.0
 30
0.0
  3
SW_CENTERMARKSYMBOL_28
  1

  0
LINE
  5
2AF
330
2AC
100
AcDbEntity
  8
0
  6
Continuous
 62
     0
370
    18
100
AcDbLine
 10
0.0
 20
0.0
 30
0.0
 11
0.0
 21
2.5
 31
0.0
  0
LINE
  5
2B0
330
2AC
100
AcDbEntity
  8
0
  6
Continuous
 62
     0
370
    18
100
AcDbLine
 10
0.0
 20
0.0
 30
0.0
 11
-2.5
 21
0.0
 31
0.0
  0
LINE
  5
2B1
330
2AC
100
AcDbEntity
  8
0
  6
Continuous
 62
     0
370
    18
100
AcDbLine
 10
0.0
 20
0.0
 30
0.0
 11
0.0
 21
-2.5
 31
0.0
  0
LINE
  5
2B2
330
2AC
100
AcDbEntity
  8
0
  6
Continuous
 62
     0
370
    18
100
AcDbLine
 10
0.0
 20
0.0
 30
0.0
 11
2.5
 21
0.0
 31
0.0
  0
LINE
  5
2B3
330
2AC
100
AcDbEntity
  8
0
  6
Continuous
 62
     0
370
    18
100
AcDbLine
 10
0.0
 20
5.0
 30
0.0
 11
0.0
 21
13.5
 31
0.0
  0
LINE
  5
2B4
330
2AC
100
AcDbEntity
  8
0
  6
Continuous
 62
     0
370
    18
100
AcDbLine
 10
-5.0
 20
0.0
 30
0.0
 11
-13.5
 21
0.0
 31
0.0
  0
LINE
  5
2B5
330
2AC
100
AcDbEntity
  8
0
  6
Continuous
 62
     0
370
    18
100
AcDbLine
 10
0.0
 20
-5.0
 30
0.0
 11
0.0
 21
-13.5
 31
0.0
  0
LINE
  5
2B6
330
2AC
100
AcDbEntity
  8
0
  6
Continuous
 62
     0
370
    18
100
AcDbLine
 10
5.0
 20
0.0
 30
0.0
 11
13.5
 21
0.0
 31
0.0
  0
ENDBLK
  5
2AE
330
2AC
100
AcDbEntity
  8
0
100
AcDbBlockEnd
  0
BLOCK
  5
2BB
330
2BA
100
AcDbEntity
  8
0
100
AcDbBlockBegin
  2
SW_CENTERMARKSYMBOL_29
 70
     0
 10
0.0
 20
0.0
 30
0.0
  3
SW_CENTERMARKSYMBOL_29
  1

  0
LINE
  5
2BD
330
2BA
100
AcDbEntity
  8
0
  6
Continuous
 62
     0
370
    18
100
AcDbLine
 10
0.0
 20
0.0
 30
0.0
 11
0.0
 21
2.5
 31
0.0
  0
LINE
  5
2BE
330
2BA
100
AcDbEntity
  8
0
  6
Continuous
 62
     0
370
    18
100
AcDbLine
 10
0.0
 20
0.0
 30
0.0
 11
-2.5
 21
0.0
 31
0.0
  0
LINE
  5
2BF
330
2BA
100
AcDbEntity
  8
0
  6
Continuous
 62
     0
370
    18
100
AcDbLine
 10
0.0
 20
0.0
 30
0.0
 11
0.0
 21
-2.5
 31
0.0
  0
LINE
  5
2C0
330
2BA
100
AcDbEntity
  8
0
  6
Continuous
 62
     0
370
    18
100
AcDbLine
 10
0.0
 20
0.0
 30
0.0
 11
2.5
 21
0.0
 31
0.0
  0
LINE
  5
2C1
330
2BA
100
AcDbEntity
  8
0
  6
Continuous
 62
     0
370
    18
100
AcDbLine
 10
0.0
 20
5.0
 30
0.0
 11
0.0
 21
13.5
 31
0.0
  0
LINE
  5
2C2
330
2BA
100
AcDbEntity
  8
0
  6
Continuous
 62
     0
370
    18
100
AcDbLine
 10
-5.0
 20
0.0
 30
0.0
 11
-13.5
 21
0.0
 31
0.0
  0
LINE
  5
2C3
330
2BA
100
AcDbEntity
  8
0
  6
Continuous
 62
     0
370
    18
100
AcDbLine
 10
0.0
 20
-5.0
 30
0.0
 11
0.0
 21
-13.5
 31
0.0
  0
LINE
  5
2C4
330
2BA
100
AcDbEntity
  8
0
  6
Continuous
 62
     0
370
    18
100
AcDbLine
 10
5.0
 20
0.0
 30
0.0
 11
13.5
 21
0.0
 31
0.0
  0
ENDBLK
  5
2BC
330
2BA
100
AcDbEntity
  8
0
100
AcDbBlockEnd
  0
BLOCK
  5
2C9
330
2C8
100
AcDbEntity
  8
0
100
AcDbBlockBegin
  2
SW_CENTERMARKSYMBOL_30
 70
     0
 10
0.0
 20
0.0
 30
0.0
  3
SW_CENTERMARKSYMBOL_30
  1

  0
LINE
  5
2CB
330
2C8
100
AcDbEntity
  8
0
  6
Continuous
 62
     0
370
    18
100
AcDbLine
 10
0.0
 20
0.0
 30
0.0
 11
0.0
 21
2.5
 31
0.0
  0
LINE
  5
2CC
330
2C8
100
AcDbEntity
  8
0
  6
Continuous
 62
     0
370
    18
100
AcDbLine
 10
0.0
 20
0.0
 30
0.0
 11
-2.5
 21
0.0
 31
0.0
  0
LINE
  5
2CD
330
2C8
100
AcDbEntity
  8
0
  6
Continuous
 62
     0
370
    18
100
AcDbLine
 10
0.0
 20
0.0
 30
0.0
 11
0.0
 21
-2.5
 31
0.0
  0
LINE
  5
2CE
330
2C8
100
AcDbEntity
  8
0
  6
Continuous
 62
     0
370
    18
100
AcDbLine
 10
0.0
 20
0.0
 30
0.0
 11
2.5
 21
0.0
 31
0.0
  0
LINE
  5
2CF
330
2C8
100
AcDbEntity
  8
0
  6
Continuous
 62
     0
370
    18
100
AcDbLine
 10
0.0
 20
5.0
 30
0.0
 11
0.0
 21
13.5
 31
0.0
  0
LINE
  5
2D0
330
2C8
100
AcDbEntity
  8
0
  6
Continuous
 62
     0
370
    18
100
AcDbLine
 10
-5.0
 20
0.0
 30
0.0
 11
-13.5
 21
0.0
 31
0.0
  0
LINE
  5
2D1
330
2C8
100
AcDbEntity
  8
0
  6
Continuous
 62
     0
370
    18
100
AcDbLine
 10
0.0
 20
-5.0
 30
0.0
 11
0.0
 21
-13.5
 31
0.0
  0
LINE
  5
2D2
330
2C8
100
AcDbEntity
  8
0
  6
Continuous
 62
     0
370
    18
100
AcDbLine
 10
5.0
 20
0.0
 30
0.0
 11
13.5
 21
0.0
 31
0.0
  0
ENDBLK
  5
2CA
330
2C8
100
AcDbEntity
  8
0
100
AcDbBlockEnd
  0
BLOCK
  5
2D7
330
2D6
100
AcDbEntity
  8
0
100
AcDbBlockBegin
  2
SW_CENTERMARKSYMBOL_31
 70
     0
 10
0.0
 20
0.0
 30
0.0
  3
SW_CENTERMARKSYMBOL_31
  1

  0
LINE
  5
2D9
330
2D6
100
AcDbEntity
  8
0
  6
Continuous
 62
     0
370
    18
100
AcDbLine
 10
0.0
 20
0.0
 30
0.0
 11
0.0
 21
2.5
 31
0.0
  0
LINE
  5
2DA
330
2D6
100
AcDbEntity
  8
0
  6
Continuous
 62
     0
370
    18
100
AcDbLine
 10
0.0
 20
0.0
 30
0.0
 11
-2.5
 21
0.0
 31
0.0
  0
LINE
  5
2DB
330
2D6
100
AcDbEntity
  8
0
  6
Continuous
 62
     0
370
    18
100
AcDbLine
 10
0.0
 20
0.0
 30
0.0
 11
0.0
 21
-2.5
 31
0.0
  0
LINE
  5
2DC
330
2D6
100
AcDbEntity
  8
0
  6
Continuous
 62
     0
370
    18
100
AcDbLine
 10
0.0
 20
0.0
 30
0.0
 11
2.5
 21
0.0
 31
0.0
  0
LINE
  5
2DD
330
2D6
100
AcDbEntity
  8
0
  6
Continuous
 62
     0
370
    18
100
AcDbLine
 10
0.0
 20
5.0
 30
0.0
 11
0.0
 21
13.5
 31
0.0
  0
LINE
  5
2DE
330
2D6
100
AcDbEntity
  8
0
  6
Continuous
 62
     0
370
    18
100
AcDbLine
 10
-5.0
 20
0.0
 30
0.0
 11
-13.5
 21
0.0
 31
0.0
  0
LINE
  5
2DF
330
2D6
100
AcDbEntity
  8
0
  6
Continuous
 62
     0
370
    18
100
AcDbLine
 10
0.0
 20
-5.0
 30
0.0
 11
0.0
 21
-19.8835024183
 31
0.0
  0
LINE
  5
2E0
330
2D6
100
AcDbEntity
  8
0
  6
Continuous
 62
     0
370
    18
100
AcDbLine
 10
5.0
 20
0.0
 30
0.0
 11
13.5
 21
0.0
 31
0.0
  0
ENDBLK
  5
2D8
330
2D6
100
AcDbEntity
  8
0
100
AcDbBlockEnd
  0
BLOCK
  5
2E5
330
2E4
100
AcDbEntity
  8
0
100
AcDbBlockBegin
  2
SW_CENTERMARKSYMBOL_32
 70
     0
 10
0.0
 20
0.0
 30
0.0
  3
SW_CENTERMARKSYMBOL_32
  1

  0
LINE
  5
2E7
330
2E4
100
AcDbEntity
  8
0
  6
Continuous
 62
     0
370
    18
100
AcDbLine
 10
0.0
 20
0.0
 30
0.0
 11
0.0
 21
2.5
 31
0.0
  0
LINE
  5
2E8
330
2E4
100
AcDbEntity
  8
0
  6
Continuous
 62
     0
370
    18
100
AcDbLine
 10
0.0
 20
0.0
 30
0.0
 11
-2.5
 21
0.0
 31
0.0
  0
LINE
  5
2E9
330
2E4
100
AcDbEntity
  8
0
  6
Continuous
 62
     0
370
    18
100
AcDbLine
 10
0.0
 20
0.0
 30
0.0
 11
0.0
 21
-2.5
 31
0.0
  0
LINE
  5
2EA
330
2E4
100
AcDbEntity
  8
0
  6
Continuous
 62
     0
370
    18
100
AcDbLine
 10
0.0
 20
0.0
 30
0.0
 11
2.5
 21
0.0
 31
0.0
  0
LINE
  5
2EB
330
2E4
100
AcDbEntity
  8
0
  6
Continuous
 62
     0
370
    18
100
AcDbLine
 10
0.0
 20
5.0
 30
0.0
 11
0.0
 21
13.5
 31
0.0
  0
LINE
  5
2EC
330
2E4
100
AcDbEntity
  8
0
  6
Continuous
 62
     0
370
    18
100
AcDbLine
 10
-5.0
 20
0.0
 30
0.0
 11
-13.5
 21
0.0
 31
0.0
  0
LINE
  5
2ED
330
2E4
100
AcDbEntity
  8
0
  6
Continuous
 62
     0
370
    18
100
AcDbLine
 10
0.0
 20
-5.0
 30
0.0
 11
0.0
 21
-13.5
 31
0.0
  0
LINE
  5
2EE
330
2E4
100
AcDbEntity
  8
0
  6
Continuous
 62
     0
370
    18
100
AcDbLine
 10
5.0
 20
0.0
 30
0.0
 11
13.5
 21
0.0
 31
0.0
  0
ENDBLK
  5
2E6
330
2E4
100
AcDbEntity
  8
0
100
AcDbBlockEnd
  0
BLOCK
  5
2F3
330
2F2
100
AcDbEntity
  8
0
100
AcDbBlockBegin
  2
SW_CENTERMARKSYMBOL_33
 70
     0
 10
0.0
 20
0.0
 30
0.0
  3
SW_CENTERMARKSYMBOL_33
  1

  0
LINE
  5
2F5
330
2F2
100
AcDbEntity
  8
0
  6
Continuous
 62
     0
370
    18
100
AcDbLine
 10
0.0
 20
0.0
 30
0.0
 11
0.0
 21
2.5
 31
0.0
  0
LINE
  5
2F6
330
2F2
100
AcDbEntity
  8
0
  6
Continuous
 62
     0
370
    18
100
AcDbLine
 10
0.0
 20
0.0
 30
0.0
 11
-2.5
 21
0.0
 31
0.0
  0
LINE
  5
2F7
330
2F2
100
AcDbEntity
  8
0
  6
Continuous
 62
     0
370
    18
100
AcDbLine
 10
0.0
 20
0.0
 30
0.0
 11
0.0
 21
-2.5
 31
0.0
  0
LINE
  5
2F8
330
2F2
100
AcDbEntity
  8
0
  6
Continuous
 62
     0
370
    18
100
AcDbLine
 10
0.0
 20
0.0
 30
0.0
 11
2.5
 21
0.0
 31
0.0
  0
LINE
  5
2F9
330
2F2
100
AcDbEntity
  8
0
  6
Continuous
 62
     0
370
    18
100
AcDbLine
 10
0.0
 20
5.0
 30
0.0
 11
0.0
 21
13.5
 31
0.0
  0
LINE
  5
2FA
330
2F2
100
AcDbEntity
  8
0
  6
Continuous
 62
     0
370
    18
100
AcDbLine
 10
-5.0
 20
0.0
 30
0.0
 11
-13.5
 21
0.0
 31
0.0
  0
LINE
  5
2FB
330
2F2
100
AcDbEntity
  8
0
  6
Continuous
 62
     0
370
    18
100
AcDbLine
 10
0.0
 20
-5.0
 30
0.0
 11
0.0
 21
-13.5
 31
0.0
  0
LINE
  5
2FC
330
2F2
100
AcDbEntity
  8
0
  6
Continuous
 62
     0
370
    18
100
AcDbLine
 10
5.0
 20
0.0
 30
0.0
 11
13.5
 21
0.0
 31
0.0
  0
ENDBLK
  5
2F4
330
2F2
100
AcDbEntity
  8
0
100
AcDbBlockEnd
  0
BLOCK
  5
301
330
300
100
AcDbEntity
  8
0
100
AcDbBlockBegin
  2
SW_CENTERMARKSYMBOL_34
 70
     0
 10
0.0
 20
0.0
 30
0.0
  3
SW_CENTERMARKSYMBOL_34
  1

  0
LINE
  5
303
330
300
100
AcDbEntity
  8
0
  6
Continuous
 62
     0
370
    18
100
AcDbLine
 10
0.0
 20
0.0
 30
0.0
 11
0.0
 21
2.5
 31
0.0
  0
LINE
  5
304
330
300
100
AcDbEntity
  8
0
  6
Continuous
 62
     0
370
    18
100
AcDbLine
 10
0.0
 20
0.0
 30
0.0
 11
-2.5
 21
0.0
 31
0.0
  0
LINE
  5
305
330
300
100
AcDbEntity
  8
0
  6
Continuous
 62
     0
370
    18
100
AcDbLine
 10
0.0
 20
0.0
 30
0.0
 11
0.0
 21
-2.5
 31
0.0
  0
LINE
  5
306
330
300
100
AcDbEntity
  8
0
  6
Continuous
 62
     0
370
    18
100
AcDbLine
 10
0.0
 20
0.0
 30
0.0
 11
2.5
 21
0.0
 31
0.0
  0
LINE
  5
307
330
300
100
AcDbEntity
  8
0
  6
Continuous
 62
     0
370
    18
100
AcDbLine
 10
0.0
 20
5.0
 30
0.0
 11
0.0
 21
13.5
 31
0.0
  0
LINE
  5
308
330
300
100
AcDbEntity
  8
0
  6
Continuous
 62
     0
370
    18
100
AcDbLine
 10
-5.0
 20
0.0
 30
0.0
 11
-13.5
 21
0.0
 31
0.0
  0
LINE
  5
309
330
300
100
AcDbEntity
  8
0
  6
Continuous
 62
     0
370
    18
100
AcDbLine
 10
0.0
 20
-5.0
 30
0.0
 11
0.0
 21
-13.5
 31
0.0
  0
LINE
  5
30A
330
300
100
AcDbEntity
  8
0
  6
Continuous
 62
     0
370
    18
100
AcDbLine
 10
5.0
 20
0.0
 30
0.0
 11
13.5
 21
0.0
 31
0.0
  0
ENDBLK
  5
302
330
300
100
AcDbEntity
  8
0
100
AcDbBlockEnd
  0
BLOCK
  5
30F
330
30E
100
AcDbEntity
  8
0
100
AcDbBlockBegin
  2
SW_CENTERMARKSYMBOL_35
 70
     0
 10
0.0
 20
0.0
 30
0.0
  3
SW_CENTERMARKSYMBOL_35
  1

  0
LINE
  5
311
330
30E
100
AcDbEntity
  8
0
  6
Continuous
 62
     0
370
    18
100
AcDbLine
 10
0.0
 20
0.0
 30
0.0
 11
0.0
 21
2.5
 31
0.0
  0
LINE
  5
312
330
30E
100
AcDbEntity
  8
0
  6
Continuous
 62
     0
370
    18
100
AcDbLine
 10
0.0
 20
0.0
 30
0.0
 11
-2.5
 21
0.0
 31
0.0
  0
LINE
  5
313
330
30E
100
AcDbEntity
  8
0
  6
Continuous
 62
     0
370
    18
100
AcDbLine
 10
0.0
 20
0.0
 30
0.0
 11
0.0
 21
-2.5
 31
0.0
  0
LINE
  5
314
330
30E
100
AcDbEntity
  8
0
  6
Continuous
 62
     0
370
    18
100
AcDbLine
 10
0.0
 20
0.0
 30
0.0
 11
2.5
 21
0.0
 31
0.0
  0
LINE
  5
315
330
30E
100
AcDbEntity
  8
0
  6
Continuous
 62
     0
370
    18
100
AcDbLine
 10
0.0
 20
5.0
 30
0.0
 11
0.0
 21
13.5
 31
0.0
  0
LINE
  5
316
330
30E
100
AcDbEntity
  8
0
  6
Continuous
 62
     0
370
    18
100
AcDbLine
 10
-5.0
 20
0.0
 30
0.0
 11
-13.5
 21
0.0
 31
0.0
  0
LINE
  5
317
330
30E
100
AcDbEntity
  8
0
  6
Continuous
 62
     0
370
    18
100
AcDbLine
 10
0.0
 20
-5.0
 30
0.0
 11
0.0
 21
-22.3666434543
 31
0.0
  0
LINE
  5
318
330
30E
100
AcDbEntity
  8
0
  6
Continuous
 62
     0
370
    18
100
AcDbLine
 10
5.0
 20
0.0
 30
0.0
 11
13.5
 21
0.0
 31
0.0
  0
ENDBLK
  5
310
330
30E
100
AcDbEntity
  8
0
100
AcDbBlockEnd
  0
BLOCK
  5
31D
330
31C
100
AcDbEntity
  8
0
100
AcDbBlockBegin
  2
SW_CENTERMARKSYMBOL_36
 70
     0
 10
0.0
 20
0.0
 30
0.0
  3
SW_CENTERMARKSYMBOL_36
  1

  0
LINE
  5
31F
330
31C
100
AcDbEntity
  8
0
  6
Continuous
 62
     0
370
    18
100
AcDbLine
 10
0.0
 20
0.0
 30
0.0
 11
0.0
 21
2.5
 31
0.0
  0
LINE
  5
320
330
31C
100
AcDbEntity
  8
0
  6
Continuous
 62
     0
370
    18
100
AcDbLine
 10
0.0
 20
0.0
 30
0.0
 11
-2.5
 21
0.0
 31
0.0
  0
LINE
  5
321
330
31C
100
AcDbEntity
  8
0
  6
Continuous
 62
     0
370
    18
100
AcDbLine
 10
0.0
 20
0.0
 30
0.0
 11
0.0
 21
-2.5
 31
0.0
  0
LINE
  5
322
330
31C
100
AcDbEntity
  8
0
  6
Continuous
 62
     0
370
    18
100
AcDbLine
 10
0.0
 20
0.0
 30
0.0
 11
2.5
 21
0.0
 31
0.0
  0
LINE
  5
323
330
31C
100
AcDbEntity
  8
0
  6
Continuous
 62
     0
370
    18
100
AcDbLine
 10
0.0
 20
5.0
 30
0.0
 11
0.0
 21
13.5
 31
0.0
  0
LINE
  5
324
330
31C
100
AcDbEntity
  8
0
  6
Continuous
 62
     0
370
    18
100
AcDbLine
 10
-5.0
 20
0.0
 30
0.0
 11
-13.5
 21
0.0
 31
0.0
  0
LINE
  5
325
330
31C
100
AcDbEntity
  8
0
  6
Continuous
 62
     0
370
    18
100
AcDbLine
 10
0.0
 20
-5.0
 30
0.0
 11
0.0
 21
-13.5
 31
0.0
  0
LINE
  5
326
330
31C
100
AcDbEntity
  8
0
  6
Continuous
 62
     0
370
    18
100
AcDbLine
 10
5.0
 20
0.0
 30
0.0
 11
13.5
 21
0.0
 31
0.0
  0
ENDBLK
  5
31E
330
31C
100
AcDbEntity
  8
0
100
AcDbBlockEnd
  0
BLOCK
  5
32B
330
32A
100
AcDbEntity
  8
0
100
AcDbBlockBegin
  2
SW_CENTERMARKSYMBOL_37
 70
     0
 10
0.0
 20
0.0
 30
0.0
  3
SW_CENTERMARKSYMBOL_37
  1

  0
LINE
  5
32D
330
32A
100
AcDbEntity
  8
0
  6
Continuous
 62
     0
370
    18
100
AcDbLine
 10
0.0
 20
0.0
 30
0.0
 11
0.0
 21
2.5
 31
0.0
  0
LINE
  5
32E
330
32A
100
AcDbEntity
  8
0
  6
Continuous
 62
     0
370
    18
100
AcDbLine
 10
0.0
 20
0.0
 30
0.0
 11
-2.5
 21
0.0
 31
0.0
  0
LINE
  5
32F
330
32A
100
AcDbEntity
  8
0
  6
Continuous
 62
     0
370
    18
100
AcDbLine
 10
0.0
 20
0.0
 30
0.0
 11
0.0
 21
-2.5
 31
0.0
  0
LINE
  5
330
330
32A
100
AcDbEntity
  8
0
  6
Continuous
 62
     0
370
    18
100
AcDbLine
 10
0.0
 20
0.0
 30
0.0
 11
2.5
 21
0.0
 31
0.0
  0
LINE
  5
331
330
32A
100
AcDbEntity
  8
0
  6
Continuous
 62
     0
370
    18
100
AcDbLine
 10
0.0
 20
5.0
 30
0.0
 11
0.0
 21
13.5
 31
0.0
  0
LINE
  5
332
330
32A
100
AcDbEntity
  8
0
  6
Continuous
 62
     0
370
    18
100
AcDbLine
 10
-5.0
 20
0.0
 30
0.0
 11
-13.5
 21
0.0
 31
0.0
  0
LINE
  5
333
330
32A
100
AcDbEntity
  8
0
  6
Continuous
 62
     0
370
    18
100
AcDbLine
 10
0.0
 20
-5.0
 30
0.0
 11
0.0
 21
-13.5
 31
0.0
  0
LINE
  5
334
330
32A
100
AcDbEntity
  8
0
  6
Continuous
 62
     0
370
    18
100
AcDbLine
 10
5.0
 20
0.0
 30
0.0
 11
13.5
 21
0.0
 31
0.0
  0
ENDBLK
  5
32C
330
32A
100
AcDbEntity
  8
0
100
AcDbBlockEnd
  0
BLOCK
  5
339
330
338
100
AcDbEntity
  8
0
100
AcDbBlockBegin
  2
SW_CENTERMARKSYMBOL_38
 70
     0
 10
0.0
 20
0.0
 30
0.0
  3
SW_CENTERMARKSYMBOL_38
  1

  0
LINE
  5
33B
330
338
100
AcDbEntity
  8
0
  6
Continuous
 62
     0
370
    18
100
AcDbLine
 10
0.0
 20
0.0
 30
0.0
 11
0.0
 21
2.5
 31
0.0
  0
LINE
  5
33C
330
338
100
AcDbEntity
  8
0
  6
Continuous
 62
     0
370
    18
100
AcDbLine
 10
0.0
 20
0.0
 30
0.0
 11
-2.5
 21
0.0
 31
0.0
  0
LINE
  5
33D
330
338
100
AcDbEntity
  8
0
  6
Continuous
 62
     0
370
    18
100
AcDbLine
 10
0.0
 20
0.0
 30
0.0
 11
0.0
 21
-2.5
 31
0.0
  0
LINE
  5
33E
330
338
100
AcDbEntity
  8
0
  6
Continuous
 62
     0
370
    18
100
AcDbLine
 10
0.0
 20
0.0
 30
0.0
 11
2.5
 21
0.0
 31
0.0
  0
LINE
  5
33F
330
338
100
AcDbEntity
  8
0
  6
Continuous
 62
     0
370
    18
100
AcDbLine
 10
0.0
 20
5.0
 30
0.0
 11
0.0
 21
13.5
 31
0.0
  0
LINE
  5
340
330
338
100
AcDbEntity
  8
0
  6
Continuous
 62
     0
370
    18
100
AcDbLine
 10
-5.0
 20
0.0
 30
0.0
 11
-13.5
 21
0.0
 31
0.0
  0
LINE
  5
341
330
338
100
AcDbEntity
  8
0
  6
Continuous
 62
     0
370
    18
100
AcDbLine
 10
0.0
 20
-5.0
 30
0.0
 11
0.0
 21
-13.5
 31
0.0
  0
LINE
  5
342
330
338
100
AcDbEntity
  8
0
  6
Continuous
 62
     0
370
    18
100
AcDbLine
 10
5.0
 20
0.0
 30
0.0
 11
13.5
 21
0.0
 31
0.0
  0
ENDBLK
  5
33A
330
338
100
AcDbEntity
  8
0
100
AcDbBlockEnd
  0
BLOCK
  5
347
330
346
100
AcDbEntity
  8
0
100
AcDbBlockBegin
  2
SW_CENTERMARKSYMBOL_39
 70
     0
 10
0.0
 20
0.0
 30
0.0
  3
SW_CENTERMARKSYMBOL_39
  1

  0
LINE
  5
349
330
346
100
AcDbEntity
  8
0
  6
Continuous
 62
     0
370
    18
100
AcDbLine
 10
0.0
 20
0.0
 30
0.0
 11
0.0
 21
2.5
 31
0.0
  0
LINE
  5
34A
330
346
100
AcDbEntity
  8
0
  6
Continuous
 62
     0
370
    18
100
AcDbLine
 10
0.0
 20
0.0
 30
0.0
 11
-2.5
 21
0.0
 31
0.0
  0
LINE
  5
34B
330
346
100
AcDbEntity
  8
0
  6
Continuous
 62
     0
370
    18
100
AcDbLine
 10
0.0
 20
0.0
 30
0.0
 11
0.0
 21
-2.5
 31
0.0
  0
LINE
  5
34C
330
346
100
AcDbEntity
  8
0
  6
Continuous
 62
     0
370
    18
100
AcDbLine
 10
0.0
 20
0.0
 30
0.0
 11
2.5
 21
0.0
 31
0.0
  0
LINE
  5
34D
330
346
100
AcDbEntity
  8
0
  6
Continuous
 62
     0
370
    18
100
AcDbLine
 10
0.0
 20
5.0
 30
0.0
 11
0.0
 21
13.5
 31
0.0
  0
LINE
  5
34E
330
346
100
AcDbEntity
  8
0
  6
Continuous
 62
     0
370
    18
100
AcDbLine
 10
-5.0
 20
0.0
 30
0.0
 11
-13.5
 21
0.0
 31
0.0
  0
LINE
  5
34F
330
346
100
AcDbEntity
  8
0
  6
Continuous
 62
     0
370
    18
100
AcDbLine
 10
0.0
 20
-5.0
 30
0.0
 11
0.0
 21
-15.8178098613
 31
0.0
  0
LINE
  5
350
330
346
100
AcDbEntity
  8
0
  6
Continuous
 62
     0
370
    18
100
AcDbLine
 10
5.0
 20
0.0
 30
0.0
 11
13.5
 21
0.0
 31
0.0
  0
ENDBLK
  5
348
330
346
100
AcDbEntity
  8
0
100
AcDbBlockEnd
  0
BLOCK
  5
355
330
354
100
AcDbEntity
  8
0
100
AcDbBlockBegin
  2
SW_CENTERMARKSYMBOL_40
 70
     0
 10
0.0
 20
0.0
 30
0.0
  3
SW_CENTERMARKSYMBOL_40
  1

  0
LINE
  5
357
330
354
100
AcDbEntity
  8
0
  6
Continuous
 62
     0
370
    18
100
AcDbLine
 10
0.0
 20
0.0
 30
0.0
 11
0.0
 21
2.5
 31
0.0
  0
LINE
  5
358
330
354
100
AcDbEntity
  8
0
  6
Continuous
 62
     0
370
    18
100
AcDbLine
 10
0.0
 20
0.0
 30
0.0
 11
-2.5
 21
0.0
 31
0.0
  0
LINE
  5
359
330
354
100
AcDbEntity
  8
0
  6
Continuous
 62
     0
370
    18
100
AcDbLine
 10
0.0
 20
0.0
 30
0.0
 11
0.0
 21
-2.5
 31
0.0
  0
LINE
  5
35A
330
354
100
AcDbEntity
  8
0
  6
Continuous
 62
     0
370
    18
100
AcDbLine
 10
0.0
 20
0.0
 30
0.0
 11
2.5
 21
0.0
 31
0.0
  0
LINE
  5
35B
330
354
100
AcDbEntity
  8
0
  6
Continuous
 62
     0
370
    18
100
AcDbLine
 10
0.0
 20
5.0
 30
0.0
 11
0.0
 21
13.5
 31
0.0
  0
LINE
  5
35C
330
354
100
AcDbEntity
  8
0
  6
Continuous
 62
     0
370
    18
100
AcDbLine
 10
-5.0
 20
0.0
 30
0.0
 11
-13.5
 21
0.0
 31
0.0
  0
LINE
  5
35D
330
354
100
AcDbEntity
  8
0
  6
Continuous
 62
     0
370
    18
100
AcDbLine
 10
0.0
 20
-5.0
 30
0.0
 11
0.0
 21
-13.5
 31
0.0
  0
LINE
  5
35E
330
354
100
AcDbEntity
  8
0
  6
Continuous
 62
     0
370
    18
100
AcDbLine
 10
5.0
 20
0.0
 30
0.0
 11
13.5
 21
0.0
 31
0.0
  0
ENDBLK
  5
356
330
354
100
AcDbEntity
  8
0
100
AcDbBlockEnd
  0
BLOCK
  5
363
330
362
100
AcDbEntity
  8
0
100
AcDbBlockBegin
  2
SW_CENTERMARKSYMBOL_41
 70
     0
 10
0.0
 20
0.0
 30
0.0
  3
SW_CENTERMARKSYMBOL_41
  1

  0
LINE
  5
365
330
362
100
AcDbEntity
  8
0
  6
Continuous
 62
     0
370
    18
100
AcDbLine
 10
0.0
 20
0.0
 30
0.0
 11
0.0
 21
2.5
 31
0.0
  0
LINE
  5
366
330
362
100
AcDbEntity
  8
0
  6
Continuous
 62
     0
370
    18
100
AcDbLine
 10
0.0
 20
0.0
 30
0.0
 11
-2.5
 21
0.0
 31
0.0
  0
LINE
  5
367
330
362
100
AcDbEntity
  8
0
  6
Continuous
 62
     0
370
    18
100
AcDbLine
 10
0.0
 20
0.0
 30
0.0
 11
0.0
 21
-2.5
 31
0.0
  0
LINE
  5
368
330
362
100
AcDbEntity
  8
0
  6
Continuous
 62
     0
370
    18
100
AcDbLine
 10
0.0
 20
0.0
 30
0.0
 11
2.5
 21
0.0
 31
0.0
  0
LINE
  5
369
330
362
100
AcDbEntity
  8
0
  6
Continuous
 62
     0
370
    18
100
AcDbLine
 10
0.0
 20
5.0
 30
0.0
 11
0.0
 21
13.5
 31
0.0
  0
LINE
  5
36A
330
362
100
AcDbEntity
  8
0
  6
Continuous
 62
     0
370
    18
100
AcDbLine
 10
-5.0
 20
0.0
 30
0.0
 11
-13.5
 21
0.0
 31
0.0
  0
LINE
  5
36B
330
362
100
AcDbEntity
  8
0
  6
Continuous
 62
     0
370
    18
100
AcDbLine
 10
0.0
 20
-5.0
 30
0.0
 11
0.0
 21
-13.5
 31
0.0
  0
LINE
  5
36C
330
362
100
AcDbEntity
  8
0
  6
Continuous
 62
     0
370
    18
100
AcDbLine
 10
5.0
 20
0.0
 30
0.0
 11
13.5
 21
0.0
 31
0.0
  0
ENDBLK
  5
364
330
362
100
AcDbEntity
  8
0
100
AcDbBlockEnd
  0
BLOCK
  5
371
330
370
100
AcDbEntity
  8
0
100
AcDbBlockBegin
  2
SW_CENTERMARKSYMBOL_42
 70
     0
 10
0.0
 20
0.0
 30
0.0
  3
SW_CENTERMARKSYMBOL_42
  1

  0
LINE
  5
373
330
370
100
AcDbEntity
  8
0
  6
Continuous
 62
     0
370
    18
100
AcDbLine
 10
0.0
 20
0.0
 30
0.0
 11
0.0
 21
2.5
 31
0.0
  0
LINE
  5
374
330
370
100
AcDbEntity
  8
0
  6
Continuous
 62
     0
370
    18
100
AcDbLine
 10
0.0
 20
0.0
 30
0.0
 11
-2.5
 21
0.0
 31
0.0
  0
LINE
  5
375
330
370
100
AcDbEntity
  8
0
  6
Continuous
 62
     0
370
    18
100
AcDbLine
 10
0.0
 20
0.0
 30
0.0
 11
0.0
 21
-2.5
 31
0.0
  0
LINE
  5
376
330
370
100
AcDbEntity
  8
0
  6
Continuous
 62
     0
370
    18
100
AcDbLine
 10
0.0
 20
0.0
 30
0.0
 11
2.5
 21
0.0
 31
0.0
  0
LINE
  5
377
330
370
100
AcDbEntity
  8
0
  6
Continuous
 62
     0
370
    18
100
AcDbLine
 10
0.0
 20
5.0
 30
0.0
 11
0.0
 21
22.5
 31
0.0
  0
LINE
  5
378
330
370
100
AcDbEntity
  8
0
  6
Continuous
 62
     0
370
    18
100
AcDbLine
 10
-5.0
 20
0.0
 30
0.0
 11
-22.5
 21
0.0
 31
0.0
  0
LINE
  5
379
330
370
100
AcDbEntity
  8
0
  6
Continuous
 62
     0
370
    18
100
AcDbLine
 10
0.0
 20
-5.0
 30
0.0
 11
0.0
 21
-22.5
 31
0.0
  0
LINE
  5
37A
330
370
100
AcDbEntity
  8
0
  6
Continuous
 62
     0
370
    18
100
AcDbLine
 10
5.0
 20
0.0
 30
0.0
 11
22.5
 21
0.0
 31
0.0
  0
ENDBLK
  5
372
330
370
100
AcDbEntity
  8
0
100
AcDbBlockEnd
  0
BLOCK
  5
37F
330
37E
100
AcDbEntity
  8
0
100
AcDbBlockBegin
  2
SW_CENTERMARKSYMBOL_43
 70
     0
 10
0.0
 20
0.0
 30
0.0
  3
SW_CENTERMARKSYMBOL_43
  1

  0
LINE
  5
381
330
37E
100
AcDbEntity
  8
0
  6
Continuous
 62
     0
370
    18
100
AcDbLine
 10
0.0
 20
0.0
 30
0.0
 11
0.0
 21
2.5
 31
0.0
  0
LINE
  5
382
330
37E
100
AcDbEntity
  8
0
  6
Continuous
 62
     0
370
    18
100
AcDbLine
 10
0.0
 20
0.0
 30
0.0
 11
-2.5
 21
0.0
 31
0.0
  0
LINE
  5
383
330
37E
100
AcDbEntity
  8
0
  6
Continuous
 62
     0
370
    18
100
AcDbLine
 10
0.0
 20
0.0
 30
0.0
 11
0.0
 21
-2.5
 31
0.0
  0
LINE
  5
384
330
37E
100
AcDbEntity
  8
0
  6
Continuous
 62
     0
370
    18
100
AcDbLine
 10
0.0
 20
0.0
 30
0.0
 11
2.5
 21
0.0
 31
0.0
  0
LINE
  5
385
330
37E
100
AcDbEntity
  8
0
  6
Continuous
 62
     0
370
    18
100
AcDbLine
 10
0.0
 20
5.0
 30
0.0
 11
0.0
 21
13.5
 31
0.0
  0
LINE
  5
386
330
37E
100
AcDbEntity
  8
0
  6
Continuous
 62
     0
370
    18
100
AcDbLine
 10
-5.0
 20
0.0
 30
0.0
 11
-13.5
 21
0.0
 31
0.0
  0
LINE
  5
387
330
37E
100
AcDbEntity
  8
0
  6
Continuous
 62
     0
370
    18
100
AcDbLine
 10
0.0
 20
-5.0
 30
0.0
 11
0.0
 21
-13.5
 31
0.0
  0
LINE
  5
388
330
37E
100
AcDbEntity
  8
0
  6
Continuous
 62
     0
370
    18
100
AcDbLine
 10
5.0
 20
0.0
 30
0.0
 11
13.5
 21
0.0
 31
0.0
  0
ENDBLK
  5
380
330
37E
100
AcDbEntity
  8
0
100
AcDbBlockEnd
  0
BLOCK
  5
38D
330
38C
100
AcDbEntity
  8
0
100
AcDbBlockBegin
  2
SW_CENTERMARKSYMBOL_44
 70
     0
 10
0.0
 20
0.0
 30
0.0
  3
SW_CENTERMARKSYMBOL_44
  1

  0
LINE
  5
38F
330
38C
100
AcDbEntity
  8
0
  6
Continuous
 62
     0
370
    18
100
AcDbLine
 10
0.0
 20
0.0
 30
0.0
 11
0.0
 21
2.5
 31
0.0
  0
LINE
  5
390
330
38C
100
AcDbEntity
  8
0
  6
Continuous
 62
     0
370
    18
100
AcDbLine
 10
0.0
 20
0.0
 30
0.0
 11
-2.5
 21
0.0
 31
0.0
  0
LINE
  5
391
330
38C
100
AcDbEntity
  8
0
  6
Continuous
 62
     0
370
    18
100
AcDbLine
 10
0.0
 20
0.0
 30
0.0
 11
0.0
 21
-2.5
 31
0.0
  0
LINE
  5
392
330
38C
100
AcDbEntity
  8
0
  6
Continuous
 62
     0
370
    18
100
AcDbLine
 10
0.0
 20
0.0
 30
0.0
 11
2.5
 21
0.0
 31
0.0
  0
LINE
  5
393
330
38C
100
AcDbEntity
  8
0
  6
Continuous
 62
     0
370
    18
100
AcDbLine
 10
0.0
 20
5.0
 30
0.0
 11
0.0
 21
22.5
 31
0.0
  0
LINE
  5
394
330
38C
100
AcDbEntity
  8
0
  6
Continuous
 62
     0
370
    18
100
AcDbLine
 10
-5.0
 20
0.0
 30
0.0
 11
-22.5
 21
0.0
 31
0.0
  0
LINE
  5
395
330
38C
100
AcDbEntity
  8
0
  6
Continuous
 62
     0
370
    18
100
AcDbLine
 10
0.0
 20
-5.0
 30
0.0
 11
0.0
 21
-22.5
 31
0.0
  0
LINE
  5
396
330
38C
100
AcDbEntity
  8
0
  6
Continuous
 62
     0
370
    18
100
AcDbLine
 10
5.0
 20
0.0
 30
0.0
 11
22.5
 21
0.0
 31
0.0
  0
ENDBLK
  5
38E
330
38C
100
AcDbEntity
  8
0
100
AcDbBlockEnd
  0
BLOCK
  5
39B
330
39A
100
AcDbEntity
  8
0
100
AcDbBlockBegin
  2
SW_CENTERMARKSYMBOL_45
 70
     0
 10
0.0
 20
0.0
 30
0.0
  3
SW_CENTERMARKSYMBOL_45
  1

  0
LINE
  5
39D
330
39A
100
AcDbEntity
  8
0
  6
Continuous
 62
     0
370
    18
100
AcDbLine
 10
0.0
 20
0.0
 30
0.0
 11
0.0
 21
2.5
 31
0.0
  0
LINE
  5
39E
330
39A
100
AcDbEntity
  8
0
  6
Continuous
 62
     0
370
    18
100
AcDbLine
 10
0.0
 20
0.0
 30
0.0
 11
-2.5
 21
0.0
 31
0.0
  0
LINE
  5
39F
330
39A
100
AcDbEntity
  8
0
  6
Continuous
 62
     0
370
    18
100
AcDbLine
 10
0.0
 20
0.0
 30
0.0
 11
0.0
 21
-2.5
 31
0.0
  0
LINE
  5
3A0
330
39A
100
AcDbEntity
  8
0
  6
Continuous
 62
     0
370
    18
100
AcDbLine
 10
0.0
 20
0.0
 30
0.0
 11
2.5
 21
0.0
 31
0.0
  0
LINE
  5
3A1
330
39A
100
AcDbEntity
  8
0
  6
Continuous
 62
     0
370
    18
100
AcDbLine
 10
0.0
 20
5.0
 30
0.0
 11
0.0
 21
22.5
 31
0.0
  0
LINE
  5
3A2
330
39A
100
AcDbEntity
  8
0
  6
Continuous
 62
     0
370
    18
100
AcDbLine
 10
-5.0
 20
0.0
 30
0.0
 11
-22.5
 21
0.0
 31
0.0
  0
LINE
  5
3A3
330
39A
100
AcDbEntity
  8
0
  6
Continuous
 62
     0
370
    18
100
AcDbLine
 10
0.0
 20
-5.0
 30
0.0
 11
0.0
 21
-22.5
 31
0.0
  0
LINE
  5
3A4
330
39A
100
AcDbEntity
  8
0
  6
Continuous
 62
     0
370
    18
100
AcDbLine
 10
5.0
 20
0.0
 30
0.0
 11
22.5
 21
0.0
 31
0.0
  0
ENDBLK
  5
39C
330
39A
100
AcDbEntity
  8
0
100
AcDbBlockEnd
  0
BLOCK
  5
3A9
330
3A8
100
AcDbEntity
  8
0
100
AcDbBlockBegin
  2
SW_CENTERMARKSYMBOL_46
 70
     0
 10
0.0
 20
0.0
 30
0.0
  3
SW_CENTERMARKSYMBOL_46
  1

  0
LINE
  5
3AB
330
3A8
100
AcDbEntity
  8
0
  6
Continuous
 62
     0
370
    18
100
AcDbLine
 10
0.0
 20
0.0
 30
0.0
 11
0.0
 21
2.5
 31
0.0
  0
LINE
  5
3AC
330
3A8
100
AcDbEntity
  8
0
  6
Continuous
 62
     0
370
    18
100
AcDbLine
 10
0.0
 20
0.0
 30
0.0
 11
-2.5
 21
0.0
 31
0.0
  0
LINE
  5
3AD
330
3A8
100
AcDbEntity
  8
0
  6
Continuous
 62
     0
370
    18
100
AcDbLine
 10
0.0
 20
0.0
 30
0.0
 11
0.0
 21
-2.5
 31
0.0
  0
LINE
  5
3AE
330
3A8
100
AcDbEntity
  8
0
  6
Continuous
 62
     0
370
    18
100
AcDbLine
 10
0.0
 20
0.0
 30
0.0
 11
2.5
 21
0.0
 31
0.0
  0
LINE
  5
3AF
330
3A8
100
AcDbEntity
  8
0
  6
Continuous
 62
     0
370
    18
100
AcDbLine
 10
0.0
 20
5.0
 30
0.0
 11
0.0
 21
22.5
 31
0.0
  0
LINE
  5
3B0
330
3A8
100
AcDbEntity
  8
0
  6
Continuous
 62
     0
370
    18
100
AcDbLine
 10
-5.0
 20
0.0
 30
0.0
 11
-22.5
 21
0.0
 31
0.0
  0
LINE
  5
3B1
330
3A8
100
AcDbEntity
  8
0
  6
Continuous
 62
     0
370
    18
100
AcDbLine
 10
0.0
 20
-5.0
 30
0.0
 11
0.0
 21
-22.5
 31
0.0
  0
LINE
  5
3B2
330
3A8
100
AcDbEntity
  8
0
  6
Continuous
 62
     0
370
    18
100
AcDbLine
 10
5.0
 20
0.0
 30
0.0
 11
22.5
 21
0.0
 31
0.0
  0
ENDBLK
  5
3AA
330
3A8
100
AcDbEntity
  8
0
100
AcDbBlockEnd
  0
BLOCK
  5
3BE
330
3BD
100
AcDbEntity
  8
0
100
AcDbBlockBegin
  2
SW_CENTERMARKSYMBOL_47
 70
     0
 10
0.0
 20
0.0
 30
0.0
  3
SW_CENTERMARKSYMBOL_47
  1

  0
LINE
  5
3C0
330
3BD
100
AcDbEntity
  8
0
  6
Continuous
 62
     0
370
    18
100
AcDbLine
 10
0.0
 20
0.0
 30
0.0
 11
0.0
 21
2.5
 31
0.0
  0
LINE
  5
3C1
330
3BD
100
AcDbEntity
  8
0
  6
Continuous
 62
     0
370
    18
100
AcDbLine
 10
0.0
 20
0.0
 30
0.0
 11
-2.5
 21
0.0
 31
0.0
  0
LINE
  5
3C2
330
3BD
100
AcDbEntity
  8
0
  6
Continuous
 62
     0
370
    18
100
AcDbLine
 10
0.0
 20
0.0
 30
0.0
 11
0.0
 21
-2.5
 31
0.0
  0
LINE
  5
3C3
330
3BD
100
AcDbEntity
  8
0
  6
Continuous
 62
     0
370
    18
100
AcDbLine
 10
0.0
 20
0.0
 30
0.0
 11
2.5
 21
0.0
 31
0.0
  0
LINE
  5
3C4
330
3BD
100
AcDbEntity
  8
0
  6
Continuous
 62
     0
370
    18
100
AcDbLine
 10
0.0
 20
5.0
 30
0.0
 11
0.0
 21
6.5
 31
0.0
  0
LINE
  5
3C5
330
3BD
100
AcDbEntity
  8
0
  6
Continuous
 62
     0
370
    18
100
AcDbLine
 10
-5.0
 20
0.0
 30
0.0
 11
-6.5
 21
0.0
 31
0.0
  0
LINE
  5
3C6
330
3BD
100
AcDbEntity
  8
0
  6
Continuous
 62
     0
370
    18
100
AcDbLine
 10
0.0
 20
-5.0
 30
0.0
 11
0.0
 21
-6.5
 31
0.0
  0
LINE
  5
3C7
330
3BD
100
AcDbEntity
  8
0
  6
Continuous
 62
     0
370
    18
100
AcDbLine
 10
5.0
 20
0.0
 30
0.0
 11
6.5
 21
0.0
 31
0.0
  0
ENDBLK
  5
3BF
330
3BD
100
AcDbEntity
  8
0
100
AcDbBlockEnd
  0
BLOCK
  5
3D3
330
3D2
100
AcDbEntity
  8
0
100
AcDbBlockBegin
  2
SW_CENTERMARKSYMBOL_48
 70
     0
 10
0.0
 20
0.0
 30
0.0
  3
SW_CENTERMARKSYMBOL_48
  1

  0
LINE
  5
3D5
330
3D2
100
AcDbEntity
  8
0
  6
Continuous
 62
     0
370
    18
100
AcDbLine
 10
0.0
 20
0.0
 30
0.0
 11
0.0
 21
2.5
 31
0.0
  0
LINE
  5
3D6
330
3D2
100
AcDbEntity
  8
0
  6
Continuous
 62
     0
370
    18
100
AcDbLine
 10
0.0
 20
0.0
 30
0.0
 11
-2.5
 21
0.0
 31
0.0
  0
LINE
  5
3D7
330
3D2
100
AcDbEntity
  8
0
  6
Continuous
 62
     0
370
    18
100
AcDbLine
 10
0.0
 20
0.0
 30
0.0
 11
0.0
 21
-2.5
 31
0.0
  0
LINE
  5
3D8
330
3D2
100
AcDbEntity
  8
0
  6
Continuous
 62
     0
370
    18
100
AcDbLine
 10
0.0
 20
0.0
 30
0.0
 11
2.5
 21
0.0
 31
0.0
  0
LINE
  5
3D9
330
3D2
100
AcDbEntity
  8
0
  6
Continuous
 62
     0
370
    18
100
AcDbLine
 10
0.0
 20
5.0
 30
0.0
 11
0.0
 21
6.5
 31
0.0
  0
LINE
  5
3DA
330
3D2
100
AcDbEntity
  8
0
  6
Continuous
 62
     0
370
    18
100
AcDbLine
 10
-5.0
 20
0.0
 30
0.0
 11
-6.5
 21
0.0
 31
0.0
  0
LINE
  5
3DB
330
3D2
100
AcDbEntity
  8
0
  6
Continuous
 62
     0
370
    18
100
AcDbLine
 10
0.0
 20
-5.0
 30
0.0
 11
0.0
 21
-6.5
 31
0.0
  0
LINE
  5
3DC
330
3D2
100
AcDbEntity
  8
0
  6
Continuous
 62
     0
370
    18
100
AcDbLine
 10
5.0
 20
0.0
 30
0.0
 11
6.5
 21
0.0
 31
0.0
  0
ENDBLK
  5
3D4
330
3D2
100
AcDbEntity
  8
0
100
AcDbBlockEnd
  0
BLOCK
  5
3E8
330
3E7
100
AcDbEntity
  8
0
100
AcDbBlockBegin
  2
SW_CENTERMARKSYMBOL_49
 70
     0
 10
0.0
 20
0.0
 30
0.0
  3
SW_CENTERMARKSYMBOL_49
  1

  0
LINE
  5
3EA
330
3E7
100
AcDbEntity
  8
0
  6
Continuous
 62
     0
370
    18
100
AcDbLine
 10
0.0
 20
0.0
 30
0.0
 11
0.0
 21
2.5
 31
0.0
  0
LINE
  5
3EB
330
3E7
100
AcDbEntity
  8
0
  6
Continuous
 62
     0
370
    18
100
AcDbLine
 10
0.0
 20
0.0
 30
0.0
 11
-2.5
 21
0.0
 31
0.0
  0
LINE
  5
3EC
330
3E7
100
AcDbEntity
  8
0
  6
Continuous
 62
     0
370
    18
100
AcDbLine
 10
0.0
 20
0.0
 30
0.0
 11
0.0
 21
-2.5
 31
0.0
  0
LINE
  5
3ED
330
3E7
100
AcDbEntity
  8
0
  6
Continuous
 62
     0
370
    18
100
AcDbLine
 10
0.0
 20
0.0
 30
0.0
 11
2.5
 21
0.0
 31
0.0
  0
LINE
  5
3EE
330
3E7
100
AcDbEntity
  8
0
  6
Continuous
 62
     0
370
    18
100
AcDbLine
 10
0.0
 20
5.0
 30
0.0
 11
0.0
 21
6.5
 31
0.0
  0
LINE
  5
3EF
330
3E7
100
AcDbEntity
  8
0
  6
Continuous
 62
     0
370
    18
100
AcDbLine
 10
-5.0
 20
0.0
 30
0.0
 11
-6.5
 21
0.0
 31
0.0
  0
LINE
  5
3F0
330
3E7
100
AcDbEntity
  8
0
  6
Continuous
 62
     0
370
    18
100
AcDbLine
 10
0.0
 20
-5.0
 30
0.0
 11
0.0
 21
-6.5
 31
0.0
  0
LINE
  5
3F1
330
3E7
100
AcDbEntity
  8
0
  6
Continuous
 62
     0
370
    18
100
AcDbLine
 10
5.0
 20
0.0
 30
0.0
 11
6.5
 21
0.0
 31
0.0
  0
ENDBLK
  5
3E9
330
3E7
100
AcDbEntity
  8
0
100
AcDbBlockEnd
  0
ENDSEC
  0
SECTION
  2
ENTITIES
  0
VIEWPORT
  5
148
330
23
100
AcDbEntity
 67
     1
  8
0
100
AcDbViewport
 10
192.5
 20
192.5
 30
0.0
 40
407.33
 41
407.33
 68
     1
 69
     1
 12
192.5
 22
192.5
 13
0.0
 23
0.0
 14
10.0
 24
10.0
 15
10.0
 25
10.0
 16
0.0
 26
0.0
 36
1.0
 17
0.0
 27
0.0
 37
0.0
 42
50.0
 43
0.0
 44
0.0
 45
407.33
 50
0.0
 51
0.0
 72
   100
 90
   557152
  1

281
     0
 71
     1
 74
     0
110
0.0
120
0.0
130
0.0
111
1.0
121
0.0
131
0.0
112
0.0
122
1.0
132
0.0
 79
     0
146
0.0
  0
LINE
  5
14A
330
23
100
AcDbEntity
 67
     1
  8
0
  6
Continuous
 62
     1
370
    18
100
AcDbLine
 10
38.4029273262
 20
227.4354352292
 30
0.0
 11
8.4029273262
 21
227.4354352292
 31
0.0
  0
LINE
  5
14B
330
23
100
AcDbEntity
 67
     1
  8
0
  6
Continuous
 62
     1
370
    18
100
AcDbLine
 10
8.4029273262
 20
227.4354352292
 30
0.0
 11
8.4029273262
 21
224.4354352292
 31
0.0
  0
LINE
  5
14C
330
23
100
AcDbEntity
 67
     1
  8
0
  6
Continuous
 62
     1
370
    18
100
AcDbLine
 10
8.4029273262
 20
224.4354352292
 30
0.0
 11
38.4029273262
 21
224.4354352292
 31
0.0
  0
LINE
  5
14D
330
23
100
AcDbEntity
 67
     1
  8
0
  6
Continuous
 62
     1
370
    18
100
AcDbLine
 10
38.4029273262
 20
224.4354352292
 30
0.0
 11
38.4029273262
 21
227.4354352292
 31
0.0
  0
LINE
  5
14E
330
23
100
AcDbEntity
 67
     1
  8
0
  6
Continuous
 62
     1
370
    18
100
AcDbLine
 10
0.4029273262
 20
220.9354352292
 30
0.0
 11
95.4029273262
 21
220.9354352292
 31
0.0
  0
LINE
  5
14F
330
23
100
AcDbEntity
 67
     1
  8
0
  6
Continuous
 62
     1
370
    18
100
AcDbLine
 10
0.4029273262
 20
230.9354352292
 30
0.0
 11
0.4029273262
 21
220.9354352292
 31
0.0
  0
LINE
  5
150
330
23
100
AcDbEntity
 67
     1
  8
0
  6
Continuous
 62
     1
370
    18
100
AcDbLine
 10
95.4029273262
 20
230.9354352292
 30
0.0
 11
0.4029273262
 21
230.9354352292
 31
0.0
  0
LINE
  5
151
330
23
100
AcDbEntity
 67
     1
  8
0
  6
Continuous
 62
     1
370
    18
100
AcDbLine
 10
95.4029273262
 20
220.9354352292
 30
0.0
 11
95.4029273262
 21
230.9354352292
 31
0.0
  0
CIRCLE
  5
152
330
23
100
AcDbEntity
 67
     1
  8
0
  6
Continuous
 62
     1
370
    18
100
AcDbCircle
 10
47.9029273262
 20
225.9354352292
 30
0.0
 40
4.000000000000028
  0
INSERT
  5
15E
330
23
100
AcDbEntity
 67
     1
  8
0
  6
Continuous
 62
     1
370
    18
100
AcDbBlockReference
  2
SW_CENTERMARKSYMBOL_9
 10
47.9029273262
 20
225.9354352292
 30
0.0
  0
CIRCLE
  5
15F
330
23
100
AcDbEntity
 67
     1
  8
0
  6
Continuous
 62
     1
370
    18
100
AcDbCircle
 10
213.1372912508
 20
255.6946794003
 30
0.0
 40
1.174999999999983
  0
CIRCLE
  5
160
330
23
100
AcDbEntity
 67
     1
  8
0
  6
Continuous
 62
     1
370
    18
100
AcDbCircle
 10
203.6372912508
 20
255.6946794003
 30
0.0
 40
1.174999999999983
  0
LINE
  5
161
330
23
100
AcDbEntity
 67
     1
  8
0
  6
Continuous
 62
     1
370
    18
100
AcDbLine
 10
213.9872912508
 20
265.1946794003
 30
0.0
 11
203.9872912508
 21
265.1946794003
 31
0.0
  0
LINE
  5
162
330
23
100
AcDbEntity
 67
     1
  8
0
  6
Continuous
 62
     1
370
    18
100
AcDbLine
 10
213.9872912508
 20
262.1946794003
 30
0.0
 11
213.9872912508
 21
265.1946794003
 31
0.0
  0
LINE
  5
163
330
23
100
AcDbEntity
 67
     1
  8
0
  6
Continuous
 62
     1
370
    18
100
AcDbLine
 10
219.4872912508
 20
262.1946794003
 30
0.0
 11
213.9872912508
 21
262.1946794003
 31
0.0
  0
LINE
  5
164
330
23
100
AcDbEntity
 67
     1
  8
0
  6
Continuous
 62
     1
370
    18
100
AcDbLine
 10
219.4872912508
 20
253.1946794003
 30
0.0
 11
219.4872912508
 21
262.1946794003
 31
0.0
  0
LINE
  5
165
330
23
100
AcDbEntity
 67
     1
  8
0
  6
Continuous
 62
     1
370
    18
100
AcDbLine
 10
198.4872912508
 20
253.1946794003
 30
0.0
 11
219.4872912508
 21
253.1946794003
 31
0.0
  0
LINE
  5
166
330
23
100
AcDbEntity
 67
     1
  8
0
  6
Continuous
 62
     1
370
    18
100
AcDbLine
 10
198.4872912508
 20
262.1946794003
 30
0.0
 11
198.4872912508
 21
253.1946794003
 31
0.0
  0
LINE
  5
167
330
23
100
AcDbEntity
 67
     1
  8
0
  6
Continuous
 62
     1
370
    18
100
AcDbLine
 10
203.9872912508
 20
262.1946794003
 30
0.0
 11
198.4872912508
 21
262.1946794003
 31
0.0
  0
LINE
  5
168
330
23
100
AcDbEntity
 67
     1
  8
0
  6
Continuous
 62
     1
370
    18
100
AcDbLine
 10
203.9872912508
 20
265.1946794003
 30
0.0
 11
203.9872912508
 21
262.1946794003
 31
0.0
  0
INSERT
  5
174
330
23
100
AcDbEntity
 67
     1
  8
0
  6
Continuous
 62
     1
370
    18
100
AcDbBlockReference
  2
SW_CENTERMARKSYMBOL_10
 10
203.6372912508
 20
255.6946794003
 30
0.0
  0
INSERT
  5
180
330
23
100
AcDbEntity
 67
     1
  8
0
  6
Continuous
 62
     1
370
    18
100
AcDbBlockReference
  2
SW_CENTERMARKSYMBOL_11
 10
213.1372912508
 20
255.6946794003
 30
0.0
  0
CIRCLE
  5
181
330
23
100
AcDbEntity
 67
     1
  8
0
  6
Continuous
 62
     1
370
    18
100
AcDbCircle
 10
212.920402364
 20
273.861757834
 30
0.0
 40
1.174999999999955
  0
CIRCLE
  5
182
330
23
100
AcDbEntity
 67
     1
  8
0
  6
Continuous
 62
     1
370
    18
100
AcDbCircle
 10
203.420402364
 20
273.861757834
 30
0.0
 40
1.174999999999955
  0
LINE
  5
183
330
23
100
AcDbEntity
 67
     1
  8
0
  6
Continuous
 62
     1
370
    18
100
AcDbLine
 10
213.770402364
 20
283.361757834
 30
0.0
 11
203.770402364
 21
283.361757834
 31
0.0
  0
LINE
  5
184
330
23
100
AcDbEntity
 67
     1
  8
0
  6
Continuous
 62
     1
370
    18
100
AcDbLine
 10
213.770402364
 20
280.361757834
 30
0.0
 11
213.770402364
 21
283.361757834
 31
0.0
  0
LINE
  5
185
330
23
100
AcDbEntity
 67
     1
  8
0
  6
Continuous
 62
     1
370
    18
100
AcDbLine
 10
219.270402364
 20
280.361757834
 30
0.0
 11
213.770402364
 21
280.361757834
 31
0.0
  0
LINE
  5
186
330
23
100
AcDbEntity
 67
     1
  8
0
  6
Continuous
 62
     1
370
    18
100
AcDbLine
 10
219.270402364
 20
271.361757834
 30
0.0
 11
219.270402364
 21
280.361757834
 31
0.0
  0
LINE
  5
187
330
23
100
AcDbEntity
 67
     1
  8
0
  6
Continuous
 62
     1
370
    18
100
AcDbLine
 10
198.270402364
 20
271.361757834
 30
0.0
 11
219.270402364
 21
271.361757834
 31
0.0
  0
LINE
  5
188
330
23
100
AcDbEntity
 67
     1
  8
0
  6
Continuous
 62
     1
370
    18
100
AcDbLine
 10
198.270402364
 20
280.361757834
 30
0.0
 11
198.270402364
 21
271.361757834
 31
0.0
  0
LINE
  5
189
330
23
100
AcDbEntity
 67
     1
  8
0
  6
Continuous
 62
     1
370
    18
100
AcDbLine
 10
203.770402364
 20
280.361757834
 30
0.0
 11
198.270402364
 21
280.361757834
 31
0.0
  0
LINE
  5
18A
330
23
100
AcDbEntity
 67
     1
  8
0
  6
Continuous
 62
     1
370
    18
100
AcDbLine
 10
203.770402364
 20
283.361757834
 30
0.0
 11
203.770402364
 21
280.361757834
 31
0.0
  0
INSERT
  5
196
330
23
100
AcDbEntity
 67
     1
  8
0
  6
Continuous
 62
     1
370
    18
100
AcDbBlockReference
  2
SW_CENTERMARKSYMBOL_12
 10
203.420402364
 20
273.861757834
 30
0.0
  0
INSERT
  5
1A2
330
23
100
AcDbEntity
 67
     1
  8
0
  6
Continuous
 62
     1
370
    18
100
AcDbBlockReference
  2
SW_CENTERMARKSYMBOL_13
 10
212.920402364
 20
273.861757834
 30
0.0
  0
ARC
  5
1A3
330
23
100
AcDbEntity
 67
     1
  8
0
  6
Continuous
 62
     1
370
    18
100
AcDbCircle
 10
261.2926174796
 20
248.1037588683
 30
0.0
 40
3.000000000000028
100
AcDbArc
 50
90.0
 51
180.0
  0
LINE
  5
1A4
330
23
100
AcDbEntity
 67
     1
  8
0
  6
Continuous
 62
     1
370
    18
100
AcDbLine
 10
258.2926174796
 20
248.1037588683
 30
0.0
 11
258.2926174796
 21
244.8428893031
 31
0.0
  0
ARC
  5
1A5
330
23
100
AcDbEntity
 67
     1
  8
0
  6
Continuous
 62
     1
370
    18
100
AcDbCircle
 10
256.2926174796
 20
244.8428893031
 30
0.0
 40
2.0
100
AcDbArc
 50
270.0
 51
0.0
  0
LINE
  5
1A6
330
23
100
AcDbEntity
 67
     1
  8
0
  6
Continuous
 62
     1
370
    18
100
AcDbLine
 10
256.2926174796
 20
242.8428893031
 30
0.0
 11
235.8076676468
 21
242.8428893031
 31
0.0
  0
LINE
  5
1A7
330
23
100
AcDbEntity
 67
     1
  8
0
  6
Continuous
 62
     1
370
    18
100
AcDbLine
 10
235.8076676468
 20
242.8428893031
 30
0.0
 11
235.8076676468
 21
239.8428893031
 31
0.0
  0
LINE
  5
1A8
330
23
100
AcDbEntity
 67
     1
  8
0
  6
Continuous
 62
     1
370
    18
100
AcDbLine
 10
235.8076676468
 20
239.8428893031
 30
0.0
 11
263.8076676468
 21
239.8428893031
 31
0.0
  0
ARC
  5
1A9
330
23
100
AcDbEntity
 67
     1
  8
0
  6
Continuous
 62
     1
370
    18
100
AcDbCircle
 10
263.8076676468
 20
241.8428893031
 30
0.0
 40
2.000000000000028
100
AcDbArc
 50
270.0
 51
0.0
  0
LINE
  5
1AA
330
23
100
AcDbEntity
 67
     1
  8
0
  6
Continuous
 62
     1
370
    18
100
AcDbLine
 10
265.8076676468
 20
241.8428893031
 30
0.0
 11
265.8076676468
 21
248.1037588683
 31
0.0
  0
ARC
  5
1AB
330
23
100
AcDbEntity
 67
     1
  8
0
  6
Continuous
 62
     1
370
    18
100
AcDbCircle
 10
262.8076676468
 20
248.1037588683
 30
0.0
 40
3.000000000000028
100
AcDbArc
 50
0.0
 51
90.0
  0
LINE
  5
1AC
330
23
100
AcDbEntity
 67
     1
  8
0
  6
Continuous
 62
     1
370
    18
100
AcDbLine
 10
262.8076676468
 20
251.1037588683
 30
0.0
 11
261.2926174796
 21
251.1037588683
 31
0.0
  0
LINE
  5
1AD
330
23
100
AcDbEntity
 67
     1
  8
0
  6
Continuous
 62
     1
370
    18
100
AcDbLine
 10
271.3544903893
 20
236.2341936509
 30
0.0
 11
271.3544903893
 21
246.2341936509
 31
0.0
  0
LINE
  5
1AE
330
23
100
AcDbEntity
 67
     1
  8
0
  6
Continuous
 62
     1
370
    18
100
AcDbLine
 10
265.8076676468
 20
236.2341936509
 30
0.0
 11
271.3544903893
 21
236.2341936509
 31
0.0
  0
LINE
  5
1AF
330
23
100
AcDbEntity
 67
     1
  8
0
  6
Continuous
 62
     1
370
    18
100
AcDbLine
 10
265.8076676468
 20
233.2341936509
 30
0.0
 11
265.8076676468
 21
236.2341936509
 31
0.0
  0
LINE
  5
1B0
330
23
100
AcDbEntity
 67
     1
  8
0
  6
Continuous
 62
     1
370
    18
100
AcDbLine
 10
235.8076676468
 20
233.2341936509
 30
0.0
 11
265.8076676468
 21
233.2341936509
 31
0.0
  0
LINE
  5
1B1
330
23
100
AcDbEntity
 67
     1
  8
0
  6
Continuous
 62
     1
370
    18
100
AcDbLine
 10
235.8076676468
 20
236.2341936509
 30
0.0
 11
235.8076676468
 21
233.2341936509
 31
0.0
  0
LINE
  5
1B2
330
23
100
AcDbEntity
 67
     1
  8
0
  6
Continuous
 62
     1
370
    18
100
AcDbLine
 10
231.3544903893
 20
236.2341936509
 30
0.0
 11
235.8076676468
 21
236.2341936509
 31
0.0
  0
LINE
  5
1B3
330
23
100
AcDbEntity
 67
     1
  8
0
  6
Continuous
 62
     1
370
    18
100
AcDbLine
 10
231.3544903893
 20
241.2341936509
 30
0.0
 11
231.3544903893
 21
236.2341936509
 31
0.0
  0
ARC
  5
1B4
330
23
100
AcDbEntity
 67
     1
  8
0
  6
Continuous
 62
     1
370
    18
100
AcDbCircle
 10
236.3544903893
 20
241.2341936509
 30
0.0
 40
5.0
100
AcDbArc
 50
90.0
 51
180.0
  0
LINE
  5
1B5
330
23
100
AcDbEntity
 67
     1
  8
0
  6
Continuous
 62
     1
370
    18
100
AcDbLine
 10
248.7053797486
 20
246.2341936509
 30
0.0
 11
236.3544903893
 21
246.2341936509
 31
0.0
  0
ARC
  5
1B6
330
23
100
AcDbEntity
 67
     1
  8
0
  6
Continuous
 62
     1
370
    18
100
AcDbCircle
 10
248.7053797486
 20
249.2341936509
 30
0.0
 40
3.0
100
AcDbArc
 50
270.0
 51
346.6576362029
  0
ARC
  5
1B7
330
23
100
AcDbEntity
 67
     1
  8
0
  6
Continuous
 62
     1
370
    18
100
AcDbCircle
 10
261.3544903893
 20
246.2341936509
 30
0.0
 40
10.00000000000004
100
AcDbArc
 50
0.0
 51
166.6576362029
  0
CIRCLE
  5
1B8
330
23
100
AcDbEntity
 67
     1
  8
0
  6
Continuous
 62
     1
370
    18
100
AcDbCircle
 10
295.0119006582
 20
235.4232559999
 30
0.0
 40
1.749999999999943
  0
CIRCLE
  5
1B9
330
23
100
AcDbEntity
 67
     1
  8
0
  6
Continuous
 62
     1
370
    18
100
AcDbCircle
 10
295.0119006582
 20
252.9232559999
 30
0.0
 40
1.749999999999943
  0
LINE
  5
1BA
330
23
100
AcDbEntity
 67
     1
  8
0
  6
Continuous
 62
     1
370
    18
100
AcDbLine
 10
290.0119006582
 20
232.1732559999
 30
0.0
 11
300.0119006582
 21
232.1732559999
 31
0.0
  0
LINE
  5
1BB
330
23
100
AcDbEntity
 67
     1
  8
0
  6
Continuous
 62
     1
370
    18
100
AcDbLine
 10
290.0119006582
 20
256.1732559999
 30
0.0
 11
290.0119006582
 21
232.1732559999
 31
0.0
  0
LINE
  5
1BC
330
23
100
AcDbEntity
 67
     1
  8
0
  6
Continuous
 62
     1
370
    18
100
AcDbLine
 10
300.0119006582
 20
256.1732559999
 30
0.0
 11
290.0119006582
 21
256.1732559999
 31
0.0
  0
LINE
  5
1BD
330
23
100
AcDbEntity
 67
     1
  8
0
  6
Continuous
 62
     1
370
    18
100
AcDbLine
 10
300.0119006582
 20
232.1732559999
 30
0.0
 11
300.0119006582
 21
256.1732559999
 31
0.0
  0
INSERT
  5
1C9
330
23
100
AcDbEntity
 67
     1
  8
0
  6
Continuous
 62
     1
370
    18
100
AcDbBlockReference
  2
SW_CENTERMARKSYMBOL_14
 10
295.0119006582
 20
252.9232559999
 30
0.0
  0
INSERT
  5
1D5
330
23
100
AcDbEntity
 67
     1
  8
0
  6
Continuous
 62
     1
370
    18
100
AcDbBlockReference
  2
SW_CENTERMARKSYMBOL_15
 10
295.0119006582
 20
235.4232559999
 30
0.0
  0
CIRCLE
  5
1D6
330
23
100
AcDbEntity
 67
     1
  8
0
  6
Continuous
 62
     1
370
    18
100
AcDbCircle
 10
332.3994740255
 20
235.8035478495
 30
0.0
 40
1.749999999999943
  0
CIRCLE
  5
1D7
330
23
100
AcDbEntity
 67
     1
  8
0
  6
Continuous
 62
     1
370
    18
100
AcDbCircle
 10
332.3994740255
 20
253.3035478495
 30
0.0
 40
1.749999999999943
  0
LINE
  5
1D8
330
23
100
AcDbEntity
 67
     1
  8
0
  6
Continuous
 62
     1
370
    18
100
AcDbLine
 10
327.3994740255
 20
232.5535478495
 30
0.0
 11
337.3994740255
 21
232.5535478495
 31
0.0
  0
LINE
  5
1D9
330
23
100
AcDbEntity
 67
     1
  8
0
  6
Continuous
 62
     1
370
    18
100
AcDbLine
 10
327.3994740255
 20
256.5535478495
 30
0.0
 11
327.3994740255
 21
232.5535478495
 31
0.0
  0
LINE
  5
1DA
330
23
100
AcDbEntity
 67
     1
  8
0
  6
Continuous
 62
     1
370
    18
100
AcDbLine
 10
337.3994740255
 20
256.5535478495
 30
0.0
 11
327.3994740255
 21
256.5535478495
 31
0.0
  0
LINE
  5
1DB
330
23
100
AcDbEntity
 67
     1
  8
0
  6
Continuous
 62
     1
370
    18
100
AcDbLine
 10
337.3994740255
 20
232.5535478495
 30
0.0
 11
337.3994740255
 21
256.5535478495
 31
0.0
  0
INSERT
  5
1E7
330
23
100
AcDbEntity
 67
     1
  8
0
  6
Continuous
 62
     1
370
    18
100
AcDbBlockReference
  2
SW_CENTERMARKSYMBOL_16
 10
332.3994740255
 20
253.3035478495
 30
0.0
  0
INSERT
  5
1F3
330
23
100
AcDbEntity
 67
     1
  8
0
  6
Continuous
 62
     1
370
    18
100
AcDbBlockReference
  2
SW_CENTERMARKSYMBOL_17
 10
332.3994740255
 20
235.8035478495
 30
0.0
  0
CIRCLE
  5
1F4
330
23
100
AcDbEntity
 67
     1
  8
0
  6
Continuous
 62
     1
370
    18
100
AcDbCircle
 10
345.4522029906
 20
235.4854028294
 30
0.0
 40
1.749999999999943
  0
CIRCLE
  5
1F5
330
23
100
AcDbEntity
 67
     1
  8
0
  6
Continuous
 62
     1
370
    18
100
AcDbCircle
 10
345.4522029906
 20
252.9854028294
 30
0.0
 40
1.749999999999943
  0
LINE
  5
1F6
330
23
100
AcDbEntity
 67
     1
  8
0
  6
Continuous
 62
     1
370
    18
100
AcDbLine
 10
340.4522029906
 20
232.2354028294
 30
0.0
 11
350.4522029906
 21
232.2354028294
 31
0.0
  0
LINE
  5
1F7
330
23
100
AcDbEntity
 67
     1
  8
0
  6
Continuous
 62
     1
370
    18
100
AcDbLine
 10
340.4522029906
 20
256.2354028294
 30
0.0
 11
340.4522029906
 21
232.2354028294
 31
0.0
  0
LINE
  5
1F8
330
23
100
AcDbEntity
 67
     1
  8
0
  6
Continuous
 62
     1
370
    18
100
AcDbLine
 10
350.4522029906
 20
256.2354028294
 30
0.0
 11
340.4522029906
 21
256.2354028294
 31
0.0
  0
LINE
  5
1F9
330
23
100
AcDbEntity
 67
     1
  8
0
  6
Continuous
 62
     1
370
    18
100
AcDbLine
 10
350.4522029906
 20
232.2354028294
 30
0.0
 11
350.4522029906
 21
256.2354028294
 31
0.0
  0
INSERT
  5
205
330
23
100
AcDbEntity
 67
     1
  8
0
  6
Continuous
 62
     1
370
    18
100
AcDbBlockReference
  2
SW_CENTERMARKSYMBOL_18
 10
345.4522029906
 20
252.9854028294
 30
0.0
  0
INSERT
  5
211
330
23
100
AcDbEntity
 67
     1
  8
0
  6
Continuous
 62
     1
370
    18
100
AcDbBlockReference
  2
SW_CENTERMARKSYMBOL_19
 10
345.4522029906
 20
235.4854028294
 30
0.0
  0
CIRCLE
  5
212
330
23
100
AcDbEntity
 67
     1
  8
0
  6
Continuous
 62
     1
370
    18
100
AcDbCircle
 10
320.5025618567
 20
235.9927954778
 30
0.0
 40
1.749999999999943
  0
CIRCLE
  5
213
330
23
100
AcDbEntity
 67
     1
  8
0
  6
Continuous
 62
     1
370
    18
100
AcDbCircle
 10
320.5025618567
 20
253.4927954778
 30
0.0
 40
1.749999999999943
  0
LINE
  5
214
330
23
100
AcDbEntity
 67
     1
  8
0
  6
Continuous
 62
     1
370
    18
100
AcDbLine
 10
315.5025618567
 20
232.7427954778
 30
0.0
 11
325.5025618567
 21
232.7427954778
 31
0.0
  0
LINE
  5
215
330
23
100
AcDbEntity
 67
     1
  8
0
  6
Continuous
 62
     1
370
    18
100
AcDbLine
 10
315.5025618567
 20
256.7427954778
 30
0.0
 11
315.5025618567
 21
232.7427954778
 31
0.0
  0
LINE
  5
216
330
23
100
AcDbEntity
 67
     1
  8
0
  6
Continuous
 62
     1
370
    18
100
AcDbLine
 10
325.5025618567
 20
256.7427954778
 30
0.0
 11
315.5025618567
 21
256.7427954778
 31
0.0
  0
LINE
  5
217
330
23
100
AcDbEntity
 67
     1
  8
0
  6
Continuous
 62
     1
370
    18
100
AcDbLine
 10
325.5025618567
 20
232.7427954778
 30
0.0
 11
325.5025618567
 21
256.7427954778
 31
0.0
  0
INSERT
  5
223
330
23
100
AcDbEntity
 67
     1
  8
0
  6
Continuous
 62
     1
370
    18
100
AcDbBlockReference
  2
SW_CENTERMARKSYMBOL_20
 10
320.5025618567
 20
253.4927954778
 30
0.0
  0
INSERT
  5
22F
330
23
100
AcDbEntity
 67
     1
  8
0
  6
Continuous
 62
     1
370
    18
100
AcDbBlockReference
  2
SW_CENTERMARKSYMBOL_21
 10
320.5025618567
 20
235.9927954778
 30
0.0
  0
CIRCLE
  5
230
330
23
100
AcDbEntity
 67
     1
  8
0
  6
Continuous
 62
     1
370
    18
100
AcDbCircle
 10
308.0816551084
 20
235.8803740244
 30
0.0
 40
1.75
  0
CIRCLE
  5
231
330
23
100
AcDbEntity
 67
     1
  8
0
  6
Continuous
 62
     1
370
    18
100
AcDbCircle
 10
308.0816551084
 20
253.3803740244
 30
0.0
 40
1.75
  0
LINE
  5
232
330
23
100
AcDbEntity
 67
     1
  8
0
  6
Continuous
 62
     1
370
    18
100
AcDbLine
 10
303.0816551084
 20
232.6303740244
 30
0.0
 11
313.0816551084
 21
232.6303740244
 31
0.0
  0
LINE
  5
233
330
23
100
AcDbEntity
 67
     1
  8
0
  6
Continuous
 62
     1
370
    18
100
AcDbLine
 10
303.0816551084
 20
256.6303740244
 30
0.0
 11
303.0816551084
 21
232.6303740244
 31
0.0
  0
LINE
  5
234
330
23
100
AcDbEntity
 67
     1
  8
0
  6
Continuous
 62
     1
370
    18
100
AcDbLine
 10
313.0816551084
 20
256.6303740244
 30
0.0
 11
303.0816551084
 21
256.6303740244
 31
0.0
  0
LINE
  5
235
330
23
100
AcDbEntity
 67
     1
  8
0
  6
Continuous
 62
     1
370
    18
100
AcDbLine
 10
313.0816551084
 20
232.6303740244
 30
0.0
 11
313.0816551084
 21
256.6303740244
 31
0.0
  0
INSERT
  5
241
330
23
100
AcDbEntity
 67
     1
  8
0
  6
Continuous
 62
     1
370
    18
100
AcDbBlockReference
  2
SW_CENTERMARKSYMBOL_22
 10
308.0816551084
 20
253.3803740244
 30
0.0
  0
INSERT
  5
24D
330
23
100
AcDbEntity
 67
     1
  8
0
  6
Continuous
 62
     1
370
    18
100
AcDbBlockReference
  2
SW_CENTERMARKSYMBOL_23
 10
308.0816551084
 20
235.8803740244
 30
0.0
  0
CIRCLE
  5
24E
330
23
100
AcDbEntity
 67
     1
  8
0
  6
Continuous
 62
     1
370
    18
100
AcDbCircle
 10
280.5150854395
 20
235.4546275684
 30
0.0
 40
1.749999999999943
  0
CIRCLE
  5
24F
330
23
100
AcDbEntity
 67
     1
  8
0
  6
Continuous
 62
     1
370
    18
100
AcDbCircle
 10
280.5150854395
 20
252.9546275684
 30
0.0
 40
1.749999999999943
  0
LINE
  5
250
330
23
100
AcDbEntity
 67
     1
  8
0
  6
Continuous
 62
     1
370
    18
100
AcDbLine
 10
275.5150854395
 20
232.2046275684
 30
0.0
 11
285.5150854395
 21
232.2046275684
 31
0.0
  0
LINE
  5
251
330
23
100
AcDbEntity
 67
     1
  8
0
  6
Continuous
 62
     1
370
    18
100
AcDbLine
 10
275.5150854395
 20
256.2046275684
 30
0.0
 11
275.5150854395
 21
232.2046275684
 31
0.0
  0
LINE
  5
252
330
23
100
AcDbEntity
 67
     1
  8
0
  6
Continuous
 62
     1
370
    18
100
AcDbLine
 10
285.5150854395
 20
256.2046275684
 30
0.0
 11
275.5150854395
 21
256.2046275684
 31
0.0
  0
LINE
  5
253
330
23
100
AcDbEntity
 67
     1
  8
0
  6
Continuous
 62
     1
370
    18
100
AcDbLine
 10
285.5150854395
 20
232.2046275684
 30
0.0
 11
285.5150854395
 21
256.2046275684
 31
0.0
  0
INSERT
  5
25F
330
23
100
AcDbEntity
 67
     1
  8
0
  6
Continuous
 62
     1
370
    18
100
AcDbBlockReference
  2
SW_CENTERMARKSYMBOL_24
 10
280.5150854395
 20
252.9546275684
 30
0.0
  0
INSERT
  5
26B
330
23
100
AcDbEntity
 67
     1
  8
0
  6
Continuous
 62
     1
370
    18
100
AcDbBlockReference
  2
SW_CENTERMARKSYMBOL_25
 10
280.5150854395
 20
235.4546275684
 30
0.0
  0
LINE
  5
26C
330
23
100
AcDbEntity
 67
     1
  8
0
  6
Continuous
 62
     1
370
    18
100
AcDbLine
 10
2.516
 20
379.942
 30
0.0
 11
2.516
 21
294.942
 31
0.0
  0
LINE
  5
26D
330
23
100
AcDbEntity
 67
     1
  8
0
  6
Continuous
 62
     1
370
    18
100
AcDbLine
 10
55.016
 20
379.942
 30
0.0
 11
2.516
 21
379.942
 31
0.0
  0
LINE
  5
26E
330
23
100
AcDbEntity
 67
     1
  8
0
  6
Continuous
 62
     1
370
    18
100
AcDbLine
 10
55.016
 20
382.942
 30
0.0
 11
55.016
 21
379.942
 31
0.0
  0
LINE
  5
26F
330
23
100
AcDbEntity
 67
     1
  8
0
  6
Continuous
 62
     1
370
    18
100
AcDbLine
 10
85.016
 20
382.942
 30
0.0
 11
55.016
 21
382.942
 31
0.0
  0
LINE
  5
270
330
23
100
AcDbEntity
 67
     1
  8
0
  6
Continuous
 62
     1
370
    18
100
AcDbLine
 10
85.016
 20
379.942
 30
0.0
 11
85.016
 21
382.942
 31
0.0
  0
LINE
  5
271
330
23
100
AcDbEntity
 67
     1
  8
0
  6
Continuous
 62
     1
370
    18
100
AcDbLine
 10
137.516
 20
379.942
 30
0.0
 11
85.016
 21
379.942
 31
0.0
  0
LINE
  5
272
330
23
100
AcDbEntity
 67
     1
  8
0
  6
Continuous
 62
     1
370
    18
100
AcDbLine
 10
137.516
 20
382.942
 30
0.0
 11
137.516
 21
379.942
 31
0.0
  0
LINE
  5
273
330
23
100
AcDbEntity
 67
     1
  8
0
  6
Continuous
 62
     1
370
    18
100
AcDbLine
 10
167.516
 20
382.942
 30
0.0
 11
137.516
 21
382.942
 31
0.0
  0
LINE
  5
274
330
23
100
AcDbEntity
 67
     1
  8
0
  6
Continuous
 62
     1
370
    18
100
AcDbLine
 10
167.516
 20
379.942
 30
0.0
 11
167.516
 21
382.942
 31
0.0
  0
LINE
  5
275
330
23
100
AcDbEntity
 67
     1
  8
0
  6
Continuous
 62
     1
370
    18
100
AcDbLine
 10
220.016
 20
379.942
 30
0.0
 11
167.516
 21
379.942
 31
0.0
  0
LINE
  5
276
330
23
100
AcDbEntity
 67
     1
  8
0
  6
Continuous
 62
     1
370
    18
100
AcDbLine
 10
220.016
 20
382.942
 30
0.0
 11
220.016
 21
379.942
 31
0.0
  0
LINE
  5
277
330
23
100
AcDbEntity
 67
     1
  8
0
  6
Continuous
 62
     1
370
    18
100
AcDbLine
 10
250.016
 20
382.942
 30
0.0
 11
220.016
 21
382.942
 31
0.0
  0
LINE
  5
278
330
23
100
AcDbEntity
 67
     1
  8
0
  6
Continuous
 62
     1
370
    18
100
AcDbLine
 10
250.016
 20
379.942
 30
0.0
 11
250.016
 21
382.942
 31
0.0
  0
LINE
  5
279
330
23
100
AcDbEntity
 67
     1
  8
0
  6
Continuous
 62
     1
370
    18
100
AcDbLine
 10
302.516
 20
379.942
 30
0.0
 11
250.016
 21
379.942
 31
0.0
  0
LINE
  5
27A
330
23
100
AcDbEntity
 67
     1
  8
0
  6
Continuous
 62
     1
370
    18
100
AcDbLine
 10
302.516
 20
294.942
 30
0.0
 11
302.516
 21
379.942
 31
0.0
  0
LINE
  5
27B
330
23
100
AcDbEntity
 67
     1
  8
0
  6
Continuous
 62
     1
370
    18
100
AcDbLine
 10
250.016
 20
294.942
 30
0.0
 11
302.516
 21
294.942
 31
0.0
  0
LINE
  5
27C
330
23
100
AcDbEntity
 67
     1
  8
0
  6
Continuous
 62
     1
370
    18
100
AcDbLine
 10
250.016
 20
291.942
 30
0.0
 11
250.016
 21
294.942
 31
0.0
  0
LINE
  5
27D
330
23
100
AcDbEntity
 67
     1
  8
0
  6
Continuous
 62
     1
370
    18
100
AcDbLine
 10
220.016
 20
291.942
 30
0.0
 11
250.016
 21
291.942
 31
0.0
  0
LINE
  5
27E
330
23
100
AcDbEntity
 67
     1
  8
0
  6
Continuous
 62
     1
370
    18
100
AcDbLine
 10
220.016
 20
294.942
 30
0.0
 11
220.016
 21
291.942
 31
0.0
  0
LINE
  5
27F
330
23
100
AcDbEntity
 67
     1
  8
0
  6
Continuous
 62
     1
370
    18
100
AcDbLine
 10
167.516
 20
294.942
 30
0.0
 11
220.016
 21
294.942
 31
0.0
  0
LINE
  5
280
330
23
100
AcDbEntity
 67
     1
  8
0
  6
Continuous
 62
     1
370
    18
100
AcDbLine
 10
167.516
 20
291.942
 30
0.0
 11
167.516
 21
294.942
 31
0.0
  0
LINE
  5
281
330
23
100
AcDbEntity
 67
     1
  8
0
  6
Continuous
 62
     1
370
    18
100
AcDbLine
 10
137.516
 20
291.942
 30
0.0
 11
167.516
 21
291.942
 31
0.0
  0
LINE
  5
282
330
23
100
AcDbEntity
 67
     1
  8
0
  6
Continuous
 62
     1
370
    18
100
AcDbLine
 10
137.516
 20
294.942
 30
0.0
 11
137.516
 21
291.942
 31
0.0
  0
LINE
  5
283
330
23
100
AcDbEntity
 67
     1
  8
0
  6
Continuous
 62
     1
370
    18
100
AcDbLine
 10
85.016
 20
294.942
 30
0.0
 11
137.516
 21
294.942
 31
0.0
  0
LINE
  5
284
330
23
100
AcDbEntity
 67
     1
  8
0
  6
Continuous
 62
     1
370
    18
100
AcDbLine
 10
85.016
 20
291.942
 30
0.0
 11
85.016
 21
294.942
 31
0.0
  0
LINE
  5
285
330
23
100
AcDbEntity
 67
     1
  8
0
  6
Continuous
 62
     1
370
    18
100
AcDbLine
 10
55.016
 20
291.942
 30
0.0
 11
85.016
 21
291.942
 31
0.0
  0
LINE
  5
286
330
23
100
AcDbEntity
 67
     1
  8
0
  6
Continuous
 62
     1
370
    18
100
AcDbLine
 10
55.016
 20
294.942
 30
0.0
 11
55.016
 21
291.942
 31
0.0
  0
LINE
  5
287
330
23
100
AcDbEntity
 67
     1
  8
0
  6
Continuous
 62
     1
370
    18
100
AcDbLine
 10
2.516
 20
294.942
 30
0.0
 11
55.016
 21
294.942
 31
0.0
  0
CIRCLE
  5
288
330
23
100
AcDbEntity
 67
     1
  8
0
  6
Continuous
 62
     1
370
    18
100
AcDbCircle
 10
213.3805404057
 20
237.4212592082
 30
0.0
 40
1.175000000000011
  0
CIRCLE
  5
289
330
23
100
AcDbEntity
 67
     1
  8
0
  6
Continuous
 62
     1
370
    18
100
AcDbCircle
 10
203.8805404057
 20
237.4212592082
 30
0.0
 40
1.175000000000011
  0
LINE
  5
28A
330
23
100
AcDbEntity
 67
     1
  8
0
  6
Continuous
 62
     1
370
    18
100
AcDbLine
 10
214.2305404057
 20
246.9212592082
 30
0.0
 11
204.2305404057
 21
246.9212592082
 31
0.0
  0
LINE
  5
28B
330
23
100
AcDbEntity
 67
     1
  8
0
  6
Continuous
 62
     1
370
    18
100
AcDbLine
 10
214.2305404057
 20
243.9212592082
 30
0.0
 11
214.2305404057
 21
246.9212592082
 31
0.0
  0
LINE
  5
28C
330
23
100
AcDbEntity
 67
     1
  8
0
  6
Continuous
 62
     1
370
    18
100
AcDbLine
 10
219.7305404057
 20
243.9212592082
 30
0.0
 11
214.2305404057
 21
243.9212592082
 31
0.0
  0
LINE
  5
28D
330
23
100
AcDbEntity
 67
     1
  8
0
  6
Continuous
 62
     1
370
    18
100
AcDbLine
 10
219.7305404057
 20
234.9212592082
 30
0.0
 11
219.7305404057
 21
243.9212592082
 31
0.0
  0
LINE
  5
28E
330
23
100
AcDbEntity
 67
     1
  8
0
  6
Continuous
 62
     1
370
    18
100
AcDbLine
 10
198.7305404057
 20
234.9212592082
 30
0.0
 11
219.7305404057
 21
234.9212592082
 31
0.0
  0
LINE
  5
28F
330
23
100
AcDbEntity
 67
     1
  8
0
  6
Continuous
 62
     1
370
    18
100
AcDbLine
 10
198.7305404057
 20
243.9212592082
 30
0.0
 11
198.7305404057
 21
234.9212592082
 31
0.0
  0
LINE
  5
290
330
23
100
AcDbEntity
 67
     1
  8
0
  6
Continuous
 62
     1
370
    18
100
AcDbLine
 10
204.2305404057
 20
243.9212592082
 30
0.0
 11
198.7305404057
 21
243.9212592082
 31
0.0
  0
LINE
  5
291
330
23
100
AcDbEntity
 67
     1
  8
0
  6
Continuous
 62
     1
370
    18
100
AcDbLine
 10
204.2305404057
 20
246.9212592082
 30
0.0
 11
204.2305404057
 21
243.9212592082
 31
0.0
  0
INSERT
  5
29D
330
23
100
AcDbEntity
 67
     1
  8
0
  6
Continuous
 62
     1
370
    18
100
AcDbBlockReference
  2
SW_CENTERMARKSYMBOL_26
 10
203.8805404057
 20
237.4212592082
 30
0.0
  0
INSERT
  5
2A9
330
23
100
AcDbEntity
 67
     1
  8
0
  6
Continuous
 62
     1
370
    18
100
AcDbBlockReference
  2
SW_CENTERMARKSYMBOL_27
 10
213.3805404057
 20
237.4212592082
 30
0.0
  0
CIRCLE
  5
2AA
330
23
100
AcDbEntity
 67
     1
  8
0
  6
Continuous
 62
     1
370
    18
100
AcDbCircle
 10
344.6949803309
 20
311.1420416249
 30
0.0
 40
3.199999999999989
  0
CIRCLE
  5
2AB
330
23
100
AcDbEntity
 67
     1
  8
0
  6
Continuous
 62
     1
370
    18
100
AcDbCircle
 10
344.6949803309
 20
311.1420416249
 30
0.0
 40
11.00000000000006
  0
INSERT
  5
2B7
330
23
100
AcDbEntity
 67
     1
  8
0
  6
Continuous
 62
     1
370
    18
100
AcDbBlockReference
  2
SW_CENTERMARKSYMBOL_28
 10
344.6949803309
 20
311.1420416249
 30
0.0
  0
CIRCLE
  5
2B8
330
23
100
AcDbEntity
 67
     1
  8
0
  6
Continuous
 62
     1
370
    18
100
AcDbCircle
 10
317.1865362882
 20
311.1420416249
 30
0.0
 40
3.199999999999989
  0
CIRCLE
  5
2B9
330
23
100
AcDbEntity
 67
     1
  8
0
  6
Continuous
 62
     1
370
    18
100
AcDbCircle
 10
317.1865362882
 20
311.1420416249
 30
0.0
 40
11.00000000000006
  0
INSERT
  5
2C5
330
23
100
AcDbEntity
 67
     1
  8
0
  6
Continuous
 62
     1
370
    18
100
AcDbBlockReference
  2
SW_CENTERMARKSYMBOL_29
 10
317.1865362882
 20
311.1420416249
 30
0.0
  0
CIRCLE
  5
2C6
330
23
100
AcDbEntity
 67
     1
  8
0
  6
Continuous
 62
     1
370
    18
100
AcDbCircle
 10
317.1865362882
 20
366.7801314572
 30
0.0
 40
3.199999999999989
  0
CIRCLE
  5
2C7
330
23
100
AcDbEntity
 67
     1
  8
0
  6
Continuous
 62
     1
370
    18
100
AcDbCircle
 10
317.1865362882
 20
366.7801314572
 30
0.0
 40
11.0
  0
INSERT
  5
2D3
330
23
100
AcDbEntity
 67
     1
  8
0
  6
Continuous
 62
     1
370
    18
100
AcDbBlockReference
  2
SW_CENTERMARKSYMBOL_30
 10
317.1865362882
 20
366.7801314572
 30
0.0
  0
CIRCLE
  5
2D4
330
23
100
AcDbEntity
 67
     1
  8
0
  6
Continuous
 62
     1
370
    18
100
AcDbCircle
 10
344.6949803309
 20
278.1575759341
 30
0.0
 40
3.199999999999989
  0
CIRCLE
  5
2D5
330
23
100
AcDbEntity
 67
     1
  8
0
  6
Continuous
 62
     1
370
    18
100
AcDbCircle
 10
344.6949803309
 20
278.1575759341
 30
0.0
 40
11.0
  0
INSERT
  5
2E1
330
23
100
AcDbEntity
 67
     1
  8
0
  6
Continuous
 62
     1
370
     0
100
AcDbBlockReference
  2
SW_CENTERMARKSYMBOL_31
 10
344.6949803309
 20
278.1575759341
 30
0.0
  0
CIRCLE
  5
2E2
330
23
100
AcDbEntity
 67
     1
  8
0
  6
Continuous
 62
     1
370
    18
100
AcDbCircle
 10
370.1736091971
 20
278.1575759341
 30
0.0
 40
3.199999999999989
  0
CIRCLE
  5
2E3
330
23
100
AcDbEntity
 67
     1
  8
0
  6
Continuous
 62
     1
370
    18
100
AcDbCircle
 10
370.1736091971
 20
278.1575759341
 30
0.0
 40
11.0
  0
INSERT
  5
2EF
330
23
100
AcDbEntity
 67
     1
  8
0
  6
Continuous
 62
     1
370
    18
100
AcDbBlockReference
  2
SW_CENTERMARKSYMBOL_32
 10
370.1736091971
 20
278.1575759341
 30
0.0
  0
CIRCLE
  5
2F0
330
23
100
AcDbEntity
 67
     1
  8
0
  6
Continuous
 62
     1
370
    18
100
AcDbCircle
 10
370.1736091971
 20
311.1420416249
 30
0.0
 40
3.199999999999989
  0
CIRCLE
  5
2F1
330
23
100
AcDbEntity
 67
     1
  8
0
  6
Continuous
 62
     1
370
    18
100
AcDbCircle
 10
370.1736091971
 20
311.1420416249
 30
0.0
 40
11.00000000000006
  0
INSERT
  5
2FD
330
23
100
AcDbEntity
 67
     1
  8
0
  6
Continuous
 62
     1
370
     0
100
AcDbBlockReference
  2
SW_CENTERMARKSYMBOL_33
 10
370.1736091971
 20
311.1420416249
 30
0.0
  0
CIRCLE
  5
2FE
330
23
100
AcDbEntity
 67
     1
  8
0
  6
Continuous
 62
     1
370
    18
100
AcDbCircle
 10
290.1396154211
 20
278.1575759341
 30
0.0
 40
3.199999999999989
  0
CIRCLE
  5
2FF
330
23
100
AcDbEntity
 67
     1
  8
0
  6
Continuous
 62
     1
370
    18
100
AcDbCircle
 10
290.1396154211
 20
278.1575759341
 30
0.0
 40
11.0
  0
INSERT
  5
30B
330
23
100
AcDbEntity
 67
     1
  8
0
  6
Continuous
 62
     1
370
     0
100
AcDbBlockReference
  2
SW_CENTERMARKSYMBOL_34
 10
290.1396154211
 20
278.1575759341
 30
0.0
  0
CIRCLE
  5
30C
330
23
100
AcDbEntity
 67
     1
  8
0
  6
Continuous
 62
     1
370
    18
100
AcDbCircle
 10
344.6949803309
 20
337.0028518508
 30
0.0
 40
3.199999999999989
  0
CIRCLE
  5
30D
330
23
100
AcDbEntity
 67
     1
  8
0
  6
Continuous
 62
     1
370
    18
100
AcDbCircle
 10
344.6949803309
 20
337.0028518508
 30
0.0
 40
11.0
  0
INSERT
  5
319
330
23
100
AcDbEntity
 67
     1
  8
0
  6
Continuous
 62
     1
370
     0
100
AcDbBlockReference
  2
SW_CENTERMARKSYMBOL_35
 10
344.6949803309
 20
337.0028518508
 30
0.0
  0
CIRCLE
  5
31A
330
23
100
AcDbEntity
 67
     1
  8
0
  6
Continuous
 62
     1
370
    18
100
AcDbCircle
 10
344.6949803309
 20
366.7801314572
 30
0.0
 40
3.199999999999989
  0
CIRCLE
  5
31B
330
23
100
AcDbEntity
 67
     1
  8
0
  6
Continuous
 62
     1
370
    18
100
AcDbCircle
 10
344.6949803309
 20
366.7801314572
 30
0.0
 40
11.0
  0
INSERT
  5
327
330
23
100
AcDbEntity
 67
     1
  8
0
  6
Continuous
 62
     1
370
     0
100
AcDbBlockReference
  2
SW_CENTERMARKSYMBOL_36
 10
344.6949803309
 20
366.7801314572
 30
0.0
  0
CIRCLE
  5
328
330
23
100
AcDbEntity
 67
     1
  8
0
  6
Continuous
 62
     1
370
    18
100
AcDbCircle
 10
370.1736091971
 20
366.7801314572
 30
0.0
 40
3.199999999999989
  0
CIRCLE
  5
329
330
23
100
AcDbEntity
 67
     1
  8
0
  6
Continuous
 62
     1
370
    18
100
AcDbCircle
 10
370.1736091971
 20
366.7801314572
 30
0.0
 40
11.0
  0
INSERT
  5
335
330
23
100
AcDbEntity
 67
     1
  8
0
  6
Continuous
 62
     1
370
     0
100
AcDbBlockReference
  2
SW_CENTERMARKSYMBOL_37
 10
370.1736091971
 20
366.7801314572
 30
0.0
  0
CIRCLE
  5
336
330
23
100
AcDbEntity
 67
     1
  8
0
  6
Continuous
 62
     1
370
    18
100
AcDbCircle
 10
317.1865362882
 20
337.0028518508
 30
0.0
 40
3.199999999999989
  0
CIRCLE
  5
337
330
23
100
AcDbEntity
 67
     1
  8
0
  6
Continuous
 62
     1
370
    18
100
AcDbCircle
 10
317.1865362882
 20
337.0028518508
 30
0.0
 40
11.0
  0
INSERT
  5
343
330
23
100
AcDbEntity
 67
     1
  8
0
  6
Continuous
 62
     1
370
     0
100
AcDbBlockReference
  2
SW_CENTERMARKSYMBOL_38
 10
317.1865362882
 20
337.0028518508
 30
0.0
  0
CIRCLE
  5
344
330
23
100
AcDbEntity
 67
     1
  8
0
  6
Continuous
 62
     1
370
    18
100
AcDbCircle
 10
370.1736091971
 20
336.6808561222
 30
0.0
 40
3.199999999999989
  0
CIRCLE
  5
345
330
23
100
AcDbEntity
 67
     1
  8
0
  6
Continuous
 62
     1
370
    18
100
AcDbCircle
 10
370.1736091971
 20
336.6808561222
 30
0.0
 40
11.0
  0
INSERT
  5
351
330
23
100
AcDbEntity
 67
     1
  8
0
  6
Continuous
 62
     1
370
     0
100
AcDbBlockReference
  2
SW_CENTERMARKSYMBOL_39
 10
370.1736091971
 20
336.6808561222
 30
0.0
  0
CIRCLE
  5
352
330
23
100
AcDbEntity
 67
     1
  8
0
  6
Continuous
 62
     1
370
    18
100
AcDbCircle
 10
239.5847207144
 20
278.1575759341
 30
0.0
 40
3.199999999999989
  0
CIRCLE
  5
353
330
23
100
AcDbEntity
 67
     1
  8
0
  6
Continuous
 62
     1
370
    18
100
AcDbCircle
 10
239.5847207144
 20
278.1575759341
 30
0.0
 40
11.0
  0
INSERT
  5
35F
330
23
100
AcDbEntity
 67
     1
  8
0
  6
Continuous
 62
     1
370
     0
100
AcDbBlockReference
  2
SW_CENTERMARKSYMBOL_40
 10
239.5847207144
 20
278.1575759341
 30
0.0
  0
CIRCLE
  5
360
330
23
100
AcDbEntity
 67
     1
  8
0
  6
Continuous
 62
     1
370
    18
100
AcDbCircle
 10
264.5635081878
 20
278.1575759341
 30
0.0
 40
3.199999999999989
  0
CIRCLE
  5
361
330
23
100
AcDbEntity
 67
     1
  8
0
  6
Continuous
 62
     1
370
    18
100
AcDbCircle
 10
264.5635081878
 20
278.1575759341
 30
0.0
 40
11.0
  0
INSERT
  5
36D
330
23
100
AcDbEntity
 67
     1
  8
0
  6
Continuous
 62
     1
370
    18
100
AcDbBlockReference
  2
SW_CENTERMARKSYMBOL_41
 10
264.5635081878
 20
278.1575759341
 30
0.0
  0
CIRCLE
  5
36E
330
23
100
AcDbEntity
 67
     1
  8
0
  6
Continuous
 62
     1
370
    18
100
AcDbCircle
 10
166.1051820624
 20
257.9620601559
 30
0.0
 40
3.199999999999989
  0
CIRCLE
  5
36F
330
23
100
AcDbEntity
 67
     1
  8
0
  6
Continuous
 62
     1
370
    18
100
AcDbCircle
 10
166.1051820624
 20
257.9620601559
 30
0.0
 40
20.0
  0
INSERT
  5
37B
330
23
100
AcDbEntity
 67
     1
  8
0
  6
Continuous
 62
     1
370
    18
100
AcDbBlockReference
  2
SW_CENTERMARKSYMBOL_42
 10
166.1051820624
 20
257.9620601559
 30
0.0
  0
CIRCLE
  5
37C
330
23
100
AcDbEntity
 67
     1
  8
0
  6
Continuous
 62
     1
370
    18
100
AcDbCircle
 10
317.1865362882
 20
278.1575759341
 30
0.0
 40
3.199999999999989
  0
CIRCLE
  5
37D
330
23
100
AcDbEntity
 67
     1
  8
0
  6
Continuous
 62
     1
370
    18
100
AcDbCircle
 10
317.1865362882
 20
278.1575759341
 30
0.0
 40
11.0
  0
INSERT
  5
389
330
23
100
AcDbEntity
 67
     1
  8
0
  6
Continuous
 62
     1
370
     0
100
AcDbBlockReference
  2
SW_CENTERMARKSYMBOL_43
 10
317.1865362882
 20
278.1575759341
 30
0.0
  0
CIRCLE
  5
38A
330
23
100
AcDbEntity
 67
     1
  8
0
  6
Continuous
 62
     1
370
    18
100
AcDbCircle
 10
26.8821420887
 20
257.9620601559
 30
0.0
 40
3.199999999999989
  0
CIRCLE
  5
38B
330
23
100
AcDbEntity
 67
     1
  8
0
  6
Continuous
 62
     1
370
    18
100
AcDbCircle
 10
26.8821420887
 20
257.9620601559
 30
0.0
 40
20.0
  0
INSERT
  5
397
330
23
100
AcDbEntity
 67
     1
  8
0
  6
Continuous
 62
     1
370
    18
100
AcDbBlockReference
  2
SW_CENTERMARKSYMBOL_44
 10
26.8821420887
 20
257.9620601559
 30
0.0
  0
CIRCLE
  5
398
330
23
100
AcDbEntity
 67
     1
  8
0
  6
Continuous
 62
     1
370
    18
100
AcDbCircle
 10
119.1454840583
 20
257.9620601559
 30
0.0
 40
3.199999999999989
  0
CIRCLE
  5
399
330
23
100
AcDbEntity
 67
     1
  8
0
  6
Continuous
 62
     1
370
    18
100
AcDbCircle
 10
119.1454840583
 20
257.9620601559
 30
0.0
 40
20.0
  0
INSERT
  5
3A5
330
23
100
AcDbEntity
 67
     1
  8
0
  6
Continuous
 62
     1
370
    18
100
AcDbBlockReference
  2
SW_CENTERMARKSYMBOL_45
 10
119.1454840583
 20
257.9620601559
 30
0.0
  0
CIRCLE
  5
3A6
330
23
100
AcDbEntity
 67
     1
  8
0
  6
Continuous
 62
     1
370
    18
100
AcDbCircle
 10
73.9369275494
 20
257.9620601559
 30
0.0
 40
3.199999999999989
  0
CIRCLE
  5
3A7
330
23
100
AcDbEntity
 67
     1
  8
0
  6
Continuous
 62
     1
370
    18
100
AcDbCircle
 10
73.9369275494
 20
257.9620601559
 30
0.0
 40
20.0
  0
INSERT
  5
3B3
330
23
100
AcDbEntity
 67
     1
  8
0
  6
Continuous
 62
     1
370
    18
100
AcDbBlockReference
  2
SW_CENTERMARKSYMBOL_46
 10
73.9369275494
 20
257.9620601559
 30
0.0
  0
LINE
  5
3B4
330
23
100
AcDbEntity
 67
     1
  8
0
  6
Continuous
 62
     1
370
    18
100
AcDbLine
 10
133.8524574199
 20
227.6059218917
 30
0.0
 11
103.8524574199
 21
227.6059218917
 31
0.0
  0
LINE
  5
3B5
330
23
100
AcDbEntity
 67
     1
  8
0
  6
Continuous
 62
     1
370
    18
100
AcDbLine
 10
103.8524574199
 20
227.6059218917
 30
0.0
 11
103.8524574199
 21
224.6059218917
 31
0.0
  0
LINE
  5
3B6
330
23
100
AcDbEntity
 67
     1
  8
0
  6
Continuous
 62
     1
370
    18
100
AcDbLine
 10
103.8524574199
 20
224.6059218917
 30
0.0
 11
133.8524574199
 21
224.6059218917
 31
0.0
  0
LINE
  5
3B7
330
23
100
AcDbEntity
 67
     1
  8
0
  6
Continuous
 62
     1
370
    18
100
AcDbLine
 10
133.8524574199
 20
224.6059218917
 30
0.0
 11
133.8524574199
 21
227.6059218917
 31
0.0
  0
LINE
  5
3B8
330
23
100
AcDbEntity
 67
     1
  8
0
  6
Continuous
 62
     1
370
    18
100
AcDbLine
 10
95.8524574199
 20
221.1059218917
 30
0.0
 11
190.8524574199
 21
221.1059218917
 31
0.0
  0
LINE
  5
3B9
330
23
100
AcDbEntity
 67
     1
  8
0
  6
Continuous
 62
     1
370
    18
100
AcDbLine
 10
95.8524574199
 20
231.1059218917
 30
0.0
 11
95.8524574199
 21
221.1059218917
 31
0.0
  0
LINE
  5
3BA
330
23
100
AcDbEntity
 67
     1
  8
0
  6
Continuous
 62
     1
370
    18
100
AcDbLine
 10
190.8524574199
 20
231.1059218917
 30
0.0
 11
95.8524574199
 21
231.1059218917
 31
0.0
  0
LINE
  5
3BB
330
23
100
AcDbEntity
 67
     1
  8
0
  6
Continuous
 62
     1
370
    18
100
AcDbLine
 10
190.8524574199
 20
221.1059218917
 30
0.0
 11
190.8524574199
 21
231.1059218917
 31
0.0
  0
CIRCLE
  5
3BC
330
23
100
AcDbEntity
 67
     1
  8
0
  6
Continuous
 62
     1
370
    18
100
AcDbCircle
 10
143.3524574199
 20
226.1059218917
 30
0.0
 40
4.0
  0
INSERT
  5
3C8
330
23
100
AcDbEntity
 67
     1
  8
0
  6
Continuous
 62
     1
370
     0
100
AcDbBlockReference
  2
SW_CENTERMARKSYMBOL_47
 10
143.3524574199
 20
226.1059218917
 30
0.0
  0
LINE
  5
3C9
330
23
100
AcDbEntity
 67
     1
  8
0
  6
Continuous
 62
     1
370
    18
100
AcDbLine
 10
230.3074503889
 20
227.6682005183
 30
0.0
 11
200.3074503889
 21
227.6682005183
 31
0.0
  0
LINE
  5
3CA
330
23
100
AcDbEntity
 67
     1
  8
0
  6
Continuous
 62
     1
370
    18
100
AcDbLine
 10
200.3074503889
 20
227.6682005183
 30
0.0
 11
200.3074503889
 21
224.6682005183
 31
0.0
  0
LINE
  5
3CB
330
23
100
AcDbEntity
 67
     1
  8
0
  6
Continuous
 62
     1
370
    18
100
AcDbLine
 10
200.3074503889
 20
224.6682005183
 30
0.0
 11
230.3074503889
 21
224.6682005183
 31
0.0
  0
LINE
  5
3CC
330
23
100
AcDbEntity
 67
     1
  8
0
  6
Continuous
 62
     1
370
    18
100
AcDbLine
 10
230.3074503889
 20
224.6682005183
 30
0.0
 11
230.3074503889
 21
227.6682005183
 31
0.0
  0
LINE
  5
3CD
330
23
100
AcDbEntity
 67
     1
  8
0
  6
Continuous
 62
     1
370
    18
100
AcDbLine
 10
192.3074503889
 20
221.1682005183
 30
0.0
 11
287.3074503889
 21
221.1682005183
 31
0.0
  0
LINE
  5
3CE
330
23
100
AcDbEntity
 67
     1
  8
0
  6
Continuous
 62
     1
370
    18
100
AcDbLine
 10
192.3074503889
 20
231.1682005183
 30
0.0
 11
192.3074503889
 21
221.1682005183
 31
0.0
  0
LINE
  5
3CF
330
23
100
AcDbEntity
 67
     1
  8
0
  6
Continuous
 62
     1
370
    18
100
AcDbLine
 10
287.3074503889
 20
231.1682005183
 30
0.0
 11
192.3074503889
 21
231.1682005183
 31
0.0
  0
LINE
  5
3D0
330
23
100
AcDbEntity
 67
     1
  8
0
  6
Continuous
 62
     1
370
    18
100
AcDbLine
 10
287.3074503889
 20
221.1682005183
 30
0.0
 11
287.3074503889
 21
231.1682005183
 31
0.0
  0
CIRCLE
  5
3D1
330
23
100
AcDbEntity
 67
     1
  8
0
  6
Continuous
 62
     1
370
    18
100
AcDbCircle
 10
239.8074503889
 20
226.1682005183
 30
0.0
 40
4.000000000000028
  0
INSERT
  5
3DD
330
23
100
AcDbEntity
 67
     1
  8
0
  6
Continuous
 62
     1
370
     0
100
AcDbBlockReference
  2
SW_CENTERMARKSYMBOL_48
 10
239.8074503889
 20
226.1682005183
 30
0.0
  0
LINE
  5
3DE
330
23
100
AcDbEntity
 67
     1
  8
0
  6
Continuous
 62
     1
370
    18
100
AcDbLine
 10
326.7137890092
 20
227.6343989153
 30
0.0
 11
296.7137890092
 21
227.6343989153
 31
0.0
  0
LINE
  5
3DF
330
23
100
AcDbEntity
 67
     1
  8
0
  6
Continuous
 62
     1
370
    18
100
AcDbLine
 10
296.7137890092
 20
227.6343989153
 30
0.0
 11
296.7137890092
 21
224.6343989153
 31
0.0
  0
LINE
  5
3E0
330
23
100
AcDbEntity
 67
     1
  8
0
  6
Continuous
 62
     1
370
    18
100
AcDbLine
 10
296.7137890092
 20
224.6343989153
 30
0.0
 11
326.7137890092
 21
224.6343989153
 31
0.0
  0
LINE
  5
3E1
330
23
100
AcDbEntity
 67
     1
  8
0
  6
Continuous
 62
     1
370
    18
100
AcDbLine
 10
326.7137890092
 20
224.6343989153
 30
0.0
 11
326.7137890092
 21
227.6343989153
 31
0.0
  0
LINE
  5
3E2
330
23
100
AcDbEntity
 67
     1
  8
0
  6
Continuous
 62
     1
370
    18
100
AcDbLine
 10
288.7137890092
 20
221.1343989153
 30
0.0
 11
383.7137890092
 21
221.1343989153
 31
0.0
  0
LINE
  5
3E3
330
23
100
AcDbEntity
 67
     1
  8
0
  6
Continuous
 62
     1
370
    18
100
AcDbLine
 10
288.7137890092
 20
231.1343989153
 30
0.0
 11
288.7137890092
 21
221.1343989153
 31
0.0
  0
LINE
  5
3E4
330
23
100
AcDbEntity
 67
     1
  8
0
  6
Continuous
 62
     1
370
    18
100
AcDbLine
 10
383.7137890092
 20
231.1343989153
 30
0.0
 11
288.7137890092
 21
231.1343989153
 31
0.0
  0
LINE
  5
3E5
330
23
100
AcDbEntity
 67
     1
  8
0
  6
Continuous
 62
     1
370
    18
100
AcDbLine
 10
383.7137890092
 20
221.1343989153
 30
0.0
 11
383.7137890092
 21
231.1343989153
 31
0.0
  0
CIRCLE
  5
3E6
330
23
100
AcDbEntity
 67
     1
  8
0
  6
Continuous
 62
     1
370
    18
100
AcDbCircle
 10
336.2137890092
 20
226.1343989153
 30
0.0
 40
4.000000000000028
  0
INSERT
  5
3F2
330
23
100
AcDbEntity
 67
     1
  8
0
  6
Continuous
 62
     1
370
     0
100
AcDbBlockReference
  2
SW_CENTERMARKSYMBOL_49
 10
336.2137890092
 20
226.1343989153
 30
0.0
  0
ENDSEC
  0
SECTION
  2
OBJECTS
  0
DICTIONARY
  5
C
330
0
100
AcDbDictionary
281
     1
  3
ACAD_GROUP
350
D
  3
ACAD_LAYOUT
350
1A
  3
ACAD_MLINESTYLE
350
17
  3
ACAD_PLOTSETTINGS
350
19
  3
ACAD_PLOTSTYLENAME
350
E
  3
ACAD_SCALELIST
350
47
  3
DWGPROPS
350
3F3
  0
DICTIONARY
  5
D
102
{ACAD_REACTORS
330
C
102
}
330
C
100
AcDbDictionary
281
     1
  0
DICTIONARY
  5
1A
102
{ACAD_REACTORS
330
C
102
}
330
C
100
AcDbDictionary
281
     1
  3
Hoja1
350
1E
  3
Hoja2
350
26
  3
Model
350
22
  0
DICTIONARY
  5
17
102
{ACAD_REACTORS
330
C
102
}
330
C
100
AcDbDictionary
281
     1
  3
Standard
350
18
  0
DICTIONARY
  5
19
102
{ACAD_REACTORS
330
C
102
}
330
C
100
AcDbDictionary
281
     1
  0
ACDBDICTIONARYWDFLT
  5
E
102
{ACAD_REACTORS
330
C
102
}
330
C
100
AcDbDictionary
281
     1
  3
Normal
350
F
100
AcDbDictionaryWithDefault
340
F
  0
DICTIONARY
  5
47
102
{ACAD_REACTORS
330
C
102
}
330
C
100
AcDbDictionary
281
     1
  3
A0
350
48
  3
A1
350
49
  3
A2
350
4A
  3
A3
350
4B
  3
A4
350
4C
  3
A5
350
4D
  3
A6
350
4E
  3
A7
350
4F
  3
A8
350
50
  3
A9
350
51
  3
B0
350
52
  3
B1
350
53
  3
B2
350
54
  3
B3
350
55
  3
B4
350
56
  3
B5
350
57
  3
B6
350
58
  0
XRECORD
  5
3F3
102
{ACAD_REACTORS
330
C
102
}
330
C
100
AcDbXrecord
280
     1
  1
DWGPROPS COOKIE
  2

  3

  4

  6

  7

  8
Jerael
  9

300
=
301
=
302
=
303
=
304
=
305
=
306
=
307
=
308
=
309
=
 40
0.0
 41
2460759.079567628
 42
2460759.079600081
  1

 90
        0
  0
LAYOUT
  5
1E
102
{ACAD_REACTORS
330
1A
102
}
330
1A
100
AcDbPlotSettings
  1

  2
none_device
  4
ISO_A2_(420.00_x_594.00_MM)
  6

 40
7.5
 41
20.0
 42
7.5
 43
20.0
 44
420.0
 45
594.0
 46
0.0
 47
0.0
 48
0.0
 49
0.0
140
0.0
141
0.0
142
1.0
143
1.0
 70
  4832
 72
     1
 73
     0
 74
     1
  7

 75
     0
147
1.0
148
0.0
149
0.0
100
AcDbLayout
  1
Hoja1
 70
     1
 71
     0
 10
0.0
 20
0.0
 11
385.0
 21
385.0
 12
0.0
 22
0.0
 32
0.0
 14
0.0
 24
0.0
 34
0.0
 15
385.0
 25
385.0
 35
0.0
146
0.0
 13
0.0
 23
0.0
 33
0.0
 16
1.0
 26
0.0
 36
0.0
 17
0.0
 27
1.0
 37
0.0
 76
     0
330
1B
  0
LAYOUT
  5
26
102
{ACAD_REACTORS
330
1A
102
}
330
1A
100
AcDbPlotSettings
  1

  2
none_device
  4
ISO_A2_(420.00_x_594.00_MM)
  6

 40
7.5
 41
20.0
 42
7.5
 43
20.0
 44
420.0
 45
594.0
 46
0.0
 47
0.0
 48
0.0
 49
0.0
140
0.0
141
0.0
142
1.0
143
1.0
 70
  4832
 72
     1
 73
     0
 74
     1
  7

 75
    16
147
1.0
148
0.0
149
0.0
100
AcDbLayout
  1
Hoja2
 70
     1
 71
     1
 10
0.0
 20
0.0
 11
385.0
 21
385.0
 12
0.0
 22
0.0
 32
0.0
 14
0.0
 24
0.0
 34
0.0
 15
385.0
 25
385.0
 35
0.0
146
0.0
 13
0.0
 23
0.0
 33
0.0
 16
1.0
 26
0.0
 36
0.0
 17
0.0
 27
1.0
 37
0.0
 76
     0
330
23
331
148
  0
LAYOUT
  5
22
102
{ACAD_REACTORS
330
1A
102
}
330
1A
100
AcDbPlotSettings
  1

  2
none_device
  4
Letter_(8.50_x_11.00_Inches)
  6

 40
6.35
 41
6.35
 42
6.35000508
 43
6.35000508
 44
215.9
 45
279.4
 46
0.0
 47
0.0
 48
0.0
 49
0.0
140
0.0
141
0.0
142
1.0
143
1.0
 70
  1712
 72
     1
 73
     0
 74
     0
  7

 75
     0
147
1.0
148
0.0
149
0.0
100
AcDbLayout
  1
Model
 70
     1
 71
     0
 10
0.0
 20
0.0
 11
420.0
 21
297.0
 12
0.0
 22
0.0
 32
0.0
 14
0.0
 24
0.0
 34
0.0
 15
385.0
 25
385.0
 35
0.0
146
0.0
 13
0.0
 23
0.0
 33
0.0
 16
1.0
 26
0.0
 36
0.0
 17
0.0
 27
1.0
 37
0.0
 76
     0
330
1F
331
29
  0
MLINESTYLE
  5
18
102
{ACAD_REACTORS
330
17
102
}
330
17
100
AcDbMlineStyle
  2
Standard
 70
     0
  3

 62
   256
 51
90.0
 52
90.0
 71
     2
 49
0.5
 62
   256
  6
BYLAYER
 49
-0.5
 62
   256
  6
BYLAYER
  0
ACDBPLACEHOLDER
  5
F
102
{ACAD_REACTORS
330
E
102
}
330
E
  0
SCALE
  5
48
102
{ACAD_REACTORS
330
47
102
}
330
47
100
AcDbScale
 70
     0
300
1:1
140
1.0
141
1.0
290
     1
  0
SCALE
  5
49
102
{ACAD_REACTORS
330
47
102
}
330
47
100
AcDbScale
 70
     0
300
1:2
140
1.0
141
2.0
290
     0
  0
SCALE
  5
4A
102
{ACAD_REACTORS
330
47
102
}
330
47
100
AcDbScale
 70
     0
300
1:4
140
1.0
141
4.0
290
     0
  0
SCALE
  5
4B
102
{ACAD_REACTORS
330
47
102
}
330
47
100
AcDbScale
 70
     0
300
1:5
140
1.0
141
5.0
290
     0
  0
SCALE
  5
4C
102
{ACAD_REACTORS
330
47
102
}
330
47
100
AcDbScale
 70
     0
300
1:8
140
1.0
141
8.0
290
     0
  0
SCALE
  5
4D
102
{ACAD_REACTORS
330
47
102
}
330
47
100
AcDbScale
 70
     0
300
1:10
140
1.0
141
10.0
290
     0
  0
SCALE
  5
4E
102
{ACAD_REACTORS
330
47
102
}
330
47
100
AcDbScale
 70
     0
300
1:16
140
1.0
141
16.0
290
     0
  0
SCALE
  5
4F
102
{ACAD_REACTORS
330
47
102
}
330
47
100
AcDbScale
 70
     0
300
1:20
140
1.0
141
20.0
290
     0
  0
SCALE
  5
50
102
{ACAD_REACTORS
330
47
102
}
330
47
100
AcDbScale
 70
     0
300
1:30
140
1.0
141
30.0
290
     0
  0
SCALE
  5
51
102
{ACAD_REACTORS
330
47
102
}
330
47
100
AcDbScale
 70
     0
300
1:40
140
1.0
141
40.0
290
     0
  0
SCALE
  5
52
102
{ACAD_REACTORS
330
47
102
}
330
47
100
AcDbScale
 70
     0
300
1:50
140
1.0
141
50.0
290
     0
  0
SCALE
  5
53
102
{ACAD_REACTORS
330
47
102
}
330
47
100
AcDbScale
 70
     0
300
1:100
140
1.0
141
100.0
290
     0
  0
SCALE
  5
54
102
{ACAD_REACTORS
330
47
102
}
330
47
100
AcDbScale
 70
     0
300
2:1
140
2.0
141
1.0
290
     0
  0
SCALE
  5
55
102
{ACAD_REACTORS
330
47
102
}
330
47
100
AcDbScale
 70
     0
300
4:1
140
4.0
141
1.0
290
     0
  0
SCALE
  5
56
102
{ACAD_REACTORS
330
47
102
}
330
47
100
AcDbScale
 70
     0
300
8:1
140
8.0
141
1.0
290
     0
  0
SCALE
  5
57
102
{ACAD_REACTORS
330
47
102
}
330
47
100
AcDbScale
 70
     0
300
10:1
140
10.0
141
1.0
290
     0
  0
SCALE
  5
58
102
{ACAD_REACTORS
330
47
102
}
330
47
100
AcDbScale
 70
     0
300
100:1
140
100.0
141
1.0
290
     0
  0
ENDSEC
  0
EOF
